<?xml version="1.0" standalone="no"?>
<!DOCTYPE svg PUBLIC "-//W3C//DTD SVG 1.1//EN" "http://www.w3.org/Graphics/SVG/1.1/DTD/svg11.dtd" >
<svg xmlns="http://www.w3.org/2000/svg" xmlns:xlink="http://www.w3.org/1999/xlink" version="1.1">
<metadata>
Created by FontForge 20161003 at Sat Nov 12 17:22:17 2016
 By www-data
Copyright (c) 2002, 2005 Parachute :, www.parachute.gr.  All rights reserved.
</metadata>
<defs>
<font id="pfdintextcondprobold" horiz-adv-x="1818" >
  <font-face 
    font-family="pfdintextcondprobold"
    font-weight="700"
    font-stretch="normal"
    units-per-em="1000"
    panose-1="2 0 0 0 0 0 0 0 0 0"
    ascent="750"
    descent="-250"
    x-height="494"
    cap-height="696"
    bbox="-223 -295 1760 951"
    underline-thickness="50"
    underline-position="-150"
    unicode-range="U+0020-FB05"
  />
<missing-glyph horiz-adv-x="449" 
d="M0 699h449v-699h-449v699zM329 82l-104 191l-105 -191h209zM329 617h-210l106 -190zM81 170l98 180l-98 180v-360zM368 171v358l-97 -180z" />
    <glyph glyph-name="fj" unicode="fj" horiz-adv-x="532" 
d="M68 494v63q0 48 16 82t43.5 55.5t64 31.5t77.5 10q47 0 96.5 -13t89.5 -52l-75 -99q-20 20 -47 29t-56 9q-23 0 -37 -7t-21.5 -17t-9.5 -21t-2 -19v-52h268v-538q0 -77 -44.5 -115.5t-130.5 -38.5h-35v126h21q32 0 40.5 16t8.5 44v398h-128v-386h-139v386h-50v108h50z
" />
    <glyph glyph-name="ffj" unicode="ffj" horiz-adv-x="800" 
d="M474 494h268v-538q0 -43 -11.5 -72.5t-34 -47.5t-55 -26t-73.5 -8h-36v126h21q32 0 40.5 16.5t8.5 44.5v397h-128v-386h-139v386h-129v-386h-140v386h-50v108h50v39q0 48 16 82t44 55.5t64.5 31.5t77.5 10q28 0 59 -5.5t60 -19.5q28 26 66.5 37.5t82.5 11.5
q47 0 97 -13.5t88 -51.5q-18 -25 -37 -49t-37 -49q-43 36 -103 36q-23 0 -37 -7t-21.5 -17t-9.5 -21t-2 -19v-51zM276 585q-24 0 -37.5 -7t-21 -17t-9.5 -21t-2 -19v-27h129v80q-14 6 -29.5 8.5t-29.5 2.5z" />
    <glyph glyph-name="ff" unicode="ff" horiz-adv-x="570" 
d="M271 719q24 0 51 -4t53 -14q20 20 47 30t59 10h83v-122h-51q-17 0 -27 -10.5t-10 -28.5v-85h84v-109h-84v-386h-139v386h-128v-386h-140v386h-50v109h50v40q0 48 15.5 82.5t43 57t64.5 33.5t79 11zM337 495v88q-16 5 -29.5 7t-28.5 2q-24 0 -38 -7t-21 -17t-9 -21t-2 -19
v-33h128z" />
    <glyph glyph-name="fi" unicode="fi" horiz-adv-x="532" 
d="M68 494v63q0 48 16 82t43.5 55.5t64 31.5t77.5 10q47 0 98 -13t88 -52l-75 -99q-20 20 -47 29t-56 9q-23 0 -37 -7t-21.5 -17t-9.5 -21t-2 -19v-52h268v-494h-140v386h-128v-386h-139v386h-50v108h50z" />
    <glyph glyph-name="fl" unicode="fl" horiz-adv-x="551" 
d="M494 -2q-35 0 -63.5 7t-49 24.5t-31.5 46t-11 71.5v451q-21 6 -34.5 7.5t-27.5 1.5q-23 0 -37 -7t-21.5 -17t-9.5 -21.5t-2 -19.5v-48h89v-108h-89v-386h-139v386h-50v108h50v60q0 48 14.5 82t40.5 55.5t62 31.5t78 10q10 0 30.5 -0.5t48.5 -4t63 -10.5t74 -20v-529
q0 -29 11 -38t28 -9h14v-124h-38z" />
    <glyph glyph-name="ffi" unicode="ffi" horiz-adv-x="795" 
d="M603 0v386h-128v-386h-139v386h-129v-386h-140v386h-50v108h50v39q0 48 16 82t44 55.5t64.5 31.5t77.5 10q28 0 59 -5.5t60 -19.5q28 26 66.5 37.5t82.5 11.5q47 0 97 -13.5t88 -51.5q-18 -25 -37 -49t-37 -49q-43 36 -103 36q-23 0 -37 -7t-21.5 -17t-9.5 -21t-2 -19
v-51h268v-494h-140zM277 585q-24 0 -37.5 -7t-21 -17t-9.5 -21t-2 -19v-27h129v80q-14 6 -29.5 8.5t-29.5 2.5z" />
    <glyph glyph-name="ffl" unicode="ffl" horiz-adv-x="806" 
d="M336 494v51t1 28q-29 13 -60 13q-23 0 -37 -7t-21.5 -17t-9.5 -21t-2 -19v-28h129zM538 736q11 0 32 -1t48.5 -5t60.5 -10.5t68 -18.5v-532q0 -29 11 -38t28 -9h14v-124h-38q-35 0 -63.5 7t-49 24.5t-31.5 46t-11 71.5v454q-21 6 -34.5 7.5t-25.5 1.5q-24 0 -38 -7
t-21.5 -17t-9.5 -21t-2 -19v-52h85v-108h-85v-386h-140v386h-129v-386h-139v386h-50v108h50v39q0 48 15.5 82t42.5 55.5t63.5 31.5t77.5 10q28 0 60 -5t62 -19q28 25 66.5 36.5t82.5 11.5z" />
    <glyph glyph-name="ft" unicode="ft" horiz-adv-x="569" 
d="M471 386v-213q0 -25 8 -37t35 -12h22v-124h-67q-66 0 -100 37.5t-34 92.5v256h-128v-386h-139v386h-50v109h50v87q0 37 11.5 64.5t31 45t46 26t55.5 8.5h78v-122h-46q-17 0 -27 -10.5t-10 -28.5v-70h129v134h134v-133h65v-110h-64z" />
    <glyph glyph-name=".notdef" horiz-adv-x="449" 
d="M0 699h449v-699h-449v699zM329 82l-104 191l-105 -191h209zM329 617h-210l106 -190zM81 170l98 180l-98 180v-360zM368 171v358l-97 -180z" />
    <glyph glyph-name=".null" horiz-adv-x="0" 
 />
    <glyph glyph-name="nonmarkingreturn" horiz-adv-x="333" 
 />
    <glyph glyph-name="space" unicode=" " horiz-adv-x="248" 
 />
    <glyph glyph-name="exclam" unicode="!" horiz-adv-x="285" 
d="M200 197h-114l-13 499h139zM74 0v133h138v-133h-138z" />
    <glyph glyph-name="quotedbl" unicode="&#x22;" horiz-adv-x="360" 
d="M201 473v223h109v-223h-109zM47 473v223h107v-223h-107z" />
    <glyph glyph-name="numbersign" unicode="#" horiz-adv-x="511" 
d="M13 301h85q4 26 8 49.5t9 49.5h-70v97h85q8 50 16 99t16 99h108l-32 -198h77l33 198h108l-33 -198h73v-97h-88l-16 -99h73v-96h-89q-8 -52 -16 -103l-16 -102h-109l33 205h-77l-33 -205h-110l34 205h-69v96zM206 301h78q4 26 8 49.5t9 49.5h-78z" />
    <glyph glyph-name="dollar" unicode="$" horiz-adv-x="490" 
d="M469 206q0 -94 -51.5 -148.5t-147.5 -61.5v-90h-46v90q-75 4 -124 39.5t-86 95.5l115 74q41 -62 95 -72v157q-49 18 -84 37t-57.5 43t-33.5 55t-11 73t13.5 77.5t38 62.5t58.5 43.5t76 20.5v65h46v-65q65 -5 110 -35t74 -76l-99 -80q-20 23 -41 35t-44 17v-135
q54 -23 92 -44.5t62 -47t34.5 -57t10.5 -73.5zM324 200q0 26 -15 43t-39 29v-138q30 5 42 23.5t12 42.5zM177 505q0 -18 12.5 -31.5t34.5 -24.5v114q-21 -5 -34 -20.5t-13 -37.5z" />
    <glyph glyph-name="percent" unicode="%" horiz-adv-x="770" 
d="M239 -17h-91l370 730h92zM307 391q0 -27 -10.5 -48t-28.5 -35.5t-41.5 -22.5t-49.5 -8t-49.5 8t-41 22.5t-28 35.5t-10.5 48v196q0 27 10.5 48t28.5 36t41 22.5t49 7.5q27 0 50.5 -7.5t41 -22.5t28 -36t10.5 -48v-196zM204 584q0 12 -7 19.5t-21 7.5q-13 0 -20 -7.5
t-7 -19.5v-190q0 -11 7.5 -18.5t20.5 -7.5q12 0 19.5 7.5t7.5 18.5v190zM722 111q0 -27 -10.5 -48t-28.5 -35.5t-41.5 -22.5t-49.5 -8t-49.5 8t-41 22.5t-28 35.5t-10.5 48v196q0 27 10.5 48t28.5 36t41 22.5t49 7.5q27 0 50.5 -7.5t41 -22.5t28 -36t10.5 -48v-196zM619 304
q0 12 -7 19.5t-21 7.5q-13 0 -20 -7.5t-7 -19.5v-190q0 -11 7.5 -18.5t20.5 -7.5q12 0 19.5 7.5t7.5 18.5v190z" />
    <glyph glyph-name="ampersand" unicode="&#x26;" horiz-adv-x="581" 
d="M384 46q-32 -27 -69.5 -39.5t-76.5 -12.5q-45 0 -79.5 14.5t-58 40t-35 60t-11.5 73.5q0 61 26 109t77 90q-27 40 -43.5 74.5t-16.5 76.5q0 37 12 68t34.5 53.5t55 35t73.5 12.5q51 0 99 -19t86 -70l-92 -82q-24 29 -45.5 39t-41.5 10q-24 0 -36 -14.5t-12 -32.5t8 -37.5
t24 -44.5l126 -190q5 16 9.5 40t6.5 44l120 -17q-4 -47 -18.5 -96t-35.5 -85q4 -8 18.5 -29t31 -44t31 -44t19.5 -29h-155zM226 277q-20 -20 -31.5 -42t-11.5 -48q0 -29 16 -49t48 -20q19 0 37 7.5t32 18.5z" />
    <glyph glyph-name="quotesingle" unicode="'" horiz-adv-x="230" 
d="M63 473v223h107v-223h-107z" />
    <glyph glyph-name="parenleft" unicode="(" horiz-adv-x="335" 
d="M237 -128q-38 46 -70 96.5t-56 105.5t-37.5 113t-13.5 119q0 63 13.5 121.5t36.5 112.5t54 103t66 93l86 -48q-30 -45 -52.5 -93t-37.5 -96.5t-22.5 -96t-7.5 -91.5q0 -48 8 -98t23.5 -99.5t37.5 -97t50 -89.5z" />
    <glyph glyph-name="parenright" unicode=")" horiz-adv-x="335" 
d="M311 306q0 -61 -13.5 -119t-37.5 -113t-56.5 -105.5t-69.5 -96.5l-79 55q28 42 50.5 89.5t38 97t23.5 99.5t8 98q0 44 -7.5 91.5t-23 96t-38 96.5t-52.5 93l86 48q35 -44 66 -93t54.5 -103t37 -112.5t13.5 -121.5z" />
    <glyph glyph-name="asterisk" unicode="*" horiz-adv-x="429" 
d="M358 404l-81 -58l-61 104l-64 -104l-80 58l80 93l-114 29l30 92l110 -45l-12 121h101l-12 -121l109 45l31 -92l-117 -29z" />
    <glyph glyph-name="plus" unicode="+" horiz-adv-x="490" 
d="M303 241v-168h-117v168h-167v114h167v167h117v-167h167v-114h-167z" />
    <glyph glyph-name="comma" unicode="," horiz-adv-x="267" 
d="M55 -152l36 150h-33v160h153v-155l-81 -155h-75z" />
    <glyph glyph-name="hyphen" unicode="-" horiz-adv-x="412" 
d="M48 204v125h321v-125h-321z" />
    <glyph glyph-name="period" unicode="." horiz-adv-x="263" 
d="M56 0v158h152v-158h-152z" />
    <glyph glyph-name="slash" unicode="/" horiz-adv-x="329" 
d="M102 -42h-110l220 767h111z" />
    <glyph glyph-name="zero" unicode="0" horiz-adv-x="490" 
d="M443 179q0 -44 -15.5 -78t-41.5 -57.5t-60.5 -36t-73.5 -12.5t-74 12.5t-61 36t-41.5 57.5t-15.5 78v337q0 44 15.5 78.5t42 58t61 36t73.5 12.5t74 -12.5t61 -36t41 -58t15 -78.5v-337zM303 516q0 26 -14.5 39t-36.5 13q-23 0 -37.5 -13t-14.5 -39v-336q0 -26 14.5 -39
t37.5 -13q22 0 36.5 13t14.5 39v336z" />
    <glyph glyph-name="one" unicode="1" horiz-adv-x="490" 
d="M224 0v534l-98 -72v152l112 82h126v-696h-140z" />
    <glyph glyph-name="two" unicode="2" horiz-adv-x="490" 
d="M41 503q3 48 19.5 85t43 62t61 38t72.5 13q93 0 144.5 -47.5t51.5 -137.5q0 -43 -11.5 -78t-34.5 -71l-162 -232h203v-135h-383v122l225 318q11 17 15 34t4 36q0 21 -12.5 39.5t-38.5 18.5q-20 0 -38 -18t-21 -67z" />
    <glyph glyph-name="three" unicode="3" horiz-adv-x="490" 
d="M369 361q27 -18 42 -36.5t22.5 -39t9.5 -42.5t2 -46q0 -45 -14 -82.5t-40.5 -64t-65 -41t-86.5 -14.5q-41 0 -75.5 11t-61 34t-42.5 58.5t-20 84.5l138 18q0 -22 5.5 -36t14 -22.5t19 -11.5t21.5 -3q23 0 41 17t18 59q0 50 -15.5 74t-57.5 24h-45v114h50q38 0 53.5 21
t15.5 57q0 12 -3 25t-9.5 23.5t-17 17.5t-25.5 7q-19 0 -36.5 -15t-21.5 -62l-136 21q4 45 22 80.5t44.5 60t60.5 37t72 12.5q59 0 97 -18t59.5 -46.5t30 -64.5t8.5 -72q0 -18 -4 -38.5t-13 -40t-23 -35.5t-34 -25z" />
    <glyph glyph-name="four" unicode="4" horiz-adv-x="490" 
d="M414 97v-97h-139v97h-249v114l195 485h148l-188 -468h94v153h139v-153h48v-131h-48z" />
    <glyph glyph-name="five" unicode="5" horiz-adv-x="490" 
d="M209 449q20 17 44.5 21.5t36.5 4.5q43 0 72.5 -15.5t48 -45t26.5 -71.5t8 -94q0 -59 -10.5 -106t-33.5 -80t-60 -50.5t-90 -17.5q-41 0 -76 9t-61 33t-41.5 64.5t-16.5 103.5h140q1 -45 16 -60t38 -15q33 0 42.5 32.5t9.5 80.5q0 22 -1.5 42t-7 34t-16 22.5t-28.5 8.5
q-13 0 -29.5 -9t-26.5 -38h-123v393h362v-131h-228v-116h5z" />
    <glyph glyph-name="six" unicode="6" horiz-adv-x="490" 
d="M277 409q8 3 19 4.5t17 1.5q25 0 49 -10.5t42.5 -34t30 -60t11.5 -88.5q0 -109 -48 -168t-150 -59q-92 0 -140.5 50t-48.5 166q0 36 7 73t18 61l158 351h156q-32 -71 -61 -143t-63 -141zM254 303q-26 0 -40 -20t-14 -68t11.5 -67.5t38.5 -19.5q32 0 42.5 23.5t10.5 75.5
q0 42 -12 59t-37 17z" />
    <glyph glyph-name="seven" unicode="7" horiz-adv-x="490" 
d="M228 0h-145l200 563h-94v-80h-135v213h385v-120z" />
    <glyph glyph-name="eight" unicode="8" horiz-adv-x="490" 
d="M377 360q22 -9 36 -26.5t22 -39t11 -44.5t3 -44q0 -58 -16 -98t-43.5 -65t-64 -36.5t-76.5 -11.5t-76 11.5t-63 36.5t-42.5 65t-15.5 98q0 20 3 42.5t11 43.5t22 39t37 29v5q-20 9 -32.5 24.5t-20 33.5t-10.5 38t-3 39q0 44 12 81t36 63.5t59.5 41.5t82.5 15
q91 0 142.5 -49t51.5 -152q0 -20 -3 -40t-10.5 -38t-20.5 -33t-33 -24zM251 420q28 0 40 20.5t12 57.5q0 33 -12.5 51.5t-39.5 18.5q-26 0 -38.5 -19.5t-12.5 -52.5q0 -42 12.5 -59t38.5 -17zM250 128q32 0 45.5 25t13.5 67q0 38 -14 59t-45 21q-29 0 -43 -22.5t-14 -59.5
q0 -49 14 -69.5t43 -20.5z" />
    <glyph glyph-name="nine" unicode="9" horiz-adv-x="490" 
d="M225 287q-8 -3 -17 -4.5t-15 -1.5q-63 0 -99.5 45.5t-36.5 148.5q0 109 46 167.5t148 58.5q53 0 89.5 -14.5t59.5 -42t33.5 -67t10.5 -89.5q0 -18 -2 -38t-5.5 -38.5t-8.5 -35t-10 -26.5l-157 -350h-156l123 284zM247 393q28 0 41 20t15 68q0 45 -11 66t-38 21
q-32 0 -43 -24.5t-11 -79.5q0 -38 11.5 -54.5t35.5 -16.5z" />
    <glyph glyph-name="colon" unicode=":" horiz-adv-x="266" 
d="M57 0v158h152v-158h-152zM57 264v157h152v-157h-152z" />
    <glyph glyph-name="semicolon" unicode=";" horiz-adv-x="269" 
d="M59 264v157h152v-157h-152zM56 -152l36 150h-33v160h153v-155l-81 -155h-75z" />
    <glyph glyph-name="less" unicode="&#x3c;" horiz-adv-x="490" 
d="M18 249v102l452 207v-132l-300 -127l298 -126v-132z" />
    <glyph glyph-name="equal" unicode="=" horiz-adv-x="490" 
d="M18 346v111h452v-111h-452zM18 142v111h452v-111h-452z" />
    <glyph glyph-name="greater" unicode="&#x3e;" horiz-adv-x="490" 
d="M21 41v132l299 126l-301 127v132l452 -207v-102z" />
    <glyph glyph-name="question" unicode="?" horiz-adv-x="469" 
d="M437 509q0 -44 -11 -71.5t-28 -52.5q-13 -19 -27.5 -37t-27 -37.5t-21 -41.5t-8.5 -47v-30h-140v33q0 41 6.5 68.5t25.5 57.5q14 23 28 44t25.5 40.5t18.5 38t7 36.5q0 8 -2.5 18t-8.5 18.5t-16.5 14.5t-27.5 6q-25 0 -42.5 -19t-18.5 -65q-35 5 -69.5 8.5t-69.5 7.5
q3 49 20.5 86.5t45 63t64 39t78.5 13.5q98 0 148.5 -52.5t50.5 -139.5zM175 0v133h138v-133h-138z" />
    <glyph glyph-name="at" unicode="@" horiz-adv-x="866" 
d="M581 260q0 -15 10.5 -27.5t27.5 -12.5q41 0 63 40.5t22 122.5q0 57 -18 104.5t-51.5 81t-81.5 52t-107 18.5q-69 0 -122 -25t-90 -67t-56 -97.5t-19 -116.5q0 -71 21 -127t59.5 -95.5t91.5 -60.5t117 -21q59 0 105 12t96 38l36 -86q-58 -25 -113 -39t-119 -14
q-84 0 -156 24.5t-124 74t-81.5 123.5t-29.5 172q0 84 27.5 155.5t78 124.5t121 83t157.5 30q85 0 151.5 -26t112 -71.5t69 -108.5t23.5 -137q0 -58 -13.5 -105.5t-38.5 -81t-62 -52t-83 -18.5q-11 0 -26 3t-30.5 10t-29.5 18t-21 27l-4 1q-16 -25 -45 -40.5t-61 -15.5
q-60 0 -92.5 33.5t-32.5 91.5q0 26 8.5 49t26 40.5t44 27.5t62.5 10h66v21q0 14 -9.5 27.5t-42.5 13.5q-21 0 -35.5 -7.5t-28.5 -27.5l-80 52q24 45 64.5 65t90.5 20q32 0 60 -6.5t48.5 -22t32.5 -41t12 -62.5v-2zM470 302h-51q-23 0 -33 -10.5t-10 -28.5q0 -12 9 -23.5
t34 -11.5q21 0 36 12t15 36v26z" />
    <glyph glyph-name="A" unicode="A" horiz-adv-x="555" 
d="M359 142h-165q-9 -35 -18.5 -71t-19.5 -71h-153l201 696h144l201 -696h-156zM246 371l-20 -100h100l-19 99l-28 139h-5z" />
    <glyph glyph-name="B" unicode="B" horiz-adv-x="542" 
d="M502 212q0 -51 -15 -90.5t-42 -66.5t-65 -41t-84 -14h-235v696h225q102 0 155 -52t53 -144q0 -39 -19 -77.5t-63 -56.5v-5q24 -8 41 -24t28 -36.5t16 -43.5t5 -45zM352 495q0 35 -17 52t-58 17h-71v-141h72q40 0 57 20t17 52zM361 220q0 35 -17.5 56t-56.5 21h-81v-160
h80q43 0 59 24t16 59z" />
    <glyph glyph-name="C" unicode="C" horiz-adv-x="514" 
d="M486 167q-15 -81 -74 -127t-144 -46q-60 0 -102.5 19t-69 51.5t-39 75.5t-12.5 90v248q0 39 12 78.5t38.5 71.5t69 52.5t103.5 20.5q48 0 86 -14.5t65 -38.5t44 -55.5t24 -65.5l-137 -41q-2 10 -6.5 23.5t-14.5 24.5t-25 19t-36 8q-22 0 -37 -7.5t-24 -19t-13 -25
t-4 -25.5v-258q0 -40 17.5 -66t60.5 -26q30 0 53 19.5t27 53.5z" />
    <glyph glyph-name="D" unicode="D" horiz-adv-x="552" 
d="M358 407q0 30 -3 58t-12.5 49.5t-28 34t-49.5 12.5h-60v-427h61q55 0 73.5 28t18.5 77v168zM291 696q70 0 119.5 -26t72.5 -86q14 -35 16.5 -86.5t2.5 -114.5q0 -91 -1 -154.5t-18 -108.5q-13 -35 -33.5 -58t-47.5 -36.5t-58.5 -19.5t-65.5 -6h-217v696h230z" />
    <glyph glyph-name="E" unicode="E" horiz-adv-x="490" 
d="M61 0v696h405v-134h-260v-144h224v-133h-224v-148h260v-137h-405z" />
    <glyph glyph-name="F" unicode="F" horiz-adv-x="480" 
d="M206 562v-147h224v-132h-224v-283h-145v696h405v-134h-260z" />
    <glyph glyph-name="G" unicode="G" horiz-adv-x="539" 
d="M273 701q48 0 86 -14.5t65 -38.5t44 -55.5t24 -65.5l-137 -41q-2 10 -6.5 23.5t-14.5 24.5t-25 19t-36 8q-22 0 -37 -7.5t-24 -19t-13 -25t-4 -25.5v-258q0 -39 17.5 -66t59.5 -27q46 0 64.5 22.5t18.5 54.5v54h-94v123h238v-151q0 -54 -14 -98.5t-42.5 -76.5t-71 -49.5
t-98.5 -17.5q-60 0 -102.5 19t-69 51.5t-39 75.5t-12.5 90v248q0 39 12 78.5t38.5 71.5t69 52.5t103.5 20.5z" />
    <glyph glyph-name="H" unicode="H" horiz-adv-x="567" 
d="M363 0v286h-158v-286h-145v696h145v-278h158v278h143v-696h-143z" />
    <glyph glyph-name="I" unicode="I" horiz-adv-x="268" 
d="M63 0v696h145v-696h-145z" />
    <glyph glyph-name="J" unicode="J" horiz-adv-x="436" 
d="M379 197q0 -54 -16 -92t-43.5 -62.5t-65 -36t-79.5 -11.5q-54 0 -100.5 20t-82.5 68l95 97q9 -14 20 -23.5t22.5 -15.5t22.5 -8.5t19 -2.5q31 0 47.5 20.5t16.5 51.5v494h144v-499z" />
    <glyph glyph-name="K" unicode="K" horiz-adv-x="552" 
d="M210 438q9 13 18 28.5t26 43t45.5 71.5t76.5 115h172l-194 -285q52 -103 104 -205.5t105 -205.5h-164q-35 69 -67.5 138t-67.5 139l-59 -91v-186h-145v696h145v-258h5z" />
    <glyph glyph-name="L" unicode="L" horiz-adv-x="482" 
d="M61 0v696h145v-559h260v-137h-405z" />
    <glyph glyph-name="M" unicode="M" horiz-adv-x="682" 
d="M485 0v328l-4 1l-48 -125l-37 -90h-104l-39 96l-47 120l-4 -1v-329h-144v696h133l81 -194l69 -174h5l67 175l80 193h136v-696h-144z" />
    <glyph glyph-name="N" unicode="N" horiz-adv-x="596" 
d="M412 0l-129 232l-76 147l-3 -1v-378h-145v696h128l114 -208l91 -168l3 1v375h144v-696h-127z" />
    <glyph glyph-name="O" unicode="O" horiz-adv-x="535" 
d="M490 219q0 -52 -16.5 -93.5t-46 -71t-70 -45t-89.5 -15.5q-60 0 -102.5 19t-69.5 51.5t-39.5 75.5t-12.5 90v248q0 39 12 78.5t39 71.5t69.5 52.5t103.5 20.5q57 0 99 -19.5t69 -51t40.5 -71.5t13.5 -81v-259zM344 484q0 10 -3.5 23t-12.5 25t-23.5 20.5t-36.5 8.5
t-37 -7.5t-24.5 -19t-14 -25t-4.5 -25.5v-258q0 -40 18.5 -66t61.5 -26q31 0 53.5 20t22.5 55v275z" />
    <glyph glyph-name="P" unicode="P" horiz-adv-x="519" 
d="M506 476q0 -50 -15 -91t-43 -70t-68 -45t-90 -16h-84v-254h-145v696h221q49 0 90.5 -13t71 -40t46 -68.5t16.5 -98.5zM364 478q0 45 -22 64.5t-60 19.5h-76v-173h77q32 0 56.5 20t24.5 69z" />
    <glyph glyph-name="Q" unicode="Q" horiz-adv-x="542" 
d="M477 -22l-69 56q-55 -40 -135 -40q-60 0 -102.5 19t-69.5 51.5t-39.5 75.5t-12.5 90v248q0 39 12 78.5t39 71.5t69.5 52.5t103.5 20.5q57 0 99 -19.5t69 -51t40.5 -71.5t13.5 -81v-259q0 -60 -21 -106l70 -58zM273 134q8 0 12 1l-24 58l31 36l55 -10l2 -2v267
q0 10 -3.5 23t-12.5 25t-23.5 20.5t-36.5 8.5t-37 -7.5t-24.5 -19t-14 -25t-4.5 -25.5v-258q0 -40 18.5 -66t61.5 -26z" />
    <glyph glyph-name="R" unicode="R" horiz-adv-x="549" 
d="M360 0l-93 275h-61v-275h-145v696h230q44 0 83.5 -12t69 -37t46.5 -63.5t17 -92.5q0 -67 -26 -115t-76 -75l112 -301h-157zM368 490q0 40 -22.5 57t-57.5 17h-82v-157h78q35 0 59.5 18.5t24.5 64.5z" />
    <glyph glyph-name="S" unicode="S" horiz-adv-x="529" 
d="M503 206q0 -100 -61.5 -155.5t-174.5 -55.5q-44 0 -79.5 9t-64 24.5t-51.5 37t-41 47.5l114 92q27 -38 56.5 -56t67.5 -18q46 0 63.5 20t17.5 49q0 20 -9.5 34.5t-26 25.5t-38.5 19t-48 15q-48 15 -82 34t-55.5 43t-31.5 55t-10 70q0 45 16 82.5t45 65t69.5 42.5t89.5 15
q79 0 129.5 -24.5t85.5 -72.5l-104 -98q-50 59 -111 59q-32 0 -52.5 -17t-20.5 -45q0 -15 10 -27t27 -22t40 -19t49 -17q52 -16 87 -36.5t56 -47t29.5 -58.5t8.5 -70z" />
    <glyph glyph-name="T" unicode="T" horiz-adv-x="458" 
d="M299 564v-564h-144v564h-149v132h442v-132h-149z" />
    <glyph glyph-name="U" unicode="U" horiz-adv-x="551" 
d="M499 696v-477q0 -52 -16.5 -93.5t-46 -71t-70 -45t-89.5 -15.5q-60 0 -102.5 19t-69.5 51.5t-39.5 75.5t-12.5 90v466h144v-470q0 -40 18.5 -66t61.5 -26q31 0 53.5 21.5t22.5 56.5v484h146z" />
    <glyph glyph-name="V" unicode="V" horiz-adv-x="527" 
d="M335 0h-144l-189 696h156l65 -289l39 -192h5l37 189l65 292h155z" />
    <glyph glyph-name="W" unicode="W" horiz-adv-x="748" 
d="M373 365q-9 -38 -18 -75.5t-19 -75.5q-12 -54 -27 -108t-28 -107h-130l-147 696h158q11 -64 22 -126.5t21 -125.5q6 -35 11 -69.5t11 -69.5h4q11 48 21 96.5t21 96.5l45 198h113q12 -50 23.5 -99.5t22.5 -99.5q11 -49 21.5 -98t21.5 -98h5q5 35 10 69t10 69l41 257h158
l-147 -696h-130q-13 54 -27 108.5t-27 108.5l-36 149h-4z" />
    <glyph glyph-name="X" unicode="X" horiz-adv-x="540" 
d="M167 0h-166l190 359l-178 337h167q22 -48 43.5 -96t43.5 -95l90 191h167l-180 -337l192 -359h-167l-100 212z" />
    <glyph glyph-name="Y" unicode="Y" horiz-adv-x="510" 
d="M327 279v-279h-142v279l-180 419h161l46 -142l41 -133h6l43 134l51 139h154z" />
    <glyph glyph-name="Z" unicode="Z" horiz-adv-x="455" 
d="M25 0v126l236 438h-225v132h394v-122l-235 -437h235v-137h-405z" />
    <glyph glyph-name="bracketleft" unicode="[" horiz-adv-x="287" 
d="M64 -98v796h206v-102h-77v-593h77v-101h-206z" />
    <glyph glyph-name="backslash" unicode="\" horiz-adv-x="329" 
d="M-3 725h111l220 -767h-110z" />
    <glyph glyph-name="bracketright" unicode="]" horiz-adv-x="287" 
d="M17 -99v101h76v594h-76v102h205v-797h-205z" />
    <glyph glyph-name="asciicircum" unicode="^" horiz-adv-x="490" 
d="M144 271h-131l180 424h102l90 -212t91 -212h-131l-100 263z" />
    <glyph glyph-name="underscore" unicode="_" horiz-adv-x="500" 
d="M0 -160v91h500v-91h-500z" />
    <glyph glyph-name="grave" unicode="`" horiz-adv-x="451" 
d="M261 534l-141 181l121 50l97 -190z" />
    <glyph glyph-name="a" unicode="a" horiz-adv-x="462" 
d="M281 0v40l-4 1q-19 -25 -48 -35.5t-52 -10.5q-73 0 -109 39t-36 114q0 31 10.5 58.5t31.5 48.5t52.5 33t74.5 12h80v29q0 16 -12 32t-46 16q-26 0 -46 -8.5t-34 -32.5l-101 64q28 55 75.5 77.5t109.5 22.5q42 0 78 -8t61.5 -26.5t40 -49t14.5 -76.5v-340h-140zM281 202
h-61q-28 0 -40 -12t-12 -32q0 -14 11.5 -27.5t41.5 -13.5q24 0 42 14t18 41v30z" />
    <glyph glyph-name="b" unicode="b" horiz-adv-x="467" 
d="M236 370q-18 0 -28 -12t-15 -30.5t-6 -40.5t-1 -42q0 -58 9 -88.5t42 -30.5q17 0 27 10t15.5 27t7.5 41t2 51q0 20 -1.5 40.5t-7 37t-16 27t-28.5 10.5zM186 37v-37h-140v726h140v-268l4 -1q7 10 18 18t23.5 14t25 9t22.5 3q54 0 85 -23t46 -59.5t19 -81t4 -86.5
q0 -40 -4 -85.5t-20 -83.5t-47.5 -63.5t-86.5 -25.5q-22 0 -45.5 12t-40.5 34z" />
    <glyph glyph-name="c" unicode="c" horiz-adv-x="422" 
d="M222 501q63 0 110 -29t67 -86l-118 -57q-11 24 -23 34t-29 10q-38 0 -48.5 -35t-10.5 -93q0 -63 11.5 -92.5t47.5 -29.5q18 0 30 10.5t23 32.5l118 -58q-20 -55 -66.5 -84t-109.5 -29q-56 0 -93.5 18.5t-60 52t-32 79.5t-9.5 100t9.5 101t32 81.5t59.5 54t92 19.5z" />
    <glyph glyph-name="d" unicode="d" horiz-adv-x="467" 
d="M233 370q-18 0 -28.5 -10.5t-15.5 -27t-6.5 -37t-1.5 -40.5q0 -27 2 -51t7.5 -41t15.5 -27t27 -10q33 0 42 30.5t9 88.5q0 20 -1 42t-6.5 40.5t-15.5 30.5t-28 12zM281 37q-17 -22 -41.5 -32t-46.5 -10q-56 0 -87.5 23t-46.5 59.5t-18.5 82.5t-3.5 91t5.5 89.5t22.5 80
t48 58t82 22.5q19 0 45 -11.5t40 -30.5l4 1v266h140v-726h-140v35z" />
    <glyph glyph-name="e" unicode="e" horiz-adv-x="464" 
d="M421 104q-26 -56 -77 -82.5t-111 -26.5q-55 0 -92.5 17t-61 49.5t-33.5 79t-10 106.5q0 58 10 105t33 80t61 51t95 18q60 0 98 -20t59.5 -53.5t29.5 -78.5t8 -96v-39h-252v-8q0 -17 2 -32t8 -26.5t16.5 -18t27.5 -6.5q21 0 38 9.5t34 34.5zM283 302q0 13 -2 26t-7.5 23
t-16 16t-27.5 6q-14 0 -24 -6.5t-16 -16.5t-8.5 -23t-3.5 -25h105z" />
    <glyph glyph-name="f" unicode="f" horiz-adv-x="295" 
d="M206 386v-386h-139v386h-50v109h50v87q0 37 11.5 64.5t31 45t46 26t55.5 8.5h78v-122h-46q-17 0 -27 -10.5t-10 -28.5v-70h84v-109h-84z" />
    <glyph glyph-name="g" unicode="g" horiz-adv-x="467" 
d="M419 -7q0 -45 -12.5 -81.5t-37.5 -62.5t-62.5 -40.5t-86.5 -14.5q-111 0 -177 78l98 91q34 -42 79 -42q24 0 41.5 14t17.5 39v72l-4 1q-7 -10 -18 -18t-23.5 -14t-25 -9.5t-22.5 -3.5q-54 0 -85 22.5t-46.5 57.5t-19 79t-3.5 86q0 40 4 84.5t19.5 82t46.5 62t85 24.5
q22 0 47 -11t42 -33l3 2v37h140v-502zM226 134q18 0 28.5 11t16 28t7 38.5t1.5 41.5q0 58 -10 87t-43 29q-17 0 -27 -9.5t-15.5 -26t-7.5 -40t-2 -50.5q0 -20 1.5 -39.5t6.5 -35t15.5 -25t28.5 -9.5z" />
    <glyph glyph-name="h" unicode="h" horiz-adv-x="482" 
d="M294 0v313q0 29 -14.5 42.5t-34.5 13.5q-22 0 -37 -14.5t-15 -42.5v-312h-140v726h140v-268l5 -1q17 17 41.5 30t50.5 13q69 0 106.5 -42.5t37.5 -111.5v-346h-140z" />
    <glyph glyph-name="i" unicode="i" horiz-adv-x="253" 
d="M57 569v127h140v-127h-140zM57 0v495h140v-495h-140z" />
    <glyph glyph-name="j" unicode="j" horiz-adv-x="256" 
d="M59 569v127h140v-127h-140zM199 -44q0 -76 -47.5 -115t-127.5 -39h-35v126h25q28 0 36.5 20t8.5 45v503h140v-540z" />
    <glyph glyph-name="k" unicode="k" horiz-adv-x="483" 
d="M195 351l106 143h177l-161 -196l170 -298h-168l-97 184l-30 -41v-143h-139v724h139v-373h3z" />
    <glyph glyph-name="l" unicode="l" horiz-adv-x="260" 
d="M194 -2q-70 0 -108 31.5t-38 108.5v588h140v-557q0 -29 10.5 -38t30.5 -9h16v-124h-51z" />
    <glyph glyph-name="m" unicode="m" horiz-adv-x="728" 
d="M532 500q42 0 70 -14.5t44.5 -39.5t23 -57t6.5 -67v-322h-140v314q0 29 -14.5 42.5t-34.5 13.5q-22 0 -37 -14t-15 -41v-315h-140v314q0 29 -14.5 42.5t-34.5 13.5q-22 0 -37 -14.5t-15 -42.5v-313h-140v495h140v-44l5 -1q17 21 44.5 35.5t52.5 14.5q43 0 71.5 -16.5
t46.5 -47.5q23 28 53.5 46t64.5 18z" />
    <glyph glyph-name="n" unicode="n" horiz-adv-x="482" 
d="M292 0v313q0 29 -14.5 42.5t-34.5 13.5q-22 0 -37 -14.5t-15 -42.5v-312h-140v495h140v-40l4 -1q17 20 42.5 33t51.5 13q75 0 109 -41t34 -111v-348h-140z" />
    <glyph glyph-name="o" unicode="o" horiz-adv-x="459" 
d="M234 502q69 0 109.5 -27t57.5 -68q14 -32 18 -72.5t4 -88.5q0 -53 -5.5 -92t-19.5 -68q-26 -53 -71.5 -73t-102.5 -20q-51 0 -86.5 16t-58.5 45q-24 32 -33.5 79t-9.5 113q1 42 5 84.5t15 68.5q21 48 64.5 75.5t113.5 27.5zM232 373q-33 0 -47 -35q-6 -17 -8 -39.5
t-2 -54.5q0 -25 1.5 -48t8.5 -40q12 -34 45 -34q7 0 14.5 1.5t14.5 7t12.5 16t8.5 27.5q2 14 3.5 34.5t1.5 47.5q0 52 -10 81q-13 36 -43 36z" />
    <glyph glyph-name="p" unicode="p" horiz-adv-x="467" 
d="M240 125q18 0 28.5 11.5t16 29t7 39t1.5 41.5q0 27 -1.5 50t-7 39t-15.5 25t-27 9q-33 0 -43.5 -31t-10.5 -89q0 -20 1.5 -42t6.5 -40t15.5 -30t28.5 -12zM191 458q17 22 41.5 32t46.5 10q55 0 86 -25t46.5 -63t19.5 -83t4 -85q0 -45 -5 -89.5t-21.5 -80t-47.5 -58
t-83 -22.5q-10 0 -22 3t-24 8.5t-22.5 13t-17.5 17.5l-4 -1v-236h-140v696h140v-35z" />
    <glyph glyph-name="q" unicode="q" horiz-adv-x="467" 
d="M233 124q18 0 28.5 12t16 30.5t7 40.5t1.5 42q0 58 -10 88t-43 30q-17 0 -27 -9.5t-15.5 -27t-7.5 -41t-2 -50.5q0 -20 1.5 -40.5t7 -37t16 -27t27.5 -10.5zM286 457v37h140v-695h-140v237l-4 1q-7 -10 -18 -18t-23.5 -14t-25 -9t-22.5 -3q-51 0 -81.5 21t-47 56
t-21.5 80t-5 93q0 43 5 88t21 82.5t47 61.5t84 24q22 0 46.5 -11t41.5 -33z" />
    <glyph glyph-name="r" unicode="r" horiz-adv-x="364" 
d="M277 369q-37 0 -59 -19.5t-22 -64.5v-286h-141v496h139v-55l3 -1q19 33 47 47t61 14q16 0 30.5 -3t27.5 -12l-25 -130q-17 8 -32 11t-29 3z" />
    <glyph glyph-name="s" unicode="s" horiz-adv-x="442" 
d="M418 153q0 -71 -52.5 -114.5t-144.5 -43.5q-68 0 -114.5 20.5t-81.5 68.5l97 82q19 -28 42.5 -39t52.5 -11q28 0 43 12t15 26q0 17 -11 25.5t-37 13.5q-33 6 -67 15.5t-61 26.5t-44.5 43.5t-17.5 67.5q0 36 15 64.5t40.5 48.5t59 30.5t71.5 10.5q67 0 110.5 -20t75.5 -55
l-84 -88q-19 22 -41.5 32t-54.5 10q-29 0 -40 -10t-11 -20q0 -9 6 -15t16 -10t21.5 -7t23.5 -5q34 -7 65.5 -17t55.5 -28t38 -45.5t14 -68.5z" />
    <glyph glyph-name="t" unicode="t" horiz-adv-x="305" 
d="M209 386v-213q0 -25 8.5 -37t35.5 -12h21v-124h-66q-66 0 -100.5 37.5t-34.5 92.5v256h-49v110h50v133h134v-133h66v-110h-65z" />
    <glyph glyph-name="u" unicode="u" horiz-adv-x="482" 
d="M192 495v-313q0 -29 14.5 -42.5t34.5 -13.5q22 0 37 14.5t15 42.5v312h140v-495h-140v40l-4 1q-17 -20 -42.5 -33t-51.5 -13q-75 0 -109 41t-34 111v348h140z" />
    <glyph glyph-name="v" unicode="v" horiz-adv-x="453" 
d="M230 191q5 28 11 55.5t12 55.5q10 48 21.5 96t22.5 96h151l-155 -494h-134q-38 125 -77 247t-78 247h153q12 -48 22.5 -94.5t21.5 -94.5l24 -114h5z" />
    <glyph glyph-name="w" unicode="w" horiz-adv-x="668" 
d="M529 0h-136l-27 111l-30 135h-4l-30 -134l-28 -112h-135l-132 495h149l26 -147l26 -141h5l30 141l30 147h122l31 -148l32 -140h5l26 142l25 146h146z" />
    <glyph glyph-name="x" unicode="x" horiz-adv-x="469" 
d="M164 0h-161l153 252l-147 243h162l62 -134h1l62 134h160l-149 -243l156 -252h-162q-17 35 -34 71t-34 71z" />
    <glyph glyph-name="y" unicode="y" horiz-adv-x="442" 
d="M254 -87q-19 -60 -58 -86.5t-95 -26.5h-49v120h29q41 0 56 51l16 55l-152 469h150l34 -160l31 -137h5l32 136l40 161h146z" />
    <glyph glyph-name="z" unicode="z" horiz-adv-x="407" 
d="M28 0v120l184 253h-171v122h337v-113l-185 -254h185v-128h-350z" />
    <glyph glyph-name="braceleft" unicode="{" horiz-adv-x="287" 
d="M139 303q31 -17 49.5 -45t18.5 -76v-118q0 -12 1 -23.5t4.5 -20.5t11 -14.5t20.5 -5.5h32v-98h-83q-48 0 -81 33t-33 90v142q0 45 -18 66t-50 22v93q33 2 50.5 22.5t17.5 65.5v137q0 57 33 90t81 33h83v-99h-32q-16 0 -26.5 -14t-10.5 -37v-126q0 -44 -19.5 -73.5
t-48.5 -43.5z" />
    <glyph glyph-name="bar" unicode="|" horiz-adv-x="259" 
d="M71 -195v925h116v-925h-116z" />
    <glyph glyph-name="braceright" unicode="}" horiz-adv-x="287" 
d="M149 303q-29 14 -48.5 43.5t-19.5 73.5v126q0 23 -10.5 37t-26.5 14h-32v99h83q48 0 81 -33t33 -90v-137q0 -45 17.5 -65.5t50.5 -22.5v-93q-32 -1 -50 -22t-18 -66v-142q0 -57 -33 -90t-81 -33h-83v98h32q13 0 20.5 5.5t11 14.5t4.5 20.5t1 23.5v118q0 48 18.5 76
t49.5 45z" />
    <glyph glyph-name="asciitilde" unicode="~" horiz-adv-x="490" 
d="M171 371q21 0 41.5 -8.5t38.5 -18.5t34 -18t30 -8q35 0 76 54l75 -45q-29 -64 -62.5 -92t-71.5 -28q-22 0 -43 8t-40 18t-36.5 18t-32.5 8q-19 0 -38.5 -11t-43.5 -43l-73 45q28 59 61.5 90t84.5 31z" />
    <glyph glyph-name="exclamdown" unicode="&#xa1;" horiz-adv-x="285" 
d="M85 298h118l10 -499h-138zM212 495v-133h-137v133h137z" />
    <glyph glyph-name="cent" unicode="&#xa2;" horiz-adv-x="490" 
d="M236 -4q-51 3 -85 22.5t-54.5 52.5t-29 77.5t-8.5 96.5t8.5 97.5t29 79.5t54.5 54.5t85 23.5v82h34v-82q57 -4 99 -33t60 -81l-118 -57q-10 20 -19 30t-22 13v-248q23 5 42 42l118 -58q-19 -52 -61 -80.5t-99 -31.5v-94h-34v94zM200 245q0 -51 7 -80t29 -38v241
q-23 -11 -29.5 -43t-6.5 -80z" />
    <glyph glyph-name="sterling" unicode="&#xa3;" horiz-adv-x="490" 
d="M257 568q-18 0 -38 -15t-20 -43q0 -15 4.5 -30.5t11 -32t13 -35.5t11.5 -41h120v-103h-119q-6 -83 -36 -143h241v-125h-412v110q27 36 42 72t19 86h-64v103h57q-11 40 -23 74t-12 73q0 38 13 71.5t38.5 58t63 39t85.5 14.5q77 0 127 -33.5t78 -113.5l-122 -54
q-16 37 -34 52.5t-44 15.5z" />
    <glyph glyph-name="currency" unicode="&#xa4;" horiz-adv-x="535" 
d="M100 102l-75 75q16 17 32 32.5t33 32.5q-23 43 -23 93q0 23 6.5 45.5t17.5 44.5l-65 65q19 19 38 37.5t38 38.5l65 -65q45 25 91 25q51 0 93 -23l65 65l75 -76l-65 -64q11 -21 18 -42t7 -43q0 -27 -5.5 -51t-19.5 -50q15 -14 33 -31.5t32 -31.5l-76 -77l-64 65
q-23 -12 -46 -18.5t-49 -6.5q-23 0 -47 7t-45 18zM258 428q-38 -2 -66 -27t-28 -67q0 -18 6.5 -34t18 -28.5t26.5 -20t33 -7.5q44 0 73.5 24.5t29.5 66.5q0 41 -27.5 67t-65.5 26z" />
    <glyph glyph-name="yen" unicode="&#xa5;" horiz-adv-x="490" 
d="M249 423q9 29 16.5 61.5t18.5 61.5l52 150h155l-141 -337h82v-75h-111l-5 -10v-31h116v-75h-116v-168h-142v168h-113v75h113v31l-5 10h-108v75h78l-140 337h155q14 -37 28 -75.5t25 -76.5l36 -121h6z" />
    <glyph glyph-name="brokenbar" unicode="&#xa6;" horiz-adv-x="259" 
d="M71 305v421h116v-421h-116zM187 225v-424h-116v424h116z" />
    <glyph glyph-name="section" unicode="&#xa7;" horiz-adv-x="467" 
d="M436 298q0 -35 -16.5 -62t-41.5 -41q22 -22 32.5 -49t10.5 -53q0 -39 -15 -70t-42 -53t-63.5 -33.5t-79.5 -11.5q-52 0 -103 22t-91 60l78 89q32 -29 62.5 -43t54.5 -14q35 0 52 13.5t17 34.5q0 12 -6 22t-19.5 20.5t-36.5 21.5t-56 25q-32 13 -56.5 27.5t-41.5 33
t-25.5 42t-8.5 56.5q0 32 18.5 60t45.5 41q-46 43 -46 101q0 37 14 67t38.5 51.5t58 33t72.5 11.5q54 0 99 -14t92 -51q-18 -23 -36 -46.5t-37 -46.5q-36 27 -65.5 34.5t-55.5 7.5q-28 0 -40.5 -10t-12.5 -26q0 -15 12.5 -27.5t30.5 -23.5t38.5 -20.5t36.5 -17.5
q25 -12 49 -25.5t42.5 -32t29.5 -43.5t11 -60zM310 293q0 18 -17.5 33t-65.5 33q-17 5 -38 15q-24 -13 -24 -35q0 -24 40 -44q20 -10 42 -18.5t45 -18.5q18 11 18 35z" />
    <glyph glyph-name="dieresis" unicode="&#xa8;" horiz-adv-x="431" 
d="M248 558v130h134v-130h-134zM52 558v130h133v-130h-133z" />
    <glyph glyph-name="copyright" unicode="&#xa9;" horiz-adv-x="762" 
d="M378 553q57 0 94.5 -31t46.5 -79l-86 -26q-4 21 -17.5 35t-36.5 14q-17 0 -27.5 -6t-16 -16t-7.5 -22t-2 -25v-126q0 -25 10 -46.5t42 -21.5q22 0 36 13t17 37q22 -7 43.5 -13.5t43.5 -12.5q-10 -52 -46 -81.5t-94 -29.5q-42 0 -69.5 13t-43.5 34.5t-22.5 48.5t-6.5 56
v127q0 32 8.5 61t25.5 50.5t44 34t64 12.5zM378 -12q-75 0 -136 26t-104 73t-66.5 112t-23.5 142t23.5 142t66.5 112.5t104 74.5t136 27q74 0 135 -26.5t104.5 -74t67 -112.5t23.5 -143q0 -76 -23.5 -140.5t-67 -112t-104.5 -74t-135 -26.5zM378 619q-57 0 -102 -21.5
t-76.5 -59t-48.5 -88.5t-17 -109q0 -57 17.5 -107.5t49.5 -87.5t77 -58.5t100 -21.5q56 0 101.5 21.5t77 58.5t48.5 87.5t17 107.5q0 60 -17.5 110.5t-49 88t-77 58.5t-100.5 21z" />
    <glyph glyph-name="ordfeminine" unicode="&#xaa;" horiz-adv-x="319" 
d="M188 279v28q-14 -17 -33.5 -24.5t-34.5 -7.5q-53 0 -77 27t-24 77q0 42 29 71t91 29h49v16q0 8 -8 16.5t-25 8.5q-14 0 -28 -5t-24 -20l-75 46q22 38 55.5 54t76.5 16q61 0 97 -24.5t36 -86.5v-221h-105zM188 412h-37q-16 0 -24 -7.5t-8 -18.5q0 -8 8 -15.5t25 -7.5
q15 0 25.5 7.5t10.5 24.5v17z" />
    <glyph glyph-name="guillemotleft" unicode="&#xab;" horiz-adv-x="565" 
d="M393 28l-131 207l131 207h135l-129 -207l129 -207h-135zM177 28l-131 207l131 207h135l-129 -207l129 -207h-135z" />
    <glyph glyph-name="logicalnot" unicode="&#xac;" horiz-adv-x="490" 
d="M470 73h-117v168h-334v114h450z" />
    <glyph glyph-name="sfthyphen" unicode="&#xad;" horiz-adv-x="412" 
d="M48 204v125h321v-125h-321z" />
    <glyph glyph-name="registered" unicode="&#xae;" horiz-adv-x="506" 
d="M252 449h-19v-99h-56v260h87q35 0 56.5 -20.5t21.5 -59.5q0 -21 -8 -39.5t-28 -31.5q3 -7 9.5 -22.5t13.5 -32.5t13.5 -32t9.5 -22h-62zM233 558v-58h28q28 0 28 30q0 28 -28 28h-28zM256 252q-49 0 -88.5 17t-67 47t-42.5 71.5t-15 89.5q0 49 15.5 90t43.5 71t67 47
t87 17t87 -17t66.5 -47t43 -71t15.5 -90q0 -48 -16 -89.5t-44 -71.5t-67 -47t-85 -17zM256 650q-36 0 -65 -13.5t-49 -36.5t-31 -54.5t-11 -67.5q0 -37 11 -68t31.5 -54t49.5 -36t64 -13q36 0 64 13t47.5 36.5t30 54.5t10.5 67t-10.5 67.5t-30.5 54.5t-48 36.5t-63 13.5z
" />
    <glyph glyph-name="macron" unicode="&#xaf;" horiz-adv-x="450" 
d="M89 572v114h292v-114h-292z" />
    <glyph glyph-name="degree" unicode="&#xb0;" horiz-adv-x="393" 
d="M344 559q0 -30 -11.5 -55.5t-31.5 -45t-46.5 -30.5t-57.5 -11q-30 0 -57 11t-47 30.5t-31.5 45t-11.5 55.5q0 29 11.5 55t31.5 45.5t47 30.5t57 11q31 0 57.5 -11t46.5 -30.5t31.5 -45.5t11.5 -55zM253 559q0 23 -16 38.5t-40 15.5q-23 0 -39.5 -15.5t-16.5 -38.5
t16.5 -39t39.5 -16q24 0 40 16t16 39z" />
    <glyph glyph-name="plusminus" unicode="&#xb1;" horiz-adv-x="490" 
d="M303 298v-157h-117v157h-168v112h168v162h117v-162h167v-112h-167zM16 0v109h456v-109h-456z" />
    <glyph glyph-name="twosuperior" unicode="&#xb2;" horiz-adv-x="312" 
d="M20 665q3 31 14.5 55t30 40t41.5 24.5t49 8.5q62 0 97 -29.5t35 -84.5q0 -25 -8.5 -46.5t-24.5 -43.5l-94 -126h122v-92h-258v81l146 187q12 16 12 36q0 11 -6.5 19t-20.5 8q-12 0 -22 -11t-12 -39z" />
    <glyph glyph-name="threesuperior" unicode="&#xb3;" horiz-adv-x="313" 
d="M160 791q36 0 60.5 -10t40.5 -26.5t23 -39.5t7 -48q0 -20 -9.5 -45t-34.5 -37q28 -10 37 -34.5t9 -52.5q0 -58 -33.5 -95t-102.5 -37q-24 0 -46.5 7t-40.5 21.5t-30.5 37t-15.5 52.5l99 12q2 -23 12.5 -30t19.5 -7q12 0 18.5 4.5t9.5 11.5t3.5 15t0.5 14q0 17 -6 29.5
t-27 12.5h-37v78h33q22 0 29 12t7 30q0 10 -5 22t-25 12q-10 0 -20 -9.5t-12 -35.5l-98 15q8 57 45.5 89t88.5 32z" />
    <glyph glyph-name="acute" unicode="&#xb4;" horiz-adv-x="451" 
d="M156 570l93 195l120 -48l-135 -183z" />
    <glyph glyph-name="mu" unicode="&#xb5;" horiz-adv-x="482" 
d="M51 225h1v270h140v-313q0 -29 14.5 -42.5t34.5 -13.5q22 0 37 14.5t15 42.5v312h140v-495h-140v40l-4 1q-17 -20 -42.5 -33t-51.5 -13h-3v-195h-141v425z" />
    <glyph glyph-name="mu" unicode="&#x3bc;" horiz-adv-x="482" 
d="M51 225h1v270h140v-313q0 -29 14.5 -42.5t34.5 -13.5q22 0 37 14.5t15 42.5v312h140v-495h-140v40l-4 1q-17 -20 -42.5 -33t-51.5 -13h-3v-195h-141v425z" />
    <glyph glyph-name="paragraph" unicode="&#xb6;" horiz-adv-x="513" 
d="M176 307q-42 4 -72.5 21t-49.5 43.5t-28 60t-9 69.5t11 71t34 63.5t58.5 46t85.5 17.5q70 0 135 -0.5t137 -0.5v-96h-44v-670h-100v670h-55v-670h-103v375z" />
    <glyph glyph-name="periodcentered" unicode="&#xb7;" horiz-adv-x="266" 
d="M57 205v157h152v-157h-152z" />
    <glyph glyph-name="cedilla" unicode="&#xb8;" horiz-adv-x="447" 
d="M183 41q17 0 33.5 0.5t33.5 0.5l-27 -78q27 -3 44.5 -12.5t28.5 -22t15.5 -27t4.5 -27.5q0 -37 -26 -63.5t-83 -26.5q-27 1 -54.5 5t-52.5 18l23 61q23 -11 38 -14t29 -3q15 0 25.5 8.5t10.5 21.5q0 14 -8.5 20.5t-20.5 6.5q-8 0 -14 -3q-9 6 -18 11t-18 11l36 113v0z
" />
    <glyph glyph-name="onesuperior" unicode="&#xb9;" horiz-adv-x="255" 
d="M94 371v304l-61 -42v105l76 50h89v-417h-104z" />
    <glyph glyph-name="ordmasculine" unicode="&#xba;" horiz-adv-x="317" 
d="M160 519q-19 0 -27 -18q-5 -11 -5.5 -26t-0.5 -34q0 -17 0.5 -31.5t5.5 -25.5q8 -16 26 -16q19 0 26 17q4 9 5 25t1 39q0 17 -1 30t-5 22q-8 18 -25 18zM163 611q48 0 76.5 -18t41.5 -46q9 -20 12 -46.5t3 -57.5q0 -35 -3.5 -60.5t-14.5 -44.5q-19 -35 -50.5 -49
t-71.5 -14q-36 0 -61 11t-42 30q-17 21 -23.5 52t-6.5 75q1 27 3.5 54.5t10.5 44.5q14 32 46.5 50.5t79.5 18.5z" />
    <glyph glyph-name="guillemotright" unicode="&#xbb;" horiz-adv-x="565" 
d="M46 28l129 207l-129 207h135l131 -207l-131 -207h-135zM263 28l129 207l-129 207h134l131 -207l-131 -207h-134z" />
    <glyph glyph-name="onequarter" unicode="&#xbc;" horiz-adv-x="770" 
d="M132 279v304l-61 -42v105l76 50h89v-417h-104zM224 -17h-91l370 730h92zM668 56v-57h-98v57h-160v74l123 286h105l-116 -273h48v79h98v-79h30v-87h-30z" />
    <glyph glyph-name="onehalf" unicode="&#xbd;" horiz-adv-x="770" 
d="M126 279v304l-61 -42v105l76 50h89v-417h-104zM220 -17h-91l370 730h92zM438 293q3 31 14.5 55t30 40t41.5 24.5t49 8.5q62 0 97 -29.5t35 -84.5q0 -25 -8.5 -46.5t-24.5 -43.5l-94 -126h122v-92h-258v81l146 187q12 16 12 36q0 11 -6.5 19t-20.5 8q-12 0 -22 -11
t-12 -39z" />
    <glyph glyph-name="threequarters" unicode="&#xbe;" horiz-adv-x="770" 
d="M190 701q36 0 60.5 -10t40.5 -26.5t23 -39.5t7 -48q0 -20 -9.5 -45t-34.5 -37q28 -10 37 -34.5t9 -52.5q0 -58 -33.5 -95t-102.5 -37q-24 0 -46.5 7t-40.5 21.5t-30.5 37t-15.5 52.5l99 12q2 -23 12.5 -30t19.5 -7q12 0 18.5 4.5t9.5 11.5t3.5 15t0.5 14q0 17 -6 29.5
t-27 12.5h-37v78h33q22 0 29 12t7 30q0 10 -5 22t-25 12q-10 0 -20 -9.5t-12 -35.5l-98 15q8 57 45.5 89t88.5 32zM686 56v-57h-98v57h-160v74l123 286h105l-116 -273h48v79h98v-79h30v-87h-30zM263 -17h-91l370 730h92z" />
    <glyph glyph-name="questiondown" unicode="&#xbf;" horiz-adv-x="456" 
d="M54 -15q0 44 11 71.5t28 52.5q13 19 27.5 37t27 37.5t21 41t8.5 47.5v30h140v-46q0 -46 -19 -85.5t-42 -74.5q-20 -30 -35 -57.5t-15 -53.5t14.5 -42t40.5 -16q25 0 42.5 19t18.5 65q35 -5 69.5 -8.5t69.5 -7.5q-3 -48 -20.5 -86t-45 -63.5t-64 -39t-78.5 -13.5
q-98 0 -148.5 52.5t-50.5 139.5zM316 494v-133h-138v133h138z" />
    <glyph glyph-name="Agrave" unicode="&#xc0;" horiz-adv-x="555" 
d="M359 142h-165q-9 -35 -18.5 -71t-19.5 -71h-153l201 696h144l201 -696h-156zM294 726l-205 97l84 100l173 -129zM246 371l-20 -100h100l-19 99l-28 139h-5z" />
    <glyph glyph-name="Aacute" unicode="&#xc1;" horiz-adv-x="555" 
d="M359 142h-165q-9 -35 -18.5 -71t-19.5 -71h-153l201 696h144l201 -696h-156zM201 794l173 129l84 -100l-205 -97zM246 371l-20 -100h100l-19 99l-28 139h-5z" />
    <glyph glyph-name="Acircumflex" unicode="&#xc2;" horiz-adv-x="555" 
d="M359 142h-165q-9 -35 -18.5 -71t-19.5 -71h-153l201 696h144l201 -696h-156zM276 803l-135 -79l-50 53l142 132h88l140 -132l-51 -53zM246 371l-20 -100h100l-19 99l-28 139h-5z" />
    <glyph glyph-name="Atilde" unicode="&#xc3;" horiz-adv-x="555" 
d="M359 142h-165q-9 -35 -18.5 -71t-19.5 -71h-153l201 696h144l201 -696h-156zM205 870q18 0 34.5 -7t31.5 -14.5l28 -14t24 -6.5q16 0 29 9t33 34q17 -9 33.5 -18.5t33.5 -19.5q-26 -57 -54 -80.5t-60 -23.5q-19 0 -36 6.5t-33 14t-30 14t-27 6.5q-15 0 -30.5 -9
t-35.5 -35l-65 40q24 54 55.5 79t68.5 25zM246 371l-20 -100h100l-19 99l-28 139h-5z" />
    <glyph glyph-name="Adieresis" unicode="&#xc4;" horiz-adv-x="555" 
d="M359 142h-165q-9 -35 -18.5 -71t-19.5 -71h-153l201 696h144l201 -696h-156zM110 737v131h136v-131h-136zM305 737v131h135v-131h-135zM246 371l-20 -100h100l-19 99l-28 139h-5z" />
    <glyph glyph-name="Aring" unicode="&#xc5;" horiz-adv-x="555" 
d="M164 800q0 22 9 42t24 35t35.5 23.5t44.5 8.5t44.5 -8.5t35.5 -23.5t23.5 -35t8.5 -42q0 -37 -22 -65t-57 -39h38l201 -696h-156l-34 142h-165q-9 -35 -18.5 -71t-19.5 -71h-153l201 696h38q-35 11 -56.5 39t-21.5 65zM246 371l-20 -100h100l-19 99l-28 139h-5zM312 799
q0 14 -10.5 24t-24.5 10q-15 0 -25.5 -10t-10.5 -24t10.5 -24t25.5 -10q14 0 24.5 10t10.5 24z" />
    <glyph glyph-name="AE" unicode="&#xc6;" horiz-adv-x="867" 
d="M828 696v-134h-261v-144h224v-133h-224v-148h261v-137h-406v150h-172l-61 -150h-163l309 696h493zM418 561l-115 -279h119v279h-4z" />
    <glyph glyph-name="Ccedilla" unicode="&#xc7;" horiz-adv-x="514" 
d="M486 167q-14 -77 -68 -122t-132 -50l-10 -31q27 -3 44.5 -12.5t28.5 -22t15.5 -27t4.5 -27.5q0 -37 -26 -63.5t-83 -26.5q-27 1 -54.5 5t-52.5 18l23 61q23 -11 38 -14t29 -3q15 0 25.5 8.5t10.5 21.5q0 14 -8.5 20.5t-20.5 6.5q-8 0 -14 -3q-9 6 -18 11t-18 11
q5 17 10.5 34.5t11.5 34.5q-47 7 -80.5 28.5t-55 53t-31.5 70.5t-10 81v248q0 39 12 78.5t38.5 71.5t69 52.5t103.5 20.5q48 0 86 -14.5t65 -38.5t44 -55.5t24 -65.5l-137 -41q-2 10 -6.5 23.5t-14.5 24.5t-25 19t-36 8q-22 0 -37 -7.5t-24 -19t-13 -25t-4 -25.5v-258
q0 -40 17.5 -66t60.5 -26q30 0 53 19.5t27 53.5z" />
    <glyph glyph-name="Egrave" unicode="&#xc8;" horiz-adv-x="490" 
d="M61 0v696h405v-134h-260v-144h224v-133h-224v-148h260v-137h-405zM285 726l-205 97l84 100l173 -129z" />
    <glyph glyph-name="Eacute" unicode="&#xc9;" horiz-adv-x="490" 
d="M61 0v696h405v-134h-260v-144h224v-133h-224v-148h260v-137h-405zM171 794l173 129l84 -100l-205 -97z" />
    <glyph glyph-name="Ecircumflex" unicode="&#xca;" horiz-adv-x="490" 
d="M61 0v696h405v-134h-260v-144h224v-133h-224v-148h260v-137h-405zM262 803l-135 -79l-50 53l142 132h88l140 -132l-51 -53z" />
    <glyph glyph-name="Edieresis" unicode="&#xcb;" horiz-adv-x="490" 
d="M61 0v696h405v-134h-260v-144h224v-133h-224v-148h260v-137h-405zM285 728v130h134v-130h-134zM89 728v130h133v-130h-133z" />
    <glyph glyph-name="Igrave" unicode="&#xcc;" horiz-adv-x="268" 
d="M63 0v696h145v-696h-145zM151 726l-205 97l84 100l173 -129z" />
    <glyph glyph-name="Iacute" unicode="&#xcd;" horiz-adv-x="268" 
d="M63 0v696h145v-696h-145zM54 794l173 129l84 -100l-205 -97z" />
    <glyph glyph-name="Icircumflex" unicode="&#xce;" horiz-adv-x="268" 
d="M63 0v696h145v-696h-145zM138 803l-135 -79l-50 53l142 132h88l140 -132l-51 -53z" />
    <glyph glyph-name="Idieresis" unicode="&#xcf;" horiz-adv-x="268" 
d="M63 0v696h145v-696h-145zM166 728v130h134v-130h-134zM-30 728v130h133v-130h-133z" />
    <glyph glyph-name="Eth" unicode="&#xd0;" horiz-adv-x="552" 
d="M16 397h45v299h230q70 0 119.5 -26t72.5 -86q14 -35 16.5 -86.5t2.5 -114.5q0 -91 -1 -154.5t-18 -108.5q-13 -35 -33.5 -58t-47.5 -36.5t-58.5 -19.5t-65.5 -6h-217v309h-45v88zM358 407q0 30 -3 58t-12.5 49.5t-28 34t-49.5 12.5h-60v-164h94v-88h-94v-175h61
q55 0 73.5 28t18.5 77v168z" />
    <glyph glyph-name="Ntilde" unicode="&#xd1;" horiz-adv-x="596" 
d="M412 0l-129 232l-76 147l-3 -1v-378h-145v696h128l114 -208l91 -168l3 1v375h144v-696h-127zM228 868q18 0 34.5 -7t31.5 -14.5l28 -14t24 -6.5q16 0 29 9t33 34q17 -9 33.5 -18.5t33.5 -19.5q-26 -57 -54 -80.5t-60 -23.5q-19 0 -36 6.5t-33 14t-30 14t-27 6.5
q-15 0 -30.5 -9t-35.5 -35l-65 40q24 54 55.5 79t68.5 25z" />
    <glyph glyph-name="Ograve" unicode="&#xd2;" horiz-adv-x="535" 
d="M490 219q0 -52 -16.5 -93.5t-46 -71t-70 -45t-89.5 -15.5q-60 0 -102.5 19t-69.5 51.5t-39.5 75.5t-12.5 90v248q0 39 12 78.5t39 71.5t69.5 52.5t103.5 20.5q57 0 99 -19.5t69 -51t40.5 -71.5t13.5 -81v-259zM344 484q0 10 -3.5 23t-12.5 25t-23.5 20.5t-36.5 8.5
t-37 -7.5t-24.5 -19t-14 -25t-4.5 -25.5v-258q0 -40 18.5 -66t61.5 -26q31 0 53.5 20t22.5 55v275zM287 726l-205 97l84 100l173 -129z" />
    <glyph glyph-name="Oacute" unicode="&#xd3;" horiz-adv-x="535" 
d="M490 219q0 -52 -16.5 -93.5t-46 -71t-70 -45t-89.5 -15.5q-60 0 -102.5 19t-69.5 51.5t-39.5 75.5t-12.5 90v248q0 39 12 78.5t39 71.5t69.5 52.5t103.5 20.5q57 0 99 -19.5t69 -51t40.5 -71.5t13.5 -81v-259zM344 484q0 10 -3.5 23t-12.5 25t-23.5 20.5t-36.5 8.5
t-37 -7.5t-24.5 -19t-14 -25t-4.5 -25.5v-258q0 -40 18.5 -66t61.5 -26q31 0 53.5 20t22.5 55v275zM198 794l173 129l84 -100l-205 -97z" />
    <glyph glyph-name="Ocircumflex" unicode="&#xd4;" horiz-adv-x="535" 
d="M490 219q0 -52 -16.5 -93.5t-46 -71t-70 -45t-89.5 -15.5q-60 0 -102.5 19t-69.5 51.5t-39.5 75.5t-12.5 90v248q0 39 12 78.5t39 71.5t69.5 52.5t103.5 20.5q57 0 99 -19.5t69 -51t40.5 -71.5t13.5 -81v-259zM344 484q0 10 -3.5 23t-12.5 25t-23.5 20.5t-36.5 8.5
t-37 -7.5t-24.5 -19t-14 -25t-4.5 -25.5v-258q0 -40 18.5 -66t61.5 -26q31 0 53.5 20t22.5 55v275zM262 803l-135 -79l-50 53l142 132h88l140 -132l-51 -53z" />
    <glyph glyph-name="Otilde" unicode="&#xd5;" horiz-adv-x="535" 
d="M490 219q0 -52 -16.5 -93.5t-46 -71t-70 -45t-89.5 -15.5q-60 0 -102.5 19t-69.5 51.5t-39.5 75.5t-12.5 90v248q0 39 12 78.5t39 71.5t69.5 52.5t103.5 20.5q57 0 99 -19.5t69 -51t40.5 -71.5t13.5 -81v-259zM344 484q0 10 -3.5 23t-12.5 25t-23.5 20.5t-36.5 8.5
t-37 -7.5t-24.5 -19t-14 -25t-4.5 -25.5v-258q0 -40 18.5 -66t61.5 -26q31 0 53.5 20t22.5 55v275zM205 870q18 0 34.5 -7t31.5 -14.5l28 -14t24 -6.5q16 0 29 9t33 34q17 -9 33.5 -18.5t33.5 -19.5q-26 -57 -54 -80.5t-60 -23.5q-19 0 -36 6.5t-33 14t-30 14t-27 6.5
q-15 0 -30.5 -9t-35.5 -35l-65 40q24 54 55.5 79t68.5 25z" />
    <glyph glyph-name="Odieresis" unicode="&#xd6;" horiz-adv-x="535" 
d="M490 219q0 -52 -16.5 -93.5t-46 -71t-70 -45t-89.5 -15.5q-60 0 -102.5 19t-69.5 51.5t-39.5 75.5t-12.5 90v248q0 39 12 78.5t39 71.5t69.5 52.5t103.5 20.5q57 0 99 -19.5t69 -51t40.5 -71.5t13.5 -81v-259zM344 484q0 10 -3.5 23t-12.5 25t-23.5 20.5t-36.5 8.5
t-37 -7.5t-24.5 -19t-14 -25t-4.5 -25.5v-258q0 -40 18.5 -66t61.5 -26q31 0 53.5 20t22.5 55v275zM303 737v131h135v-131h-135zM108 737v131h136v-131h-136z" />
    <glyph glyph-name="multiply" unicode="&#xd7;" horiz-adv-x="490" 
d="M250 217l-143 -140l-81 82l143 141l-145 147l81 79l144 -147l142 140l81 -84l-141 -139l144 -147l-81 -79z" />
    <glyph glyph-name="Oslash" unicode="&#xd8;" horiz-adv-x="535" 
d="M41 21l39 65q-19 31 -27.5 67.5t-8.5 76.5v248q0 39 12 78.5t39 71.5t69.5 52.5t103.5 20.5q48 0 85 -14t64 -37l31 52l43 -28l-39 -65q19 -29 28.5 -62.5t9.5 -68.5v-259q0 -52 -16.5 -93.5t-46 -71t-70 -45t-89.5 -15.5q-52 0 -90.5 14t-65.5 39l-31 -52zM344 430
l-150 -247q8 -23 26 -36t48 -13q31 0 53.5 20t22.5 55v221zM188 267l149 249q-8 17 -24 31t-45 14q-22 0 -37 -7.5t-24.5 -19t-14 -25t-4.5 -25.5v-217z" />
    <glyph glyph-name="Ugrave" unicode="&#xd9;" horiz-adv-x="551" 
d="M499 696v-477q0 -52 -16.5 -93.5t-46 -71t-70 -45t-89.5 -15.5q-60 0 -102.5 19t-69.5 51.5t-39.5 75.5t-12.5 90v466h144v-470q0 -40 18.5 -66t61.5 -26q31 0 53.5 21.5t22.5 56.5v484h146zM294 726l-205 97l84 100l173 -129z" />
    <glyph glyph-name="Uacute" unicode="&#xda;" horiz-adv-x="551" 
d="M499 696v-477q0 -52 -16.5 -93.5t-46 -71t-70 -45t-89.5 -15.5q-60 0 -102.5 19t-69.5 51.5t-39.5 75.5t-12.5 90v466h144v-470q0 -40 18.5 -66t61.5 -26q31 0 53.5 21.5t22.5 56.5v484h146zM191 794l173 129l84 -100l-205 -97z" />
    <glyph glyph-name="Ucircumflex" unicode="&#xdb;" horiz-adv-x="551" 
d="M499 696v-477q0 -52 -16.5 -93.5t-46 -71t-70 -45t-89.5 -15.5q-60 0 -102.5 19t-69.5 51.5t-39.5 75.5t-12.5 90v466h144v-470q0 -40 18.5 -66t61.5 -26q31 0 53.5 21.5t22.5 56.5v484h146zM268 803l-135 -79l-50 53l142 132h88l140 -132l-51 -53z" />
    <glyph glyph-name="Udieresis" unicode="&#xdc;" horiz-adv-x="551" 
d="M499 696v-477q0 -52 -16.5 -93.5t-46 -71t-70 -45t-89.5 -15.5q-60 0 -102.5 19t-69.5 51.5t-39.5 75.5t-12.5 90v466h144v-470q0 -40 18.5 -66t61.5 -26q31 0 53.5 21.5t22.5 56.5v484h146zM306 737v131h135v-131h-135zM111 737v131h136v-131h-136z" />
    <glyph glyph-name="Yacute" unicode="&#xdd;" horiz-adv-x="510" 
d="M327 279v-279h-142v279l-180 419h161l46 -142l41 -133h6l43 134l51 139h154zM178 794l173 129l84 -100l-205 -97z" />
    <glyph glyph-name="Thorn" unicode="&#xde;" horiz-adv-x="519" 
d="M506 354q0 -50 -15 -91t-43 -70t-68 -45t-90 -16h-84v-132h-145v696h144v-122h77q49 0 90.5 -13t71 -40t46 -68.5t16.5 -98.5zM364 356q0 45 -22 64.5t-60 19.5h-76v-173h77q32 0 56.5 20t24.5 69z" />
    <glyph glyph-name="germandbls" unicode="&#xdf;" horiz-adv-x="498" 
d="M373 420q30 -12 46.5 -33.5t24.5 -46.5t9.5 -50.5t1.5 -46.5q0 -48 -6.5 -92.5t-26.5 -79t-57.5 -55.5t-99.5 -21h-12t-12 1v118q44 0 57.5 35t13.5 103q0 17 -1.5 36t-7.5 35.5t-18 27.5t-33 11v105q25 0 34.5 17t9.5 44q0 9 -1 21.5t-6 24t-14.5 19t-27.5 7.5t-29 -7
t-16.5 -18.5t-7 -26t-1.5 -30.5v-518h-141v516q0 49 11 87.5t34 65.5t59 41.5t87 14.5q49 0 84.5 -14t58.5 -37t34 -54.5t11 -65.5q0 -42 -14.5 -78.5t-43.5 -51.5v-4z" />
    <glyph glyph-name="agrave" unicode="&#xe0;" horiz-adv-x="462" 
d="M281 0v40l-4 1q-19 -25 -48 -35.5t-52 -10.5q-73 0 -109 39t-36 114q0 31 10.5 58.5t31.5 48.5t52.5 33t74.5 12h80v29q0 16 -12 32t-46 16q-26 0 -46 -8.5t-34 -32.5l-101 64q28 55 75.5 77.5t109.5 22.5q42 0 78 -8t61.5 -26.5t40 -49t14.5 -76.5v-340h-140zM281 202
h-61q-28 0 -40 -12t-12 -32q0 -14 11.5 -27.5t41.5 -13.5q24 0 42 14t18 41v30zM241 534l-141 181l121 50l97 -190z" />
    <glyph glyph-name="aacute" unicode="&#xe1;" horiz-adv-x="462" 
d="M281 0v40l-4 1q-19 -25 -48 -35.5t-52 -10.5q-73 0 -109 39t-36 114q0 31 10.5 58.5t31.5 48.5t52.5 33t74.5 12h80v29q0 16 -12 32t-46 16q-26 0 -46 -8.5t-34 -32.5l-101 64q28 55 75.5 77.5t109.5 22.5q42 0 78 -8t61.5 -26.5t40 -49t14.5 -76.5v-340h-140zM281 202
h-61q-28 0 -40 -12t-12 -32q0 -14 11.5 -27.5t41.5 -13.5q24 0 42 14t18 41v30zM174 570l93 195l120 -48l-135 -183z" />
    <glyph glyph-name="acircumflex" unicode="&#xe2;" horiz-adv-x="462" 
d="M281 0v40l-4 1q-19 -25 -48 -35.5t-52 -10.5q-73 0 -109 39t-36 114q0 31 10.5 58.5t31.5 48.5t52.5 33t74.5 12h80v29q0 16 -12 32t-46 16q-26 0 -46 -8.5t-34 -32.5l-101 64q28 55 75.5 77.5t109.5 22.5q42 0 78 -8t61.5 -26.5t40 -49t14.5 -76.5v-340h-140zM281 202
h-61q-28 0 -40 -12t-12 -32q0 -14 11.5 -27.5t41.5 -13.5q24 0 42 14t18 41v30zM239 617q-9 -6 -27.5 -20t-39 -29.5t-38.5 -29t-27 -19.5l-53 47l141 157h91l138 -156l-54 -49z" />
    <glyph glyph-name="atilde" unicode="&#xe3;" horiz-adv-x="462" 
d="M281 0v40l-4 1q-19 -25 -48 -35.5t-52 -10.5q-73 0 -109 39t-36 114q0 31 10.5 58.5t31.5 48.5t52.5 33t74.5 12h80v29q0 16 -12 32t-46 16q-26 0 -46 -8.5t-34 -32.5l-101 64q28 55 75.5 77.5t109.5 22.5q42 0 78 -8t61.5 -26.5t40 -49t14.5 -76.5v-340h-140zM174 700
q18 0 34.5 -7t31.5 -14.5l28 -14t24 -6.5q16 0 29 9t33 34q17 -9 33.5 -18.5t33.5 -19.5q-26 -57 -54 -80.5t-60 -23.5q-19 0 -36 6.5t-33 14t-30 14t-27 6.5q-15 0 -30.5 -9t-35.5 -35l-65 40q24 54 55.5 79t68.5 25zM281 202h-61q-28 0 -40 -12t-12 -32q0 -14 11.5 -27.5
t41.5 -13.5q24 0 42 14t18 41v30z" />
    <glyph glyph-name="adieresis" unicode="&#xe4;" horiz-adv-x="462" 
d="M281 0v40l-4 1q-19 -25 -48 -35.5t-52 -10.5q-73 0 -109 39t-36 114q0 31 10.5 58.5t31.5 48.5t52.5 33t74.5 12h80v29q0 16 -12 32t-46 16q-26 0 -46 -8.5t-34 -32.5l-101 64q28 55 75.5 77.5t109.5 22.5q42 0 78 -8t61.5 -26.5t40 -49t14.5 -76.5v-340h-140zM281 202
h-61q-28 0 -40 -12t-12 -32q0 -14 11.5 -27.5t41.5 -13.5q24 0 42 14t18 41v30zM273 558v130h134v-130h-134zM77 558v130h133v-130h-133z" />
    <glyph glyph-name="aring" unicode="&#xe5;" horiz-adv-x="462" 
d="M281 0v40l-4 1q-19 -25 -48 -35.5t-52 -10.5q-73 0 -109 39t-36 114q0 31 10.5 58.5t31.5 48.5t52.5 33t74.5 12h80v29q0 16 -12 32t-46 16q-26 0 -46 -8.5t-34 -32.5l-101 64q28 55 75.5 77.5t109.5 22.5q42 0 78 -8t61.5 -26.5t40 -49t14.5 -76.5v-340h-140zM281 202
h-61q-28 0 -40 -12t-12 -32q0 -14 11.5 -27.5t41.5 -13.5q24 0 42 14t18 41v30zM275 631q0 14 -10.5 24t-24.5 10q-15 0 -25.5 -10t-10.5 -24t10.5 -24t25.5 -10q14 0 24.5 10t10.5 24zM127 632q0 22 9 42t24 35t35.5 23.5t44.5 8.5t44.5 -8.5t35.5 -23.5t23.5 -35t8.5 -42
q0 -23 -8.5 -42.5t-24 -34.5t-36 -23.5t-44.5 -8.5q-23 0 -43.5 8.5t-35.5 23.5t-24 34.5t-9 42.5z" />
    <glyph glyph-name="ae" unicode="&#xe6;" horiz-adv-x="707" 
d="M668 103q-26 -56 -75.5 -82t-109.5 -26q-52 0 -88.5 14.5t-60.5 42.5q-24 -23 -49 -35t-46.5 -17t-38 -5h-23.5q-73 0 -109 39t-36 114q0 31 10.5 58.5t31.5 48.5t52.5 33t74.5 12h80v19q0 8 -4 17.5t-11.5 18t-19 14.5t-27.5 6q-26 0 -45.5 -9.5t-30.5 -29.5l-101 64
q28 55 75.5 77.5t109.5 22.5q40 0 76 -7.5t58 -33.5q20 23 49.5 32.5t67.5 9.5q60 0 98.5 -20t60.5 -53.5t30.5 -78.5t8.5 -96v-50h-252q0 -37 10 -58.5t44 -21.5q21 0 38 9.5t34 34.5zM281 202h-61q-28 0 -40 -12t-12 -32q0 -14 11.5 -27.5t41.5 -13.5q24 0 42 14t18 41v30
zM531 302q0 13 -2 26t-8 23t-17 16t-28 6q-15 0 -24.5 -6.5t-15.5 -16.5t-8.5 -23t-3.5 -25h107z" />
    <glyph glyph-name="ccedilla" unicode="&#xe7;" horiz-adv-x="422" 
d="M222 501q63 0 110 -29t67 -86l-118 -57q-11 24 -23 34t-29 10q-38 0 -48.5 -35t-10.5 -93q0 -63 11.5 -92.5t47.5 -29.5q18 0 30 10.5t23 32.5l118 -58q-19 -51 -60.5 -80t-98.5 -32l-11 -32q27 -3 44.5 -12.5t28.5 -22t15.5 -27t4.5 -27.5q0 -37 -26 -63.5t-83 -26.5
q-27 1 -54.5 5t-52.5 18l23 61q23 -11 38 -14t29 -3q15 0 25.5 8.5t10.5 21.5q0 14 -8.5 20.5t-20.5 6.5q-8 0 -14 -3q-9 6 -18 11t-18 11q5 18 11 36t12 35q-42 7 -70.5 28.5t-45.5 53.5t-24.5 74t-7.5 90q0 54 9.5 101t32 81.5t59.5 54t92 19.5z" />
    <glyph glyph-name="egrave" unicode="&#xe8;" horiz-adv-x="464" 
d="M421 104q-26 -56 -77 -82.5t-111 -26.5q-55 0 -92.5 17t-61 49.5t-33.5 79t-10 106.5q0 58 10 105t33 80t61 51t95 18q60 0 98 -20t59.5 -53.5t29.5 -78.5t8 -96v-39h-252v-8q0 -17 2 -32t8 -26.5t16.5 -18t27.5 -6.5q21 0 38 9.5t34 34.5zM283 302q0 13 -2 26t-7.5 23
t-16 16t-27.5 6q-14 0 -24 -6.5t-16 -16.5t-8.5 -23t-3.5 -25h105zM205 534l-141 181l121 50l97 -190z" />
    <glyph glyph-name="eacute" unicode="&#xe9;" horiz-adv-x="464" 
d="M421 104q-26 -56 -77 -82.5t-111 -26.5q-55 0 -92.5 17t-61 49.5t-33.5 79t-10 106.5q0 58 10 105t33 80t61 51t95 18q60 0 98 -20t59.5 -53.5t29.5 -78.5t8 -96v-39h-252v-8q0 -17 2 -32t8 -26.5t16.5 -18t27.5 -6.5q21 0 38 9.5t34 34.5zM283 302q0 13 -2 26t-7.5 23
t-16 16t-27.5 6q-14 0 -24 -6.5t-16 -16.5t-8.5 -23t-3.5 -25h105zM165 570l93 195l120 -48l-135 -183z" />
    <glyph glyph-name="ecircumflex" unicode="&#xea;" horiz-adv-x="464" 
d="M421 104q-26 -56 -77 -82.5t-111 -26.5q-55 0 -92.5 17t-61 49.5t-33.5 79t-10 106.5q0 58 10 105t33 80t61 51t95 18q60 0 98 -20t59.5 -53.5t29.5 -78.5t8 -96v-39h-252v-8q0 -17 2 -32t8 -26.5t16.5 -18t27.5 -6.5q21 0 38 9.5t34 34.5zM283 302q0 13 -2 26t-7.5 23
t-16 16t-27.5 6q-14 0 -24 -6.5t-16 -16.5t-8.5 -23t-3.5 -25h105zM231 617q-9 -6 -27.5 -20t-39 -29.5t-38.5 -29t-27 -19.5l-53 47l141 157h91l138 -156l-54 -49z" />
    <glyph glyph-name="edieresis" unicode="&#xeb;" horiz-adv-x="464" 
d="M421 104q-26 -56 -77 -82.5t-111 -26.5q-55 0 -92.5 17t-61 49.5t-33.5 79t-10 106.5q0 58 10 105t33 80t61 51t95 18q60 0 98 -20t59.5 -53.5t29.5 -78.5t8 -96v-39h-252v-8q0 -17 2 -32t8 -26.5t16.5 -18t27.5 -6.5q21 0 38 9.5t34 34.5zM283 302q0 13 -2 26t-7.5 23
t-16 16t-27.5 6q-14 0 -24 -6.5t-16 -16.5t-8.5 -23t-3.5 -25h105zM264 558v130h134v-130h-134zM68 558v130h133v-130h-133z" />
    <glyph glyph-name="igrave" unicode="&#xec;" horiz-adv-x="273" 
d="M77 0v495h140v-495h-140zM117 534l-141 181l121 50l97 -190z" />
    <glyph glyph-name="iacute" unicode="&#xed;" horiz-adv-x="253" 
d="M57 0v495h140v-495h-140zM68 570l93 195l120 -48l-135 -183z" />
    <glyph glyph-name="icircumflex" unicode="&#xee;" horiz-adv-x="330" 
d="M94 0v495h140v-495h-140zM165 617q-9 -6 -27.5 -20t-39 -29.5t-38.5 -29t-27 -19.5l-53 47l141 157h91l138 -156l-54 -49z" />
    <glyph glyph-name="idieresis" unicode="&#xef;" horiz-adv-x="290" 
d="M75 0v495h140v-495h-140zM176 558v130h134v-130h-134zM-20 558v130h133v-130h-133z" />
    <glyph glyph-name="eth" unicode="&#xf0;" horiz-adv-x="469" 
d="M253 597q-22 17 -50.5 26t-65.5 13q3 24 7 49t7 49q74 -5 120.5 -24t69.5 -42l61 49l42 -46l-62 -49q18 -24 28.5 -61.5t16.5 -80t7.5 -87t1.5 -82.5q0 -35 -3 -71t-11 -70.5t-21.5 -65t-33.5 -53.5q-25 -29 -60 -43t-86 -14q-50 0 -85.5 15t-57.5 42q-28 35 -37 81
t-9 100q0 36 5 75t16 68q19 47 59.5 74t100.5 27q12 0 27 -3t29.5 -8.5t27 -14t20.5 -18.5q1 0 2 1q-2 35 -6 61t-20 56l-50 -42q-10 11 -20 24.5t-20 24.5zM227 346q-12 0 -22 -4.5t-17 -17.5t-11 -36t-4 -60q0 -44 11.5 -74.5t42.5 -30.5q29 0 41 26t12 90q0 55 -10.5 81
t-42.5 26z" />
    <glyph glyph-name="ntilde" unicode="&#xf1;" horiz-adv-x="482" 
d="M292 0v313q0 29 -14.5 42.5t-34.5 13.5q-22 0 -37 -14.5t-15 -42.5v-312h-140v495h140v-40l4 -1q17 20 42.5 33t51.5 13q75 0 109 -41t34 -111v-348h-140zM157 700q18 0 34.5 -7t31.5 -14.5l28 -14t24 -6.5q16 0 29 9t33 34q17 -9 33.5 -18.5t33.5 -19.5
q-26 -57 -54 -80.5t-60 -23.5q-19 0 -36 6.5t-33 14t-30 14t-27 6.5q-15 0 -30.5 -9t-35.5 -35l-65 40q24 54 55.5 79t68.5 25z" />
    <glyph glyph-name="ograve" unicode="&#xf2;" horiz-adv-x="459" 
d="M234 502q69 0 109.5 -27t57.5 -68q14 -32 18 -72.5t4 -88.5q0 -53 -5.5 -92t-19.5 -68q-26 -53 -71.5 -73t-102.5 -20q-51 0 -86.5 16t-58.5 45q-24 32 -33.5 79t-9.5 113q1 42 5 84.5t15 68.5q21 48 64.5 75.5t113.5 27.5zM232 373q-33 0 -47 -35q-6 -17 -8 -39.5
t-2 -54.5q0 -25 1.5 -48t8.5 -40q12 -34 45 -34q7 0 14.5 1.5t14.5 7t12.5 16t8.5 27.5q2 14 3.5 34.5t1.5 47.5q0 52 -10 81q-13 36 -43 36zM219 534l-141 181l121 50l97 -190z" />
    <glyph glyph-name="oacute" unicode="&#xf3;" horiz-adv-x="459" 
d="M234 502q69 0 109.5 -27t57.5 -68q14 -32 18 -72.5t4 -88.5q0 -53 -5.5 -92t-19.5 -68q-26 -53 -71.5 -73t-102.5 -20q-51 0 -86.5 16t-58.5 45q-24 32 -33.5 79t-9.5 113q1 42 5 84.5t15 68.5q21 48 64.5 75.5t113.5 27.5zM232 373q-33 0 -47 -35q-6 -17 -8 -39.5
t-2 -54.5q0 -25 1.5 -48t8.5 -40q12 -34 45 -34q7 0 14.5 1.5t14.5 7t12.5 16t8.5 27.5q2 14 3.5 34.5t1.5 47.5q0 52 -10 81q-13 36 -43 36zM163 570l93 195l120 -48l-135 -183z" />
    <glyph glyph-name="ocircumflex" unicode="&#xf4;" horiz-adv-x="459" 
d="M234 502q69 0 109.5 -27t57.5 -68q14 -32 18 -72.5t4 -88.5q0 -53 -5.5 -92t-19.5 -68q-26 -53 -71.5 -73t-102.5 -20q-51 0 -86.5 16t-58.5 45q-24 32 -33.5 79t-9.5 113q1 42 5 84.5t15 68.5q21 48 64.5 75.5t113.5 27.5zM232 373q-33 0 -47 -35q-6 -17 -8 -39.5
t-2 -54.5q0 -25 1.5 -48t8.5 -40q12 -34 45 -34q7 0 14.5 1.5t14.5 7t12.5 16t8.5 27.5q2 14 3.5 34.5t1.5 47.5q0 52 -10 81q-13 36 -43 36zM229 617q-9 -6 -27.5 -20t-39 -29.5t-38.5 -29t-27 -19.5l-53 47l141 157h91l138 -156l-54 -49z" />
    <glyph glyph-name="otilde" unicode="&#xf5;" horiz-adv-x="459" 
d="M234 502q69 0 109.5 -27t57.5 -68q14 -32 18 -72.5t4 -88.5q0 -53 -5.5 -92t-19.5 -68q-26 -53 -71.5 -73t-102.5 -20q-51 0 -86.5 16t-58.5 45q-24 32 -33.5 79t-9.5 113q1 42 5 84.5t15 68.5q21 48 64.5 75.5t113.5 27.5zM168 700q18 0 34.5 -7t31.5 -14.5l28 -14
t24 -6.5q16 0 29 9t33 34q17 -9 33.5 -18.5t33.5 -19.5q-26 -57 -54 -80.5t-60 -23.5q-19 0 -36 6.5t-33 14t-30 14t-27 6.5q-15 0 -30.5 -9t-35.5 -35l-65 40q24 54 55.5 79t68.5 25zM232 373q-33 0 -47 -35q-6 -17 -8 -39.5t-2 -54.5q0 -25 1.5 -48t8.5 -40q12 -34 45 -34
q7 0 14.5 1.5t14.5 7t12.5 16t8.5 27.5q2 14 3.5 34.5t1.5 47.5q0 52 -10 81q-13 36 -43 36z" />
    <glyph glyph-name="odieresis" unicode="&#xf6;" horiz-adv-x="459" 
d="M234 502q69 0 109.5 -27t57.5 -68q14 -32 18 -72.5t4 -88.5q0 -53 -5.5 -92t-19.5 -68q-26 -53 -71.5 -73t-102.5 -20q-51 0 -86.5 16t-58.5 45q-24 32 -33.5 79t-9.5 113q1 42 5 84.5t15 68.5q21 48 64.5 75.5t113.5 27.5zM232 373q-33 0 -47 -35q-6 -17 -8 -39.5
t-2 -54.5q0 -25 1.5 -48t8.5 -40q12 -34 45 -34q7 0 14.5 1.5t14.5 7t12.5 16t8.5 27.5q2 14 3.5 34.5t1.5 47.5q0 52 -10 81q-13 36 -43 36zM259 558v130h134v-130h-134zM63 558v130h133v-130h-133z" />
    <glyph glyph-name="divide" unicode="&#xf7;" horiz-adv-x="490" 
d="M327 485q0 -16 -6.5 -30.5t-17.5 -25t-25.5 -17t-31.5 -6.5t-32 6.5t-26 17t-17.5 25t-6.5 30.5q0 33 24 56t58 23t57.5 -23t23.5 -56zM18 239v111h452v-111h-452zM327 101q0 -33 -23.5 -56.5t-57.5 -23.5t-58 23.5t-24 56.5q0 16 6.5 30.5t17.5 25t26 17t32 6.5
t31.5 -6.5t25.5 -17t17.5 -25t6.5 -30.5z" />
    <glyph glyph-name="oslash" unicode="&#xf8;" horiz-adv-x="459" 
d="M234 502q36 0 64 -8t49 -22l36 55l30 -21l-38 -59q17 -18 26 -40q14 -32 18 -72.5t4 -88.5q0 -53 -5.5 -92t-19.5 -68q-26 -53 -71.5 -73t-102.5 -20q-74 0 -119 34l-30 -46l-29 20l33 52v1q-24 32 -33.5 79t-9.5 113q1 42 5 84.5t15 68.5q21 48 64.5 75.5t113.5 27.5z
M285 256q0 26 -3 47l-96 -150q12 -31 44 -31q7 0 14.5 1.5t14.5 7t12.5 16t8.5 27.5q2 14 3.5 34.5t1.5 47.5zM232 373q-33 0 -47 -35q-6 -17 -8 -39.5t-2 -54.5v-20.5t1 -19.5l93 145q-13 24 -37 24z" />
    <glyph glyph-name="ugrave" unicode="&#xf9;" horiz-adv-x="482" 
d="M192 495v-313q0 -29 14.5 -42.5t34.5 -13.5q22 0 37 14.5t15 42.5v312h140v-495h-140v40l-4 1q-17 -20 -42.5 -33t-51.5 -13q-75 0 -109 41t-34 111v348h140zM233 534l-141 181l121 50l97 -190z" />
    <glyph glyph-name="uacute" unicode="&#xfa;" horiz-adv-x="482" 
d="M192 495v-313q0 -29 14.5 -42.5t34.5 -13.5q22 0 37 14.5t15 42.5v312h140v-495h-140v40l-4 1q-17 -20 -42.5 -33t-51.5 -13q-75 0 -109 41t-34 111v348h140zM168 570l93 195l120 -48l-135 -183z" />
    <glyph glyph-name="ucircumflex" unicode="&#xfb;" horiz-adv-x="482" 
d="M192 495v-313q0 -29 14.5 -42.5t34.5 -13.5q22 0 37 14.5t15 42.5v312h140v-495h-140v40l-4 1q-17 -20 -42.5 -33t-51.5 -13q-75 0 -109 41t-34 111v348h140zM247 617q-9 -6 -27.5 -20t-39 -29.5t-38.5 -29t-27 -19.5l-53 47l141 157h91l138 -156l-54 -49z" />
    <glyph glyph-name="udieresis" unicode="&#xfc;" horiz-adv-x="482" 
d="M192 495v-313q0 -29 14.5 -42.5t34.5 -13.5q22 0 37 14.5t15 42.5v312h140v-495h-140v40l-4 1q-17 -20 -42.5 -33t-51.5 -13q-75 0 -109 41t-34 111v348h140zM275 558v130h134v-130h-134zM79 558v130h133v-130h-133z" />
    <glyph glyph-name="yacute" unicode="&#xfd;" horiz-adv-x="442" 
d="M254 -87q-19 -60 -58 -86.5t-95 -26.5h-49v120h29q41 0 56 51l16 55l-152 469h150l34 -160l31 -137h5l32 136l40 161h146zM158 570l93 195l120 -48l-135 -183z" />
    <glyph glyph-name="thorn" unicode="&#xfe;" horiz-adv-x="467" 
d="M240 125q18 0 28.5 11.5t16 29t7 39t1.5 41.5q0 27 -1.5 50t-7 39t-15.5 25t-27 9q-33 0 -43.5 -31t-10.5 -89q0 -20 1.5 -42t6.5 -40t15.5 -30t28.5 -12zM191 458q17 22 41.5 32t46.5 10q55 0 86 -25t46.5 -63t19.5 -83t4 -85q0 -45 -5 -89.5t-21.5 -80t-47.5 -58
t-83 -22.5q-10 0 -22 3t-24 8.5t-22.5 13t-17.5 17.5l-4 -1v-236h-140v912h140v-251z" />
    <glyph glyph-name="ydieresis" unicode="&#xff;" horiz-adv-x="442" 
d="M254 -87q-19 -60 -58 -86.5t-95 -26.5h-49v120h29q41 0 56 51l16 55l-152 469h150l34 -160l31 -137h5l32 136l40 161h146zM247 558v130h134v-130h-134zM51 558v130h133v-130h-133z" />
    <glyph glyph-name="Amacron" unicode="&#x100;" horiz-adv-x="555" 
d="M359 142h-165q-9 -35 -18.5 -71t-19.5 -71h-153l201 696h144l201 -696h-156zM131 752v114h292v-114h-292zM246 371l-20 -100h100l-19 99l-28 139h-5z" />
    <glyph glyph-name="amacron" unicode="&#x101;" horiz-adv-x="462" 
d="M281 0v40l-4 1q-19 -25 -48 -35.5t-52 -10.5q-73 0 -109 39t-36 114q0 31 10.5 58.5t31.5 48.5t52.5 33t74.5 12h80v29q0 16 -12 32t-46 16q-26 0 -46 -8.5t-34 -32.5l-101 64q28 55 75.5 77.5t109.5 22.5q42 0 78 -8t61.5 -26.5t40 -49t14.5 -76.5v-340h-140zM281 202
h-61q-28 0 -40 -12t-12 -32q0 -14 11.5 -27.5t41.5 -13.5q24 0 42 14t18 41v30zM89 572v114h292v-114h-292z" />
    <glyph glyph-name="Abreve" unicode="&#x102;" horiz-adv-x="555" 
d="M359 142h-165q-9 -35 -18.5 -71t-19.5 -71h-153l201 696h144l201 -696h-156zM280 728q-45 0 -75.5 17t-49.5 42t-28 54t-10 53h103q0 -11 4.5 -23.5t12 -23t18.5 -18t25 -7.5q15 0 25.5 7.5t18 18t11 23t3.5 23.5h104q-2 -24 -11.5 -53t-28.5 -54t-49 -42t-73 -17z
M246 371l-20 -100h100l-19 99l-28 139h-5z" />
    <glyph glyph-name="abreve" unicode="&#x103;" horiz-adv-x="462" 
d="M281 0v40l-4 1q-19 -25 -48 -35.5t-52 -10.5q-73 0 -109 39t-36 114q0 31 10.5 58.5t31.5 48.5t52.5 33t74.5 12h80v29q0 16 -12 32t-46 16q-26 0 -46 -8.5t-34 -32.5l-101 64q28 55 75.5 77.5t109.5 22.5q42 0 78 -8t61.5 -26.5t40 -49t14.5 -76.5v-340h-140zM281 202
h-61q-28 0 -40 -12t-12 -32q0 -14 11.5 -27.5t41.5 -13.5q24 0 42 14t18 41v30zM239 542q-45 0 -75.5 17t-49.5 42.5t-28 55t-10 54.5h103q0 -11 4.5 -23.5t12 -23.5t18.5 -18t25 -7q15 0 25.5 7t18 18t11 23.5t3.5 23.5h104q-2 -25 -11.5 -54.5t-28.5 -55t-49 -42.5
t-73 -17z" />
    <glyph glyph-name="Aogonek" unicode="&#x104;" horiz-adv-x="555" 
d="M359 142h-165q-9 -35 -18.5 -71t-19.5 -71h-153l201 696h144l201 -696h-72q-23 -34 -30 -58t-7 -37q0 -17 10.5 -26t27.5 -9q9 0 23.5 3.5t34.5 11.5l25 -64q-24 -14 -51 -21.5t-52 -7.5q-45 0 -74.5 27.5t-29.5 71.5q0 22 9.5 49t31.5 60h-2zM246 371l-20 -100h100
l-19 99l-28 139h-5z" />
    <glyph glyph-name="aogonek" unicode="&#x105;" horiz-adv-x="462" 
d="M239 -109q0 46 42 110v39l-4 1q-19 -25 -48 -35.5t-52 -10.5q-73 0 -109 39t-36 114q0 31 10.5 58.5t31.5 48.5t52.5 33t74.5 12h80v29q0 16 -12 32t-46 16q-26 0 -46 -8.5t-34 -32.5l-101 64q28 55 75.5 77.5t109.5 22.5q42 0 78 -8t61.5 -26.5t40 -49t14.5 -76.5v-340
h-59q-23 -34 -30 -58t-7 -37q0 -17 10.5 -26t27.5 -9q9 0 23.5 3.5t34.5 11.5l25 -64q-24 -14 -51 -21.5t-52 -7.5q-45 0 -74.5 27.5t-29.5 71.5zM281 202h-61q-28 0 -40 -12t-12 -32q0 -14 11.5 -27.5t41.5 -13.5q24 0 42 14t18 41v30z" />
    <glyph glyph-name="Cacute" unicode="&#x106;" horiz-adv-x="514" 
d="M486 167q-15 -81 -74 -127t-144 -46q-60 0 -102.5 19t-69 51.5t-39 75.5t-12.5 90v248q0 39 12 78.5t38.5 71.5t69 52.5t103.5 20.5q48 0 86 -14.5t65 -38.5t44 -55.5t24 -65.5l-137 -41q-2 10 -6.5 23.5t-14.5 24.5t-25 19t-36 8q-22 0 -37 -7.5t-24 -19t-13 -25
t-4 -25.5v-258q0 -40 17.5 -66t60.5 -26q30 0 53 19.5t27 53.5zM171 794l173 129l84 -100l-205 -97z" />
    <glyph glyph-name="cacute" unicode="&#x107;" horiz-adv-x="422" 
d="M222 501q63 0 110 -29t67 -86l-118 -57q-11 24 -23 34t-29 10q-38 0 -48.5 -35t-10.5 -93q0 -63 11.5 -92.5t47.5 -29.5q18 0 30 10.5t23 32.5l118 -58q-20 -55 -66.5 -84t-109.5 -29q-56 0 -93.5 18.5t-60 52t-32 79.5t-9.5 100t9.5 101t32 81.5t59.5 54t92 19.5z
M156 570l93 195l120 -48l-135 -183z" />
    <glyph glyph-name="Ccircumflex" unicode="&#x108;" horiz-adv-x="514" 
d="M486 167q-15 -81 -74 -127t-144 -46q-60 0 -102.5 19t-69 51.5t-39 75.5t-12.5 90v248q0 39 12 78.5t38.5 71.5t69 52.5t103.5 20.5q48 0 86 -14.5t65 -38.5t44 -55.5t24 -65.5l-137 -41q-2 10 -6.5 23.5t-14.5 24.5t-25 19t-36 8q-22 0 -37 -7.5t-24 -19t-13 -25
t-4 -25.5v-258q0 -40 17.5 -66t60.5 -26q30 0 53 19.5t27 53.5zM266 803l-135 -79l-50 53l142 132h88l140 -132l-51 -53z" />
    <glyph glyph-name="ccircumflex" unicode="&#x109;" horiz-adv-x="422" 
d="M222 501q63 0 110 -29t67 -86l-118 -57q-11 24 -23 34t-29 10q-38 0 -48.5 -35t-10.5 -93q0 -63 11.5 -92.5t47.5 -29.5q18 0 30 10.5t23 32.5l118 -58q-20 -55 -66.5 -84t-109.5 -29q-56 0 -93.5 18.5t-60 52t-32 79.5t-9.5 100t9.5 101t32 81.5t59.5 54t92 19.5z
M228 617q-9 -6 -27.5 -20t-39 -29.5t-38.5 -29t-27 -19.5l-53 47l141 157h91l138 -156l-54 -49z" />
    <glyph glyph-name="Cdotaccent" unicode="&#x10a;" horiz-adv-x="514" 
d="M486 167q-15 -81 -74 -127t-144 -46q-60 0 -102.5 19t-69 51.5t-39 75.5t-12.5 90v248q0 39 12 78.5t38.5 71.5t69 52.5t103.5 20.5q48 0 86 -14.5t65 -38.5t44 -55.5t24 -65.5l-137 -41q-2 10 -6.5 23.5t-14.5 24.5t-25 19t-36 8q-22 0 -37 -7.5t-24 -19t-13 -25
t-4 -25.5v-258q0 -40 17.5 -66t60.5 -26q30 0 53 19.5t27 53.5zM195 742v130h133v-130h-133z" />
    <glyph glyph-name="cdotaccent" unicode="&#x10b;" horiz-adv-x="422" 
d="M222 501q63 0 110 -29t67 -86l-118 -57q-11 24 -23 34t-29 10q-38 0 -48.5 -35t-10.5 -93q0 -63 11.5 -92.5t47.5 -29.5q18 0 30 10.5t23 32.5l118 -58q-20 -55 -66.5 -84t-109.5 -29q-56 0 -93.5 18.5t-60 52t-32 79.5t-9.5 100t9.5 101t32 81.5t59.5 54t92 19.5z
M150 558v130h133v-130h-133z" />
    <glyph glyph-name="Ccaron" unicode="&#x10c;" horiz-adv-x="514" 
d="M486 167q-15 -81 -74 -127t-144 -46q-60 0 -102.5 19t-69 51.5t-39 75.5t-12.5 90v248q0 39 12 78.5t38.5 71.5t69 52.5t103.5 20.5q48 0 86 -14.5t65 -38.5t44 -55.5t24 -65.5l-137 -41q-2 10 -6.5 23.5t-14.5 24.5t-25 19t-36 8q-22 0 -37 -7.5t-24 -19t-13 -25
t-4 -25.5v-258q0 -40 17.5 -66t60.5 -26q30 0 53 19.5t27 53.5zM400 910l52 -53l-140 -130h-89l-141 130l50 53l134 -79z" />
    <glyph glyph-name="ccaron" unicode="&#x10d;" horiz-adv-x="422" 
d="M222 501q63 0 110 -29t67 -86l-118 -57q-11 24 -23 34t-29 10q-38 0 -48.5 -35t-10.5 -93q0 -63 11.5 -92.5t47.5 -29.5q18 0 30 10.5t23 32.5l118 -58q-20 -55 -66.5 -84t-109.5 -29q-56 0 -93.5 18.5t-60 52t-32 79.5t-9.5 100t9.5 101t32 81.5t59.5 54t92 19.5z
M348 723l54 -48l-138 -157h-91l-141 157l53 48q9 -6 27 -20t38.5 -29.5t39 -29.5t27.5 -20z" />
    <glyph glyph-name="Dcaron" unicode="&#x10e;" horiz-adv-x="552" 
d="M358 407q0 30 -3 58t-12.5 49.5t-28 34t-49.5 12.5h-60v-427h61q55 0 73.5 28t18.5 77v168zM291 696q70 0 119.5 -26t72.5 -86q14 -35 16.5 -86.5t2.5 -114.5q0 -91 -1 -154.5t-18 -108.5q-13 -35 -33.5 -58t-47.5 -36.5t-58.5 -19.5t-65.5 -6h-217v696h230zM372 910
l52 -53l-140 -130h-89l-141 130l50 53l134 -79z" />
    <glyph glyph-name="dcaron" unicode="&#x10f;" horiz-adv-x="574" 
d="M459 488l32 108h-29v131h136v-126l-72 -113h-67zM229 370q-18 0 -28.5 -10.5t-15.5 -27t-6.5 -37t-1.5 -40.5q0 -27 2 -51t7.5 -41t15.5 -27t27 -10q33 0 42 30.5t9 88.5q0 20 -1 42t-6.5 40.5t-15.5 30.5t-28 12zM277 37q-17 -22 -41.5 -32t-46.5 -10q-56 0 -87.5 23
t-46.5 59.5t-18.5 82.5t-3.5 91t5.5 89.5t22.5 80t48 58t82 22.5q19 0 45 -11.5t40 -30.5l4 1v266h140v-726h-140v35z" />
    <glyph glyph-name="Dcroat" unicode="&#x110;" horiz-adv-x="552" 
d="M16 399h45v297h230q70 0 119.5 -26t72.5 -86q14 -35 16.5 -86.5t2.5 -114.5q0 -91 -1 -154.5t-18 -108.5q-13 -35 -33.5 -58t-47.5 -36.5t-58.5 -19.5t-65.5 -6h-217v311h-45v88zM358 407q0 30 -3 58t-12.5 49.5t-28 34t-49.5 12.5h-60v-162h94v-88h-94v-177h61
q55 0 73.5 28t18.5 77v168z" />
    <glyph glyph-name="dcroat" unicode="&#x111;" horiz-adv-x="478" 
d="M281 37q-17 -22 -41.5 -32t-46.5 -10q-56 0 -87.5 23t-46.5 59.5t-18.5 82.5t-3.5 91t5.5 89.5t22.5 80t48 58t82 22.5q19 0 45 -11.5t40 -30.5l4 1v97h-120v82h120v87h140v-87h43v-82h-43v-557h-140v35zM233 370q-18 0 -28.5 -10.5t-15.5 -27t-6.5 -37t-1.5 -40.5
q0 -27 2 -51t7.5 -41t15.5 -27t27 -10q33 0 42 30.5t9 88.5q0 20 -1 42t-6.5 40.5t-15.5 30.5t-28 12z" />
    <glyph glyph-name="Emacron" unicode="&#x112;" horiz-adv-x="490" 
d="M61 0v696h405v-134h-260v-144h224v-133h-224v-148h260v-137h-405zM114 752v114h292v-114h-292z" />
    <glyph glyph-name="emacron" unicode="&#x113;" horiz-adv-x="464" 
d="M421 104q-26 -56 -77 -82.5t-111 -26.5q-55 0 -92.5 17t-61 49.5t-33.5 79t-10 106.5q0 58 10 105t33 80t61 51t95 18q60 0 98 -20t59.5 -53.5t29.5 -78.5t8 -96v-39h-252v-8q0 -17 2 -32t8 -26.5t16.5 -18t27.5 -6.5q21 0 38 9.5t34 34.5zM283 302q0 13 -2 26t-7.5 23
t-16 16t-27.5 6q-14 0 -24 -6.5t-16 -16.5t-8.5 -23t-3.5 -25h105zM89 572v114h292v-114h-292z" />
    <glyph glyph-name="Ebreve" unicode="&#x114;" horiz-adv-x="490" 
d="M61 0v696h405v-134h-260v-144h224v-133h-224v-148h260v-137h-405zM267 726q-45 0 -75.5 17t-49.5 42t-28 54t-10 53h103q0 -11 4.5 -23.5t12 -23t18.5 -18t25 -7.5q15 0 25.5 7.5t18 18t11 23t3.5 23.5h104q-2 -24 -11.5 -53t-28.5 -54t-49 -42t-73 -17z" />
    <glyph glyph-name="ebreve" unicode="&#x115;" horiz-adv-x="464" 
d="M421 104q-26 -56 -77 -82.5t-111 -26.5q-55 0 -92.5 17t-61 49.5t-33.5 79t-10 106.5q0 58 10 105t33 80t61 51t95 18q60 0 98 -20t59.5 -53.5t29.5 -78.5t8 -96v-39h-252v-8q0 -17 2 -32t8 -26.5t16.5 -18t27.5 -6.5q21 0 38 9.5t34 34.5zM283 302q0 13 -2 26t-7.5 23
t-16 16t-27.5 6q-14 0 -24 -6.5t-16 -16.5t-8.5 -23t-3.5 -25h105zM236 542q-45 0 -75.5 17t-49.5 42.5t-28 55t-10 54.5h103q0 -11 4.5 -23.5t12 -23.5t18.5 -18t25 -7q15 0 25.5 7t18 18t11 23.5t3.5 23.5h104q-2 -25 -11.5 -54.5t-28.5 -55t-49 -42.5t-73 -17z" />
    <glyph glyph-name="Edotaccent" unicode="&#x116;" horiz-adv-x="490" 
d="M61 0v696h405v-134h-260v-144h224v-133h-224v-148h260v-137h-405zM199 738v130h133v-130h-133z" />
    <glyph glyph-name="edotaccent" unicode="&#x117;" horiz-adv-x="464" 
d="M421 104q-26 -56 -77 -82.5t-111 -26.5q-55 0 -92.5 17t-61 49.5t-33.5 79t-10 106.5q0 58 10 105t33 80t61 51t95 18q60 0 98 -20t59.5 -53.5t29.5 -78.5t8 -96v-39h-252v-8q0 -17 2 -32t8 -26.5t16.5 -18t27.5 -6.5q21 0 38 9.5t34 34.5zM283 302q0 13 -2 26t-7.5 23
t-16 16t-27.5 6q-14 0 -24 -6.5t-16 -16.5t-8.5 -23t-3.5 -25h105zM170 558v130h133v-130h-133z" />
    <glyph glyph-name="Eogonek" unicode="&#x118;" horiz-adv-x="490" 
d="M343 -109q0 22 9.5 49t31.5 60h-323v696h405v-134h-260v-144h224v-133h-224v-148h260v-137q-23 -34 -30 -58t-7 -37q0 -17 10.5 -26t27.5 -9q9 0 23.5 3.5t34.5 11.5l25 -64q-24 -14 -51 -21.5t-52 -7.5q-45 0 -74.5 27.5t-29.5 71.5z" />
    <glyph glyph-name="eogonek" unicode="&#x119;" horiz-adv-x="464" 
d="M234 -79q0 31 21 75q-5 0 -11 -0.5t-11 -0.5q-55 0 -92.5 17t-61 49.5t-33.5 79t-10 106.5q0 58 10 105t33 80t61 51t95 18q60 0 98 -20t59.5 -53.5t29.5 -78.5t8 -96v-39h-252v-8q0 -17 2 -32t8 -26.5t16.5 -18t27.5 -6.5q21 0 38 9.5t34 34.5l117 -63q-22 -48 -64 -74
q-23 -34 -30 -58t-7 -37q0 -17 10.5 -26t27.5 -9q9 0 23.5 3.5t34.5 11.5l25 -64q-24 -14 -51 -21.5t-52 -7.5q-45 0 -74.5 27.5t-29.5 71.5zM283 302q0 13 -2 26t-7.5 23t-16 16t-27.5 6q-14 0 -24 -6.5t-16 -16.5t-8.5 -23t-3.5 -25h105z" />
    <glyph glyph-name="Ecaron" unicode="&#x11a;" horiz-adv-x="490" 
d="M61 0v696h405v-134h-260v-144h224v-133h-224v-148h260v-137h-405zM398 910l52 -53l-140 -130h-89l-141 130l50 53l134 -79z" />
    <glyph glyph-name="ecaron" unicode="&#x11b;" horiz-adv-x="464" 
d="M421 104q-26 -56 -77 -82.5t-111 -26.5q-55 0 -92.5 17t-61 49.5t-33.5 79t-10 106.5q0 58 10 105t33 80t61 51t95 18q60 0 98 -20t59.5 -53.5t29.5 -78.5t8 -96v-39h-252v-8q0 -17 2 -32t8 -26.5t16.5 -18t27.5 -6.5q21 0 38 9.5t34 34.5zM283 302q0 13 -2 26t-7.5 23
t-16 16t-27.5 6q-14 0 -24 -6.5t-16 -16.5t-8.5 -23t-3.5 -25h105zM365 723l54 -48l-138 -157h-91l-141 157l53 48q9 -6 27 -20t38.5 -29.5t39 -29.5t27.5 -20z" />
    <glyph glyph-name="Gcircumflex" unicode="&#x11c;" horiz-adv-x="539" 
d="M273 701q48 0 86 -14.5t65 -38.5t44 -55.5t24 -65.5l-137 -41q-2 10 -6.5 23.5t-14.5 24.5t-25 19t-36 8q-22 0 -37 -7.5t-24 -19t-13 -25t-4 -25.5v-258q0 -39 17.5 -66t59.5 -27q46 0 64.5 22.5t18.5 54.5v54h-94v123h238v-151q0 -54 -14 -98.5t-42.5 -76.5t-71 -49.5
t-98.5 -17.5q-60 0 -102.5 19t-69 51.5t-39 75.5t-12.5 90v248q0 39 12 78.5t38.5 71.5t69 52.5t103.5 20.5zM268 803l-135 -79l-50 53l142 132h88l140 -132l-51 -53z" />
    <glyph glyph-name="gcircumflex" unicode="&#x11d;" horiz-adv-x="467" 
d="M419 -7q0 -45 -12.5 -81.5t-37.5 -62.5t-62.5 -40.5t-86.5 -14.5q-111 0 -177 78l98 91q34 -42 79 -42q24 0 41.5 14t17.5 39v72l-4 1q-7 -10 -18 -18t-23.5 -14t-25 -9.5t-22.5 -3.5q-54 0 -85 22.5t-46.5 57.5t-19 79t-3.5 86q0 40 4 84.5t19.5 82t46.5 62t85 24.5
q22 0 47 -11t42 -33l3 2v37h140v-502zM226 134q18 0 28.5 11t16 28t7 38.5t1.5 41.5q0 58 -10 87t-43 29q-17 0 -27 -9.5t-15.5 -26t-7.5 -40t-2 -50.5q0 -20 1.5 -39.5t6.5 -35t15.5 -25t28.5 -9.5zM238 617q-9 -6 -27.5 -20t-39 -29.5t-38.5 -29t-27 -19.5l-53 47l141 157
h91l138 -156l-54 -49z" />
    <glyph glyph-name="Gbreve" unicode="&#x11e;" horiz-adv-x="539" 
d="M273 701q48 0 86 -14.5t65 -38.5t44 -55.5t24 -65.5l-137 -41q-2 10 -6.5 23.5t-14.5 24.5t-25 19t-36 8q-22 0 -37 -7.5t-24 -19t-13 -25t-4 -25.5v-258q0 -39 17.5 -66t59.5 -27q46 0 64.5 22.5t18.5 54.5v54h-94v123h238v-151q0 -54 -14 -98.5t-42.5 -76.5t-71 -49.5
t-98.5 -17.5q-60 0 -102.5 19t-69 51.5t-39 75.5t-12.5 90v248q0 39 12 78.5t38.5 71.5t69 52.5t103.5 20.5zM276 728q-45 0 -75.5 17t-49.5 42t-28 54t-10 53h103q0 -11 4.5 -23.5t12 -23t18.5 -18t25 -7.5q15 0 25.5 7.5t18 18t11 23t3.5 23.5h104q-2 -24 -11.5 -53
t-28.5 -54t-49 -42t-73 -17z" />
    <glyph glyph-name="gbreve" unicode="&#x11f;" horiz-adv-x="467" 
d="M419 -7q0 -45 -12.5 -81.5t-37.5 -62.5t-62.5 -40.5t-86.5 -14.5q-111 0 -177 78l98 91q34 -42 79 -42q24 0 41.5 14t17.5 39v72l-4 1q-7 -10 -18 -18t-23.5 -14t-25 -9.5t-22.5 -3.5q-54 0 -85 22.5t-46.5 57.5t-19 79t-3.5 86q0 40 4 84.5t19.5 82t46.5 62t85 24.5
q22 0 47 -11t42 -33l3 2v37h140v-502zM226 134q18 0 28.5 11t16 28t7 38.5t1.5 41.5q0 58 -10 87t-43 29q-17 0 -27 -9.5t-15.5 -26t-7.5 -40t-2 -50.5q0 -20 1.5 -39.5t6.5 -35t15.5 -25t28.5 -9.5zM243 542q-45 0 -75.5 17t-49.5 42.5t-28 55t-10 54.5h103
q0 -11 4.5 -23.5t12 -23.5t18.5 -18t25 -7q15 0 25.5 7t18 18t11 23.5t3.5 23.5h104q-2 -25 -11.5 -54.5t-28.5 -55t-49 -42.5t-73 -17z" />
    <glyph glyph-name="Gdotaccent" unicode="&#x120;" horiz-adv-x="539" 
d="M273 701q48 0 86 -14.5t65 -38.5t44 -55.5t24 -65.5l-137 -41q-2 10 -6.5 23.5t-14.5 24.5t-25 19t-36 8q-22 0 -37 -7.5t-24 -19t-13 -25t-4 -25.5v-258q0 -39 17.5 -66t59.5 -27q46 0 64.5 22.5t18.5 54.5v54h-94v123h238v-151q0 -54 -14 -98.5t-42.5 -76.5t-71 -49.5
t-98.5 -17.5q-60 0 -102.5 19t-69 51.5t-39 75.5t-12.5 90v248q0 39 12 78.5t38.5 71.5t69 52.5t103.5 20.5zM204 738v130h133v-130h-133z" />
    <glyph glyph-name="gdotaccent" unicode="&#x121;" horiz-adv-x="467" 
d="M419 -7q0 -45 -12.5 -81.5t-37.5 -62.5t-62.5 -40.5t-86.5 -14.5q-111 0 -177 78l98 91q34 -42 79 -42q24 0 41.5 14t17.5 39v72l-4 1q-7 -10 -18 -18t-23.5 -14t-25 -9.5t-22.5 -3.5q-54 0 -85 22.5t-46.5 57.5t-19 79t-3.5 86q0 40 4 84.5t19.5 82t46.5 62t85 24.5
q22 0 47 -11t42 -33l3 2v37h140v-502zM226 134q18 0 28.5 11t16 28t7 38.5t1.5 41.5q0 58 -10 87t-43 29q-17 0 -27 -9.5t-15.5 -26t-7.5 -40t-2 -50.5q0 -20 1.5 -39.5t6.5 -35t15.5 -25t28.5 -9.5zM186 558v130h133v-130h-133z" />
    <glyph glyph-name="Gcommaaccent" unicode="&#x122;" horiz-adv-x="539" 
d="M273 701q48 0 86 -14.5t65 -38.5t44 -55.5t24 -65.5l-137 -41q-2 10 -6.5 23.5t-14.5 24.5t-25 19t-36 8q-22 0 -37 -7.5t-24 -19t-13 -25t-4 -25.5v-258q0 -39 17.5 -66t59.5 -27q46 0 64.5 22.5t18.5 54.5v54h-94v123h238v-151q0 -54 -14 -98.5t-42.5 -76.5t-71 -49.5
t-98.5 -17.5q-60 0 -102.5 19t-69 51.5t-39 75.5t-12.5 90v248q0 39 12 78.5t38.5 71.5t69 52.5t103.5 20.5zM193 -295l32 108h-29v131h136v-126l-72 -113h-67z" />
    <glyph glyph-name="gcommaaccent" unicode="&#x123;" horiz-adv-x="467" 
d="M419 -7q0 -45 -12.5 -81.5t-37.5 -62.5t-62.5 -40.5t-86.5 -14.5q-111 0 -177 78l98 91q34 -42 79 -42q24 0 41.5 14t17.5 39v72l-4 1q-7 -10 -18 -18t-23.5 -14t-25 -9.5t-22.5 -3.5q-54 0 -85 22.5t-46.5 57.5t-19 79t-3.5 86q0 40 4 84.5t19.5 82t46.5 62t85 24.5
q22 0 47 -11t42 -33l3 2v37h140v-502zM252 812h66l-31 -107h28v-131h-135v126zM226 134q18 0 28.5 11t16 28t7 38.5t1.5 41.5q0 58 -10 87t-43 29q-17 0 -27 -9.5t-15.5 -26t-7.5 -40t-2 -50.5q0 -20 1.5 -39.5t6.5 -35t15.5 -25t28.5 -9.5z" />
    <glyph glyph-name="Hcircumflex" unicode="&#x124;" horiz-adv-x="567" 
d="M363 0v286h-158v-286h-145v696h145v-278h158v278h143v-696h-143zM280 803l-135 -79l-50 53l142 132h88l140 -132l-51 -53z" />
    <glyph glyph-name="hcircumflex" unicode="&#x125;" horiz-adv-x="482" 
d="M294 0v313q0 29 -14.5 42.5t-34.5 13.5q-22 0 -37 -14.5t-15 -42.5v-312h-140v726h140v-268l5 -1q17 17 41.5 30t50.5 13q69 0 106.5 -42.5t37.5 -111.5v-346h-140zM118 803l-135 -79l-50 53l142 132h88l140 -132l-51 -53z" />
    <glyph glyph-name="Hbar" unicode="&#x126;" horiz-adv-x="567" 
d="M363 0v286h-158v-286h-145v516h-46v79h46v101h145v-101h158v101h143v-101h43v-79h-43v-516h-143zM363 418v98h-158v-98h158z" />
    <glyph glyph-name="hbar" unicode="&#x127;" horiz-adv-x="482" 
d="M294 0v313q0 29 -14.5 42.5t-34.5 13.5q-22 0 -37 -14.5t-15 -42.5v-312h-140v563h-53v80h53v83h140v-83h133v-80h-133v-105l5 -1q17 17 41.5 30t50.5 13q69 0 106.5 -42.5t37.5 -111.5v-346h-140z" />
    <glyph glyph-name="Itilde" unicode="&#x128;" horiz-adv-x="331" 
d="M95 0v696h145v-696h-145zM104 870q18 0 34.5 -7t31.5 -14.5l28 -14t24 -6.5q16 0 29 9t33 34q17 -9 33.5 -18.5t33.5 -19.5q-26 -57 -54 -80.5t-60 -23.5q-19 0 -36 6.5t-33 14t-30 14t-27 6.5q-15 0 -30.5 -9t-35.5 -35l-65 40q24 54 55.5 79t68.5 25z" />
    <glyph glyph-name="itilde" unicode="&#x129;" horiz-adv-x="331" 
d="M99 0v495h140v-495h-140zM104 700q18 0 34.5 -7t31.5 -14.5l28 -14t24 -6.5q16 0 29 9t33 34q17 -9 33.5 -18.5t33.5 -19.5q-26 -57 -54 -80.5t-60 -23.5q-19 0 -36 6.5t-33 14t-30 14t-27 6.5q-15 0 -30.5 -9t-35.5 -35l-65 40q24 54 55.5 79t68.5 25z" />
    <glyph glyph-name="Imacron" unicode="&#x12a;" horiz-adv-x="268" 
d="M63 0v696h145v-696h-145zM-12 752v114h292v-114h-292z" />
    <glyph glyph-name="imacron" unicode="&#x12b;" horiz-adv-x="272" 
d="M66 0v495h140v-495h-140zM-10 572v114h292v-114h-292z" />
    <glyph glyph-name="Ibreve" unicode="&#x12c;" horiz-adv-x="288" 
d="M158 733q-45 0 -75.5 17t-49.5 42t-28 54t-10 53h103q0 -11 4.5 -23.5t12 -23t18.5 -18t25 -7.5q15 0 25.5 7.5t18 18t11 23t3.5 23.5h104q-2 -24 -11.5 -53t-28.5 -54t-49 -42t-73 -17zM79 0v696h145v-696h-145z" />
    <glyph glyph-name="ibreve" unicode="&#x12d;" horiz-adv-x="285" 
d="M72 0v495h140v-495h-140zM143 542q-45 0 -75.5 17t-49.5 42.5t-28 55t-10 54.5h103q0 -11 4.5 -23.5t12 -23.5t18.5 -18t25 -7q15 0 25.5 7t18 18t11 23.5t3.5 23.5h104q-2 -25 -11.5 -54.5t-28.5 -55t-49 -42.5t-73 -17z" />
    <glyph glyph-name="Iogonek" unicode="&#x12e;" horiz-adv-x="268" 
d="M52 -108q0 22 9.5 48.5t30.5 59.5h-29v696h145v-696h-33q-23 -34 -30 -57.5t-7 -36.5q0 -17 10.5 -26t27.5 -9q9 0 23.5 3.5t34.5 11.5l25 -64q-24 -14 -51 -21.5t-52 -7.5q-45 0 -74.5 27.5t-29.5 71.5z" />
    <glyph glyph-name="iogonek" unicode="&#x12f;" horiz-adv-x="253" 
d="M44 -108q0 22 9.5 48.5t30.5 59.5h-27v495h140v-495h-30q-23 -34 -30 -57.5t-7 -36.5q0 -17 10.5 -26t27.5 -9q9 0 23.5 3.5t34.5 11.5l25 -64q-24 -14 -51 -21.5t-52 -7.5q-45 0 -74.5 27.5t-29.5 71.5zM57 569v127h140v-127h-140z" />
    <glyph glyph-name="Idotaccent" unicode="&#x130;" horiz-adv-x="268" 
d="M63 0v696h145v-696h-145zM66 738v130h133v-130h-133z" />
    <glyph glyph-name="dotlessi" unicode="&#x131;" horiz-adv-x="253" 
d="M57 0v495h140v-495h-140z" />
    <glyph glyph-name="IJ" unicode="&#x132;" horiz-adv-x="692" 
d="M63 0v696h145v-696h-145zM630 197q0 -54 -16 -92t-43.5 -62.5t-65 -36t-79.5 -11.5q-54 0 -100.5 20t-82.5 68l95 97q9 -14 20 -23.5t22.5 -15.5t22.5 -8.5t19 -2.5q31 0 47.5 20.5t16.5 51.5v494h144v-499z" />
    <glyph glyph-name="ij" unicode="&#x133;" horiz-adv-x="502" 
d="M57 569v127h140v-127h-140zM57 0v495h140v-495h-140zM302 569v127h140v-127h-140zM442 -44q0 -76 -47.5 -115t-127.5 -39h-35v126h25q28 0 36.5 20t8.5 45v503h140v-540z" />
    <glyph glyph-name="Jcircumflex" unicode="&#x134;" horiz-adv-x="436" 
d="M379 198q0 -54 -16 -92t-43.5 -62.5t-65 -36t-79.5 -11.5q-54 0 -100.5 20t-82.5 68l95 97q9 -14 20 -23.5t22.5 -15.5t22.5 -8.5t19 -2.5q31 0 47.5 20.5t16.5 51.5v494h144v-499zM305 805l-135 -79l-50 53l142 132h88l140 -132l-51 -53z" />
    <glyph glyph-name="jcircumflex" unicode="&#x135;" horiz-adv-x="330" 
d="M232 -44q0 -76 -48 -115t-127 -39h-36v126h25q28 0 37 20t9 45v503h140v-540zM165 617q-9 -6 -27.5 -20t-39 -29.5t-38.5 -29t-27 -19.5l-53 47l141 157h91l138 -156l-54 -49z" />
    <glyph glyph-name="Kcommaaccent" unicode="&#x136;" horiz-adv-x="552" 
d="M210 438q9 13 18 28.5t26 43t45.5 71.5t76.5 115h172l-194 -285q52 -103 104 -205.5t105 -205.5h-164q-35 69 -67.5 138t-67.5 139l-59 -91v-186h-145v696h145v-258h5zM222 -275l32 108h-29v131h136v-126l-72 -113h-67z" />
    <glyph glyph-name="kcommaaccent" unicode="&#x137;" horiz-adv-x="483" 
d="M195 351l106 143h177l-161 -196l170 -298h-168l-97 184l-30 -41v-143h-139v724h139v-373h3zM181 -295l32 108h-29v131h136v-126l-72 -113h-67z" />
    <glyph glyph-name="kgreenlandic" unicode="&#x138;" horiz-adv-x="483" 
d="M195 351l106 143h177l-161 -196l170 -298h-163l-98 186l-34 -43v-143h-139v494h139v-143h3z" />
    <glyph glyph-name="Lacute" unicode="&#x139;" horiz-adv-x="482" 
d="M61 0v696h145v-559h260v-137h-405zM74 794l173 129l84 -100l-205 -97z" />
    <glyph glyph-name="lacute" unicode="&#x13a;" horiz-adv-x="260" 
d="M194 -2q-70 0 -108 31.5t-38 108.5v588h140v-557q0 -29 10.5 -38t30.5 -9h16v-124h-51zM51 809l173 129l84 -100l-205 -97z" />
    <glyph glyph-name="Lcommaaccent" unicode="&#x13b;" horiz-adv-x="482" 
d="M61 0v696h145v-559h260v-137h-405zM197 -295l32 108h-29v131h136v-126l-72 -113h-67z" />
    <glyph glyph-name="lcommaaccent" unicode="&#x13c;" horiz-adv-x="260" 
d="M194 -2q-70 0 -108 31.5t-38 108.5v588h140v-557q0 -29 10.5 -38t30.5 -9h16v-124h-51zM70 -293l32 108h-29v131h136v-126l-72 -113h-67z" />
    <glyph glyph-name="Lcaron" unicode="&#x13d;" horiz-adv-x="482" 
d="M61 0v696h145v-559h260v-137h-405zM272 457l32 108h-29v131h136v-126l-72 -113h-67z" />
    <glyph glyph-name="lcaron" unicode="&#x13e;" horiz-adv-x="353" 
d="M227 485l32 108h-29v131h136v-126l-72 -113h-67zM194 -2q-70 0 -108 31.5t-38 108.5v588h140v-557q0 -29 10.5 -38t30.5 -9h16v-124h-51z" />
    <glyph glyph-name="Ldot" unicode="&#x13f;" horiz-adv-x="482" 
d="M61 0v696h145v-559h260v-137h-405zM293 302v130h133v-130h-133z" />
    <glyph glyph-name="ldot" unicode="&#x140;" horiz-adv-x="344" 
d="M225 320v130h133v-130h-133zM194 -2q-70 0 -108 31.5t-38 108.5v588h140v-557q0 -29 10.5 -38t30.5 -9h16v-124h-51z" />
    <glyph glyph-name="Lslash" unicode="&#x141;" horiz-adv-x="512" 
d="M91 0v233l-45 -29l-46 73l91 58v361h145v-268l74 48l46 -73l-120 -77v-191h260v-135h-405z" />
    <glyph glyph-name="lslash" unicode="&#x142;" horiz-adv-x="328" 
d="M235 -2q-70 0 -108 31.5t-38 108.5v131l-42 -27l-47 73l89 56v355h140v-265l52 33l46 -73l-98 -63v-189q0 -29 10.5 -38t30.5 -9h16v-124h-51z" />
    <glyph glyph-name="Nacute" unicode="&#x143;" horiz-adv-x="596" 
d="M192 794l173 129l84 -100l-205 -97zM412 0l-129 230l-76 149l-3 -1v-378h-145v696h128l114 -208l91 -168l3 1v375h144v-696h-127z" />
    <glyph glyph-name="nacute" unicode="&#x144;" horiz-adv-x="482" 
d="M292 0v313q0 29 -14.5 42.5t-34.5 13.5q-22 0 -37 -14.5t-15 -42.5v-312h-140v495h140v-40l4 -1q17 20 42.5 33t51.5 13q75 0 109 -41t34 -111v-348h-140zM161 570l93 195l120 -48l-135 -183z" />
    <glyph glyph-name="Ncommaaccent" unicode="&#x145;" horiz-adv-x="596" 
d="M412 0l-129 232l-76 147l-3 -1v-378h-145v696h128l114 -208l91 -168l3 1v375h144v-696h-127zM230 -275l32 108h-29v131h136v-126l-72 -113h-67z" />
    <glyph glyph-name="ncommaaccent" unicode="&#x146;" horiz-adv-x="482" 
d="M292 0v313q0 29 -14.5 42.5t-34.5 13.5q-22 0 -37 -14.5t-15 -42.5v-312h-140v495h140v-40l4 -1q17 20 42.5 33t51.5 13q75 0 109 -41t34 -111v-348h-140zM167 -295l32 108h-29v131h136v-126l-72 -113h-67z" />
    <glyph glyph-name="Ncaron" unicode="&#x147;" horiz-adv-x="596" 
d="M412 0l-129 232l-76 147l-3 -1v-378h-145v696h128l114 -208l91 -168l3 1v375h144v-696h-127zM435 910l52 -53l-140 -130h-89l-141 130l50 53l134 -79z" />
    <glyph glyph-name="ncaron" unicode="&#x148;" horiz-adv-x="482" 
d="M292 0v313q0 29 -14.5 42.5t-34.5 13.5q-22 0 -37 -14.5t-15 -42.5v-312h-140v495h140v-40l4 -1q17 20 42.5 33t51.5 13q75 0 109 -41t34 -111v-348h-140zM358 723l54 -48l-138 -157h-91l-141 157l53 48q9 -6 27 -20t38.5 -29.5t39 -29.5t27.5 -20z" />
    <glyph glyph-name="napostrophe" unicode="&#x149;" horiz-adv-x="521" 
d="M371 0v313q0 29 -14.5 42.5t-34.5 13.5q-22 0 -37 -14.5t-15 -42.5v-312h-140v495h140v-40l4 -1q17 20 42.5 33t51.5 13q75 0 109 -41t34 -111v-348h-140zM-11 432l32 108h-29v131h136v-126l-72 -113h-67z" />
    <glyph glyph-name="Eng" unicode="&#x14a;" horiz-adv-x="596" 
d="M391 320q2 0 2 0.5t2 0.5v375h143v-750q0 -38 -11 -63t-29 -40t-42 -21.5t-50 -6.5q-37 0 -76 11l11 113q23 0 40.5 3t17.5 24v65l-95 173l-97 181q-2 0 -2 -0.5t-2 -0.5v-384h-144v696h128q28 -52 57 -103.5t57 -104.5l90 -168v0z" />
    <glyph glyph-name="eng" unicode="&#x14b;" horiz-adv-x="482" 
d="M431 -54q0 -38 -11 -63t-29 -40t-42 -21.5t-50 -6.5q-37 0 -76 11l11 113q23 0 40.5 3t17.5 24v347q0 29 -14.5 42.5t-35.5 13.5q-22 0 -36.5 -14.5t-14.5 -42.5v-312h-140v495h140v-40q1 0 1.5 -0.5t1.5 -0.5q18 19 46.5 32.5t54.5 13.5q46 0 73 -14.5t41 -39.5
t18 -58.5t4 -71.5v-370z" />
    <glyph glyph-name="Omacron" unicode="&#x14c;" horiz-adv-x="535" 
d="M490 219q0 -52 -16.5 -93.5t-46 -71t-70 -45t-89.5 -15.5q-60 0 -102.5 19t-69.5 51.5t-39.5 75.5t-12.5 90v248q0 39 12 78.5t39 71.5t69.5 52.5t103.5 20.5q57 0 99 -19.5t69 -51t40.5 -71.5t13.5 -81v-259zM344 484q0 10 -3.5 23t-12.5 25t-23.5 20.5t-36.5 8.5
t-37 -7.5t-24.5 -19t-14 -25t-4.5 -25.5v-258q0 -40 18.5 -66t61.5 -26q31 0 53.5 20t22.5 55v275zM120 752v114h292v-114h-292z" />
    <glyph glyph-name="omacron" unicode="&#x14d;" horiz-adv-x="459" 
d="M234 502q69 0 109.5 -27t57.5 -68q14 -32 18 -72.5t4 -88.5q0 -53 -5.5 -92t-19.5 -68q-26 -53 -71.5 -73t-102.5 -20q-51 0 -86.5 16t-58.5 45q-24 32 -33.5 79t-9.5 113q1 42 5 84.5t15 68.5q21 48 64.5 75.5t113.5 27.5zM232 373q-33 0 -47 -35q-6 -17 -8 -39.5
t-2 -54.5q0 -25 1.5 -48t8.5 -40q12 -34 45 -34q7 0 14.5 1.5t14.5 7t12.5 16t8.5 27.5q2 14 3.5 34.5t1.5 47.5q0 52 -10 81q-13 36 -43 36zM88 572v114h292v-114h-292z" />
    <glyph glyph-name="Obreve" unicode="&#x14e;" horiz-adv-x="535" 
d="M490 219q0 -52 -16.5 -93.5t-46 -71t-70 -45t-89.5 -15.5q-60 0 -102.5 19t-69.5 51.5t-39.5 75.5t-12.5 90v248q0 39 12 78.5t39 71.5t69.5 52.5t103.5 20.5q57 0 99 -19.5t69 -51t40.5 -71.5t13.5 -81v-259zM344 484q0 10 -3.5 23t-12.5 25t-23.5 20.5t-36.5 8.5
t-37 -7.5t-24.5 -19t-14 -25t-4.5 -25.5v-258q0 -40 18.5 -66t61.5 -26q31 0 53.5 20t22.5 55v275zM268 728q-45 0 -75.5 17t-49.5 42t-28 54t-10 53h103q0 -11 4.5 -23.5t12 -23t18.5 -18t25 -7.5q15 0 25.5 7.5t18 18t11 23t3.5 23.5h104q-2 -24 -11.5 -53t-28.5 -54
t-49 -42t-73 -17z" />
    <glyph glyph-name="obreve" unicode="&#x14f;" horiz-adv-x="459" 
d="M234 502q69 0 109.5 -27t57.5 -68q14 -32 18 -72.5t4 -88.5q0 -53 -5.5 -92t-19.5 -68q-26 -53 -71.5 -73t-102.5 -20q-51 0 -86.5 16t-58.5 45q-24 32 -33.5 79t-9.5 113q1 42 5 84.5t15 68.5q21 48 64.5 75.5t113.5 27.5zM232 373q-33 0 -47 -35q-6 -17 -8 -39.5
t-2 -54.5q0 -25 1.5 -48t8.5 -40q12 -34 45 -34q7 0 14.5 1.5t14.5 7t12.5 16t8.5 27.5q2 14 3.5 34.5t1.5 47.5q0 52 -10 81q-13 36 -43 36zM232 542q-45 0 -75.5 17t-49.5 42.5t-28 55t-10 54.5h103q0 -11 4.5 -23.5t12 -23.5t18.5 -18t25 -7q15 0 25.5 7t18 18t11 23.5
t3.5 23.5h104q-2 -25 -11.5 -54.5t-28.5 -55t-49 -42.5t-73 -17z" />
    <glyph glyph-name="Ohungarumlaut" unicode="&#x150;" horiz-adv-x="535" 
d="M490 219q0 -52 -16.5 -93.5t-46 -71t-70 -45t-89.5 -15.5q-60 0 -102.5 19t-69.5 51.5t-39.5 75.5t-12.5 90v248q0 39 12 78.5t39 71.5t69.5 52.5t103.5 20.5q57 0 99 -19.5t69 -51t40.5 -71.5t13.5 -81v-259zM344 484q0 10 -3.5 23t-12.5 25t-23.5 20.5t-36.5 8.5
t-37 -7.5t-24.5 -19t-14 -25t-4.5 -25.5v-258q0 -40 18.5 -66t61.5 -26q31 0 53.5 20t22.5 55v275zM79 781l159 146l90 -85l-190 -124zM282 783l162 143l89 -86l-193 -120z" />
    <glyph glyph-name="ohungarumlaut" unicode="&#x151;" horiz-adv-x="459" 
d="M234 502q69 0 109.5 -27t57.5 -68q14 -32 18 -72.5t4 -88.5q0 -53 -5.5 -92t-19.5 -68q-26 -53 -71.5 -73t-102.5 -20q-51 0 -86.5 16t-58.5 45q-24 32 -33.5 79t-9.5 113q1 42 5 84.5t15 68.5q21 48 64.5 75.5t113.5 27.5zM232 373q-33 0 -47 -35q-6 -17 -8 -39.5
t-2 -54.5q0 -25 1.5 -48t8.5 -40q12 -34 45 -34q7 0 14.5 1.5t14.5 7t12.5 16t8.5 27.5q2 14 3.5 34.5t1.5 47.5q0 52 -10 81q-13 36 -43 36zM84 584l93 195l120 -48l-135 -183zM242 570l93 195l120 -48l-135 -183z" />
    <glyph glyph-name="OE" unicode="&#x152;" horiz-adv-x="744" 
d="M325 0q-27 -6 -57 -6q-60 0 -102.5 19t-69.5 51.5t-39.5 75.5t-12.5 90v248q0 39 12 78.5t39 71.5t69.5 52.5t103.5 20.5q14 0 27.5 -1.5t25.5 -3.5h398v-134h-260v-144h224v-133h-224v-148h260v-137h-394zM268 134q26 0 46 14v399q-9 6 -20.5 10t-25.5 4q-22 0 -37 -7.5
t-24.5 -19t-14 -25t-4.5 -25.5v-258q0 -40 18.5 -66t61.5 -26z" />
    <glyph glyph-name="oe" unicode="&#x153;" horiz-adv-x="712" 
d="M673 104q-26 -56 -77 -82.5t-111 -26.5q-81 0 -127 38q-26 -23 -60.5 -31.5t-73.5 -8.5q-51 0 -86.5 16t-58.5 45q-24 32 -34.5 79t-10.5 113q1 42 6 84.5t16 68.5q21 48 67 75.5t111 27.5q42 0 72.5 -10.5t52.5 -28.5q23 19 54.5 28.5t73.5 9.5q60 0 98 -20t59.5 -53.5
t29.5 -78.5t8 -96v-39h-252v-8q0 -17 2 -32t8 -26.5t16.5 -18t27.5 -6.5q21 0 38 9.5t34 34.5zM232 373q-33 0 -47 -35q-6 -17 -8 -39.5t-2 -54.5q0 -25 1.5 -48t8.5 -40q12 -34 45 -34q7 0 14.5 1.5t14.5 7t12.5 16t8.5 27.5q2 14 3 34.5t1 47.5q0 26 -2 46t-7 35
q-13 36 -43 36zM535 302q0 13 -2 26t-7.5 23t-16 16t-27.5 6q-14 0 -24 -6.5t-16 -16.5t-8.5 -23t-3.5 -25h105z" />
    <glyph glyph-name="Racute" unicode="&#x154;" horiz-adv-x="549" 
d="M360 0l-93 275h-61v-275h-145v696h230q44 0 83.5 -12t69 -37t46.5 -63.5t17 -92.5q0 -67 -26 -115t-76 -75l112 -301h-157zM368 490q0 40 -22.5 57t-57.5 17h-82v-157h78q35 0 59.5 18.5t24.5 64.5zM155 794l173 129l84 -100l-205 -97z" />
    <glyph glyph-name="racute" unicode="&#x155;" horiz-adv-x="364" 
d="M277 369q-37 0 -59 -19.5t-22 -64.5v-286h-141v496h139v-55l3 -1q19 33 47 47t61 14q16 0 30.5 -3t27.5 -12l-25 -130q-17 8 -32 11t-29 3zM118 570l93 195l120 -48l-135 -183z" />
    <glyph glyph-name="Rcommaaccent" unicode="&#x156;" horiz-adv-x="549" 
d="M360 0l-93 275h-61v-275h-145v696h230q44 0 83.5 -12t69 -37t46.5 -63.5t17 -92.5q0 -67 -26 -115t-76 -75l112 -301h-157zM368 490q0 40 -22.5 57t-57.5 17h-82v-157h78q35 0 59.5 18.5t24.5 64.5zM215 -275l32 108h-29v131h136v-126l-72 -113h-67z" />
    <glyph glyph-name="rcommaaccent" unicode="&#x157;" horiz-adv-x="364" 
d="M277 369q-37 0 -59 -19.5t-22 -64.5v-286h-141v496h139v-55l3 -1q19 33 47 47t61 14q16 0 30.5 -3t27.5 -12l-25 -130q-17 8 -32 11t-29 3zM55 -294l32 108h-29v131h136v-126l-72 -113h-67z" />
    <glyph glyph-name="Rcaron" unicode="&#x158;" horiz-adv-x="549" 
d="M360 0l-93 275h-61v-275h-145v696h230q44 0 83.5 -12t69 -37t46.5 -63.5t17 -92.5q0 -67 -26 -115t-76 -75l112 -301h-157zM368 490q0 40 -22.5 57t-57.5 17h-82v-157h78q35 0 59.5 18.5t24.5 64.5zM368 910l52 -53l-140 -130h-89l-141 130l50 53l134 -79z" />
    <glyph glyph-name="rcaron" unicode="&#x159;" horiz-adv-x="364" 
d="M277 369q-37 0 -59 -19.5t-22 -64.5v-286h-141v496h139v-55l3 -1q19 33 47 47t61 14q16 0 30.5 -3t27.5 -12l-25 -130q-17 8 -32 11t-29 3zM316 723l54 -48l-138 -157h-91l-141 157l53 48q9 -6 27 -20t38.5 -29.5t39 -29.5t27.5 -20z" />
    <glyph glyph-name="Sacute" unicode="&#x15a;" horiz-adv-x="529" 
d="M503 206q0 -100 -61.5 -155.5t-174.5 -55.5q-44 0 -79.5 9t-64 24.5t-51.5 37t-41 47.5l114 92q27 -38 56.5 -56t67.5 -18q46 0 63.5 20t17.5 49q0 20 -9.5 34.5t-26 25.5t-38.5 19t-48 15q-48 15 -82 34t-55.5 43t-31.5 55t-10 70q0 45 16 82.5t45 65t69.5 42.5t89.5 15
q79 0 129.5 -24.5t85.5 -72.5l-104 -98q-50 59 -111 59q-32 0 -52.5 -17t-20.5 -45q0 -15 10 -27t27 -22t40 -19t49 -17q52 -16 87 -36.5t56 -47t29.5 -58.5t8.5 -70zM171 794l173 129l84 -100l-205 -97z" />
    <glyph glyph-name="sacute" unicode="&#x15b;" horiz-adv-x="442" 
d="M418 153q0 -71 -52.5 -114.5t-144.5 -43.5q-68 0 -114.5 20.5t-81.5 68.5l97 82q19 -28 42.5 -39t52.5 -11q28 0 43 12t15 26q0 17 -11 25.5t-37 13.5q-33 6 -67 15.5t-61 26.5t-44.5 43.5t-17.5 67.5q0 36 15 64.5t40.5 48.5t59 30.5t71.5 10.5q67 0 110.5 -20t75.5 -55
l-84 -88q-19 22 -41.5 32t-54.5 10q-29 0 -40 -10t-11 -20q0 -9 6 -15t16 -10t21.5 -7t23.5 -5q34 -7 65.5 -17t55.5 -28t38 -45.5t14 -68.5zM154 570l93 195l120 -48l-135 -183z" />
    <glyph glyph-name="Scircumflex" unicode="&#x15c;" horiz-adv-x="529" 
d="M503 206q0 -100 -61.5 -155.5t-174.5 -55.5q-44 0 -79.5 9t-64 24.5t-51.5 37t-41 47.5l114 92q27 -38 56.5 -56t67.5 -18q46 0 63.5 20t17.5 49q0 20 -9.5 34.5t-26 25.5t-38.5 19t-48 15q-48 15 -82 34t-55.5 43t-31.5 55t-10 70q0 45 16 82.5t45 65t69.5 42.5t89.5 15
q79 0 129.5 -24.5t85.5 -72.5l-104 -98q-50 59 -111 59q-32 0 -52.5 -17t-20.5 -45q0 -15 10 -27t27 -22t40 -19t49 -17q52 -16 87 -36.5t56 -47t29.5 -58.5t8.5 -70zM270 803l-135 -79l-50 53l142 132h88l140 -132l-51 -53z" />
    <glyph glyph-name="scircumflex" unicode="&#x15d;" horiz-adv-x="442" 
d="M418 153q0 -71 -52.5 -114.5t-144.5 -43.5q-68 0 -114.5 20.5t-81.5 68.5l97 82q19 -28 42.5 -39t52.5 -11q28 0 43 12t15 26q0 17 -11 25.5t-37 13.5q-33 6 -67 15.5t-61 26.5t-44.5 43.5t-17.5 67.5q0 36 15 64.5t40.5 48.5t59 30.5t71.5 10.5q67 0 110.5 -20t75.5 -55
l-84 -88q-19 22 -41.5 32t-54.5 10q-29 0 -40 -10t-11 -20q0 -9 6 -15t16 -10t21.5 -7t23.5 -5q34 -7 65.5 -17t55.5 -28t38 -45.5t14 -68.5zM226 617q-9 -6 -27.5 -20t-39 -29.5t-38.5 -29t-27 -19.5l-53 47l141 157h91l138 -156l-54 -49z" />
    <glyph glyph-name="Scedilla" unicode="&#x15e;" horiz-adv-x="529" 
d="M503 206q0 -98 -59 -153t-168 -58l-10 -31q27 -3 44.5 -12.5t28.5 -22t15.5 -27t4.5 -27.5q0 -37 -26 -63.5t-83 -26.5q-27 1 -54.5 5t-52.5 18l23 61q23 -11 38 -14t29 -3q15 0 25.5 8.5t10.5 21.5q0 14 -8.5 20.5t-20.5 6.5q-8 0 -14 -3q-9 6 -18 11t-18 11l22 71
q-64 10 -107 40.5t-74 73.5l114 92q27 -38 56.5 -56t67.5 -18q46 0 63.5 20t17.5 49q0 20 -9.5 34.5t-26 25.5t-38.5 19t-48 15q-48 15 -82 34t-55.5 43t-31.5 55t-10 70q0 45 16 82.5t45 65t69.5 42.5t89.5 15q79 0 129.5 -24.5t85.5 -72.5l-104 -98q-50 59 -111 59
q-32 0 -52.5 -17t-20.5 -45q0 -15 10 -27t27 -22t40 -19t49 -17q52 -16 87 -36.5t56 -47t29.5 -58.5t8.5 -70z" />
    <glyph glyph-name="scedilla" unicode="&#x15f;" horiz-adv-x="442" 
d="M418 153q0 -63 -42.5 -105t-117.5 -50l-11 -34q27 -3 44.5 -12.5t28.5 -22t15.5 -27t4.5 -27.5q0 -37 -26 -63.5t-83 -26.5q-27 1 -54.5 5t-52.5 18l23 61q23 -11 38 -14t29 -3q15 0 25.5 8.5t10.5 21.5q0 14 -8.5 20.5t-20.5 6.5q-8 0 -14 -3q-9 6 -18 11t-18 11l21 68
q-56 4 -95.5 24.5t-71.5 63.5l97 82q19 -28 42.5 -39t52.5 -11q28 0 43 12t15 26q0 17 -11 25.5t-37 13.5q-33 6 -67 15.5t-61 26.5t-44.5 43.5t-17.5 67.5q0 36 15 64.5t40.5 48.5t59 30.5t71.5 10.5q67 0 110.5 -20t75.5 -55l-84 -88q-19 22 -41.5 32t-54.5 10
q-29 0 -40 -10t-11 -20q0 -9 6 -15t16 -10t21.5 -7t23.5 -5q34 -7 65.5 -17t55.5 -28t38 -45.5t14 -68.5z" />
    <glyph glyph-name="Scaron" unicode="&#x160;" horiz-adv-x="529" 
d="M503 206q0 -100 -61.5 -155.5t-174.5 -55.5q-44 0 -79.5 9t-64 24.5t-51.5 37t-41 47.5l114 92q27 -38 56.5 -56t67.5 -18q46 0 63.5 20t17.5 49q0 20 -9.5 34.5t-26 25.5t-38.5 19t-48 15q-48 15 -82 34t-55.5 43t-31.5 55t-10 70q0 45 16 82.5t45 65t69.5 42.5t89.5 15
q79 0 129.5 -24.5t85.5 -72.5l-104 -98q-50 59 -111 59q-32 0 -52.5 -17t-20.5 -45q0 -15 10 -27t27 -22t40 -19t49 -17q52 -16 87 -36.5t56 -47t29.5 -58.5t8.5 -70zM401 910l52 -53l-140 -130h-89l-141 130l50 53l134 -79z" />
    <glyph glyph-name="scaron" unicode="&#x161;" horiz-adv-x="442" 
d="M418 153q0 -71 -52.5 -114.5t-144.5 -43.5q-68 0 -114.5 20.5t-81.5 68.5l97 82q19 -28 42.5 -39t52.5 -11q28 0 43 12t15 26q0 17 -11 25.5t-37 13.5q-33 6 -67 15.5t-61 26.5t-44.5 43.5t-17.5 67.5q0 36 15 64.5t40.5 48.5t59 30.5t71.5 10.5q67 0 110.5 -20t75.5 -55
l-84 -88q-19 22 -41.5 32t-54.5 10q-29 0 -40 -10t-11 -20q0 -9 6 -15t16 -10t21.5 -7t23.5 -5q34 -7 65.5 -17t55.5 -28t38 -45.5t14 -68.5zM357 723l54 -48l-138 -157h-91l-141 157l53 48q9 -6 27 -20t38.5 -29.5t39 -29.5t27.5 -20z" />
    <glyph glyph-name="Tcommaaccent" unicode="&#x162;" horiz-adv-x="458" 
d="M299 564v-564h-144v564h-149v132h442v-132h-149zM157 -295l32 108h-29v131h136v-126l-72 -113h-67z" />
    <glyph glyph-name="tcommaaccent" unicode="&#x163;" horiz-adv-x="305" 
d="M209 386v-213q0 -25 8.5 -37t35.5 -12h21v-124h-66q-66 0 -100.5 37.5t-34.5 92.5v256h-49v110h50v133h134v-133h66v-110h-65zM80 -295l32 108h-29v131h136v-126l-72 -113h-67z" />
    <glyph glyph-name="Tcaron" unicode="&#x164;" horiz-adv-x="458" 
d="M299 564v-564h-144v564h-149v132h442v-132h-149zM363 910l52 -53l-140 -130h-89l-141 130l50 53l134 -79z" />
    <glyph glyph-name="tcaron" unicode="&#x165;" horiz-adv-x="368" 
d="M255 554l32 108h-29v131h136v-126l-72 -113h-67zM209 386v-213q0 -25 8.5 -37t35.5 -12h21v-124h-66q-66 0 -100.5 37.5t-34.5 92.5v256h-49v110h50v133h134v-133h66v-110h-65z" />
    <glyph glyph-name="Tbar" unicode="&#x166;" horiz-adv-x="458" 
d="M299 564v-158h127v-89h-127v-317h-144v317h-118v89h118v158h-149v132h442v-132h-149z" />
    <glyph glyph-name="tbar" unicode="&#x167;" horiz-adv-x="305" 
d="M209 386v-71h65v-83h-65v-59q0 -25 8.5 -37t35.5 -12h21v-124h-66q-66 0 -100.5 37.5t-34.5 92.5v102h-49v83h49v71h-49v110h50v133h134v-133h66v-110h-65z" />
    <glyph glyph-name="Utilde" unicode="&#x168;" horiz-adv-x="551" 
d="M499 696v-477q0 -52 -16.5 -93.5t-46 -71t-70 -45t-89.5 -15.5q-60 0 -102.5 19t-69.5 51.5t-39.5 75.5t-12.5 90v466h144v-470q0 -40 18.5 -66t61.5 -26q31 0 53.5 21.5t22.5 56.5v484h146zM218 875q18 0 34.5 -7t31.5 -14.5l28 -14t24 -6.5q16 0 29 9t33 34
q17 -9 33.5 -18.5t33.5 -19.5q-26 -57 -54 -80.5t-60 -23.5q-19 0 -36 6.5t-33 14t-30 14t-27 6.5q-15 0 -30.5 -9t-35.5 -35l-65 40q24 54 55.5 79t68.5 25z" />
    <glyph glyph-name="utilde" unicode="&#x169;" horiz-adv-x="482" 
d="M192 495v-313q0 -29 14.5 -42.5t34.5 -13.5q22 0 37 14.5t15 42.5v312h140v-495h-140v40l-4 1q-17 -20 -42.5 -33t-51.5 -13q-75 0 -109 41t-34 111v348h140zM179 700q18 0 34.5 -7t31.5 -14.5l28 -14t24 -6.5q16 0 29 9t33 34q17 -9 33.5 -18.5t33.5 -19.5
q-26 -57 -54 -80.5t-60 -23.5q-19 0 -36 6.5t-33 14t-30 14t-27 6.5q-15 0 -30.5 -9t-35.5 -35l-65 40q24 54 55.5 79t68.5 25z" />
    <glyph glyph-name="Umacron" unicode="&#x16a;" horiz-adv-x="551" 
d="M499 696v-477q0 -52 -16.5 -93.5t-46 -71t-70 -45t-89.5 -15.5q-60 0 -102.5 19t-69.5 51.5t-39.5 75.5t-12.5 90v466h144v-470q0 -40 18.5 -66t61.5 -26q31 0 53.5 21.5t22.5 56.5v484h146zM130 752v114h292v-114h-292z" />
    <glyph glyph-name="umacron" unicode="&#x16b;" horiz-adv-x="482" 
d="M192 495v-313q0 -29 14.5 -42.5t34.5 -13.5q22 0 37 14.5t15 42.5v312h140v-495h-140v40l-4 1q-17 -20 -42.5 -33t-51.5 -13q-75 0 -109 41t-34 111v348h140zM98 572v114h292v-114h-292z" />
    <glyph glyph-name="Ubreve" unicode="&#x16c;" horiz-adv-x="551" 
d="M499 696v-477q0 -52 -16.5 -93.5t-46 -71t-70 -45t-89.5 -15.5q-60 0 -102.5 19t-69.5 51.5t-39.5 75.5t-12.5 90v466h144v-470q0 -40 18.5 -66t61.5 -26q31 0 53.5 21.5t22.5 56.5v484h146zM278 728q-45 0 -75.5 17t-49.5 42t-28 54t-10 53h103q0 -11 4.5 -23.5t12 -23
t18.5 -18t25 -7.5q15 0 25.5 7.5t18 18t11 23t3.5 23.5h104q-2 -24 -11.5 -53t-28.5 -54t-49 -42t-73 -17z" />
    <glyph glyph-name="ubreve" unicode="&#x16d;" horiz-adv-x="482" 
d="M192 495v-313q0 -29 14.5 -42.5t34.5 -13.5q22 0 37 14.5t15 42.5v312h140v-495h-140v40l-4 1q-17 -20 -42.5 -33t-51.5 -13q-75 0 -109 41t-34 111v348h140zM245 542q-45 0 -75.5 17t-49.5 42.5t-28 55t-10 54.5h103q0 -11 4.5 -23.5t12 -23.5t18.5 -18t25 -7
q15 0 25.5 7t18 18t11 23.5t3.5 23.5h104q-2 -25 -11.5 -54.5t-28.5 -55t-49 -42.5t-73 -17z" />
    <glyph glyph-name="Uring" unicode="&#x16e;" horiz-adv-x="551" 
d="M499 696v-477q0 -52 -16.5 -93.5t-46 -71t-70 -45t-89.5 -15.5q-60 0 -102.5 19t-69.5 51.5t-39.5 75.5t-12.5 90v466h144v-470q0 -40 18.5 -66t61.5 -26q31 0 53.5 21.5t22.5 56.5v484h146zM310 818q0 14 -10.5 24t-24.5 10q-15 0 -25.5 -10t-10.5 -24t10.5 -24
t25.5 -10q14 0 24.5 10t10.5 24zM162 819q0 22 9 42t24 35t35.5 23.5t44.5 8.5t44.5 -8.5t35.5 -23.5t23.5 -35t8.5 -42q0 -23 -8.5 -42.5t-24 -34.5t-36 -23.5t-44.5 -8.5q-23 0 -43.5 8.5t-35.5 23.5t-24 34.5t-9 42.5z" />
    <glyph glyph-name="uring" unicode="&#x16f;" horiz-adv-x="482" 
d="M192 495v-313q0 -29 14.5 -42.5t34.5 -13.5q22 0 37 14.5t15 42.5v312h140v-495h-140v40l-4 1q-17 -20 -42.5 -33t-51.5 -13q-75 0 -109 41t-34 111v348h140zM280 631q0 14 -10.5 24t-24.5 10q-15 0 -25.5 -10t-10.5 -24t10.5 -24t25.5 -10q14 0 24.5 10t10.5 24z
M132 632q0 22 9 42t24 35t35.5 23.5t44.5 8.5t44.5 -8.5t35.5 -23.5t23.5 -35t8.5 -42q0 -23 -8.5 -42.5t-24 -34.5t-36 -23.5t-44.5 -8.5q-23 0 -43.5 8.5t-35.5 23.5t-24 34.5t-9 42.5z" />
    <glyph glyph-name="Uhungarumlaut" unicode="&#x170;" horiz-adv-x="551" 
d="M499 696v-477q0 -52 -16.5 -93.5t-46 -71t-70 -45t-89.5 -15.5q-60 0 -102.5 19t-69.5 51.5t-39.5 75.5t-12.5 90v466h144v-470q0 -40 18.5 -66t61.5 -26q31 0 53.5 21.5t22.5 56.5v484h146zM83 781l159 146l90 -85l-190 -124zM286 783l162 143l89 -86l-193 -120z" />
    <glyph glyph-name="uhungarumlaut" unicode="&#x171;" horiz-adv-x="482" 
d="M192 495v-313q0 -29 14.5 -42.5t34.5 -13.5q22 0 37 14.5t15 42.5v312h140v-495h-140v40l-4 1q-17 -20 -42.5 -33t-51.5 -13q-75 0 -109 41t-34 111v348h140zM78 584l93 195l120 -48l-135 -183zM236 570l93 195l120 -48l-135 -183z" />
    <glyph glyph-name="Uogonek" unicode="&#x172;" horiz-adv-x="551" 
d="M499 696v-477q0 -47 -13.5 -85.5t-37.5 -67t-58 -46.5t-75 -23q-20 -31 -27 -54t-7 -36q0 -17 10.5 -26t27.5 -9q9 0 23.5 3.5t34.5 11.5l25 -64q-24 -14 -51 -21.5t-52 -7.5q-45 0 -74.5 27.5t-29.5 71.5q0 21 8.5 47t28.5 57q-48 7 -81.5 28.5t-55.5 52.5t-32 70
t-10 82v466h144v-470q0 -40 18.5 -66t61.5 -26q31 0 53.5 21.5t22.5 56.5v484h146z" />
    <glyph glyph-name="uogonek" unicode="&#x173;" horiz-adv-x="482" 
d="M252 -107q0 22 9.5 49t31.5 60v38l-4 1q-17 -20 -42.5 -33t-51.5 -13q-75 0 -109 41t-34 111v348h140v-313q0 -29 14.5 -42.5t34.5 -13.5q22 0 37 14.5t15 42.5v312h140v-495h-59q-22 -33 -29 -56.5t-7 -36.5q0 -17 10.5 -26t27.5 -9q9 0 23.5 3.5t34.5 11.5l25 -64
q-24 -14 -51 -21.5t-52 -7.5q-45 0 -74.5 27.5t-29.5 71.5z" />
    <glyph glyph-name="Wcircumflex" unicode="&#x174;" horiz-adv-x="748" 
d="M373 365q-9 -38 -18 -75.5t-19 -75.5q-12 -54 -27 -108t-28 -107h-130l-147 696h158q11 -64 22 -126.5t21 -125.5q6 -35 11 -69.5t11 -69.5h4q11 48 21 96.5t21 96.5l45 198h113q12 -50 23.5 -99.5t22.5 -99.5q11 -49 21.5 -98t21.5 -98h5q5 35 10 69t10 69l41 257h158
l-147 -696h-130q-13 54 -27 108.5t-27 108.5l-36 149h-4zM372 803l-135 -79l-50 53l142 132h88l140 -132l-51 -53z" />
    <glyph glyph-name="wcircumflex" unicode="&#x175;" horiz-adv-x="668" 
d="M529 0h-136l-27 111l-30 135h-4l-30 -134l-28 -112h-135l-132 495h149l26 -147l26 -141h5l30 141l30 147h122l31 -148l32 -140h5l26 142l25 146h146zM329 617q-9 -6 -27.5 -20t-39 -29.5t-38.5 -29t-27 -19.5l-53 47l141 157h91l138 -156l-54 -49z" />
    <glyph glyph-name="Ycircumflex" unicode="&#x176;" horiz-adv-x="510" 
d="M327 279v-279h-142v279l-180 419h161l46 -142l41 -133h6l43 134l51 139h154zM261 803l-135 -79l-50 53l142 132h88l140 -132l-51 -53z" />
    <glyph glyph-name="ycircumflex" unicode="&#x177;" horiz-adv-x="442" 
d="M254 -87q-19 -60 -58 -86.5t-95 -26.5h-49v120h29q41 0 56 51l16 55l-152 469h150l34 -160l31 -137h5l32 136l40 161h146zM219 617q-9 -6 -27.5 -20t-39 -29.5t-38.5 -29t-27 -19.5l-53 47l141 157h91l138 -156l-54 -49z" />
    <glyph glyph-name="Ydieresis" unicode="&#x178;" horiz-adv-x="510" 
d="M327 279v-279h-142v279l-180 419h161l46 -142l41 -133h6l43 134l51 139h154zM288 737v131h135v-131h-135zM93 737v131h136v-131h-136z" />
    <glyph glyph-name="Zacute" unicode="&#x179;" horiz-adv-x="455" 
d="M25 0v126l236 438h-225v132h394v-122l-235 -437h235v-137h-405zM131 794l173 129l84 -100l-205 -97z" />
    <glyph glyph-name="zacute" unicode="&#x17a;" horiz-adv-x="407" 
d="M28 0v120l184 253h-171v122h337v-113l-185 -254h185v-128h-350zM151 570l93 195l120 -48l-135 -183z" />
    <glyph glyph-name="Zdotaccent" unicode="&#x17b;" horiz-adv-x="455" 
d="M25 0v126l236 438h-225v132h394v-122l-235 -437h235v-137h-405zM166 738v130h133v-130h-133z" />
    <glyph glyph-name="zdotaccent" unicode="&#x17c;" horiz-adv-x="407" 
d="M28 0v120l184 253h-171v122h337v-113l-185 -254h185v-128h-350zM150 558v130h133v-130h-133z" />
    <glyph glyph-name="Zcaron" unicode="&#x17d;" horiz-adv-x="455" 
d="M25 0v126l236 438h-225v132h394v-122l-235 -437h235v-137h-405zM375 910l52 -53l-140 -130h-89l-141 130l50 53l134 -79z" />
    <glyph glyph-name="zcaron" unicode="&#x17e;" horiz-adv-x="407" 
d="M28 0v120l184 253h-171v122h337v-113l-185 -254h185v-128h-350zM337 723l54 -48l-138 -157h-91l-141 157l53 48q9 -6 27 -20t38.5 -29.5t39 -29.5t27.5 -20z" />
    <glyph glyph-name="florin" unicode="&#x192;" horiz-adv-x="490" 
d="M106 434h85l7 61q4 36 14.5 73t31.5 66t54 47.5t81 18.5q24 0 50.5 -4t49.5 -14l-28 -113q-24 10 -37 11.5t-27 1.5q-13 0 -22.5 -7.5t-16 -19.5t-10.5 -27t-6 -30l-8 -64h82l1 -116h-97l-23 -198q-6 -47 -17 -86.5t-30.5 -67.5t-48.5 -43.5t-71 -15.5q-21 0 -52 6.5
t-59 18.5l33 109q22 -10 34 -12t21 -2q23 0 35.5 21.5t18.5 71.5l23 198h-67z" />
    <glyph glyph-name="Ohorn" unicode="&#x1a0;" horiz-adv-x="558" 
d="M490 219q0 -52 -16.5 -93.5t-46 -71t-70 -45t-89.5 -15.5q-60 0 -102.5 19t-69.5 51.5t-39.5 75.5t-12.5 90v248q0 39 12 78.5t39 71.5t69.5 52.5t103.5 20.5q49 0 86.5 -14.5t64.5 -38.5q20 8 28.5 29.5t8.5 63.5v62h104v-85q0 -57 -22.5 -96t-62.5 -59q15 -41 15 -85
v-259zM344 484q0 10 -3.5 23t-12.5 25t-23.5 20.5t-36.5 8.5t-37 -7.5t-24.5 -19t-14 -25t-4.5 -25.5v-258q0 -40 18.5 -66t61.5 -26q31 0 53.5 20t22.5 55v275z" />
    <glyph glyph-name="ohorn" unicode="&#x1a1;" horiz-adv-x="504" 
d="M234 502q47 0 80.5 -13.5t55.5 -35.5q17 8 25.5 29.5t8.5 61.5v60h104v-83q0 -60 -24.5 -100.5t-69.5 -58.5q5 -26 7 -55t2 -61q0 -53 -5.5 -92t-19.5 -68q-26 -53 -71.5 -73t-102.5 -20q-51 0 -86.5 16t-58.5 45q-24 32 -33.5 79t-9.5 113q1 42 5 84.5t15 68.5
q21 48 64.5 75.5t113.5 27.5zM232 373q-33 0 -47 -35q-6 -17 -8 -39.5t-2 -54.5q0 -25 1.5 -48t8.5 -40q12 -34 45 -34q7 0 14.5 1.5t14.5 7t12.5 16t8.5 27.5q2 14 3.5 34.5t1.5 47.5q0 52 -10 81q-13 36 -43 36z" />
    <glyph glyph-name="Uhorn" unicode="&#x1af;" horiz-adv-x="630" 
d="M499 696v-49q25 6 36.5 27t11.5 68v61h104v-85q0 -78 -41 -123t-111 -48v-328q0 -52 -16.5 -93.5t-46 -71t-70 -45t-89.5 -15.5q-60 0 -102.5 19t-69.5 51.5t-39.5 75.5t-12.5 90v466h144v-470q0 -40 18.5 -66t61.5 -26q31 0 53.5 21.5t22.5 56.5v484h146z" />
    <glyph glyph-name="uhorn" unicode="&#x1b0;" horiz-adv-x="572" 
d="M192 495v-313q0 -29 14.5 -42.5t34.5 -13.5q22 0 37 14.5t15 42.5v312h140v-47q23 7 33 28.5t10 67.5v60h105v-83q0 -76 -39.5 -121t-108.5 -50v-350h-140v40l-4 1q-17 -20 -42.5 -33t-51.5 -13q-75 0 -109 41t-34 111v348h140z" />
    <glyph glyph-name="AEacute" unicode="&#x1fc;" horiz-adv-x="867" 
d="M828 696v-134h-261v-144h224v-133h-224v-148h261v-137h-406v150h-172l-61 -150h-163l309 696h493zM418 561l-115 -279h119v279h-4zM441 794l173 129l84 -100l-205 -97z" />
    <glyph glyph-name="aeacute" unicode="&#x1fd;" horiz-adv-x="710" 
d="M668 103q-26 -56 -75.5 -82t-109.5 -26q-52 0 -88.5 14.5t-60.5 42.5q-24 -23 -49 -35t-46.5 -17t-38 -5h-23.5q-73 0 -109 39t-36 114q0 31 10.5 58.5t31.5 48.5t52.5 33t74.5 12h80v19q0 8 -4 17.5t-11.5 18t-19 14.5t-27.5 6q-26 0 -45.5 -9.5t-30.5 -29.5l-101 64
q28 55 75.5 77.5t109.5 22.5q40 0 76 -7.5t58 -33.5q20 23 49.5 32.5t67.5 9.5q60 0 98.5 -20t60.5 -53.5t30.5 -78.5t8.5 -96v-50h-252q0 -37 10 -58.5t44 -21.5q21 0 38 9.5t34 34.5zM281 202h-61q-28 0 -40 -12t-12 -32q0 -14 11.5 -27.5t41.5 -13.5q24 0 42 14t18 41v30
zM531 302q0 13 -2 26t-8 23t-17 16t-28 6q-15 0 -24.5 -6.5t-15.5 -16.5t-8.5 -23t-3.5 -25h107zM308 570l93 195l120 -48l-135 -183z" />
    <glyph glyph-name="Oslashacute" unicode="&#x1fe;" horiz-adv-x="535" 
d="M41 21l39 65q-19 31 -27.5 67.5t-8.5 76.5v248q0 39 12 78.5t39 71.5t69.5 52.5t103.5 20.5q48 0 85 -14t64 -37l31 52l43 -28l-39 -65q19 -29 28.5 -62.5t9.5 -68.5v-259q0 -52 -16.5 -93.5t-46 -71t-70 -45t-89.5 -15.5q-52 0 -90.5 14t-65.5 39l-31 -52zM344 430
l-150 -247q8 -23 26 -36t48 -13q31 0 53.5 20t22.5 55v221zM186 794l173 129l84 -100l-205 -97zM188 267l149 249q-8 17 -24 31t-45 14q-22 0 -37 -7.5t-24.5 -19t-14 -25t-4.5 -25.5v-217z" />
    <glyph glyph-name="oslashacute" unicode="&#x1ff;" horiz-adv-x="459" 
d="M234 502q36 0 64 -8t49 -22l36 55l30 -21l-38 -59q17 -18 26 -40q14 -32 18 -72.5t4 -88.5q0 -53 -5.5 -92t-19.5 -68q-26 -53 -71.5 -73t-102.5 -20q-74 0 -119 34l-30 -46l-29 20l33 52v1q-24 32 -33.5 79t-9.5 113q1 42 5 84.5t15 68.5q21 48 64.5 75.5t113.5 27.5z
M160 570l93 195l120 -48l-135 -183zM285 256q0 26 -3 47l-96 -150q12 -31 44 -31q7 0 14.5 1.5t14.5 7t12.5 16t8.5 27.5q2 14 3.5 34.5t1.5 47.5zM232 373q-33 0 -47 -35q-6 -17 -8 -39.5t-2 -54.5v-20.5t1 -19.5l93 145q-13 24 -37 24z" />
    <glyph glyph-name="Scommaaccent" unicode="&#x218;" horiz-adv-x="529" 
d="M503 206q0 -100 -61.5 -155.5t-174.5 -55.5q-44 0 -79.5 9t-64 24.5t-51.5 37t-41 47.5l114 92q27 -38 56.5 -56t67.5 -18q46 0 63.5 20t17.5 49q0 20 -9.5 34.5t-26 25.5t-38.5 19t-48 15q-48 15 -82 34t-55.5 43t-31.5 55t-10 70q0 45 16 82.5t45 65t69.5 42.5t89.5 15
q79 0 129.5 -24.5t85.5 -72.5l-104 -98q-50 59 -111 59q-32 0 -52.5 -17t-20.5 -45q0 -15 10 -27t27 -22t40 -19t49 -17q52 -16 87 -36.5t56 -47t29.5 -58.5t8.5 -70zM192 -295l32 108h-29v131h136v-126l-72 -113h-67z" />
    <glyph glyph-name="scommaaccent" unicode="&#x219;" horiz-adv-x="442" 
d="M418 153q0 -71 -52.5 -114.5t-144.5 -43.5q-68 0 -114.5 20.5t-81.5 68.5l97 82q19 -28 42.5 -39t52.5 -11q28 0 43 12t15 26q0 17 -11 25.5t-37 13.5q-33 6 -67 15.5t-61 26.5t-44.5 43.5t-17.5 67.5q0 36 15 64.5t40.5 48.5t59 30.5t71.5 10.5q67 0 110.5 -20t75.5 -55
l-84 -88q-19 22 -41.5 32t-54.5 10q-29 0 -40 -10t-11 -20q0 -9 6 -15t16 -10t21.5 -7t23.5 -5q34 -7 65.5 -17t55.5 -28t38 -45.5t14 -68.5zM145 -295l32 108h-29v131h136v-126l-72 -113h-67z" />
    <glyph glyph-name="schwa" unicode="&#x259;" horiz-adv-x="464" 
d="M52 400q62 101 181 101q55 0 92.5 -17t61 -49.5t33.5 -79t10 -106.5q0 -59 -10 -106t-33 -80t-61 -50.5t-95 -17.5q-60 0 -98 20t-59.5 53.5t-29.5 78.5t-8 96v39h252v8q0 34 -12.5 58.5t-46.5 24.5q-21 0 -42.5 -10.5t-38.5 -35.5zM183 194q0 -13 2 -26t7.5 -23t16 -16
t27.5 -6q14 0 23.5 6.5t15.5 16.5t9 23t4 25h-105z" />
    <glyph glyph-name="primemod" unicode="&#x2b9;" horiz-adv-x="265" 
d="M297 702l-150 -308l-103 32l111 326z" />
    <glyph glyph-name="circumflex" unicode="&#x2c6;" horiz-adv-x="451" 
d="M233 617q-9 -6 -27.5 -20t-39 -29.5t-38.5 -29t-27 -19.5l-53 47l141 157h91l138 -156l-54 -49z" />
    <glyph glyph-name="caron" unicode="&#x2c7;" horiz-adv-x="451" 
d="M364 723l54 -48l-138 -157h-91l-141 157l53 48q9 -6 27 -20t38.5 -29.5t39 -29.5t27.5 -20z" />
    <glyph glyph-name="breve" unicode="&#x2d8;" horiz-adv-x="509" 
d="M249 542q-45 0 -75.5 17t-49.5 42.5t-28 55t-10 54.5h103q0 -11 4.5 -23.5t12 -23.5t18.5 -18t25 -7q15 0 25.5 7t18 18t11 23.5t3.5 23.5h104q-2 -25 -11.5 -54.5t-28.5 -55t-49 -42.5t-73 -17z" />
    <glyph glyph-name="dotaccent" unicode="&#x2d9;" horiz-adv-x="373" 
d="M130 558v130h133v-130h-133z" />
    <glyph glyph-name="ring" unicode="&#x2da;" horiz-adv-x="462" 
d="M285 631q0 14 -10.5 24t-24.5 10q-15 0 -25.5 -10t-10.5 -24t10.5 -24t25.5 -10q14 0 24.5 10t10.5 24zM137 632q0 22 9 42t24 35t35.5 23.5t44.5 8.5t44.5 -8.5t35.5 -23.5t23.5 -35t8.5 -42q0 -23 -8.5 -42.5t-24 -34.5t-36 -23.5t-44.5 -8.5q-23 0 -43.5 8.5
t-35.5 23.5t-24 34.5t-9 42.5z" />
    <glyph glyph-name="ogonek" unicode="&#x2db;" horiz-adv-x="344" 
d="M145 -109q0 23 11 51.5t34 63.5h83q-26 -37 -34 -62t-8 -39q0 -17 10.5 -26t27.5 -9q9 0 23.5 3.5t34.5 11.5l25 -64q-24 -14 -51 -21.5t-52 -7.5q-45 0 -74.5 27.5t-29.5 71.5z" />
    <glyph glyph-name="tilde" unicode="&#x2dc;" horiz-adv-x="439" 
d="M163 700q18 0 34.5 -7t31.5 -14.5l28 -14t24 -6.5q16 0 29 9t33 34q17 -9 33.5 -18.5t33.5 -19.5q-26 -57 -54 -80.5t-60 -23.5q-19 0 -36 6.5t-33 14t-30 14t-27 6.5q-15 0 -30.5 -9t-35.5 -35l-65 40q24 54 55.5 79t68.5 25z" />
    <glyph glyph-name="hungarumlaut" unicode="&#x2dd;" horiz-adv-x="492" 
d="M97 584l93 195l120 -48l-135 -183zM255 570l93 195l120 -48l-135 -183z" />
    <glyph glyph-name="tonos" unicode="&#x384;" horiz-adv-x="451" 
d="M156 570l93 195l120 -48l-135 -183z" />
    <glyph glyph-name="dieresistonos" unicode="&#x385;" horiz-adv-x="541" 
d="M356 562v126h134v-126h-134zM45 562v126h133v-126h-133zM189 549l50 211l129 -23l-95 -206z" />
    <glyph glyph-name="Alphatonos" unicode="&#x386;" horiz-adv-x="555" 
d="M359 142h-165q-9 -35 -18.5 -71t-19.5 -71h-153l201 696h144l201 -696h-156zM-94 545l93 195l120 -48l-135 -183zM246 371l-20 -100h100l-19 99l-28 139h-5z" />
    <glyph glyph-name="anoteleia" unicode="&#x387;" horiz-adv-x="266" 
d="M57 264v157h152v-157h-152z" />
    <glyph glyph-name="Epsilontonos" unicode="&#x388;" horiz-adv-x="490" 
d="M61 0v696h405v-134h-260v-144h224v-133h-224v-148h260v-137h-405zM-182 555l93 195l120 -48l-135 -183z" />
    <glyph glyph-name="Etatonos" unicode="&#x389;" horiz-adv-x="567" 
d="M363 0v286h-158v-286h-145v696h145v-278h158v278h143v-696h-143zM-176 545l93 195l120 -48l-135 -183z" />
    <glyph glyph-name="Iotatonos" unicode="&#x38a;" horiz-adv-x="268" 
d="M63 0v696h145v-696h-145zM-181 545l93 195l120 -48l-135 -183z" />
    <glyph glyph-name="Omicrontonos" unicode="&#x38c;" horiz-adv-x="535" 
d="M490 219q0 -52 -16.5 -93.5t-46 -71t-70 -45t-89.5 -15.5q-60 0 -102.5 19t-69.5 51.5t-39.5 75.5t-12.5 90v248q0 39 12 78.5t39 71.5t69.5 52.5t103.5 20.5q57 0 99 -19.5t69 -51t40.5 -71.5t13.5 -81v-259zM344 484q0 10 -3.5 23t-12.5 25t-23.5 20.5t-36.5 8.5
t-37 -7.5t-24.5 -19t-14 -25t-4.5 -25.5v-258q0 -40 18.5 -66t61.5 -26q31 0 53.5 20t22.5 55v275zM-159 545l93 195l120 -48l-135 -183z" />
    <glyph glyph-name="Upsilontonos" unicode="&#x38e;" horiz-adv-x="510" 
d="M327 279v-279h-142v279l-180 419h161l46 -142l41 -133h6l43 134l51 139h154zM-223 545l93 195l120 -48l-135 -183z" />
    <glyph glyph-name="Omegatonos" unicode="&#x38f;" horiz-adv-x="537" 
d="M293 140q21 8 36 27t15 45v272q0 10 -3.5 23t-12.5 25t-23.5 20.5t-36.5 8.5t-37 -7.5t-24.5 -19t-14 -25t-4.5 -25.5v-255q0 -32 13 -56.5t40 -32.5v-140h-210v132h50q0 2 0.5 2.5t0.5 1.5q-23 20 -30.5 53t-7.5 72v217q0 39 12 78.5t39 71.5t69.5 52.5t103.5 20.5
q57 0 99 -19.5t69 -51t40.5 -71.5t13.5 -81v-223q0 -38 -8 -69.5t-31 -50.5q0 -1 0.5 -1.5t0.5 -1.5h52v-132h-211v140zM-150 545l93 195l120 -48l-135 -183z" />
    <glyph glyph-name="iotadieresistonos" unicode="&#x390;" horiz-adv-x="259" 
d="M237 -6q-8 -1 -24.5 -1h-23.5q-43 0 -69.5 12t-41 31.5t-19.5 45t-5 52.5v361h136v-343q0 -24 9 -34.5t40 -11.5zM225 562v126h134v-126h-134zM-86 562v126h133v-126h-133zM58 549l50 211l129 -23l-95 -206z" />
    <glyph glyph-name="Alpha" unicode="&#x391;" horiz-adv-x="555" 
d="M359 142h-165q-9 -35 -18.5 -71t-19.5 -71h-153l201 696h144l201 -696h-156zM246 371l-20 -100h100l-19 99l-28 139h-5z" />
    <glyph glyph-name="Beta" unicode="&#x392;" horiz-adv-x="542" 
d="M502 212q0 -51 -15 -90.5t-42 -66.5t-65 -41t-84 -14h-235v696h225q102 0 155 -52t53 -144q0 -39 -19 -77.5t-63 -56.5v-5q24 -8 41 -24t28 -36.5t16 -43.5t5 -45zM352 495q0 35 -17 52t-58 17h-71v-141h72q40 0 57 20t17 52zM361 220q0 35 -17.5 56t-56.5 21h-81v-160
h80q43 0 59 24t16 59z" />
    <glyph glyph-name="Gamma" unicode="&#x393;" horiz-adv-x="480" 
d="M206 562v-562h-145v696h405v-134h-260z" />
    <glyph glyph-name="Delta" unicode="&#x394;" horiz-adv-x="555" 
d="M3 0l202 696h143l202 -696h-547zM316 348l-35 163h-7l-35 -163l-47 -213h171z" />
    <glyph glyph-name="Delta" unicode="&#x2206;" horiz-adv-x="555" 
d="M3 0l202 696h143l202 -696h-547zM316 348l-35 163h-7l-35 -163l-47 -213h171z" />
    <glyph glyph-name="Epsilon" unicode="&#x395;" horiz-adv-x="490" 
d="M61 0v696h405v-134h-260v-144h224v-133h-224v-148h260v-137h-405z" />
    <glyph glyph-name="Zeta" unicode="&#x396;" horiz-adv-x="455" 
d="M25 0v126l236 438h-225v132h394v-122l-235 -437h235v-137h-405z" />
    <glyph glyph-name="Eta" unicode="&#x397;" horiz-adv-x="567" 
d="M363 0v286h-158v-286h-145v696h145v-278h158v278h143v-696h-143z" />
    <glyph glyph-name="Theta" unicode="&#x398;" horiz-adv-x="535" 
d="M209 413h114v-127h-114v127zM490 219q0 -52 -16.5 -93.5t-46 -71t-70 -45t-89.5 -15.5q-60 0 -102.5 19t-69.5 51.5t-39.5 75.5t-12.5 90v248q0 39 12 78.5t39 71.5t69.5 52.5t103.5 20.5q57 0 99 -19.5t69 -51t40.5 -71.5t13.5 -81v-259zM344 484q0 10 -3.5 23t-12.5 25
t-23.5 20.5t-36.5 8.5t-37 -7.5t-24.5 -19t-14 -25t-4.5 -25.5v-258q0 -40 18.5 -66t61.5 -26q31 0 53.5 20t22.5 55v275z" />
    <glyph glyph-name="Iota" unicode="&#x399;" horiz-adv-x="268" 
d="M63 0v696h145v-696h-145z" />
    <glyph glyph-name="Kappa" unicode="&#x39a;" horiz-adv-x="552" 
d="M210 438q9 13 18 28.5t26 43t45.5 71.5t76.5 115h172l-194 -285q52 -103 104 -205.5t105 -205.5h-164q-35 69 -67.5 138t-67.5 139l-59 -91v-186h-145v696h145v-258h5z" />
    <glyph glyph-name="Lambda" unicode="&#x39b;" horiz-adv-x="543" 
d="M392 0l-66 300l-51 202h-5l-51 -201l-68 -301h-153l202 696h143l202 -696h-153z" />
    <glyph glyph-name="Mu" unicode="&#x39c;" horiz-adv-x="682" 
d="M485 0v328l-4 1l-48 -125l-37 -90h-104l-39 96l-47 120l-4 -1v-329h-144v696h133l81 -194l69 -174h5l67 175l80 193h136v-696h-144z" />
    <glyph glyph-name="Nu" unicode="&#x39d;" horiz-adv-x="596" 
d="M412 0l-129 232l-76 147l-3 -1v-378h-145v696h128l114 -208l91 -168l3 1v375h144v-696h-127z" />
    <glyph glyph-name="Xi" unicode="&#x39e;" horiz-adv-x="502" 
d="M42 562v134h419v-134h-419zM82 286v131h338v-131h-338zM41 0v137h422v-137h-422z" />
    <glyph glyph-name="Omicron" unicode="&#x39f;" horiz-adv-x="535" 
d="M490 219q0 -52 -16.5 -93.5t-46 -71t-70 -45t-89.5 -15.5q-60 0 -102.5 19t-69.5 51.5t-39.5 75.5t-12.5 90v248q0 39 12 78.5t39 71.5t69.5 52.5t103.5 20.5q57 0 99 -19.5t69 -51t40.5 -71.5t13.5 -81v-259zM344 484q0 10 -3.5 23t-12.5 25t-23.5 20.5t-36.5 8.5
t-37 -7.5t-24.5 -19t-14 -25t-4.5 -25.5v-258q0 -40 18.5 -66t61.5 -26q31 0 53.5 20t22.5 55v275z" />
    <glyph glyph-name="Pi" unicode="&#x3a0;" horiz-adv-x="560" 
d="M356 0v560h-150v-560h-145v696h438v-696h-143z" />
    <glyph glyph-name="Rho" unicode="&#x3a1;" horiz-adv-x="519" 
d="M506 476q0 -50 -15 -91t-43 -70t-68 -45t-90 -16h-84v-254h-145v696h221q49 0 90.5 -13t71 -40t46 -68.5t16.5 -98.5zM364 478q0 45 -22 64.5t-60 19.5h-76v-173h77q32 0 56.5 20t24.5 69z" />
    <glyph glyph-name="Sigma" unicode="&#x3a3;" horiz-adv-x="450" 
d="M25 0v133l116 225l-118 209v129h394v-134h-225l115 -204l-113 -219h236v-139h-405z" />
    <glyph glyph-name="Tau" unicode="&#x3a4;" horiz-adv-x="458" 
d="M299 564v-564h-144v564h-149v132h442v-132h-149z" />
    <glyph glyph-name="Upsilon" unicode="&#x3a5;" horiz-adv-x="510" 
d="M327 279v-279h-142v279l-180 419h161l46 -142l41 -133h6l43 134l51 139h154z" />
    <glyph glyph-name="Phi" unicode="&#x3a6;" horiz-adv-x="698" 
d="M279 529q-29 -3 -47 -17t-28.5 -36t-14.5 -51.5t-4 -62.5q0 -30 1.5 -60.5t10.5 -55t28 -40.5t54 -19v342zM418 0h-139v61q-75 6 -121.5 32t-71.5 66t-33.5 91.5t-8.5 107.5q0 55 9.5 105.5t35.5 91t71.5 67.5t118.5 35v39h139v-39q69 -4 114.5 -30t72 -66.5t37.5 -91.5
t11 -105q0 -57 -8.5 -109.5t-34 -93.5t-71.5 -67.5t-121 -32.5v-61zM418 187q34 3 53.5 18.5t29 40.5t11.5 55.5t2 63.5t-4 62t-15 50.5t-29.5 35t-47.5 16.5v-342z" />
    <glyph glyph-name="Chi" unicode="&#x3a7;" horiz-adv-x="540" 
d="M167 0h-166l190 359l-178 337h167q22 -48 43.5 -96t43.5 -95l90 191h167l-180 -337l192 -359h-167l-100 212z" />
    <glyph glyph-name="Psi" unicode="&#x3a8;" horiz-adv-x="694" 
d="M641 362q0 -49 -18.5 -88.5t-49 -68t-71 -45t-84.5 -19.5v-141h-144v141q-45 3 -85 20t-71 46t-49 69.5t-18 90.5v329h140v-329q0 -42 25.5 -64.5t57.5 -27.5v421h144v-421q32 4 57.5 25.5t25.5 61.5v334h140v-334v0z" />
    <glyph glyph-name="Omega" unicode="&#x3a9;" horiz-adv-x="537" 
d="M293 140q21 8 36 27t15 45v272q0 10 -3.5 23t-12.5 25t-23.5 20.5t-36.5 8.5t-37 -7.5t-24.5 -19t-14 -25t-4.5 -25.5v-255q0 -32 13 -56.5t40 -32.5v-140h-210v132h50q0 2 0.5 2.5t0.5 1.5q-23 20 -30.5 53t-7.5 72v217q0 39 12 78.5t39 71.5t69.5 52.5t103.5 20.5
q57 0 99 -19.5t69 -51t40.5 -71.5t13.5 -81v-223q0 -38 -8 -69.5t-31 -50.5q0 -1 0.5 -1.5t0.5 -1.5h52v-132h-211v140z" />
    <glyph glyph-name="Iotadieresis" unicode="&#x3aa;" horiz-adv-x="268" 
d="M63 0v696h145v-696h-145zM162 737v131h135v-131h-135zM-33 737v131h136v-131h-136z" />
    <glyph glyph-name="Upsilondieresis" unicode="&#x3ab;" horiz-adv-x="510" 
d="M327 279v-279h-142v279l-180 419h161l46 -142l41 -133h6l43 134l51 139h154zM284 737v131h135v-131h-135zM89 737v131h136v-131h-136z" />
    <glyph glyph-name="alphatonos" unicode="&#x3ac;" horiz-adv-x="469" 
d="M231 124q18 0 28.5 12t16 30.5t7 40.5t1.5 42q0 58 -10 88.5t-43 30.5q-17 0 -27 -10t-15.5 -27t-7.5 -41t-2 -51q0 -20 1.5 -40.5t6.5 -37t15.5 -27t28.5 -10.5zM284 457v37h140v-494h-140v36l-4 1q-7 -10 -18 -18t-23.5 -14t-25 -9t-22.5 -3q-57 0 -88 23t-45.5 59.5
t-17.5 81t-3 86.5q0 40 2.5 85t17.5 83t46.5 63t89.5 25q22 0 46.5 -11t41.5 -33zM158 570l93 195l120 -48l-135 -183z" />
    <glyph glyph-name="epsilontonos" unicode="&#x3ad;" horiz-adv-x="434" 
d="M226 501q66 0 115.5 -27t72.5 -88l-120 -55q-6 15 -14.5 23.5t-16.5 12.5t-15.5 5t-13.5 1q-20 0 -35.5 -11t-15.5 -33q0 -13 9.5 -23t37.5 -10h48v-100h-48q-26 0 -37 -10.5t-11 -24.5q0 -17 16 -27t36 -10q24 0 40.5 10t24.5 33l122 -60q-27 -54 -70.5 -83t-117.5 -29
q-40 0 -75.5 9.5t-61.5 29t-41.5 48.5t-15.5 69q0 29 16 57.5t51 44.5v2q-34 12 -49 38.5t-15 54.5q0 32 13 60t37 48.5t58 32.5t76 12zM154 570l93 195l120 -48l-135 -183z" />
    <glyph glyph-name="etatonos" unicode="&#x3ae;" horiz-adv-x="482" 
d="M292 -1v314q0 29 -14.5 42.5t-34.5 13.5q-22 0 -37 -14.5t-15 -42.5v-313h-140v496h140v-38h4q17 17 42 30t51 13q74 0 109 -41t35 -111v-349h-140zM146 570l93 195l120 -48l-135 -183z" />
    <glyph glyph-name="iotatonos" unicode="&#x3af;" horiz-adv-x="259" 
d="M237 -6q-8 -1 -24.5 -1h-23.5q-43 0 -69.5 12t-41 31.5t-19.5 45t-5 52.5v361h136v-343q0 -24 9 -34.5t40 -11.5zM53 570l93 195l120 -48l-135 -183z" />
    <glyph glyph-name="upsilondieresistonos" unicode="&#x3b0;" horiz-adv-x="476" 
d="M428 494v-328q0 -41 -14 -73t-39.5 -53.5t-60 -33t-76.5 -11.5q-41 0 -75.5 11.5t-60.5 33t-40.5 53.5t-14.5 73v328h140v-318q0 -24 14.5 -37t36.5 -13q21 0 36 13t15 37v318h139zM325 562v126h134v-126h-134zM14 562v126h133v-126h-133zM158 549l50 211l129 -23
l-95 -206z" />
    <glyph glyph-name="alpha" unicode="&#x3b1;" horiz-adv-x="469" 
d="M231 124q18 0 28.5 12t16 30.5t7 40.5t1.5 42q0 58 -10 88.5t-43 30.5q-17 0 -27 -10t-15.5 -27t-7.5 -41t-2 -51q0 -20 1.5 -40.5t6.5 -37t15.5 -27t28.5 -10.5zM284 457v37h140v-494h-140v36l-4 1q-7 -10 -18 -18t-23.5 -14t-25 -9t-22.5 -3q-57 0 -88 23t-45.5 59.5
t-17.5 81t-3 86.5q0 40 2.5 85t17.5 83t46.5 63t89.5 25q22 0 46.5 -11t41.5 -33z" />
    <glyph glyph-name="beta" unicode="&#x3b2;" horiz-adv-x="482" 
d="M357 418q31 -9 48 -29t25 -45.5t10 -54.5t2 -57q0 -54 -7 -97.5t-24.5 -74.5t-47 -48t-75.5 -17q-23 0 -49 8.5t-46 30.5h-4v-184h-140v650q0 52 9.5 93.5t31.5 70.5t57.5 44.5t86.5 15.5q48 0 83.5 -14t58 -38t33.5 -56t11 -68q0 -19 -4 -38.5t-11.5 -37t-19.5 -31.5
t-28 -21v-2zM217 460h13q28 0 40 20t12 54q0 35 -16.5 50.5t-31.5 15.5q-17 0 -26 -7.5t-13 -19.5t-5 -26.5t-1 -27.5v-270q0 -19 -0.5 -41t3 -41t14.5 -32t34 -13q35 0 47 29.5t12 96.5q0 54 -12.5 80.5t-51.5 26.5h-18v105z" />
    <glyph glyph-name="gamma" unicode="&#x3b3;" horiz-adv-x="459" 
d="M457 494q-40 -125 -79.5 -250t-75.5 -253v-192h-136v174q-4 14 -11.5 42.5t-17 64t-19.5 74.5t-19.5 73.5t-18 62.5t-13.5 41q-8 25 -17 37.5t-30 12.5q-1 0 -3.5 -0.5t-4.5 -0.5l-10 111q22 8 43 11.5t36 3.5q29 0 47.5 -11t31 -29.5t20.5 -43t16 -51.5q3 -11 8 -33
t10.5 -46.5t10.5 -47t9 -33.5h6q16 75 32 145.5t33 137.5h152z" />
    <glyph glyph-name="delta" unicode="&#x3b4;" horiz-adv-x="463" 
d="M427 258q0 -52 -5.5 -102.5t-35.5 -93.5q-28 -38 -69.5 -53t-86.5 -15q-63 0 -102.5 20t-60.5 58q-18 35 -23.5 75t-5.5 86q0 31 4 63t14.5 60.5t29 52.5t48.5 40q-32 25 -45.5 53.5t-13.5 61.5q0 75 49 116.5t134 41.5q30 0 68 -4.5t77 -21.5q-8 -28 -15.5 -54
t-15.5 -55q-32 11 -54.5 15t-35.5 4q-36 0 -52 -11t-16 -30q0 -9 8 -19.5t20.5 -20.5t28.5 -20.5t32 -19.5q36 -21 59 -42.5t37 -46.5t20 -53.5t8 -62.5v-22zM235 367q-14 -5 -25 -14.5t-18 -23.5q-8 -17 -12 -37.5t-4 -52.5q0 -18 0.5 -38.5t5.5 -38.5t16.5 -29.5
t34.5 -11.5q18 0 29.5 11.5t17.5 29t8 39t2 41.5q0 25 -0.5 44.5t-6 34.5t-16.5 26t-32 20z" />
    <glyph glyph-name="epsilon" unicode="&#x3b5;" horiz-adv-x="434" 
d="M226 501q66 0 115.5 -27t72.5 -88l-120 -55q-6 15 -14.5 23.5t-16.5 12.5t-15.5 5t-13.5 1q-20 0 -35.5 -11t-15.5 -33q0 -13 9.5 -23t37.5 -10h48v-100h-48q-26 0 -37 -10.5t-11 -24.5q0 -17 16 -27t36 -10q24 0 40.5 10t24.5 33l122 -60q-27 -54 -70.5 -83t-117.5 -29
q-40 0 -75.5 9.5t-61.5 29t-41.5 48.5t-15.5 69q0 29 16 57.5t51 44.5v2q-34 12 -49 38.5t-15 54.5q0 32 13 60t37 48.5t58 32.5t76 12z" />
    <glyph glyph-name="zeta" unicode="&#x3b6;" horiz-adv-x="414" 
d="M264 572h-174v124h372v-104q-62 -48 -111 -98.5t-83.5 -97.5t-52.5 -88.5t-18 -71.5t9.5 -49t27.5 -33t43 -26t55 -27q56 -29 80.5 -53.5t24.5 -58.5q0 -21 -8 -44.5t-22 -48t-32.5 -50t-39.5 -50.5l-98 60q18 27 27 44t13.5 26.5t5 14t0.5 7.5q0 12 -12 21t-38 20
q-30 13 -63 30.5t-60 44t-44.5 63t-17.5 89.5q0 37 15 81.5t43 91t68 93t90 88.5v2z" />
    <glyph glyph-name="eta" unicode="&#x3b7;" horiz-adv-x="482" 
d="M292 -1v314q0 29 -14.5 42.5t-34.5 13.5q-22 0 -37 -14.5t-15 -42.5v-313h-140v496h140v-38h4q17 17 42 30t51 13q74 0 109 -41t35 -111v-349h-140z" />
    <glyph glyph-name="theta" unicode="&#x3b8;" horiz-adv-x="459" 
d="M234 725q72 0 116.5 -31.5t62.5 -82.5q8 -26 11 -61t3 -69v-278q0 -20 -2 -38.5t-6 -35.5q-9 -38 -27.5 -63.5t-43.5 -41.5t-55.5 -23t-63.5 -7q-77 0 -120 36t-58 88q-7 23 -9.5 55.5t-2.5 62.5v246q0 35 3.5 70t11.5 58q17 51 62.5 83t117.5 32zM234 123q13 0 22.5 5.5
t14.5 13.5q8 9 12 28t4 44v100h-109v-89q0 -44 12 -73t44 -29zM234 596q-14 0 -23 -5.5t-16 -14.5q-11 -16 -14 -37t-3 -48v-72h109v91q-1 21 -4.5 38t-11.5 28q-12 20 -37 20z" />
    <glyph glyph-name="iota" unicode="&#x3b9;" horiz-adv-x="266" 
d="M237 -6q-8 -1 -24.5 -1h-23.5q-43 0 -69.5 12t-41 31.5t-19.5 45t-5 52.5v361h136v-343q0 -24 9 -34.5t40 -11.5z" />
    <glyph glyph-name="kappa" unicode="&#x3ba;" horiz-adv-x="483" 
d="M195 351l106 143h177l-161 -196l170 -298h-163l-98 186l-34 -43v-143h-139v494h139v-143h3z" />
    <glyph glyph-name="lambda" unicode="&#x3bb;" horiz-adv-x="448" 
d="M219 276q-10 -42 -21 -83.5t-22 -83.5l-28 -109h-143l157 479q-5 20 -9.5 39.5t-9.5 39.5q-6 26 -19 39.5t-50 13.5l-12 -1l-2 114q20 5 37.5 7.5t33.5 2.5q61 0 91.5 -32.5t45.5 -87.5l133 -484q5 -18 14.5 -23t30.5 -7q1 -26 1.5 -51t0.5 -50q-16 -3 -33 -4t-30 -1
q-51 0 -76 23t-38 73l-47 186h-5z" />
    <glyph glyph-name="nu" unicode="&#x3bd;" horiz-adv-x="453" 
d="M230 191q5 28 11 55.5t12 55.5q10 48 21.5 96t22.5 96h151l-155 -494h-134q-38 125 -77 247t-78 247h153q12 -48 22.5 -94.5t21.5 -94.5l24 -114h5z" />
    <glyph glyph-name="xi" unicode="&#x3be;" horiz-adv-x="401" 
d="M243 725q27 0 54 -5.5t51 -18.5t44.5 -35t34.5 -54q-25 -15 -55 -36t-56 -36q-14 24 -32 41.5t-41 17.5q-30 0 -43 -23.5t-13 -52.5q0 -40 19 -63t69 -23h84v-114h-88q-24 0 -41.5 -9t-28.5 -23t-16.5 -33t-5.5 -38q0 -24 8.5 -40.5t22.5 -28.5t33.5 -20.5t41.5 -17.5
q37 -15 62 -28.5t40 -27t21 -29.5t6 -35q0 -35 -28 -82t-66 -98q-25 15 -49.5 29t-49.5 29q4 8 11 19t13 23t10.5 23t4.5 19q0 11 -9 19.5t-30 16.5q-43 16 -78 32.5t-60 40.5t-38.5 60t-13.5 91q0 24 5.5 48t17 46t28 40.5t38.5 30.5q-24 10 -39 27t-23.5 37t-12 41
t-3.5 38q0 46 14 83t40 63.5t63 41t84 14.5z" />
    <glyph glyph-name="omicron" unicode="&#x3bf;" horiz-adv-x="459" 
d="M234 502q69 0 109.5 -27t57.5 -68q14 -32 18 -72.5t4 -88.5q0 -53 -5.5 -92t-19.5 -68q-26 -53 -71.5 -73t-102.5 -20q-51 0 -86.5 16t-58.5 45q-24 32 -33.5 79t-9.5 113q1 42 5 84.5t15 68.5q21 48 64.5 75.5t113.5 27.5zM232 373q-33 0 -47 -35q-6 -17 -8 -39.5
t-2 -54.5q0 -25 1.5 -48t8.5 -40q12 -34 45 -34q7 0 14.5 1.5t14.5 7t12.5 16t8.5 27.5q2 14 3.5 34.5t1.5 47.5q0 52 -10 81q-13 36 -43 36z" />
    <glyph glyph-name="pi" unicode="&#x3c0;" horiz-adv-x="482" 
d="M290 0v387h-101v-387h-139v496h381v-496h-141z" />
    <glyph glyph-name="rho" unicode="&#x3c1;" horiz-adv-x="465" 
d="M42 246q0 42 5.5 84.5t16.5 68.5q21 48 67 75.5t111 27.5q69 0 109.5 -27t57.5 -68q14 -32 19 -72.5t5 -88.5q0 -53 -7 -99t-21 -75q-20 -37 -49.5 -57t-80.5 -20q-7 0 -18 2t-23.5 6.5t-25 12t-21.5 18.5l-5 -1v-233h-140v446zM240 373q-16 0 -29.5 -7.5t-20.5 -24.5
q-5 -13 -6 -39t-1 -58q0 -25 -1 -48t6 -40q6 -17 19.5 -25.5t30.5 -8.5q5 0 12.5 1.5t15 7t13.5 16t9 27.5q2 14 3 34.5t1 47.5q0 26 -1.5 46t-6.5 35q-13 36 -44 36z" />
    <glyph glyph-name="sigma1" unicode="&#x3c2;" horiz-adv-x="433" 
d="M241 502q63 0 110 -30t67 -87l-109 -64q-13 25 -28.5 38t-39.5 13q-18 0 -30 -9.5t-19.5 -25.5t-10.5 -37.5t-3 -45.5q0 -30 4.5 -50t17.5 -35.5t36 -30t61 -32.5q56 -28 76 -53t20 -57t-24.5 -76.5t-66.5 -99.5q-25 14 -49.5 27.5t-49.5 27.5q4 7 11 19t13.5 24.5t11 23
t4.5 16.5q0 11 -6 19.5t-28 17.5q-58 24 -91.5 48.5t-51 54t-22 67t-4.5 87.5q0 130 53 190t148 60z" />
    <glyph glyph-name="sigma" unicode="&#x3c3;" horiz-adv-x="472" 
d="M457 495v-109h-63l-2 -4q20 -20 27 -51.5t7 -84.5t-6.5 -92t-20.5 -68q-26 -53 -71.5 -73t-102.5 -20q-51 0 -86.5 16t-58.5 45q-24 32 -34.5 79t-10.5 113q1 42 6 81t16 65q21 48 67 75.5t111 27.5h222zM233 366q-34 0 -47 -32q-6 -17 -8 -37.5t-2 -52.5q0 -25 0.5 -48
t7.5 -40q12 -34 47 -34q7 0 14.5 1.5t14.5 7t12.5 16t8.5 27.5q2 14 3 34.5t1 47.5q0 26 -1.5 42.5t-6.5 31.5q-13 36 -44 36z" />
    <glyph glyph-name="tau" unicode="&#x3c4;" horiz-adv-x="331" 
d="M230 386v-213q0 -23 8 -35.5t35 -12.5h20v-125h-65q-66 0 -100 37.5t-34 92.5v256h-79v109h308v-109h-93z" />
    <glyph glyph-name="upsilon" unicode="&#x3c5;" horiz-adv-x="476" 
d="M428 494v-328q0 -41 -14 -73t-39.5 -53.5t-60 -33t-76.5 -11.5q-41 0 -75.5 11.5t-60.5 33t-40.5 53.5t-14.5 73v328h140v-318q0 -24 14.5 -37t36.5 -13q21 0 36 13t15 37v318h139z" />
    <glyph glyph-name="phi" unicode="&#x3c6;" horiz-adv-x="627" 
d="M401 499q32 0 65.5 -10.5t62.5 -35.5q22 -20 34.5 -43.5t17.5 -49.5t6 -54.5t1 -57.5q0 -33 -1 -56.5t-5 -47.5q-7 -42 -27.5 -70t-48.5 -45.5t-61 -25t-64 -8.5v-195h-136v195q-60 2 -102.5 21.5t-70.5 54.5q-23 30 -29 73t-6 102q0 38 3 73.5t14 65.5q14 38 40.5 66
t72.5 39q11 -30 23.5 -61.5t23.5 -61.5q-14 -9 -21.5 -17.5t-11 -22t-4 -33t-0.5 -50.5v-35.5t2 -30.5q5 -27 20.5 -41.5t45.5 -14.5v377h156zM448 246q0 20 0.5 36.5t-1.5 28.5q-5 31 -21.5 44.5t-45.5 15.5v-249q29 1 44.5 13.5t20.5 37.5q3 14 3 32.5v40.5z" />
    <glyph glyph-name="chi" unicode="&#x3c7;" horiz-adv-x="469" 
d="M164 0h-161l153 252l-147 243h162l62 -134h1l62 134h160l-149 -243l156 -252h-162q-17 35 -34 71t-34 71z" />
    <glyph glyph-name="psi" unicode="&#x3c8;" horiz-adv-x="640" 
d="M593 193q0 -53 -19 -90t-48.5 -60.5t-66 -34.5t-70.5 -13v-197h-138v198q-41 1 -78 14t-64.5 37t-44 59.5t-16.5 82.5v306h140v-297q0 -38 19 -55t44 -20v382h136v-382q10 1 22 5t22 13t16.5 22.5t6.5 34.5v297h139v-302v0z" />
    <glyph glyph-name="omega" unicode="&#x3c9;" horiz-adv-x="673" 
d="M636 258q0 -50 -5 -97t-23 -83.5t-53 -59.5t-95 -23q-35 0 -68.5 16.5t-50.5 50.5h-4q-20 -34 -54 -50.5t-69 -16.5q-61 0 -96 22.5t-53 59.5t-23 84t-5 97q0 46 7 90t28 78t59.5 55t100.5 21v-129q-19 -3 -30 -12t-16.5 -25t-7 -39.5t-1.5 -54.5q0 -63 9 -90.5t38 -27.5
q26 0 36 17.5t10 44.5v142h134v-142q0 -24 9.5 -43t35.5 -19q29 0 38 27.5t9 90.5q0 31 -1.5 54.5t-7 39.5t-16.5 25t-30 12v129q62 0 100.5 -21t59.5 -55t28 -78t7 -90z" />
    <glyph glyph-name="iotadieresis" unicode="&#x3ca;" horiz-adv-x="259" 
d="M237 -6q-8 -1 -24.5 -1h-23.5q-43 0 -69.5 12t-41 31.5t-19.5 45t-5 52.5v361h136v-343q0 -24 9 -34.5t40 -11.5zM151 558v130h134v-130h-134zM-45 558v130h133v-130h-133z" />
    <glyph glyph-name="upsilondieresis" unicode="&#x3cb;" horiz-adv-x="476" 
d="M428 494v-328q0 -41 -14 -73t-39.5 -53.5t-60 -33t-76.5 -11.5q-41 0 -75.5 11.5t-60.5 33t-40.5 53.5t-14.5 73v328h140v-318q0 -24 14.5 -37t36.5 -13q21 0 36 13t15 37v318h139zM266 558v130h134v-130h-134zM70 558v130h133v-130h-133z" />
    <glyph glyph-name="omicrontonos" unicode="&#x3cc;" horiz-adv-x="459" 
d="M234 502q69 0 109.5 -27t57.5 -68q14 -32 18 -72.5t4 -88.5q0 -53 -5.5 -92t-19.5 -68q-26 -53 -71.5 -73t-102.5 -20q-51 0 -86.5 16t-58.5 45q-24 32 -33.5 79t-9.5 113q1 42 5 84.5t15 68.5q21 48 64.5 75.5t113.5 27.5zM232 373q-33 0 -47 -35q-6 -17 -8 -39.5
t-2 -54.5q0 -25 1.5 -48t8.5 -40q12 -34 45 -34q7 0 14.5 1.5t14.5 7t12.5 16t8.5 27.5q2 14 3.5 34.5t1.5 47.5q0 52 -10 81q-13 36 -43 36zM164 570l93 195l120 -48l-135 -183z" />
    <glyph glyph-name="upsilontonos" unicode="&#x3cd;" horiz-adv-x="476" 
d="M428 494v-328q0 -41 -14 -73t-39.5 -53.5t-60 -33t-76.5 -11.5q-41 0 -75.5 11.5t-60.5 33t-40.5 53.5t-14.5 73v328h140v-318q0 -24 14.5 -37t36.5 -13q21 0 36 13t15 37v318h139zM166 570l93 195l120 -48l-135 -183z" />
    <glyph glyph-name="omegatonos" unicode="&#x3ce;" horiz-adv-x="673" 
d="M459 -5q-35 1 -68 17t-50 50h-4q-20 -34 -54 -50.5t-69 -16.5q-61 0 -96 22.5t-53 59.5t-23 84t-5 97q0 46 7 90t28 78t59.5 55t100.5 21v-129q-19 -3 -30 -12t-16.5 -25t-7 -39.5t-1.5 -54.5q0 -63 9 -90.5t38 -27.5q26 0 36 17.5t10 44.5v142h134v-142q0 -24 9.5 -43
t35.5 -19q29 0 38 27.5t9 90.5q0 31 -1.5 54.5t-7 39.5t-16.5 25t-30 12v129q62 0 100.5 -21t59.5 -55t28 -78t7 -90q0 -50 -5 -97t-23 -84t-53 -59.5t-96 -22.5zM261 570l93 195l120 -48l-135 -183z" />
    <glyph glyph-name="afii10023" unicode="&#x401;" horiz-adv-x="490" 
d="M61 0v696h405v-134h-260v-144h224v-133h-224v-148h260v-137h-405zM292 737v131h135v-131h-135zM97 737v131h136v-131h-136z" />
    <glyph glyph-name="afii10051" unicode="&#x402;" horiz-adv-x="638" 
d="M292 419q20 22 56 36.5t70 14.5q51 0 84.5 -17.5t53.5 -48.5t28 -74t8 -94q0 -61 -10 -109.5t-36.5 -81.5t-72.5 -48.5t-118 -11.5v114q32 0 50 12.5t27 32t11.5 43t2.5 44.5q0 22 -2.5 42t-10.5 35t-22.5 24t-38.5 9q-28 0 -51 -15t-32 -33v-293h-144v565h-140v130h465
v-130h-180v-145z" />
    <glyph glyph-name="afii10052" unicode="&#x403;" horiz-adv-x="480" 
d="M206 562v-562h-145v696h405v-134h-260zM163 794l173 129l84 -100l-205 -97z" />
    <glyph glyph-name="afii10053" unicode="&#x404;" horiz-adv-x="514" 
d="M270 701q48 0 86 -13t66 -37t44.5 -56.5t21.5 -71.5l-139 -37q-5 33 -25.5 55.5t-54.5 22.5q-21 0 -36 -7.5t-24.5 -19.5t-14 -26.5t-4.5 -29.5v-64h153v-132h-153v-55q0 -17 2.5 -34.5t10.5 -31.5t23 -23.5t40 -9.5q34 0 54.5 21t25.5 58q35 -9 70.5 -18t70.5 -19
q-14 -82 -70 -130.5t-148 -48.5q-105 0 -159.5 50t-62.5 141q-2 20 -2 41v42v156v40t2 40q4 43 20.5 79t44.5 62t67.5 41t90.5 15z" />
    <glyph glyph-name="afii10054" unicode="&#x405;" horiz-adv-x="529" 
d="M503 206q0 -100 -61.5 -155.5t-174.5 -55.5q-44 0 -79.5 9t-64 24.5t-51.5 37t-41 47.5l114 92q27 -38 56.5 -56t67.5 -18q46 0 63.5 20t17.5 49q0 20 -9.5 34.5t-26 25.5t-38.5 19t-48 15q-48 15 -82 34t-55.5 43t-31.5 55t-10 70q0 45 16 82.5t45 65t69.5 42.5t89.5 15
q79 0 129.5 -24.5t85.5 -72.5l-104 -98q-50 59 -111 59q-32 0 -52.5 -17t-20.5 -45q0 -15 10 -27t27 -22t40 -19t49 -17q52 -16 87 -36.5t56 -47t29.5 -58.5t8.5 -70z" />
    <glyph glyph-name="afii10055" unicode="&#x406;" horiz-adv-x="268" 
d="M63 0v696h145v-696h-145z" />
    <glyph glyph-name="afii10056" unicode="&#x407;" horiz-adv-x="268" 
d="M63 0v696h145v-696h-145zM160 737v130h134v-130h-134zM-36 737v130h133v-130h-133z" />
    <glyph glyph-name="afii10057" unicode="&#x408;" horiz-adv-x="436" 
d="M379 197q0 -54 -16 -92t-43.5 -62.5t-65 -36t-79.5 -11.5q-54 0 -100.5 20t-82.5 68l95 97q9 -14 20 -23.5t22.5 -15.5t22.5 -8.5t19 -2.5q31 0 47.5 20.5t16.5 51.5v494h144v-499z" />
    <glyph glyph-name="afii10058" unicode="&#x409;" horiz-adv-x="816" 
d="M113 696h379v-261h88q55 0 96 -16t67.5 -44t39.5 -67.5t13 -85.5q0 -55 -16 -96.5t-44.5 -69.5t-69 -42t-89.5 -14h-230v561h-103v-214q0 -76 -7 -138t-28.5 -108.5t-62.5 -75.5t-108 -39l-33 112q39 14 60.5 34.5t32 49.5t13 68.5t2.5 91.5v354zM652 219q0 45 -21.5 63
t-59.5 18h-80v-166h81q40 0 60 23.5t20 61.5z" />
    <glyph glyph-name="afii10059" unicode="&#x40a;" horiz-adv-x="797" 
d="M330 0v297h-129v-297h-145v696h145v-264h129v264h145v-264h88q55 0 96 -15.5t67.5 -43.5t39.5 -67t13 -85q0 -56 -16 -97t-44.5 -69t-69 -41.5t-89.5 -13.5h-230zM555 134q40 0 60 22.5t20 60.5q0 45 -21.5 62.5t-59.5 17.5h-80v-163h81z" />
    <glyph glyph-name="afii10060" unicode="&#x40b;" horiz-adv-x="639" 
d="M448 0v269q0 31 -13 52t-54 21q-20 0 -43 -12t-39 -33v-297h-145v564h-140v132h473v-132h-188v-144l3 -1q23 22 60 37t74 15q41 0 70.5 -12.5t49 -34t28.5 -51.5t9 -64v-309h-145z" />
    <glyph glyph-name="afii10061" unicode="&#x40c;" horiz-adv-x="549" 
d="M61 0v697h145v-282h36q14 0 28.5 4.5t27 15.5t23.5 29.5t18 46.5l47 183h139l-53 -207q-12 -51 -37 -83.5t-57 -43.5q42 -14 65.5 -46t35.5 -83l57 -231h-146l-45 188q-15 55 -37.5 77.5t-60.5 22.5h-41v-288h-145zM192 794l173 129l84 -100l-205 -97z" />
    <glyph glyph-name="afii10062" unicode="&#x40e;" horiz-adv-x="505" 
d="M266 352l41 151q12 49 24.5 96.5t25.5 96.5h140l-149 -487q-6 -20 -12 -38t-13 -35q-16 -45 -34.5 -72t-41 -42t-48.5 -20.5t-56 -6.5h-56v117h35q21 0 35 8t28 33q2 5 5 10.5t5 11.5l-186 520h150l57 -193l45 -150h5zM266 720q-45 0 -75.5 17t-49.5 42.5t-28 55
t-10 54.5h103q0 -11 4.5 -23.5t12 -23.5t18.5 -18t25 -7q15 0 25.5 7t18 18t11 23.5t3.5 23.5h104q-2 -25 -11.5 -54.5t-28.5 -55t-49 -42.5t-73 -17z" />
    <glyph glyph-name="afii10145" unicode="&#x40f;" horiz-adv-x="559" 
d="M499 696v-696h-158v-150h-122v150h-158v696h145v-559h150v559h143z" />
    <glyph glyph-name="afii10017" unicode="&#x410;" horiz-adv-x="555" 
d="M359 142h-165q-9 -35 -18.5 -71t-19.5 -71h-153l201 696h144l201 -696h-156zM246 371l-20 -100h100l-19 99l-28 139h-5z" />
    <glyph glyph-name="afii10018" unicode="&#x411;" horiz-adv-x="519" 
d="M52 0v696h390v-134h-245v-127h88q55 0 96 -16t67.5 -44t39.5 -67.5t13 -85.5q0 -56 -15.5 -97.5t-44 -69t-69 -41.5t-89.5 -14h-231zM278 134q40 0 59.5 23t19.5 62q0 45 -21 63t-59 18h-80v-166h81z" />
    <glyph glyph-name="afii10019" unicode="&#x412;" horiz-adv-x="542" 
d="M502 212q0 -51 -15 -90.5t-42 -66.5t-65 -41t-84 -14h-235v696h225q102 0 155 -52t53 -144q0 -39 -19 -77.5t-63 -56.5v-5q24 -8 41 -24t28 -36.5t16 -43.5t5 -45zM352 495q0 35 -17 52t-58 17h-71v-141h72q40 0 57 20t17 52zM361 220q0 35 -17.5 56t-56.5 21h-81v-160
h80q43 0 59 24t16 59z" />
    <glyph glyph-name="afii10020" unicode="&#x413;" horiz-adv-x="480" 
d="M206 562v-562h-145v696h405v-134h-260z" />
    <glyph glyph-name="afii10021" unicode="&#x414;" horiz-adv-x="638" 
d="M135 0v-146h-120v269l59 12q21 22 32.5 49t17.5 60.5t8 75.5t5 95l13 281h398v-564h62v-278h-120v146h-355zM266 383q-2 -33 -3.5 -69t-5.5 -69.5t-11.5 -63t-19.5 -49.5h180v429h-132z" />
    <glyph glyph-name="afii10022" unicode="&#x415;" horiz-adv-x="490" 
d="M61 0v696h405v-134h-260v-144h224v-133h-224v-148h260v-137h-405z" />
    <glyph glyph-name="afii10024" unicode="&#x416;" horiz-adv-x="836" 
d="M168 362q-29 13 -53.5 44.5t-35.5 80.5l-52 207h139l46 -183q14 -56 41 -76t56 -20h37v282h145v-282h36q14 0 28.5 4.5t27 15.5t23.5 29.5t18 46.5l47 183h139l-53 -207q-11 -49 -35 -80.5t-54 -44.5l1 -4q38 -14 60.5 -45.5t34.5 -81.5l57 -231h-146l-45 188
q-15 55 -37.5 77.5t-60.5 22.5h-41v-288h-145v288h-41q-38 0 -61 -22.5t-37 -77.5l-45 -188h-147l57 231q12 50 34.5 81.5t60.5 45.5z" />
    <glyph glyph-name="afii10025" unicode="&#x417;" horiz-adv-x="512" 
d="M32 165q35 11 69 21.5t69 21.5q8 -34 31 -54.5t56 -20.5q19 0 33.5 7.5t23.5 19.5t13.5 26.5t4.5 28.5q0 16 -3 31.5t-12 27.5t-25 19t-41 7h-50v121h51q32 0 54.5 17t22.5 60q0 10 -3.5 21.5t-11 21.5t-20.5 16t-31 6q-35 0 -57.5 -20t-30.5 -52l-131 50q20 74 76 118
t147 44q98 0 153.5 -50t55.5 -141q0 -15 -3 -36t-11 -42t-24 -39.5t-41 -30.5v-3q24 -8 40 -24.5t25.5 -37t14 -44.5t4.5 -47q0 -57 -18 -97t-48.5 -66t-71 -38t-86.5 -12q-92 0 -150 46t-75 124z" />
    <glyph glyph-name="afii10026" unicode="&#x418;" horiz-adv-x="590" 
d="M389 0v379h-1l-194 -379h-136v696h144v-404h2l199 404h131v-696h-145z" />
    <glyph glyph-name="afii10027" unicode="&#x419;" horiz-adv-x="590" 
d="M303 725q-45 0 -75.5 17t-49.5 42.5t-28 55t-10 54.5h103q0 -11 4.5 -23.5t12 -23.5t18.5 -18t25 -7q15 0 25.5 7t18 18t11 23.5t3.5 23.5h104q-2 -25 -11.5 -54.5t-28.5 -55t-49 -42.5t-73 -17zM389 0v379h-1l-194 -379h-136v696h144v-404h2l199 404h131v-696h-145z" />
    <glyph glyph-name="afii10028" unicode="&#x41a;" horiz-adv-x="549" 
d="M61 0v697h145v-282h36q14 0 28.5 4.5t27 15.5t23.5 29.5t18 46.5l47 183h139l-53 -207q-12 -51 -37 -83.5t-57 -43.5q42 -14 65.5 -46t35.5 -83l57 -231h-146l-45 188q-15 55 -37.5 77.5t-60.5 22.5h-41v-288h-145z" />
    <glyph glyph-name="afii10029" unicode="&#x41b;" horiz-adv-x="580" 
d="M513 696v-696h-143v561h-118v-215q0 -76 -7 -138t-29 -108t-62.5 -75.5t-107.5 -39.5l-34 114q39 13 60.5 33.5t32.5 49.5t13.5 68.5t2.5 91.5v354h392z" />
    <glyph glyph-name="afii10030" unicode="&#x41c;" horiz-adv-x="682" 
d="M485 0v328l-4 1l-48 -125l-37 -90h-104l-39 96l-47 120l-4 -1v-329h-144v696h133l81 -194l69 -174h5l67 175l80 193h136v-696h-144z" />
    <glyph glyph-name="afii10031" unicode="&#x41d;" horiz-adv-x="567" 
d="M363 0v286h-158v-286h-145v696h145v-278h158v278h143v-696h-143z" />
    <glyph glyph-name="afii10032" unicode="&#x41e;" horiz-adv-x="535" 
d="M490 219q0 -52 -16.5 -93.5t-46 -71t-70 -45t-89.5 -15.5q-60 0 -102.5 19t-69.5 51.5t-39.5 75.5t-12.5 90v248q0 39 12 78.5t39 71.5t69.5 52.5t103.5 20.5q57 0 99 -19.5t69 -51t40.5 -71.5t13.5 -81v-259zM344 484q0 10 -3.5 23t-12.5 25t-23.5 20.5t-36.5 8.5
t-37 -7.5t-24.5 -19t-14 -25t-4.5 -25.5v-258q0 -40 18.5 -66t61.5 -26q31 0 53.5 20t22.5 55v275z" />
    <glyph glyph-name="afii10033" unicode="&#x41f;" horiz-adv-x="560" 
d="M356 0v560h-150v-560h-145v696h438v-696h-143z" />
    <glyph glyph-name="afii10034" unicode="&#x420;" horiz-adv-x="519" 
d="M506 476q0 -50 -15 -91t-43 -70t-68 -45t-90 -16h-84v-254h-145v696h221q49 0 90.5 -13t71 -40t46 -68.5t16.5 -98.5zM364 478q0 45 -22 64.5t-60 19.5h-76v-173h77q32 0 56.5 20t24.5 69z" />
    <glyph glyph-name="afii10035" unicode="&#x421;" horiz-adv-x="514" 
d="M486 167q-15 -81 -74 -127t-144 -46q-60 0 -102.5 19t-69 51.5t-39 75.5t-12.5 90v248q0 39 12 78.5t38.5 71.5t69 52.5t103.5 20.5q48 0 86 -14.5t65 -38.5t44 -55.5t24 -65.5l-137 -41q-2 10 -6.5 23.5t-14.5 24.5t-25 19t-36 8q-22 0 -37 -7.5t-24 -19t-13 -25
t-4 -25.5v-258q0 -40 17.5 -66t60.5 -26q30 0 53 19.5t27 53.5z" />
    <glyph glyph-name="afii10036" unicode="&#x422;" horiz-adv-x="458" 
d="M299 564v-564h-144v564h-149v132h442v-132h-149z" />
    <glyph glyph-name="afii10037" unicode="&#x423;" horiz-adv-x="505" 
d="M266 352l41 151q12 49 24.5 96.5t25.5 96.5h140l-149 -487q-6 -20 -12 -38t-13 -35q-16 -45 -34.5 -72t-41 -42t-48.5 -20.5t-56 -6.5h-56v117h35q21 0 35 8t28 33q2 5 5 10.5t5 11.5l-186 520h150l57 -193l45 -150h5z" />
    <glyph glyph-name="afii10038" unicode="&#x424;" horiz-adv-x="698" 
d="M279 529q-29 -3 -47 -17t-28.5 -36t-14.5 -51.5t-4 -62.5q0 -30 1.5 -60.5t10.5 -55t28 -40.5t54 -19v342zM418 0h-139v61q-75 6 -121.5 32t-71.5 66t-33.5 91.5t-8.5 107.5q0 55 9.5 105.5t35.5 91t71.5 67.5t118.5 35v39h139v-39q69 -4 114.5 -30t72 -66.5t37.5 -91.5
t11 -105q0 -57 -8.5 -109.5t-34 -93.5t-71.5 -67.5t-121 -32.5v-61zM418 187q34 3 53.5 18.5t29 40.5t11.5 55.5t2 63.5t-4 62t-15 50.5t-29.5 35t-47.5 16.5v-342z" />
    <glyph glyph-name="afii10039" unicode="&#x425;" horiz-adv-x="540" 
d="M167 0h-166l190 359l-178 337h167q22 -48 43.5 -96t43.5 -95l90 191h167l-180 -337l192 -359h-167l-100 212z" />
    <glyph glyph-name="afii10040" unicode="&#x426;" horiz-adv-x="591" 
d="M459 0h-399v696h145v-563h157v563h144v-564h73v-279h-120v147z" />
    <glyph glyph-name="afii10041" unicode="&#x427;" horiz-adv-x="546" 
d="M190 696v-201q0 -64 17 -88.5t59 -24.5q17 0 39 5t37 13v296h144v-696h-144v276q-25 -11 -54.5 -15.5t-57.5 -4.5q-39 0 -72.5 10t-58 32t-38.5 57t-14 86v255h143z" />
    <glyph glyph-name="afii10042" unicode="&#x428;" horiz-adv-x="804" 
d="M744 696v-696h-683v696h145v-564h124v564h145v-564h125v564h144z" />
    <glyph glyph-name="afii10043" unicode="&#x429;" horiz-adv-x="834" 
d="M697 0h-637v696h145v-563h125v563h145v-563h125v563h144v-564h73v-279h-120v147z" />
    <glyph glyph-name="afii10044" unicode="&#x42a;" horiz-adv-x="657" 
d="M192 0v562h-180v134h325v-261h89q55 0 96 -16t67 -44t39 -67.5t13 -85.5q0 -55 -15.5 -96.5t-44 -69.5t-69 -42t-89.5 -14h-231zM497 219q0 45 -21 63t-59 18h-80v-166h81q40 0 59.5 23.5t19.5 61.5z" />
    <glyph glyph-name="afii10045" unicode="&#x42b;" horiz-adv-x="770" 
d="M60 0v696h145v-261h89q55 0 96 -16t67 -44t39 -67.5t13 -85.5q0 -56 -15.5 -97.5t-44 -69t-69 -41.5t-89.5 -14h-231zM286 134q40 0 59.5 23t19.5 62q0 45 -21 63t-59 18h-80v-166h81zM564 0v696h145v-696h-145z" />
    <glyph glyph-name="afii10046" unicode="&#x42c;" horiz-adv-x="525" 
d="M510 222q0 -55 -16 -96.5t-44.5 -69.5t-69 -42t-89.5 -14h-230v696h145v-261h88q55 0 96 -16t67.5 -44t39.5 -67.5t13 -85.5zM366 219q0 45 -21.5 63t-59.5 18h-80v-166h81q40 0 60 23.5t20 61.5z" />
    <glyph glyph-name="afii10047" unicode="&#x42d;" horiz-adv-x="519" 
d="M173 419h154v65q0 12 -1.5 26t-9 26t-22.5 20t-41 8q-21 0 -36.5 -8.5t-26 -20.5t-16.5 -25.5t-7 -23.5l-135 41q7 34 24 65.5t45 55.5t66 38.5t86 14.5q64 0 106.5 -20.5t67.5 -52.5t35 -71.5t10 -78.5v-248q0 -47 -12.5 -90t-39 -75.5t-69 -51.5t-102.5 -19
q-85 0 -144 46t-74 127l138 40q4 -34 27 -55t53 -21q43 0 60.5 27.5t17.5 67.5v63h-154v130z" />
    <glyph glyph-name="afii10048" unicode="&#x42e;" horiz-adv-x="733" 
d="M474 701q110 0 162 -60t52 -164v-259q0 -107 -56 -165.5t-159 -58.5q-55 0 -95 16.5t-66.5 46t-39 70.5t-12.5 91v68h-58v-286h-145v696h145v-278h58v59q0 49 13.5 90.5t40.5 71t67 46t93 16.5zM473 563q-37 0 -54.5 -22.5t-17.5 -55.5v-274q0 -35 17 -57.5t54 -22.5
q36 0 54.5 21.5t18.5 58.5v274q0 35 -18 56.5t-54 21.5z" />
    <glyph glyph-name="afii10049" unicode="&#x42f;" horiz-adv-x="555" 
d="M497 696v-696h-145v282h-43q-34 0 -55.5 -24t-35.5 -79l-39 -179h-149l45 208q8 34 25.5 63t50.5 42q-52 21 -75.5 67t-23.5 106q0 51 16.5 90t45 66t67.5 40.5t83 13.5h233zM197 482q0 -22 7 -35.5t19 -21t27.5 -10t33.5 -2.5h68v149h-73q-82 0 -82 -80z" />
    <glyph glyph-name="afii10065" unicode="&#x430;" horiz-adv-x="462" 
d="M281 0v40l-4 1q-19 -25 -48 -35.5t-52 -10.5q-73 0 -109 39t-36 114q0 31 10.5 58.5t31.5 48.5t52.5 33t74.5 12h80v29q0 16 -12 32t-46 16q-26 0 -46 -8.5t-34 -32.5l-101 64q28 55 75.5 77.5t109.5 22.5q42 0 78 -8t61.5 -26.5t40 -49t14.5 -76.5v-340h-140zM281 202
h-61q-28 0 -40 -12t-12 -32q0 -14 11.5 -27.5t41.5 -13.5q24 0 42 14t18 41v30z" />
    <glyph glyph-name="afii10066" unicode="&#x431;" horiz-adv-x="456" 
d="M256 472q43 0 72 -14t49 -37q26 -32 36 -77t10 -97q0 -79 -15 -128.5t-45 -78.5q-26 -25 -61.5 -36t-82.5 -11q-53 0 -87 13.5t-54 38.5q-29 35 -37 96t-8 133q0 48 1.5 87t5.5 73q5 45 15 79t25.5 60.5t38 46.5t53.5 36q21 10 39 17.5t38.5 14.5t46 16t61.5 24l22 -52
l22 -52q-45 -20 -78.5 -33t-58.5 -24q-23 -10 -39 -20t-27 -24t-17 -32.5t-9 -44.5l3 -2q19 17 42.5 22.5t38.5 5.5zM229 344q-13 0 -24 -6t-20 -23q-5 -9 -8 -27t-3 -57q0 -23 2 -43t8 -34t16.5 -22.5t28.5 -8.5q33 0 43 26q8 15 9.5 36.5t1.5 43.5q0 61 -10 87
q-11 28 -44 28z" />
    <glyph glyph-name="afii10067" unicode="&#x432;" horiz-adv-x="457" 
d="M280 343q0 23 -15.5 31t-31.5 8h-50v-78h50q18 0 32.5 9.5t14.5 29.5zM288 165q0 21 -13.5 31.5t-33.5 10.5h-58v-89h58q18 0 32.5 12t14.5 35zM251 495q86 0 127.5 -36.5t41.5 -102.5q0 -30 -13 -58.5t-47 -40.5q35 -14 51 -43.5t16 -58.5q0 -71 -46 -113t-120 -42h-214
v495h204z" />
    <glyph glyph-name="afii10068" unicode="&#x433;" horiz-adv-x="405" 
d="M183 373v-373h-136v495h351v-122h-215z" />
    <glyph glyph-name="afii10069" unicode="&#x434;" horiz-adv-x="546" 
d="M470 124h56v-257h-116v133h-277v-133h-116v250l54 9q12 13 20.5 25.5t14 28t9 36t5.5 48.5l13 231h337v-371zM249 373q-3 -91 -10 -154.5t-26 -95.5h119v250h-83z" />
    <glyph glyph-name="afii10070" unicode="&#x435;" horiz-adv-x="464" 
d="M421 104q-26 -56 -77 -82.5t-111 -26.5q-55 0 -92.5 17t-61 49.5t-33.5 79t-10 106.5q0 58 10 105t33 80t61 51t95 18q60 0 98 -20t59.5 -53.5t29.5 -78.5t8 -96v-39h-252v-8q0 -17 2 -32t8 -26.5t16.5 -18t27.5 -6.5q21 0 38 9.5t34 34.5zM283 302q0 13 -2 26t-7.5 23
t-16 16t-27.5 6q-14 0 -24 -6.5t-16 -16.5t-8.5 -23t-3.5 -25h105z" />
    <glyph glyph-name="afii10072" unicode="&#x436;" horiz-adv-x="711" 
d="M132 259q-25 9 -42.5 33t-25.5 58l-37 144h134l29 -117q6 -24 14 -38t17.5 -21.5t20 -9.5t20.5 -2h24v189h139v-189h24q10 0 20.5 2t20 9.5t18 21.5t14.5 38l29 117h134l-37 -144q-8 -34 -26 -58t-43 -33v-4q29 -11 47 -36t26 -60l42 -159h-141l-26 117q-6 24 -13.5 39
t-16.5 23.5t-20 11t-24 2.5h-28v-193h-139v193h-28q-14 0 -24.5 -2.5t-19.5 -11t-16 -23.5t-13 -39l-27 -117h-140l41 159q9 35 26 60.5t47 35.5v4z" />
    <glyph glyph-name="afii10073" unicode="&#x437;" horiz-adv-x="423" 
d="M210 501q85 0 131 -36.5t46 -108.5q0 -23 -13 -53t-50 -47l-1 -3q38 -14 52.5 -41.5t14.5 -62.5q0 -74 -51 -114t-135 -40q-75 0 -118.5 27t-67.5 78l106 56q8 -19 31 -30.5t46 -11.5q24 0 36.5 13t12.5 30q0 27 -15 37.5t-39 10.5h-51v96h57q23 0 34 12t11 32
q0 17 -13 26.5t-36 9.5q-17 0 -38 -12t-33 -26l-94 59q23 47 69 73t108 26z" />
    <glyph glyph-name="afii10074" unicode="&#x438;" horiz-adv-x="502" 
d="M183 233l151 262h123v-495h-135v239h-3l-147 -239h-126v495h135v-262h2z" />
    <glyph glyph-name="afii10075" unicode="&#x439;" horiz-adv-x="502" 
d="M193 707q0 -11 4.5 -23.5t12 -23.5t18.5 -18t25 -7q15 0 25.5 7t18 18t11 23.5t3.5 23.5h104q-2 -25 -11.5 -54t-28.5 -54t-49 -41.5t-73 -16.5q-45 0 -75.5 16.5t-49.5 41.5t-28 54t-10 54h103zM183 233l151 262h123v-495h-135v239h-3l-147 -239h-126v495h135v-262h2z
" />
    <glyph glyph-name="afii10076" unicode="&#x43a;" horiz-adv-x="473" 
d="M50 0v493h139v-188h22q10 0 20.5 2t20 9.5t18 22t14.5 38.5l29 117h134l-37 -144q-9 -36 -28.5 -60.5t-46.5 -32.5q33 -8 51.5 -34.5t27.5 -63.5l42 -159h-141l-26 117q-6 24 -13.5 39t-16.5 23.5t-20 11t-24 2.5h-26v-193h-139z" />
    <glyph glyph-name="afii10077" unicode="&#x43b;" horiz-adv-x="490" 
d="M225 372v-105q0 -69 -9.5 -119.5t-31.5 -84.5t-58 -52t-89 -22l-26 103q31 9 48.5 21.5t26.5 32.5t11.5 51t2.5 77v221h340v-495h-138v372h-77z" />
    <glyph glyph-name="afii10078" unicode="&#x43c;" horiz-adv-x="576" 
d="M291 248l49 105l69 142h126v-495h-137v209h-2l-27 -60l-31 -70h-94l-33 70l-27 60h-2v-209h-136v495h123l69 -143l51 -104h2z" />
    <glyph glyph-name="afii10079" unicode="&#x43d;" horiz-adv-x="477" 
d="M295 0v197h-112v-197h-136v495h136v-192h112v192h136v-495h-136z" />
    <glyph glyph-name="afii10080" unicode="&#x43e;" horiz-adv-x="459" 
d="M234 502q69 0 109.5 -27t57.5 -68q14 -32 18 -72.5t4 -88.5q0 -53 -5.5 -92t-19.5 -68q-26 -53 -71.5 -73t-102.5 -20q-51 0 -86.5 16t-58.5 45q-24 32 -33.5 79t-9.5 113q1 42 5 84.5t15 68.5q21 48 64.5 75.5t113.5 27.5zM232 373q-33 0 -47 -35q-6 -17 -8 -39.5
t-2 -54.5q0 -25 1.5 -48t8.5 -40q12 -34 45 -34q7 0 14.5 1.5t14.5 7t12.5 16t8.5 27.5q2 14 3.5 34.5t1.5 47.5q0 52 -10 81q-13 36 -43 36z" />
    <glyph glyph-name="afii10081" unicode="&#x43f;" horiz-adv-x="482" 
d="M290 0v387h-101v-387h-139v496h381v-496h-141z" />
    <glyph glyph-name="afii10082" unicode="&#x440;" horiz-adv-x="467" 
d="M240 125q18 0 28.5 11.5t16 29t7 39t1.5 41.5q0 27 -1.5 50t-7 39t-15.5 25t-27 9q-33 0 -43.5 -31t-10.5 -89q0 -20 1.5 -42t6.5 -40t15.5 -30t28.5 -12zM191 458q17 22 41.5 32t46.5 10q55 0 86 -25t46.5 -63t19.5 -83t4 -85q0 -45 -5 -89.5t-21.5 -80t-47.5 -58
t-83 -22.5q-10 0 -22 3t-24 8.5t-22.5 13t-17.5 17.5l-4 -1v-236h-140v696h140v-35z" />
    <glyph glyph-name="afii10083" unicode="&#x441;" horiz-adv-x="422" 
d="M222 501q63 0 110 -29t67 -86l-118 -57q-11 24 -23 34t-29 10q-38 0 -48.5 -35t-10.5 -93q0 -63 11.5 -92.5t47.5 -29.5q18 0 30 10.5t23 32.5l118 -58q-20 -55 -66.5 -84t-109.5 -29q-56 0 -93.5 18.5t-60 52t-32 79.5t-9.5 100t9.5 101t32 81.5t59.5 54t92 19.5z" />
    <glyph glyph-name="afii10084" unicode="&#x442;" horiz-adv-x="395" 
d="M263 382v-382h-136v382h-122v113h381v-113h-123z" />
    <glyph glyph-name="afii10085" unicode="&#x443;" horiz-adv-x="442" 
d="M254 -87q-19 -60 -58 -86.5t-95 -26.5h-49v120h29q41 0 56 51l16 55l-152 469h150l34 -160l31 -137h5l32 136l40 161h146z" />
    <glyph glyph-name="afii10086" unicode="&#x444;" horiz-adv-x="633" 
d="M248 -192v186q-53 3 -92 18t-65 43.5t-38.5 72t-12.5 104.5q0 44 5 84t17 69q20 48 70.5 79.5t115.5 34.5v212h134v-212q62 -2 102.5 -23t64.5 -55t34 -79t10 -95q0 -69 -16.5 -116.5t-45 -76.5t-66.5 -42.5t-82 -16.5v-187h-135zM382 120q42 3 55.5 35t13.5 86
q0 39 -4 63t-12.5 38.5t-21.5 20.5t-31 8v-251zM248 371q-17 -3 -30 -11t-21.5 -23t-12.5 -39t-4 -58q0 -63 15 -90.5t53 -29.5v251z" />
    <glyph glyph-name="afii10087" unicode="&#x445;" horiz-adv-x="469" 
d="M164 0h-161l153 252l-147 243h162l62 -134h1l62 134h160l-149 -243l156 -252h-162q-17 35 -34 71t-34 71z" />
    <glyph glyph-name="afii10088" unicode="&#x446;" horiz-adv-x="516" 
d="M438 495v-370h64v-257h-116v132h-335v495h138v-370h110v370h139z" />
    <glyph glyph-name="afii10089" unicode="&#x447;" horiz-adv-x="455" 
d="M274 192q-24 -8 -51 -13t-54 -5q-29 0 -54 7.5t-43 23.5t-28.5 40.5t-10.5 58.5v191h140v-130q0 -34 8 -53t40 -19q12 0 26 3.5t27 8.5v190h138v-495h-138v192v0z" />
    <glyph glyph-name="afii10090" unicode="&#x448;" horiz-adv-x="706" 
d="M656 495v-495h-605v495h137v-369h97v369h138v-369h97v369h136z" />
    <glyph glyph-name="afii10091" unicode="&#x449;" horiz-adv-x="735" 
d="M657 495v-370h64v-257h-117v132h-553v495h137v-370h97v370h138v-370h97v370h137z" />
    <glyph glyph-name="afii10092" unicode="&#x44a;" horiz-adv-x="552" 
d="M353 114q27 0 40.5 14t13.5 37q0 20 -11.5 36t-40.5 16h-59v-103h57zM11 377v118h286v-165h61q50 0 84.5 -12.5t56 -34t31 -51t9.5 -62.5q0 -40 -14 -71.5t-38 -53.5t-56.5 -33.5t-68.5 -11.5h-202v377h-149z" />
    <glyph glyph-name="afii10093" unicode="&#x44b;" horiz-adv-x="653" 
d="M469 0v495h136v-495h-136zM241 114q27 0 40.5 14t13.5 37q0 20 -11.5 36t-40.5 16h-59v-103h57zM48 495h137v-165h61q50 0 84.5 -12.5t56 -34t31 -51t9.5 -62.5q0 -40 -14 -71.5t-38 -53.5t-56.5 -33.5t-68.5 -11.5h-202v495z" />
    <glyph glyph-name="afii10094" unicode="&#x44c;" horiz-adv-x="443" 
d="M237 114q27 0 40.5 14t13.5 37q0 20 -11.5 36t-40.5 16h-59v-103h57zM44 495h137v-165h61q50 0 84.5 -12.5t56 -34t31 -51t9.5 -62.5q0 -40 -14 -71.5t-38 -53.5t-56.5 -33.5t-68.5 -11.5h-202v495z" />
    <glyph glyph-name="afii10095" unicode="&#x44d;" horiz-adv-x="427" 
d="M143 300h106q-3 34 -15 54t-44 20q-15 0 -30 -10.5t-25 -34.5q-27 13 -53.5 26t-53.5 27q23 57 68.5 87.5t105.5 30.5q54 0 90.5 -16t59 -48t32.5 -79.5t10 -110.5q0 -57 -11 -103.5t-35 -79.5t-63 -50.5t-95 -17.5q-63 0 -106.5 30.5t-61.5 86.5l113 52q8 -23 23 -32
t31 -9q31 0 44.5 22t15.5 54h-106v101z" />
    <glyph glyph-name="afii10096" unicode="&#x44e;" horiz-adv-x="649" 
d="M423 501q67 0 107 -27t57 -68q13 -32 18 -72t5 -88q0 -53 -6 -92t-20 -68q-26 -53 -70 -73t-101 -20q-51 0 -85.5 16t-56.5 45q-20 25 -30 60t-14 83h-46v-197h-136v495h136v-192h48q2 28 6.5 53t12.5 42q20 48 65.5 75.5t109.5 27.5zM421 370q-32 0 -46 -35
q-6 -17 -8 -38.5t-2 -52.5q0 -25 1.5 -47t8.5 -39q12 -34 44 -34q7 0 14.5 1.5t14 7t12 16t8.5 27.5q2 14 3 33.5t1 45.5t-2 45t-7 34q-13 36 -42 36z" />
    <glyph glyph-name="afii10097" unicode="&#x44f;" horiz-adv-x="468" 
d="M255 185q-22 0 -39.5 -15t-27.5 -59l-25 -111h-139l35 136q7 26 20 46t36 32q-42 16 -59 48t-18 70q0 78 47.5 120.5t127.5 42.5h209v-495h-140v185h-27zM174 330q0 -23 16 -31t39 -8h53v86h-56q-21 0 -36.5 -10.5t-15.5 -36.5z" />
    <glyph glyph-name="afii10071" unicode="&#x451;" horiz-adv-x="464" 
d="M421 104q-26 -56 -77 -82.5t-111 -26.5q-55 0 -92.5 17t-61 49.5t-33.5 79t-10 106.5q0 58 10 105t33 80t61 51t95 18q60 0 98 -20t59.5 -53.5t29.5 -78.5t8 -96v-39h-252v-8q0 -17 2 -32t8 -26.5t16.5 -18t27.5 -6.5q21 0 38 9.5t34 34.5zM283 302q0 13 -2 26t-7.5 23
t-16 16t-27.5 6q-14 0 -24 -6.5t-16 -16.5t-8.5 -23t-3.5 -25h105zM265 565v130h134v-130h-134zM69 565v130h133v-130h-133z" />
    <glyph glyph-name="afii10099" unicode="&#x452;" horiz-adv-x="513" 
d="M312 494q46 0 76.5 -15t49.5 -46t27 -78t8 -111q0 -131 -44.5 -192.5t-147.5 -64.5h-29v114q25 1 40.5 10t23.5 27t11 46.5t3 68.5q0 21 -2 41t-8.5 36t-18.5 26t-32 10q-35 0 -50.5 -30.5t-15.5 -83.5q0 -63 -0.5 -126t-0.5 -126h-140v562h-61v81h61v83h140v-83h155v-81
h-154v-116h2q20 23 50.5 35.5t56.5 12.5z" />
    <glyph glyph-name="afii10100" unicode="&#x453;" horiz-adv-x="405" 
d="M174 373v-373h-135v495h351v-122h-216zM148 570l92 195l121 -48l-136 -183z" />
    <glyph glyph-name="afii10101" unicode="&#x454;" horiz-adv-x="424" 
d="M408 105q-23 -51 -67.5 -80.5t-104.5 -29.5q-59 0 -98.5 18t-63.5 50.5t-34 79t-10 103.5q0 255 205 255q62 0 105.5 -28t64.5 -82l-109 -56q-12 21 -28 30t-30 9q-26 0 -41.5 -15t-20.5 -59h108v-101h-109q5 -42 19.5 -59t42.5 -17q15 0 30 9t27 32z" />
    <glyph glyph-name="afii10102" unicode="&#x455;" horiz-adv-x="442" 
d="M418 153q0 -71 -52.5 -114.5t-144.5 -43.5q-68 0 -114.5 20.5t-81.5 68.5l97 82q19 -28 42.5 -39t52.5 -11q28 0 43 12t15 26q0 17 -11 25.5t-37 13.5q-33 6 -67 15.5t-61 26.5t-44.5 43.5t-17.5 67.5q0 36 15 64.5t40.5 48.5t59 30.5t71.5 10.5q67 0 110.5 -20t75.5 -55
l-84 -88q-19 22 -41.5 32t-54.5 10q-29 0 -40 -10t-11 -20q0 -9 6 -15t16 -10t21.5 -7t23.5 -5q34 -7 65.5 -17t55.5 -28t38 -45.5t14 -68.5z" />
    <glyph glyph-name="afii10103" unicode="&#x456;" horiz-adv-x="253" 
d="M57 569v127h140v-127h-140zM57 0v495h140v-495h-140z" />
    <glyph glyph-name="afii10104" unicode="&#x457;" horiz-adv-x="253" 
d="M159 558v130h134v-130h-134zM-37 558v130h133v-130h-133zM57 0v495h140v-495h-140z" />
    <glyph glyph-name="afii10105" unicode="&#x458;" horiz-adv-x="256" 
d="M59 569v127h140v-127h-140zM199 -44q0 -76 -47.5 -115t-127.5 -39h-35v126h25q28 0 36.5 20t8.5 45v503h140v-540z" />
    <glyph glyph-name="afii10106" unicode="&#x459;" horiz-adv-x="687" 
d="M428 495v-165h61q50 0 85 -12.5t56.5 -34t31 -51t9.5 -62.5q0 -47 -14.5 -79t-40.5 -52.5t-63.5 -29.5t-82.5 -9h-180v372h-66v-105q0 -17 -0.5 -33.5t-1.5 -32.5q-5 -103 -51 -154.5t-135 -57.5l-26 103q22 7 37 15t25.5 19.5t16 27.5t7.5 38q3 31 3 74v229h329z
M480 122q23 0 37.5 11.5t14.5 31.5t-12.5 32.5t-40.5 12.5h-51v-88h52z" />
    <glyph glyph-name="afii10107" unicode="&#x45a;" horiz-adv-x="665" 
d="M647 170q0 -78 -47.5 -124t-135.5 -46h-196v215h-89v-215h-136v495h136v-167h89v167h136v-167h61q51 0 85.5 -12.5t56 -33.5t31 -50t9.5 -62zM515 164q0 51 -55 51h-56v-100h57q27 0 40.5 13t13.5 36z" />
    <glyph glyph-name="afii10108" unicode="&#x45b;" horiz-adv-x="497" 
d="M307 0v307q0 29 -13 42.5t-34 13.5q-22 0 -38 -16.5t-16 -45.5v-301h-140v562h-62v81h62v83h140v-83h149v-81h-149v-110l5 -1q17 17 46.5 30.5t55.5 13.5q69 0 101.5 -42.5t32.5 -112.5v-340h-140z" />
    <glyph glyph-name="afii10109" unicode="&#x45c;" horiz-adv-x="473" 
d="M155 570l93 195l120 -48l-135 -183zM50 0v493h139v-188h22q10 0 20.5 2t20 9.5t18 22t14.5 38.5l29 117h134l-37 -144q-9 -36 -28.5 -60.5t-46.5 -32.5q33 -8 51.5 -34.5t27.5 -63.5l42 -159h-141l-26 117q-6 24 -13.5 39t-16.5 23.5t-20 11t-24 2.5h-26v-193h-139z" />
    <glyph glyph-name="afii10110" unicode="&#x45e;" horiz-adv-x="442" 
d="M254 -87q-19 -60 -58 -86.5t-95 -26.5h-49v120h29q41 0 56 51l16 55l-152 469h150l34 -160l31 -137h5l32 136l40 161h146zM224 542q-45 0 -75.5 17t-49.5 42.5t-28 55t-10 54.5h103q0 -11 4.5 -23.5t12 -23.5t18.5 -18t25 -7q15 0 25.5 7t18 18t11 23.5t3.5 23.5h104
q-2 -25 -11.5 -54.5t-28.5 -55t-49 -42.5t-73 -17z" />
    <glyph glyph-name="afii10193" unicode="&#x45f;" horiz-adv-x="480" 
d="M433 495v-495h-135v-140h-116v140h-132v495h136v-370h111v370h136z" />
    <glyph glyph-name="afii10050" unicode="&#x490;" horiz-adv-x="480" 
d="M206 562v-562h-145v696h290v119h115v-253h-260z" />
    <glyph glyph-name="afii10098" unicode="&#x491;" horiz-adv-x="405" 
d="M186 373v-373h-139v495h242v110h109v-232h-212z" />
    <glyph glyph-name="schwacyrillic" unicode="&#x4d9;" horiz-adv-x="464" 
d="M45 392q26 56 78.5 82.5t112.5 26.5q55 0 92.5 -17t60 -49.5t32 -79t9.5 -106.5q0 -59 -10 -106t-33 -80t-61 -50.5t-95 -17.5q-60 0 -98 20t-59.5 53.5t-29.5 78.5t-8 96v39h252v8q0 17 -2 32t-8 26.5t-16.5 18t-27.5 6.5q-21 0 -38 -9.5t-34 -34.5zM183 194
q0 -13 2 -26t7.5 -23t16 -16t27.5 -6q14 0 23.5 6.5t15.5 16.5t9 23t4 25h-105z" />
    <glyph glyph-name="Wgrave" unicode="&#x1e80;" horiz-adv-x="748" 
d="M373 365q-9 -38 -18 -75.5t-19 -75.5q-12 -54 -27 -108t-28 -107h-130l-147 696h158q11 -64 22 -126.5t21 -125.5q6 -35 11 -69.5t11 -69.5h4q11 48 21 96.5t21 96.5l45 198h113q12 -50 23.5 -99.5t22.5 -99.5q11 -49 21.5 -98t21.5 -98h5q5 35 10 69t10 69l41 257h158
l-147 -696h-130q-13 54 -27 108.5t-27 108.5l-36 149h-4zM400 741l-205 97l84 100l173 -129z" />
    <glyph glyph-name="wgrave" unicode="&#x1e81;" horiz-adv-x="668" 
d="M529 0h-136l-27 111l-30 135h-4l-30 -134l-28 -112h-135l-132 495h149l26 -147l26 -141h5l30 141l30 147h122l31 -148l32 -140h5l26 142l25 146h146zM324 534l-141 181l121 50l97 -190z" />
    <glyph glyph-name="Wacute" unicode="&#x1e82;" horiz-adv-x="748" 
d="M373 365q-9 -38 -18 -75.5t-19 -75.5q-12 -54 -27 -108t-28 -107h-130l-147 696h158q11 -64 22 -126.5t21 -125.5q6 -35 11 -69.5t11 -69.5h4q11 48 21 96.5t21 96.5l45 198h113q12 -50 23.5 -99.5t22.5 -99.5q11 -49 21.5 -98t21.5 -98h5q5 35 10 69t10 69l41 257h158
l-147 -696h-130q-13 54 -27 108.5t-27 108.5l-36 149h-4zM293 794l173 129l84 -100l-205 -97z" />
    <glyph glyph-name="wacute" unicode="&#x1e83;" horiz-adv-x="668" 
d="M529 0h-136l-27 111l-30 135h-4l-30 -134l-28 -112h-135l-132 495h149l26 -147l26 -141h5l30 141l30 147h122l31 -148l32 -140h5l26 142l25 146h146zM290 570l93 195l120 -48l-135 -183z" />
    <glyph glyph-name="Wdieresis" unicode="&#x1e84;" horiz-adv-x="748" 
d="M373 365q-9 -38 -18 -75.5t-19 -75.5q-12 -54 -27 -108t-28 -107h-130l-147 696h158q11 -64 22 -126.5t21 -125.5q6 -35 11 -69.5t11 -69.5h4q11 48 21 96.5t21 96.5l45 198h113q12 -50 23.5 -99.5t22.5 -99.5q11 -49 21.5 -98t21.5 -98h5q5 35 10 69t10 69l41 257h158
l-147 -696h-130q-13 54 -27 108.5t-27 108.5l-36 149h-4zM211 737v131h136v-131h-136zM406 737v131h135v-131h-135z" />
    <glyph glyph-name="wdieresis" unicode="&#x1e85;" horiz-adv-x="668" 
d="M529 0h-136l-27 111l-30 135h-4l-30 -134l-28 -112h-135l-132 495h149l26 -147l26 -141h5l30 141l30 147h122l31 -148l32 -140h5l26 142l25 146h146zM364 558v130h134v-130h-134zM168 558v130h133v-130h-133z" />
    <glyph glyph-name="Ygrave" unicode="&#x1ef2;" horiz-adv-x="510" 
d="M327 279v-279h-142v279l-180 419h161l46 -142l41 -133h6l43 134l51 139h154zM289 726l-205 97l84 100l173 -129z" />
    <glyph glyph-name="ygrave" unicode="&#x1ef3;" horiz-adv-x="442" 
d="M254 -87q-19 -60 -58 -86.5t-95 -26.5h-49v120h29q41 0 56 51l16 55l-152 469h150l34 -160l31 -137h5l32 136l40 161h146zM205 534l-141 181l121 50l97 -190z" />
    <glyph glyph-name="endash" unicode="&#x2013;" horiz-adv-x="500" 
d="M20 220v116h457v-116h-457z" />
    <glyph glyph-name="emdash" unicode="&#x2014;" horiz-adv-x="1000" 
d="M20 220v116h959v-116h-959z" />
    <glyph glyph-name="afii00208" unicode="&#x2015;" horiz-adv-x="1025" 
d="M20 220v116h985v-116h-985z" />
    <glyph glyph-name="quoteleft" unicode="&#x2018;" horiz-adv-x="291" 
d="M218 719l-35 -149h32v-161h-153v155l82 155h74z" />
    <glyph glyph-name="quoteright" unicode="&#x2019;" horiz-adv-x="291" 
d="M62 410l36 149h-33v161h153v-155l-81 -155h-75z" />
    <glyph glyph-name="quotesinglbase" unicode="&#x201a;" horiz-adv-x="267" 
d="M55 -152l36 150h-33v160h153v-155l-81 -155h-75z" />
    <glyph glyph-name="quotedblleft" unicode="&#x201c;" horiz-adv-x="419" 
d="M193 719l-35 -149h32v-161h-153v155l82 155h74zM382 719l-36 -149h33v-161h-153v155l81 155h75z" />
    <glyph glyph-name="quotedblright" unicode="&#x201d;" horiz-adv-x="419" 
d="M226 410l36 149h-33v161h153v-155l-81 -155h-75zM37 410l36 149h-33v161h153v-155l-81 -155h-75z" />
    <glyph glyph-name="quotedblbase" unicode="&#x201e;" horiz-adv-x="504" 
d="M55 -152l36 150h-33v160h153v-155l-81 -155h-75zM290 -152l35 150h-32v160h152v-155l-81 -155h-74z" />
    <glyph glyph-name="dagger" unicode="&#x2020;" horiz-adv-x="452" 
d="M292 361v-521h-131v521h-144v119h144v206h131v-206h144v-119h-144z" />
    <glyph glyph-name="daggerdbl" unicode="&#x2021;" horiz-adv-x="452" 
d="M161 361h-144v119h144v206h131v-206h144v-119h-144v-138h144v-119h-144v-264h-131v264h-144v119h144v138z" />
    <glyph glyph-name="bullet" unicode="&#x2022;" horiz-adv-x="470" 
d="M86 281q0 32 12 60.5t33 49.5t49 33t60 12t60 -12t48.5 -33t32.5 -49.5t12 -60.5t-12 -60t-32.5 -49t-48.5 -33t-60 -12t-60 12t-49 33t-33 49t-12 60z" />
    <glyph glyph-name="trianglebullet" unicode="&#x2023;" horiz-adv-x="584" 
d="M544 287l-463 -281v551z" />
    <glyph glyph-name="ellipsis" unicode="&#x2026;" horiz-adv-x="934" 
d="M66 0v158h152v-158h-152zM395 0v158h152v-158h-152zM714 0v158h152v-158h-152z" />
    <glyph glyph-name="perthousand" unicode="&#x2030;" horiz-adv-x="1059" 
d="M239 -17h-91l370 730h92zM307 391q0 -27 -10.5 -48t-28.5 -35.5t-41.5 -22.5t-49.5 -8t-49.5 8t-41 22.5t-28 35.5t-10.5 48v196q0 27 10.5 48t28.5 36t41 22.5t49 7.5q27 0 50.5 -7.5t41 -22.5t28 -36t10.5 -48v-196zM204 584q0 12 -7 19.5t-21 7.5q-13 0 -20 -7.5
t-7 -19.5v-190q0 -11 7.5 -18.5t20.5 -7.5q12 0 19.5 7.5t7.5 18.5v190zM723 111q0 -27 -10.5 -48t-28.5 -35.5t-41.5 -22.5t-49.5 -8t-49.5 8t-41 22.5t-28 35.5t-10.5 48v196q0 27 10.5 48t28.5 36t41 22.5t49 7.5q27 0 50.5 -7.5t41 -22.5t28 -36t10.5 -48v-196zM620 304
q0 12 -7 19.5t-21 7.5q-13 0 -20 -7.5t-7 -19.5v-190q0 -11 7.5 -18.5t20.5 -7.5q12 0 19.5 7.5t7.5 18.5v190zM1011 111q0 -27 -10.5 -48t-28.5 -35.5t-41.5 -22.5t-49.5 -8t-49.5 8t-41 22.5t-28 35.5t-10.5 48v196q0 27 10.5 48t28.5 36t41 22.5t49 7.5q27 0 50.5 -7.5
t41 -22.5t28 -36t10.5 -48v-196zM908 304q0 12 -7 19.5t-21 7.5q-13 0 -20 -7.5t-7 -19.5v-190q0 -11 7.5 -18.5t20.5 -7.5q12 0 19.5 7.5t7.5 18.5v190z" />
    <glyph glyph-name="guilsinglleft" unicode="&#x2039;" horiz-adv-x="370" 
d="M178 28l-131 207l131 207h135l-129 -207l129 -207h-135z" />
    <glyph glyph-name="guilsinglright" unicode="&#x203a;" horiz-adv-x="370" 
d="M46 28l130 207l-130 207h135l131 -207l-131 -207h-135z" />
    <glyph glyph-name="fraction" unicode="&#x2044;" horiz-adv-x="180" 
d="M-53 -17h-91l370 730h92z" />
    <glyph glyph-name="fraction" unicode="&#x2215;" horiz-adv-x="180" 
d="M-53 -17h-91l370 730h92z" />
    <glyph glyph-name="zerosuperior" unicode="&#x2070;" horiz-adv-x="313" 
d="M287 481q0 -27 -10.5 -48t-28.5 -35.5t-41.5 -22.5t-49.5 -8t-49.5 8t-41 22.5t-28 35.5t-10.5 48v196q0 27 10.5 48t28.5 36t41 22.5t49 7.5q27 0 50.5 -7.5t41 -22.5t28 -36t10.5 -48v-196zM184 674q0 12 -7 19.5t-21 7.5q-13 0 -20 -7.5t-7 -19.5v-190
q0 -11 7.5 -18.5t20.5 -7.5q12 0 19.5 7.5t7.5 18.5v190z" />
    <glyph glyph-name="foursuperior" unicode="&#x2074;" horiz-adv-x="317" 
d="M271 426v-57h-98v57h-160v74l123 286h105l-116 -273h48v79h98v-79h30v-87h-30z" />
    <glyph glyph-name="fivesuperior" unicode="&#x2075;" horiz-adv-x="315" 
d="M184 658q33 0 53.5 -9.5t32.5 -27t16.5 -42.5t4.5 -55q0 -36 -6.5 -65t-22 -50t-41 -32.5t-62.5 -11.5q-55 0 -90.5 27t-42.5 90q26 4 50.5 7.5t49.5 6.5q2 -25 11.5 -32t20.5 -7q12 0 18 6t9 16t3 21.5v23.5q0 7 -0.5 15.5t-3.5 16t-9 12t-17 4.5q-6 0 -14.5 -5.5
t-16.5 -21.5h-89v241h243v-89h-145v-51q11 7 24 9.5t24 2.5z" />
    <glyph glyph-name="sixsuperior" unicode="&#x2076;" horiz-adv-x="312" 
d="M179 618q4 2 9 2.5t9 0.5q18 0 34 -6.5t28.5 -20.5t20 -36t7.5 -54q0 -66 -32 -101.5t-99 -35.5q-62 0 -94 28.5t-32 94.5q0 21 6 49.5t14 45.5l98 200h111zM160 546q-15 0 -22.5 -10.5t-7.5 -35.5t6.5 -35.5t20.5 -10.5q17 0 23 12.5t6 40.5q0 21 -6.5 30t-19.5 9z" />
    <glyph glyph-name="sevensuperior" unicode="&#x2077;" horiz-adv-x="298" 
d="M149 369h-107l131 327h-50v-46h-99v136h265v-78z" />
    <glyph glyph-name="eightsuperior" unicode="&#x2078;" horiz-adv-x="317" 
d="M287 669q0 -24 -8 -46t-31 -35q25 -14 34 -41t9 -52q0 -36 -11 -60.5t-29.5 -39.5t-42.5 -22t-51 -7t-50.5 7t-41.5 22t-28.5 39.5t-10.5 60.5q0 23 7.5 49t33.5 44q-22 14 -29.5 36t-7.5 45q0 54 32.5 88t94.5 34q60 0 95 -29.5t35 -92.5zM157 454q18 0 26 13t8 36
q0 42 -34 42q-16 0 -23.5 -11.5t-7.5 -31.5q0 -26 7.5 -37t23.5 -11zM158 625q29 0 29 43q0 16 -7 25.5t-22 9.5q-14 0 -20.5 -10t-6.5 -27q0 -23 6.5 -32t20.5 -9z" />
    <glyph glyph-name="ninesuperior" unicode="&#x2079;" horiz-adv-x="314" 
d="M136 539q-8 -3 -18 -3q-18 0 -34 6.5t-28.5 20.5t-20 36t-7.5 54q0 65 31.5 101t97.5 36q57 0 92.5 -28.5t35.5 -94.5q0 -21 -6 -49.5t-14 -45.5l-98 -200h-111zM155 611q15 0 22.5 10.5t7.5 35.5t-6.5 35.5t-20.5 10.5q-17 0 -23 -12.5t-6 -40.5q0 -21 6.5 -30t19.5 -9z
" />
    <glyph glyph-name="plussuperior" unicode="&#x207a;" horiz-adv-x="319" 
d="M203 508v-99h-88v99h-107v79h107v97h88v-97h106v-79h-106z" />
    <glyph glyph-name="hyphensuperior" unicode="&#x207b;" horiz-adv-x="268" 
d="M26 485v86h219v-86h-219z" />
    <glyph glyph-name="equalsuperior" unicode="&#x207c;" horiz-adv-x="319" 
d="M8 568v77h302v-77h-302zM8 450v77h302v-77h-302z" />
    <glyph glyph-name="parenleftsuperior" unicode="&#x207d;" horiz-adv-x="218" 
d="M153 292q-51 57 -85 122.5t-34 139.5t33 138.5t81 118.5l66 -32q-39 -55 -59.5 -113.5t-20.5 -108.5q0 -55 21 -114.5t58 -110.5z" />
    <glyph glyph-name="parenrightsuperior" unicode="&#x207e;" horiz-adv-x="218" 
d="M208 554q0 -74 -34 -139.5t-85 -122.5l-62 40q38 51 59 110.5t21 114.5q0 50 -20 108.5t-60 113.5l66 32q24 -26 44.5 -55.5t36.5 -62t25 -67.5t9 -72z" />
    <glyph glyph-name="nsuperior" unicode="&#x207f;" horiz-adv-x="333" 
d="M195 279v206q0 16 -8 23t-20 7q-13 0 -21 -8t-8 -22v-206h-106v328h106v-25q11 12 28.5 20.5t36.5 8.5q53 0 75.5 -28t22.5 -76v-228h-106z" />
    <glyph glyph-name="zeroinferior" unicode="&#x2080;" horiz-adv-x="313" 
d="M287 21q0 -27 -10.5 -48t-28.5 -35.5t-41.5 -22.5t-49.5 -8t-49.5 8t-41 22.5t-28 35.5t-10.5 48v196q0 27 10.5 48t28.5 36t41 22.5t49 7.5q27 0 50.5 -7.5t41 -22.5t28 -36t10.5 -48v-196zM184 214q0 12 -7 19.5t-21 7.5q-13 0 -20 -7.5t-7 -19.5v-190q0 -11 7.5 -18.5
t20.5 -7.5q12 0 19.5 7.5t7.5 18.5v190z" />
    <glyph glyph-name="oneinferior" unicode="&#x2081;" horiz-adv-x="255" 
d="M94 -91v304l-61 -42v105l76 50h89v-417h-104z" />
    <glyph glyph-name="twoinferior" unicode="&#x2082;" horiz-adv-x="312" 
d="M20 203q3 31 14.5 55t30 40t41.5 24.5t49 8.5q62 0 97 -29.5t35 -84.5q0 -25 -8.5 -46.5t-24.5 -43.5l-94 -126h122v-92h-258v81l146 187q12 16 12 36q0 11 -6.5 19t-20.5 8q-12 0 -22 -11t-12 -39z" />
    <glyph glyph-name="threeinferior" unicode="&#x2083;" horiz-adv-x="313" 
d="M160 331q36 0 60.5 -10t40.5 -26.5t23 -39.5t7 -48q0 -20 -9.5 -45t-34.5 -37q28 -10 37 -34.5t9 -52.5q0 -58 -33.5 -95t-102.5 -37q-24 0 -46.5 7t-40.5 21.5t-30.5 37t-15.5 52.5l99 12q2 -23 12.5 -30t19.5 -7q12 0 18.5 4.5t9.5 11.5t3.5 15t0.5 14q0 17 -6 29.5
t-27 12.5h-37v78h33q22 0 29 12t7 30q0 10 -5 22t-25 12q-10 0 -20 -9.5t-12 -35.5l-98 15q8 57 45.5 89t88.5 32z" />
    <glyph glyph-name="fourinferior" unicode="&#x2084;" horiz-adv-x="317" 
d="M271 -34v-57h-98v57h-160v74l123 286h105l-116 -273h48v79h98v-79h30v-87h-30z" />
    <glyph glyph-name="fiveinferior" unicode="&#x2085;" horiz-adv-x="315" 
d="M184 198q33 0 53.5 -9.5t32.5 -27t16.5 -42.5t4.5 -55q0 -36 -6.5 -65t-22 -50t-41 -32.5t-62.5 -11.5q-55 0 -90.5 27t-42.5 90q26 4 50.5 7.5t49.5 6.5q2 -25 11.5 -32t20.5 -7q12 0 18 6t9 16t3 21.5v23.5q0 7 -0.5 15.5t-3.5 16t-9 12t-17 4.5q-6 0 -14.5 -5.5
t-16.5 -21.5h-89v241h243v-89h-145v-51q11 7 24 9.5t24 2.5z" />
    <glyph glyph-name="sixinferior" unicode="&#x2086;" horiz-adv-x="312" 
d="M179 158q4 2 9 2.5t9 0.5q18 0 34 -6.5t28.5 -20.5t20 -36t7.5 -54q0 -66 -32 -101.5t-99 -35.5q-62 0 -94 28.5t-32 94.5q0 21 6 49.5t14 45.5l98 200h111zM160 86q-15 0 -22.5 -10.5t-7.5 -35.5t6.5 -35.5t20.5 -10.5q17 0 23 12.5t6 40.5q0 21 -6.5 30t-19.5 9z" />
    <glyph glyph-name="seveninferior" unicode="&#x2087;" horiz-adv-x="298" 
d="M149 -91h-107l131 327h-50v-46h-99v136h265v-78z" />
    <glyph glyph-name="eightinferior" unicode="&#x2088;" horiz-adv-x="317" 
d="M287 209q0 -24 -8 -46t-31 -35q25 -14 34 -41t9 -52q0 -36 -11 -60.5t-29.5 -39.5t-42.5 -22t-51 -7t-50.5 7t-41.5 22t-28.5 39.5t-10.5 60.5q0 23 7.5 49t33.5 44q-22 14 -29.5 36t-7.5 45q0 54 32.5 88t94.5 34q60 0 95 -29.5t35 -92.5zM157 -6q18 0 26 13t8 36
q0 42 -34 42q-16 0 -23.5 -11.5t-7.5 -31.5q0 -26 7.5 -37t23.5 -11zM158 165q29 0 29 43q0 16 -7 25.5t-22 9.5q-14 0 -20.5 -10t-6.5 -27q0 -23 6.5 -32t20.5 -9z" />
    <glyph glyph-name="nineinferior" unicode="&#x2089;" horiz-adv-x="314" 
d="M136 79q-8 -3 -18 -3q-18 0 -34 6.5t-28.5 20.5t-20 36t-7.5 54q0 65 31.5 101t97.5 36q57 0 92.5 -28.5t35.5 -94.5q0 -21 -6 -49.5t-14 -45.5l-98 -200h-111zM155 151q15 0 22.5 10.5t7.5 35.5t-6.5 35.5t-20.5 10.5q-17 0 -23 -12.5t-6 -40.5q0 -21 6.5 -30t19.5 -9z
" />
    <glyph glyph-name="plusinferior" unicode="&#x208a;" horiz-adv-x="319" 
d="M203 47v-98h-88v98h-107v79h107v97h88v-97h106v-79h-106z" />
    <glyph glyph-name="hypheninferior" unicode="&#x208b;" horiz-adv-x="268" 
d="M26 24v87h219v-87h-219z" />
    <glyph glyph-name="equalinferior" unicode="&#x208c;" horiz-adv-x="319" 
d="M8 107v77h302v-77h-302zM8 -11v77h302v-77h-302z" />
    <glyph glyph-name="parenleftinferior" unicode="&#x208d;" horiz-adv-x="218" 
d="M153 -168q-51 57 -85 122.5t-34 139.5t33 138.5t81 118.5l66 -32q-39 -55 -59.5 -113.5t-20.5 -108.5q0 -55 21 -114.5t58 -110.5z" />
    <glyph glyph-name="parenrightinferior" unicode="&#x208e;" horiz-adv-x="218" 
d="M208 94q0 -74 -34 -139.5t-85 -122.5l-62 40q38 51 59 110.5t21 114.5q0 50 -20 108.5t-60 113.5l66 32q24 -26 44.5 -55.5t36.5 -62t25 -67.5t9 -72z" />
    <glyph glyph-name="dong" unicode="&#x20ab;" horiz-adv-x="490" 
d="M197 628h73v60h125v-60h42v-77h-42v-421h-122v25q-14 -14 -35 -21.5t-36 -7.5q-38 0 -63 13t-39.5 38t-20 62.5t-5.5 87.5q0 31 3 65.5t15.5 63t38 47t71.5 18.5q15 0 34 -5t34 -20v55h-73v77zM83 89h315v-97h-315v97zM238 408q-12 0 -19 -7.5t-10.5 -20t-4 -28.5
t-0.5 -32q0 -40 5.5 -61t28.5 -21q18 0 25.5 18.5t7.5 64.5q0 17 -0.5 33t-4 28t-10 19t-18.5 7z" />
    <glyph glyph-name="Euro" unicode="&#x20ac;" horiz-adv-x="490" 
d="M479 167q-7 -41 -25.5 -73t-45.5 -54t-61.5 -34t-74.5 -12q-57 0 -97.5 19t-66 51.5t-37 75.5t-11.5 90v26h-39v73h39v36h-39v73h39v40q0 39 11.5 78.5t37 71.5t65.5 52.5t98 20.5q46 0 81.5 -14.5t61.5 -38.5t42.5 -55.5t22.5 -65.5l-130 -41q-2 10 -6.5 23.5
t-13.5 24.5t-23.5 19t-34.5 8q-21 0 -35 -7.5t-22.5 -19t-12.5 -25t-4 -25.5v-46h150v-73h-150v-36h150v-73h-150v-30q0 -40 16.5 -66t57.5 -26q29 0 50.5 19.5t25.5 53.5z" />
    <glyph glyph-name="centigrade" unicode="&#x2103;" horiz-adv-x="828" 
d="M800 167q-15 -81 -74 -127t-144 -46q-60 0 -102.5 19t-69 51.5t-39 75.5t-12.5 90v248q0 39 12 78.5t38.5 71.5t69 52.5t103.5 20.5q48 0 86 -14.5t65 -38.5t44 -55.5t24 -65.5l-137 -41q-2 10 -6.5 23.5t-14.5 24.5t-25 19t-36 8q-22 0 -37 -7.5t-24 -19t-13 -25
t-4 -25.5v-258q0 -40 17.5 -66t60.5 -26q30 0 53 19.5t27 53.5zM319 559q0 -30 -11.5 -55.5t-31.5 -45t-46.5 -30.5t-57.5 -11q-30 0 -57 11t-47 30.5t-31.5 45t-11.5 55.5q0 29 11.5 55t31.5 45.5t47 30.5t57 11q31 0 57.5 -11t46.5 -30.5t31.5 -45.5t11.5 -55zM228 559
q0 23 -16 38.5t-40 15.5q-23 0 -39.5 -15.5t-16.5 -38.5t16.5 -39t39.5 -16q24 0 40 16t16 39z" />
    <glyph glyph-name="afii61248" unicode="&#x2105;" horiz-adv-x="707" 
d="M533 356q48 0 78.5 -19.5t42.5 -48.5q9 -22 13 -51t4 -63q0 -73 -19 -112q-18 -37 -49.5 -52t-73.5 -15q-71 0 -104 44q-17 23 -24.5 55.5t-7.5 79.5q0 31 5 60.5t13 47.5q15 34 46 54t76 20zM534 258q-9 0 -17 -6t-12 -16q-5 -11 -6 -26.5t-1 -34.5q0 -17 1 -33t6 -27
q7 -21 28 -21q8 0 17 5.5t13 27.5q3 19 3 54q0 17 -0.5 30.5t-5.5 24.5q-4 9 -11 15.5t-15 6.5zM173 701q46 0 80 -22.5t49 -65.5l-91 -43q-9 17 -16 24.5t-17 7.5q-23 0 -29.5 -22.5t-6.5 -59.5q0 -42 7 -61t29 -19q11 0 18.5 7.5t15.5 23.5l91 -43q-16 -42 -49.5 -64.5
t-78.5 -22.5q-40 0 -67 13.5t-43 37t-23 56.5t-7 72q0 38 7 71t23 57.5t42.5 38.5t65.5 14zM209 -17h-91l370 730h92z" />
    <glyph glyph-name="fahrenheit" unicode="&#x2109;" horiz-adv-x="786" 
d="M512 562v-147h224v-132h-224v-283h-145v696h405v-134h-260zM319 559q0 -30 -11.5 -55.5t-31.5 -45t-46.5 -30.5t-57.5 -11q-30 0 -57 11t-47 30.5t-31.5 45t-11.5 55.5q0 29 11.5 55t31.5 45.5t47 30.5t57 11q31 0 57.5 -11t46.5 -30.5t31.5 -45.5t11.5 -55zM228 559
q0 23 -16 38.5t-40 15.5q-23 0 -39.5 -15.5t-16.5 -38.5t16.5 -39t39.5 -16q24 0 40 16t16 39z" />
    <glyph glyph-name="afii61289" unicode="&#x2113;" horiz-adv-x="470" 
d="M438 158q-26 -75 -71.5 -121.5t-111.5 -46.5q-36 0 -65.5 12.5t-50.5 35t-33 53.5t-12 68v21q-8 -4 -19 -12.5t-22 -13.5l-39 67q20 12 41.5 26.5t37.5 29.5v204q0 60 12 102t32.5 69t48.5 39t61 12q22 0 44.5 -8t40.5 -24.5t29 -43t11 -62.5q0 -81 -43.5 -156.5
t-133.5 -162.5v-44q0 -32 6.5 -53.5t16.5 -34.5t22.5 -19t24.5 -6q26 0 49.5 27t40.5 78zM195 370q42 50 63.5 97.5t21.5 101.5q0 17 -9 31.5t-28 14.5q-18 0 -33 -27.5t-15 -90.5v-127z" />
    <glyph glyph-name="afii61352" unicode="&#x2116;" horiz-adv-x="887" 
d="M370 324q2 0 2 0.5t2 0.5v371h143v-696h-126l-96 198q-20 42 -41 87t-43 89q-2 0 -2 -0.5t-2 -0.5v-373h-144v696h128l99 -208q20 -42 40 -82t40 -82zM703 702q48 0 76.5 -18t41.5 -46q9 -20 12 -46.5t3 -57.5q0 -35 -3.5 -60.5t-14.5 -44.5q-19 -35 -50.5 -49t-71.5 -14
q-36 0 -61 11t-42 30q-17 21 -23.5 52t-6.5 75q1 27 3.5 54.5t10.5 44.5q14 32 46.5 50.5t79.5 18.5zM574 333h253v-84h-253v84zM700 610q-19 0 -27 -18q-5 -11 -5.5 -26t-0.5 -34q0 -17 0.5 -31.5t5.5 -25.5q8 -16 26 -16q19 0 26 17q4 9 5 25t1 39q0 17 -1 30t-5 22
q-8 18 -25 18z" />
    <glyph glyph-name="published" unicode="&#x2117;" horiz-adv-x="762" 
d="M378 -12q-75 0 -136 26t-104 73t-66.5 112t-23.5 142t23.5 142t66.5 112.5t104 74.5t136 27q74 0 135 -26.5t104.5 -74t67 -112.5t23.5 -143q0 -76 -23.5 -140.5t-67 -112t-104.5 -74t-135 -26.5zM378 619q-57 0 -102 -21.5t-76.5 -59t-48.5 -88.5t-17 -109
q0 -57 17.5 -107.5t49.5 -87.5t77 -58.5t100 -21.5q56 0 101.5 21.5t77 58.5t48.5 87.5t17 107.5q0 60 -17.5 110.5t-49 88t-77 58.5t-100.5 21zM406 549q63 0 101 -33.5t38 -107.5q0 -64 -36.5 -103t-101.5 -39h-49v-149h-97v432h145zM358 460v-104h34q12 0 22.5 2t19 8
t13.5 16.5t5 27.5q0 26 -13.5 38t-36.5 12h-44z" />
    <glyph glyph-name="trademark" unicode="&#x2122;" horiz-adv-x="869" 
d="M704 527l-40 -106l-42 -100h-57q-11 26 -21.5 50.5t-21.5 49.5l-40 106h-3v-241h-92v409h111l51 -117q12 -27 22.5 -54t21.5 -53h2l43 106l52 118h111v-409h-94v241h-3zM241 607v-321h-96v321h-104v89h304v-89h-104z" />
    <glyph glyph-name="Ohm" unicode="&#x2126;" horiz-adv-x="537" 
d="M293 140q21 8 36 27t15 45v272q0 10 -3.5 23t-12.5 25t-23.5 20.5t-36.5 8.5t-37 -7.5t-24.5 -19t-14 -25t-4.5 -25.5v-255q0 -32 13 -56.5t40 -32.5v-140h-210v132h50q0 2 0.5 2.5t0.5 1.5q-23 20 -30.5 53t-7.5 72v217q0 39 12 78.5t39 71.5t69.5 52.5t103.5 20.5
q57 0 99 -19.5t69 -51t40.5 -71.5t13.5 -81v-223q0 -38 -8 -69.5t-31 -50.5q0 -1 0.5 -1.5t0.5 -1.5h52v-132h-211v140z" />
    <glyph glyph-name="angstrom" unicode="&#x212b;" horiz-adv-x="555" 
d="M163 791q0 22 9 42t24 35t35.5 23.5t44.5 8.5t44.5 -8.5t35.5 -23.5t23.5 -35t8.5 -42q0 -31 -15.5 -56t-41.5 -39h17l201 -696h-156l-34 142h-165q-9 -35 -18.5 -71t-19.5 -71h-153l201 696h15q-26 14 -41 39t-15 56zM246 371l-20 -100h100l-19 99l-28 139h-5zM311 790
q0 14 -10.5 24t-24.5 10q-15 0 -25.5 -10t-10.5 -24t10.5 -24t25.5 -10q14 0 24.5 10t10.5 24z" />
    <glyph glyph-name="estimated" unicode="&#x212e;" horiz-adv-x="817" 
d="M209 291v-150q15 -22 36 -40t46 -30.5t52.5 -19.5t55.5 -7q60 0 112 27.5t89 74.5h96q-59 -72 -136.5 -114.5t-161.5 -42.5q-71 0 -133.5 25.5t-109 69.5t-73.5 103.5t-27 127.5q0 69 27 128.5t73.5 104t109 70t133.5 25.5q73 0 134.5 -26.5t107.5 -73t72.5 -111.5
t29.5 -141h-533zM586 493q-13 22 -33.5 39t-45.5 29t-53 18.5t-55 6.5q-48 0 -99 -26t-91 -71v-147h377v151z" />
    <glyph glyph-name="onethird" unicode="&#x2153;" horiz-adv-x="770" 
d="M569 421q36 0 60.5 -10t40.5 -26.5t23 -39.5t7 -48q0 -20 -9.5 -45t-34.5 -37q28 -10 37 -34.5t9 -52.5q0 -58 -33.5 -95t-102.5 -37q-24 0 -46.5 7t-40.5 21.5t-30.5 37t-15.5 52.5l99 12q2 -23 12.5 -30t19.5 -7q12 0 18.5 4.5t9.5 11.5t3.5 15t0.5 14q0 17 -6 29.5
t-27 12.5h-37v78h33q22 0 29 12t7 30q0 10 -5 22t-25 12q-10 0 -20 -9.5t-12 -35.5l-98 15q8 57 45.5 89t88.5 32zM216 -17h-91l370 730h92zM128 279v304l-61 -42v105l76 50h89v-417h-104z" />
    <glyph glyph-name="twothirds" unicode="&#x2154;" horiz-adv-x="770" 
d="M30 573q3 31 14.5 55t30 40t41.5 24.5t49 8.5q62 0 97 -29.5t35 -84.5q0 -25 -8.5 -46.5t-24.5 -43.5l-94 -126h122v-92h-258v81l146 187q12 16 12 36q0 11 -6.5 19t-20.5 8q-12 0 -22 -11t-12 -39zM606 421q36 0 60.5 -10t40.5 -26.5t23 -39.5t7 -48q0 -20 -9.5 -45
t-34.5 -37q28 -10 37 -34.5t9 -52.5q0 -58 -33.5 -95t-102.5 -37q-24 0 -46.5 7t-40.5 21.5t-30.5 37t-15.5 52.5l99 12q2 -23 12.5 -30t19.5 -7q12 0 18.5 4.5t9.5 11.5t3.5 15t0.5 14q0 17 -6 29.5t-27 12.5h-37v78h33q22 0 29 12t7 30q0 10 -5 22t-25 12q-10 0 -20 -9.5
t-12 -35.5l-98 15q8 57 45.5 89t88.5 32zM255 -17h-91l370 730h92z" />
    <glyph glyph-name="onefifth" unicode="&#x2155;" horiz-adv-x="770" 
d="M200 -17h-91l370 730h92zM121 279v304l-61 -42v105l76 50h89v-417h-104zM602 288q33 0 53.5 -9.5t32.5 -27t16.5 -42.5t4.5 -55q0 -36 -6.5 -65t-22 -50t-41 -32.5t-62.5 -11.5q-55 0 -90.5 27t-42.5 90q26 4 50.5 7.5t49.5 6.5q2 -25 11.5 -32t20.5 -7q12 0 18 6t9 16
t3 21.5v23.5q0 7 -0.5 15.5t-3.5 16t-9 12t-17 4.5q-6 0 -14.5 -5.5t-16.5 -21.5h-89v241h243v-89h-145v-51q11 7 24 9.5t24 2.5z" />
    <glyph glyph-name="twofifths" unicode="&#x2156;" horiz-adv-x="770" 
d="M247 -17h-91l370 730h92zM23 573q3 31 14.5 55t30 40t41.5 24.5t49 8.5q62 0 97 -29.5t35 -84.5q0 -25 -8.5 -46.5t-24.5 -43.5l-94 -126h122v-92h-258v81l146 187q12 16 12 36q0 11 -6.5 19t-20.5 8q-12 0 -22 -11t-12 -39zM639 288q33 0 53.5 -9.5t32.5 -27t16.5 -42.5
t4.5 -55q0 -36 -6.5 -65t-22 -50t-41 -32.5t-62.5 -11.5q-55 0 -90.5 27t-42.5 90q26 4 50.5 7.5t49.5 6.5q2 -25 11.5 -32t20.5 -7q12 0 18 6t9 16t3 21.5v23.5q0 7 -0.5 15.5t-3.5 16t-9 12t-17 4.5q-6 0 -14.5 -5.5t-16.5 -21.5h-89v241h243v-89h-145v-51q11 7 24 9.5
t24 2.5z" />
    <glyph glyph-name="threefifths" unicode="&#x2157;" horiz-adv-x="770" 
d="M636 288q33 0 53.5 -9.5t32.5 -27t16.5 -42.5t4.5 -55q0 -36 -6.5 -65t-22 -50t-41 -32.5t-62.5 -11.5q-55 0 -90.5 27t-42.5 90q26 4 50.5 7.5t49.5 6.5q2 -25 11.5 -32t20.5 -7q12 0 18 6t9 16t3 21.5v23.5q0 7 -0.5 15.5t-3.5 16t-9 12t-17 4.5q-6 0 -14.5 -5.5
t-16.5 -21.5h-89v241h243v-89h-145v-51q11 7 24 9.5t24 2.5zM162 701q36 0 60.5 -10t40.5 -26.5t23 -39.5t7 -48q0 -20 -9.5 -45t-34.5 -37q28 -10 37 -34.5t9 -52.5q0 -58 -33.5 -95t-102.5 -37q-24 0 -46.5 7t-40.5 21.5t-30.5 37t-15.5 52.5l99 12q2 -23 12.5 -30
t19.5 -7q12 0 18.5 4.5t9.5 11.5t3.5 15t0.5 14q0 17 -6 29.5t-27 12.5h-37v78h33q22 0 29 12t7 30q0 10 -5 22t-25 12q-10 0 -20 -9.5t-12 -35.5l-98 15q8 57 45.5 89t88.5 32zM234 -17h-91l370 730h92z" />
    <glyph glyph-name="fourfifths" unicode="&#x2158;" horiz-adv-x="770" 
d="M253 -17h-91l370 730h92zM276 336v-57h-98v57h-160v74l123 286h105l-116 -273h48v79h98v-79h30v-87h-30zM644 288q33 0 53.5 -9.5t32.5 -27t16.5 -42.5t4.5 -55q0 -36 -6.5 -65t-22 -50t-41 -32.5t-62.5 -11.5q-55 0 -90.5 27t-42.5 90q26 4 50.5 7.5t49.5 6.5
q2 -25 11.5 -32t20.5 -7q12 0 18 6t9 16t3 21.5v23.5q0 7 -0.5 15.5t-3.5 16t-9 12t-17 4.5q-6 0 -14.5 -5.5t-16.5 -21.5h-89v241h243v-89h-145v-51q11 7 24 9.5t24 2.5z" />
    <glyph glyph-name="onesixth" unicode="&#x2159;" horiz-adv-x="770" 
d="M235 -17h-91l370 730h92zM141 279v304l-61 -42v105l76 50h89v-417h-104zM581 248q4 2 9 2.5t9 0.5q18 0 34 -6.5t28.5 -20.5t20 -36t7.5 -54q0 -66 -32 -101.5t-99 -35.5q-62 0 -94 28.5t-32 94.5q0 21 6 49.5t14 45.5l98 200h111zM562 176q-15 0 -22.5 -10.5t-7.5 -35.5
t6.5 -35.5t20.5 -10.5q17 0 23 12.5t6 40.5q0 21 -6.5 30t-19.5 9z" />
    <glyph glyph-name="fivesixths" unicode="&#x215a;" horiz-adv-x="770" 
d="M257 -17h-91l370 730h92zM217 568q33 0 53.5 -9.5t32.5 -27t16.5 -42.5t4.5 -55q0 -36 -6.5 -65t-22 -50t-41 -32.5t-62.5 -11.5q-55 0 -90.5 27t-42.5 90q26 4 50.5 7.5t49.5 6.5q2 -25 11.5 -32t20.5 -7q12 0 18 6t9 16t3 21.5v23.5q0 7 -0.5 15.5t-3.5 16t-9 12
t-17 4.5q-6 0 -14.5 -5.5t-16.5 -21.5h-89v241h243v-89h-145v-51q11 7 24 9.5t24 2.5zM602 248q4 2 9 2.5t9 0.5q18 0 34 -6.5t28.5 -20.5t20 -36t7.5 -54q0 -66 -32 -101.5t-99 -35.5q-62 0 -94 28.5t-32 94.5q0 21 6 49.5t14 45.5l98 200h111zM583 176q-15 0 -22.5 -10.5
t-7.5 -35.5t6.5 -35.5t20.5 -10.5q17 0 23 12.5t6 40.5q0 21 -6.5 30t-19.5 9z" />
    <glyph glyph-name="oneeighth" unicode="&#x215b;" horiz-adv-x="770" 
d="M225 -17h-91l370 730h92zM125 279v304l-61 -42v105l76 50h89v-417h-104zM702 299q0 -24 -8 -46t-31 -35q25 -14 34 -41t9 -52q0 -36 -11 -60.5t-29.5 -39.5t-42.5 -22t-51 -7t-50.5 7t-41.5 22t-28.5 39.5t-10.5 60.5q0 23 7.5 49t33.5 44q-22 14 -29.5 36t-7.5 45
q0 54 32.5 88t94.5 34q60 0 95 -29.5t35 -92.5zM572 84q18 0 26 13t8 36q0 42 -34 42q-16 0 -23.5 -11.5t-7.5 -31.5q0 -26 7.5 -37t23.5 -11zM573 255q29 0 29 43q0 16 -7 25.5t-22 9.5q-14 0 -20.5 -10t-6.5 -27q0 -23 6.5 -32t20.5 -9z" />
    <glyph glyph-name="threeeighths" unicode="&#x215c;" horiz-adv-x="770" 
d="M719 299q0 -24 -8 -46t-31 -35q25 -14 34 -41t9 -52q0 -36 -11 -60.5t-29.5 -39.5t-42.5 -22t-51 -7t-50.5 7t-41.5 22t-28.5 39.5t-10.5 60.5q0 23 7.5 49t33.5 44q-22 14 -29.5 36t-7.5 45q0 54 32.5 88t94.5 34q60 0 95 -29.5t35 -92.5zM183 701q36 0 60.5 -10
t40.5 -26.5t23 -39.5t7 -48q0 -20 -9.5 -45t-34.5 -37q28 -10 37 -34.5t9 -52.5q0 -58 -33.5 -95t-102.5 -37q-24 0 -46.5 7t-40.5 21.5t-30.5 37t-15.5 52.5l99 12q2 -23 12.5 -30t19.5 -7q12 0 18.5 4.5t9.5 11.5t3.5 15t0.5 14q0 17 -6 29.5t-27 12.5h-37v78h33
q22 0 29 12t7 30q0 10 -5 22t-25 12q-10 0 -20 -9.5t-12 -35.5l-98 15q8 57 45.5 89t88.5 32zM246 -17h-91l370 730h92zM589 84q18 0 26 13t8 36q0 42 -34 42q-16 0 -23.5 -11.5t-7.5 -31.5q0 -26 7.5 -37t23.5 -11zM590 255q29 0 29 43q0 16 -7 25.5t-22 9.5
q-14 0 -20.5 -10t-6.5 -27q0 -23 6.5 -32t20.5 -9z" />
    <glyph glyph-name="fiveeighths" unicode="&#x215d;" horiz-adv-x="770" 
d="M244 -17h-91l370 730h92zM198 568q33 0 53.5 -9.5t32.5 -27t16.5 -42.5t4.5 -55q0 -36 -6.5 -65t-22 -50t-41 -32.5t-62.5 -11.5q-55 0 -90.5 27t-42.5 90q26 4 50.5 7.5t49.5 6.5q2 -25 11.5 -32t20.5 -7q12 0 18 6t9 16t3 21.5v23.5q0 7 -0.5 15.5t-3.5 16t-9 12
t-17 4.5q-6 0 -14.5 -5.5t-16.5 -21.5h-89v241h243v-89h-145v-51q11 7 24 9.5t24 2.5zM725 299q0 -24 -8 -46t-31 -35q25 -14 34 -41t9 -52q0 -36 -11 -60.5t-29.5 -39.5t-42.5 -22t-51 -7t-50.5 7t-41.5 22t-28.5 39.5t-10.5 60.5q0 23 7.5 49t33.5 44q-22 14 -29.5 36
t-7.5 45q0 54 32.5 88t94.5 34q60 0 95 -29.5t35 -92.5zM595 84q18 0 26 13t8 36q0 42 -34 42q-16 0 -23.5 -11.5t-7.5 -31.5q0 -26 7.5 -37t23.5 -11zM596 255q29 0 29 43q0 16 -7 25.5t-22 9.5q-14 0 -20.5 -10t-6.5 -27q0 -23 6.5 -32t20.5 -9z" />
    <glyph glyph-name="seveneighths" unicode="&#x215e;" horiz-adv-x="770" 
d="M217 -17h-91l370 730h92zM179 279h-107l131 327h-50v-46h-99v136h265v-78zM712 299q0 -24 -8 -46t-31 -35q25 -14 34 -41t9 -52q0 -36 -11 -60.5t-29.5 -39.5t-42.5 -22t-51 -7t-50.5 7t-41.5 22t-28.5 39.5t-10.5 60.5q0 23 7.5 49t33.5 44q-22 14 -29.5 36t-7.5 45
q0 54 32.5 88t94.5 34q60 0 95 -29.5t35 -92.5zM582 84q18 0 26 13t8 36q0 42 -34 42q-16 0 -23.5 -11.5t-7.5 -31.5q0 -26 7.5 -37t23.5 -11zM583 255q29 0 29 43q0 16 -7 25.5t-22 9.5q-14 0 -20.5 -10t-6.5 -27q0 -23 6.5 -32t20.5 -9z" />
    <glyph glyph-name="uni215F" unicode="&#x215f;" horiz-adv-x="437" 
d="M204 -17h-91l370 730h92zM128 279v304l-61 -42v105l76 50h89v-417h-104z" />
    <glyph glyph-name="arrowleft" unicode="&#x2190;" horiz-adv-x="829" 
d="M769 372v-99h-532l120 -116l-71 -71l-236 237l236 238l71 -71l-120 -118h532z" />
    <glyph glyph-name="arrowup" unicode="&#x2191;" horiz-adv-x="518" 
d="M310 0h-99v516l-116 -119l-71 71l237 236l238 -236l-71 -71l-118 119v-516z" />
    <glyph glyph-name="arrowright" unicode="&#x2192;" horiz-adv-x="829" 
d="M584 372l-120 118l70 71l236 -238l-236 -237l-70 71l120 116h-533v99h533z" />
    <glyph glyph-name="arrowdown" unicode="&#x2193;" horiz-adv-x="518" 
d="M310 187l118 120l71 -71l-238 -236l-237 236l71 71l117 -120v517h98v-517z" />
    <glyph glyph-name="arrowupleft" unicode="&#x2196;" horiz-adv-x="840" 
d="M775 65l-69 -71l-486 484v-168h-99v334h336v-98h-168z" />
    <glyph glyph-name="arrowdownright" unicode="&#x2198;" horiz-adv-x="840" 
d="M121 575l69 70l486 -483v167h99v-333h-336v98h168z" />
    <glyph glyph-name="arrowhookleft" unicode="&#x21a9;" horiz-adv-x="867" 
d="M210 371h443q42 0 58.5 24.5t16.5 59.5v76q0 33 -18 51.5t-57 18.5h-103v96h107q46 0 78.5 -13t52.5 -35.5t29 -54t9 -67.5v-72q0 -83 -44.5 -132.5t-136.5 -49.5h-435l120 -117l-69 -69l-235 236l235 236l69 -69z" />
    <glyph glyph-name="arrowhookright" unicode="&#x21aa;" horiz-adv-x="863" 
d="M522 490l70 69l234 -236l-234 -236l-70 69l121 117h-434q-93 0 -137.5 49.5t-44.5 132.5v72q0 36 9 67.5t29 54t52 35.5t79 13h107v-96h-102q-41 0 -58.5 -18.5t-17.5 -51.5v-76q0 -35 17 -59.5t59 -24.5h442z" />
    <glyph glyph-name="carriagereturnright" unicode="&#x21b3;" horiz-adv-x="854" 
d="M187 371h454l-120 119l70 69l234 -236l-234 -236l-70 69l120 118h-553v419h99v-322z" />
    <glyph glyph-name="carriagereturn" unicode="&#x21b5;" horiz-adv-x="854" 
d="M717 693h98v-419h-552l119 -118l-69 -69l-235 236l235 236l69 -69l-119 -119h454v322z" />
    <glyph glyph-name="pageup" unicode="&#x21de;" horiz-adv-x="510" 
d="M99 366h103v151l-110 -103l-71 72l229 218l234 -218l-71 -72l-114 103v-151h101v-92h-101v-54h101v-90h-101v-130h-97v130h-103v90h103v54h-103v92z" />
    <glyph glyph-name="pagedown" unicode="&#x21df;" horiz-adv-x="510" 
d="M99 429h102v55h-102v89h102v131h98v-131h101v-89h-101v-55h101v-91h-101v-153l114 104l71 -71l-234 -218l-229 218l71 71l109 -104v153h-102v91z" />
    <glyph glyph-name="arrowdashleft" unicode="&#x21e0;" horiz-adv-x="836" 
d="M391 370h99v-97h-99v97zM529 370h99v-97h-99v97zM669 370h99v-97h-99v97zM353 370v-97h-117l121 -118l-71 -70l-235 236l235 238l71 -70l-121 -119h117z" />
    <glyph glyph-name="arrowdashup" unicode="&#x21e1;" horiz-adv-x="522" 
d="M309 395h-98v116l-117 -120l-71 70l237 236l238 -236l-70 -70l-119 120v-116zM309 357v-99h-98v99h98zM309 219v-99h-98v99h98zM309 79v-99h-98v99h98z" />
    <glyph glyph-name="arrowdashright" unicode="&#x21e2;" horiz-adv-x="836" 
d="M584 371l-121 118l70 71l236 -238l-236 -237l-70 71l121 117h-117v98h117zM429 273h-99v98h99v-98zM291 273h-99v98h99v-98zM152 273h-100v98h100v-98z" />
    <glyph glyph-name="arrowdashdown" unicode="&#x21e3;" horiz-adv-x="522" 
d="M308 166l119 120q17 -17 34.5 -35t35.5 -35q-60 -59 -119 -117.5t-119 -116.5l-236 234l70 70l118 -120v116h97v-116zM211 320v99h97v-99h-97zM211 598v99h97v-99h-97zM211 459v98h97v-98h-97z" />
    <glyph glyph-name="arrowtableft" unicode="&#x21e4;" horiz-adv-x="871" 
d="M66 104v435h106v-435h-106zM829 372v-99h-431l120 -116l-71 -71l-235 237l235 238l71 -71l-120 -118h431z" />
    <glyph glyph-name="arrowtabright" unicode="&#x21e5;" horiz-adv-x="871" 
d="M724 104v435h106v-435h-106zM498 372l-120 118l71 71l235 -238l-235 -237l-71 71l120 116h-431v99h431z" />
    <glyph glyph-name="shift" unicode="&#x21e7;" horiz-adv-x="840" 
d="M423 593l-207 -215h94v-301h227v301h93zM37 306l386 397l386 -397h-195v-306h-382v306h-195z" />
    <glyph glyph-name="capslock" unicode="&#x21ea;" horiz-adv-x="840" 
d="M303 -45v-67h228v67h-228zM225 26h382v-207h-382v207zM417 593l-208 -215h94v-200h228v200h93zM30 306l387 397l386 -397h-195v-206h-383v206h-195z" />
    <glyph glyph-name="partialdiff" unicode="&#x2202;" horiz-adv-x="481" 
d="M227 111q24 0 41 17.5t28 45t17 61t8 65.5q-26 28 -50 37.5t-44 9.5q-16 0 -29.5 -10.5t-23 -27t-15 -38t-5.5 -42.5q0 -62 22 -90t51 -28zM226 -10q-44 0 -82 15.5t-66 45.5t-43.5 74t-15.5 102q0 54 16 98t43.5 75t64.5 47.5t79 16.5q25 0 48 -6t47 -17q-2 34 -13 64
t-28 51.5t-40 34t-50 12.5q-14 0 -34.5 -2.5t-54.5 -15.5l-1 121q26 8 51.5 11.5t45.5 3.5q73 0 123 -30.5t81 -81.5t44.5 -118t13.5 -140q0 -90 -17 -157.5t-47.5 -112.5t-72.5 -68t-92 -23z" />
    <glyph glyph-name="gradient" unicode="&#x2207;" horiz-adv-x="555" 
d="M550 696l-202 -696h-143l-202 696h547zM363 561h-171l47 -213l35 -163h7l35 163z" />
    <glyph glyph-name="product" unicode="&#x220f;" horiz-adv-x="560" 
d="M356 -78v638h-150v-638h-145v774h438v-774h-143z" />
    <glyph glyph-name="summation" unicode="&#x2211;" horiz-adv-x="450" 
d="M25 -78v133l117 258l-118 254v129h394v-134h-226l115 -248l-112 -253h235v-139h-405z" />
    <glyph glyph-name="minus" unicode="&#x2212;" horiz-adv-x="490" 
d="M469 355v-114h-450v114h450z" />
    <glyph glyph-name="radical" unicode="&#x221a;" horiz-adv-x="553" 
d="M355 -77h-116l-119 375l-63 -17l-38 99q12 4 38.5 12t56.5 17.5t57 18t39 12.5l78 -266q6 25 15 73.5t20 108.5t22.5 126t22.5 126t20 108.5t15 74.5h130z" />
    <glyph glyph-name="infinity" unicode="&#x221e;" horiz-adv-x="692" 
d="M204 434q20 0 40.5 -7t39 -18t35.5 -24.5t30 -27.5q28 38 61.5 57.5t84.5 19.5q33 0 61 -12t48 -33.5t31.5 -51.5t11.5 -65q0 -33 -12.5 -62.5t-33.5 -52t-50 -36t-62 -13.5q-46 0 -80 23.5t-62 55.5q-29 -33 -63 -56t-85 -23q-32 0 -60 12t-49 34t-33 52t-12 66
q0 32 12.5 61.5t34.5 52t50.5 35.5t61.5 13zM204 328q-19 0 -34 -16t-15 -39q0 -25 14.5 -43t32.5 -18q22 0 42 17.5t37 41.5q-15 22 -34.5 39.5t-42.5 17.5zM491 328q-20 0 -39.5 -16t-39.5 -39q20 -24 39.5 -42.5t38.5 -18.5t34 18t15 42q0 23 -15 39.5t-33 16.5z" />
    <glyph glyph-name="logicaland" unicode="&#x2227;" horiz-adv-x="497" 
d="M165 0h-146l175 534h111l173 -534h-147q-20 72 -40 142t-40 141z" />
    <glyph glyph-name="logicalor" unicode="&#x2228;" horiz-adv-x="497" 
d="M331 533h147l-173 -533h-111l-175 533h146q22 -71 42.5 -141t42.5 -141z" />
    <glyph glyph-name="intersection" unicode="&#x2229;" horiz-adv-x="500" 
d="M467 0h-142v308q0 40 -19 67.5t-60 27.5q-39 0 -57.5 -25.5t-18.5 -69.5v-308h-139v315q0 45 12.5 85t38.5 70.5t66 48t96 17.5q57 0 99 -17t69.5 -46.5t41 -70t13.5 -87.5v-315z" />
    <glyph glyph-name="union" unicode="&#x222a;" horiz-adv-x="500" 
d="M467 219q0 -47 -13.5 -87t-41 -69.5t-69.5 -46.5t-99 -17q-56 0 -96 17.5t-66 47.5t-38.5 70t-12.5 85v316h139v-309q0 -44 18.5 -69t57.5 -25q41 0 60 27t19 67v309h142v-316z" />
    <glyph glyph-name="integral" unicode="&#x222b;" horiz-adv-x="316" 
d="M97 437q0 13 1 33t2.5 41.5t3 42t3.5 35.5q13 100 57 141.5t116 41.5q17 0 41 -4.5t43 -12.5l-24 -96q-34 7 -51 7q-15 0 -25.5 -5.5t-18 -19.5t-12 -37.5t-7.5 -60.5q-1 -13 -2 -38t-1.5 -56.5t-1 -67.5t-1 -71t-0.5 -66.5v-54.5q0 -96 -10.5 -160.5t-32 -103.5
t-55.5 -55.5t-82 -16.5q-17 0 -41.5 4.5t-44.5 14.5l25 90q37 -9 55 -7q10 0 18.5 4.5t15 15t11 28.5t7.5 46q3 25 5 60t3.5 82t2 108t0.5 138z" />
    <glyph glyph-name="approxequal" unicode="&#x2248;" horiz-adv-x="500" 
d="M173 479q21 0 41.5 -8.5t38.5 -18.5t34 -18t30 -8q35 0 76 54l75 -45q-29 -64 -62.5 -92t-71.5 -28q-22 0 -43 8t-40 18t-36.5 18t-32.5 8q-19 0 -38.5 -11t-43.5 -43l-73 45q28 59 61.5 90t84.5 31zM167 293q21 0 41.5 -8.5t38.5 -18.5t34 -18t30 -8q35 0 76 54l75 -45
q-29 -64 -62.5 -92t-71.5 -28q-22 0 -43 8t-40 18t-36.5 18t-32.5 8q-19 0 -38.5 -11t-43.5 -43l-73 45q28 59 61.5 90t84.5 31z" />
    <glyph glyph-name="notequal" unicode="&#x2260;" horiz-adv-x="490" 
d="M210 142l-70 -122h-113l69 122h-78v111h142l54 93h-196v111h259l70 121h114l-70 -121h79v-111h-143l-54 -93h197v-111h-260z" />
    <glyph glyph-name="lessequal" unicode="&#x2264;" horiz-adv-x="500" 
d="M28 327v99l446 167v-130l-255 -86h1l254 -80v-131zM29 0v116h445v-116h-445z" />
    <glyph glyph-name="greaterequal" unicode="&#x2265;" horiz-adv-x="500" 
d="M29 166v131l254 80h1l-255 86v130l446 -167v-99zM29 0v116h445v-116h-445z" />
    <glyph glyph-name="control" unicode="&#x2303;" horiz-adv-x="795" 
d="M108 414l289 289l290 -289l-51 -52l-239 239l-237 -239z" />
    <glyph glyph-name="command" unicode="&#x2318;" horiz-adv-x="846" 
d="M279 490v72q0 30 -21 51t-50 21q-31 0 -52 -20.5t-21 -51.5t20.5 -51.5t52.5 -20.5h71zM563 490h72q30 0 51 21t21 51t-21 51t-51 21t-51 -20.5t-21 -51.5v-72zM279 207h-71q-32 0 -52.5 -21.5t-20.5 -50.5q0 -31 20.5 -52t52.5 -21q30 0 50.5 21t20.5 52v72zM563 207
v-72q0 -31 21 -52t51 -21t51 21t21 52q0 29 -21 50.5t-51 21.5h-72zM493 276v145h-144v-145h144zM563 276h72q36 0 62.5 -11.5t44 -31t26 -45t8.5 -53.5q0 -29 -8.5 -54.5t-26 -45t-44 -31t-62.5 -11.5q-34 0 -60.5 11.5t-44.5 31t-27.5 45t-9.5 54.5v72h-144v-72
q0 -28 -9 -53.5t-26.5 -45t-44 -31.5t-61.5 -12q-33 0 -59.5 11t-45 30.5t-28.5 45t-10 55.5q0 28 9.5 54t28 45t45 30.5t60.5 11.5h71v145h-71q-29 0 -55 11.5t-45.5 30.5t-31 44.5t-11.5 54.5t10.5 55t29.5 45.5t45 30.5t58 11q35 0 61.5 -11t44 -30.5t26.5 -45.5t9 -55
v-72h144v72q0 29 10.5 55t29 45.5t44.5 30.5t58 11q34 0 60.5 -11.5t44.5 -31t27 -45t9 -54.5q0 -28 -11 -53.5t-30 -45t-45 -31t-55 -11.5h-72v-145z" />
    <glyph glyph-name="enter" unicode="&#x2324;" horiz-adv-x="795" 
d="M108 298l289 304l290 -304l-51 -52l-239 254l-237 -254zM688 696v-73h-580v73h580z" />
    <glyph glyph-name="option" unicode="&#x2325;" horiz-adv-x="1188" 
d="M44 680h283l285 -608h524v-72h-583l-285 607h-224v73zM528 680h608v-73h-608v73z" />
    <glyph glyph-name="deleteright" unicode="&#x2326;" horiz-adv-x="1137" 
d="M752 0h-656v695h656l337 -348zM988 347l-274 278h-549v-556h549zM458 299l-154 -156l-49 49l155 155l-155 156l49 49l154 -155l156 155l49 -49l-155 -156l155 -155l-49 -49z" />
    <glyph glyph-name="deleteleft" unicode="&#x232b;" horiz-adv-x="1165" 
d="M77 347l337 348h656v-695h-656zM452 69h549v556h-549l-274 -278zM542 143l-49 49l155 155l-155 156l49 49l156 -155l154 155l49 -49l-155 -156l155 -155l-49 -49l-154 156z" />
    <glyph glyph-name="circlestar" unicode="&#x235f;" horiz-adv-x="804" 
d="M752 346q0 -73 -28 -137.5t-76 -112.5t-112.5 -75.5t-137.5 -27.5t-137 27.5t-112 75.5t-75.5 112.5t-27.5 138.5q0 73 27.5 137.5t75.5 112.5t112.5 75.5t138.5 27.5q73 0 137.5 -28t112.5 -76t75.5 -112.5t27.5 -137.5h-1zM693 346q0 61 -23 115t-63 94t-94 63t-115 23
t-115 -23t-94 -63t-63 -94t-23 -115t23 -114.5t63 -93.5t94 -63t115 -23t115 23t94 63t63 93.5t23 114.5zM521 301l26 -169l-157 76l-141 -76l21 165l-118 117l163 32l75 148l80 -146l164 -34z" />
    <glyph glyph-name="eject" unicode="&#x23cf;" horiz-adv-x="854" 
d="M768 227v-136h-702v136h702zM768 314h-702l351 351z" />
    <glyph glyph-name="blacksquare" unicode="&#x25a0;" horiz-adv-x="875" 
d="M756 40h-633v633h633v-633z" />
    <glyph glyph-name="whitesquare" unicode="&#x25a1;" horiz-adv-x="841" 
d="M143 59h568v574h-568v-574zM83 0v693h687v-693h-687z" />
    <glyph glyph-name="blackuppointing.trangle" unicode="&#x25b2;" horiz-adv-x="820" 
d="M781 176h-702l351 351z" />
    <glyph glyph-name="blackrightpointing.trangle" unicode="&#x25b6;" horiz-adv-x="595" 
d="M138 701l351 -350l-351 -351v701z" />
    <glyph glyph-name="blackdownpointing.trangle" unicode="&#x25bc;" horiz-adv-x="820" 
d="M430 176l-351 351h702z" />
    <glyph glyph-name="blackleftpointing.trangle" unicode="&#x25c0;" horiz-adv-x="595" 
d="M452 0l-351 351l351 350v-701z" />
    <glyph glyph-name="lozenge" unicode="&#x25ca;" horiz-adv-x="337" 
d="M88 296l80 -230h3l79 230l-82 232h-3l-79 -232h2zM17 298l105 298h91l106 -298l-105 -297h-91z" />
    <glyph glyph-name="blackcircle" unicode="&#x25cf;" horiz-adv-x="843" 
d="M744 357q0 -64 -25 -121.5t-68.5 -101t-101 -69t-121.5 -25.5q-65 0 -122.5 25t-101 68.5t-68.5 101t-25 122.5q0 66 26 123.5t69.5 100t101 67.5t120.5 25t120 -25t100.5 -68.5t69.5 -101t26 -121.5z" />
    <glyph glyph-name="umbrella" unicode="&#x2602;" horiz-adv-x="780" 
d="M405 695q55 0 112.5 -27.5t104.5 -73.5t77 -106t30 -124q-16 18 -40 28.5t-50 10.5q-23 0 -45 -9.5t-41 -29.5h-2q-23 39 -75 39q-28 0 -62 -14v-304q0 -42 -25.5 -67.5t-73.5 -25.5q-42 0 -69.5 23.5t-27.5 74.5v13h47v-13q0 -28 13.5 -41t34.5 -13q16 0 26 5t15.5 13
t7.5 18t2 20v296q-14 7 -27 9.5t-25 2.5q-26 0 -46.5 -10t-38.5 -27q-17 20 -40 29.5t-47 9.5q-25 0 -48.5 -9.5t-40.5 -29.5l-1 1q0 64 30.5 123.5t77.5 106t105 74.5t113 28v31h29v-32zM730 363q-1 0 -1 1z" />
    <glyph glyph-name="blackstar" unicode="&#x2605;" horiz-adv-x="814" 
d="M605 254l39 -258l-239 117l-214 -117l32 251l-181 180l249 48l114 226l123 -223l250 -51z" />
    <glyph glyph-name="whitestar" unicode="&#x2606;" horiz-adv-x="838" 
d="M608 257l39 -259l-240 117l-218 -119l33 255l-183 182l254 49l113 225l124 -223l254 -51zM727 415l-213 43l-107 193l-98 -196l-212 -40l153 -153l-27 -216l184 99l206 -99l-35 221z" />
    <glyph glyph-name="ballotbox" unicode="&#x2610;" horiz-adv-x="841" 
d="M143 59h568v574h-568v-574zM83 0v693h687v-693h-687z" />
    <glyph glyph-name="ballotbox.withcheck" unicode="&#x2611;" horiz-adv-x="850" 
d="M702 582q-27 -19 -56.5 -52.5t-60 -74.5t-60.5 -87t-57 -91t-49.5 -85.5t-37.5 -71.5q-55 -11 -74 -21q-8 30 -21.5 71.5t-29 81.5t-32 71t-30.5 41q17 14 38 19.5t35 5.5q9 0 22 -17t25.5 -44t23 -60t15.5 -66q28 48 68 104t85.5 110.5t93 101t91.5 74.5zM143 59h568
v574h-568v-574zM83 0v693h687v-693h-687z" />
    <glyph glyph-name="ballotbox.withx" unicode="&#x2612;" horiz-adv-x="850" 
d="M612 587l47 -47l-189 -189l192 -192l-49 -47l-191 192l-191 -194l-46 49l190 190l-190 190l47 48l191 -192zM143 59h568v574h-568v-574zM83 0v693h687v-693h-687z" />
    <glyph glyph-name="radioactive" unicode="&#x2622;" horiz-adv-x="837" 
d="M418 432q16 0 30.5 -7t25 -18t16.5 -25.5t6 -30.5t-6 -30t-16.5 -24.5t-25 -17t-30.5 -6.5q-31 0 -55.5 22t-24.5 56t23.5 57.5t56.5 23.5zM569 89q-79 -41 -154 -41q-81 0 -148 42l98 170q30 -14 54 -14q20 0 50 14zM364 442q-23 -14 -36 -37.5t-16 -53.5h-197
q0 86 35.5 149t114.5 114zM569 615q72 -40 112 -108t40 -156h-197q-6 62 -55 93zM416 684q-68 0 -128 -26.5t-105 -72t-71 -106t-26 -128.5q0 -70 26.5 -130.5t72 -105.5t106.5 -70.5t129 -25.5q66 0 125.5 26.5t105 71.5t72 103.5t26.5 122.5q0 79 -28.5 142t-75 107
t-106.5 68t-123 24zM418 -17q-77 0 -144 28.5t-117 78t-78.5 117t-28.5 144.5q0 67 26 132t74 117t115.5 84t150.5 32q78 0 146 -28t118 -76.5t78.5 -114t28.5 -141.5q0 -77 -28.5 -145t-78 -118.5t-117 -80t-145.5 -29.5z" />
    <glyph glyph-name="biohazard" unicode="&#x2623;" horiz-adv-x="856" 
d="M553 462q-13 -27 -37 -43q-44 30 -86 30q-41 0 -89 -30q-14 8 -22 18.5t-15 24.5q32 21 62 32t62 11q64 0 125 -43zM502 120q-7 12 -11.5 25t-6.5 27q88 44 88 124v12t-1 14q11 7 27 8.5t27 1.5q4 -16 4 -37q0 -54 -33.5 -101t-93.5 -74zM351 120q-28 12 -51 30
t-39.5 41.5t-25.5 50t-9 54.5q0 21 4 38h12q22 -2 42 -12v-30q0 -76 88 -120q-2 -14 -7.5 -27.5t-13.5 -24.5zM272 531q0 -68 38 -107.5t111 -48.5v-22q-23 -5 -32.5 -18.5t-9.5 -27.5q0 -5 1 -9.5t3 -9.5l-19 -10q-60 72 -133 72q-29 0 -56.5 -12t-48.5 -32.5t-34 -47.5
t-13 -57q0 -22 6 -56l-11 -5q-8 25 -13.5 50.5t-5.5 50.5q0 29 8 57t26.5 52.5t48 45t73.5 34.5q0 63 11.5 109.5t35 78t59.5 51t86 28.5l5 -15q-136 -39 -136 -151zM583 533q0 109 -118 148l5 16q91 -20 134 -77t43 -155v-16t-1 -17q78 -31 116 -83.5t38 -119.5
q0 -45 -18 -96l-13 4q8 43 8 65q0 30 -12.5 56.5t-33.5 46t-49.5 30.5t-60.5 11q-40 0 -71.5 -19t-55.5 -52l-23 13q3 10 3 20q0 16 -9 27.5t-30 17.5v22q72 9 110 49.5t38 108.5zM428 53q-42 -32 -81 -42.5t-74 -10.5q-26 0 -49 4t-43.5 14t-40 27t-39.5 43l11 8
q68 -60 117 -60q33 0 62 12.5t50.5 33.5t34 49.5t12.5 60.5q0 12 -2.5 30t-15.5 41l22 13q7 -11 17.5 -14.5t20.5 -3.5q18 0 33 17l23 -12q-17 -41 -17 -72t12 -58.5t33 -48.5t48 -33t57 -12q66 0 122 54l12 -8q-19 -26 -38 -42.5t-39.5 -26t-43.5 -13t-50 -3.5
q-38 0 -77.5 10.5t-76.5 42.5z" />
    <glyph glyph-name="peace" unicode="&#x262e;" horiz-adv-x="834" 
d="M410 713q78 0 145.5 -28t117.5 -76.5t78.5 -113.5t28.5 -139q0 -77 -29 -144t-79.5 -116.5t-118.5 -78t-145 -28.5q-73 0 -138.5 29t-115 78.5t-78.5 116t-29 140.5q0 75 28.5 141t78 114.5t115.5 76.5t141 28zM675 204q18 32 28.5 69t10.5 83q0 58 -19 108t-54.5 88.5
t-86 64.5t-113.5 35v-239zM384 413v239q-60 -8 -110 -33t-86 -64.5t-56 -91.5t-20 -112q0 -27 2.5 -47t7.5 -36t12.5 -31.5t18.5 -33.5zM441 338v-289q59 7 107 34t93 75zM384 338l-197 -180q23 -22 45 -40t45 -32.5t49 -24t58 -14.5v291z" />
    </font>
</defs>
</svg>
