<?xml version="1.0" standalone="no"?>
<!DOCTYPE svg PUBLIC "-//W3C//DTD SVG 1.1//EN" "http://www.w3.org/Graphics/SVG/1.1/DTD/svg11.dtd" >
<svg xmlns="http://www.w3.org/2000/svg" xmlns:xlink="http://www.w3.org/1999/xlink" version="1.1">
<metadata>
Created by FontForge 20161003 at Sat Nov 12 10:49:24 2016
 By www-data
Copyright (c) 2002, 2005 Parachute :, www.parachute.gr.  All rights reserved.
</metadata>
<defs>
<font id="PFDinTextCondProBoldItalic" horiz-adv-x="1818" >
  <font-face 
    font-family="PFDinTextCondProBoldItalic"
    font-weight="700"
    font-style="italic"
    font-stretch="normal"
    units-per-em="1000"
    panose-1="2 0 0 0 0 0 0 0 0 0"
    ascent="750"
    descent="-250"
    x-height="494"
    cap-height="696"
    bbox="-176 -295 1760 958"
    underline-thickness="50"
    underline-position="-200"
    slope="-12"
    unicode-range="U+0020-FB05"
  />
<missing-glyph horiz-adv-x="447" 
d="M0 699h447v-699h-447v699zM333 77l-109 200l-110 -200h219zM332 622h-218l110 -199zM76 161l104 189l-104 190v-379zM370 162v376l-103 -188z" />
    <glyph glyph-name="fj" unicode="fj" horiz-adv-x="522" 
d="M122 494l12 63q10 48 31 82t50 56t65.5 32t76.5 10q45 0 91.5 -14t78.5 -49l-80 -100q-20 20 -44 28t-53 8q-23 0 -38 -7t-24 -17t-13.5 -21t-5.5 -19l-10 -52h261l-102 -537q-15 -76 -63 -116t-126 -40h-10.5t-15.5 0.5t-15.5 1t-9.5 0.5l24 126h20q35 0 47 17.5
t17 43.5l77 396h-125l-104 -538h-137l104 538h-49l22 108h48z" />
    <glyph glyph-name="ffj" unicode="ffj" horiz-adv-x="784" 
d="M134 -151h-136l102 537h-49l22 108h49l7 39q9 48 31 82t52 55.5t67 31.5t77 10q27 0 56.5 -5t55.5 -19q63 48 150 48q46 0 92 -13.5t79 -48.5l-80 -99q-18 19 -43 27.5t-54 8.5q-23 0 -38 -6.5t-24 -16.5t-13 -21.5t-6 -20.5l-10 -52h263l-104 -537q-15 -76 -62.5 -116
t-125.5 -40h-10.5t-15.5 0.5t-15.5 1t-9.5 0.5l24 126h20q34 0 46 17.5t17 43.5l77 396h-125l-103 -537h-136l102 537h-126zM385 494l9 51q1 6 3 14.5t5 16.5q-26 11 -58 11q-23 0 -38 -7t-24 -17.5t-13.5 -21.5t-5.5 -19l-5 -28h127z" />
    <glyph glyph-name="ff" unicode="ff" horiz-adv-x="559" 
d="M360 719q24 0 52 -4t51 -14q19 17 49.5 28t75.5 11q16 0 35.5 -1.5t36.5 -6.5l-23 -119q-10 2 -21 3t-19 1q-18 0 -29 -5.5t-17.5 -13t-9.5 -16.5t-4 -16l-14 -71h82l-21 -109h-83l-104 -537h-136l104 537h-126l-104 -537h-137l104 537h-48l21 109h49l7 40
q9 48 30.5 82.5t51.5 57t67.5 33.5t79.5 11zM386 495l17 85q-27 12 -55 12q-24 0 -39 -7t-24 -17t-13 -21t-5 -19l-6 -33h125z" />
    <glyph glyph-name="fi" unicode="fi" horiz-adv-x="522" 
d="M122 494l12 63q10 48 31 82t50 55.5t65.5 31.5t76.5 10q45 0 90.5 -13.5t78.5 -48.5l-79 -100q-20 20 -44 28t-53 8q-23 0 -38 -7t-24 -17t-13.5 -21t-5.5 -19l-10 -52h263l-96 -494h-137l74 386h-125l-104 -537h-137l104 537h-49l22 108h48z" />
    <glyph glyph-name="fl" unicode="fl" horiz-adv-x="534" 
d="M463 169q-5 -29 3.5 -38t28.5 -9h16l-24 -124h-51q-66 0 -99 36t-17 116l90 448q-17 6 -33.5 8t-27.5 2q-23 0 -38 -7t-24 -17.5t-13.5 -22t-5.5 -19.5l-9 -48h82l-21 -108h-82l-104 -538h-137l104 538h-49l22 108h48l11 60q9 48 29.5 82t49 55.5t64 31.5t75.5 10
q10 0 31.5 -1t50.5 -5.5t62.5 -14t68.5 -25.5z" />
    <glyph glyph-name="ffi" unicode="ffi" horiz-adv-x="779" 
d="M134 -151h-137l104 537h-49l22 108h48l7 39q9 48 31 82t52.5 55.5t67.5 31.5t77 10q27 0 56.5 -5t55.5 -19q32 25 70.5 36.5t81.5 11.5q45 0 90.5 -13.5t78.5 -48.5l-80 -99q-18 19 -43 27.5t-54 8.5q-23 0 -38 -6.5t-24 -16.5t-13 -21.5t-6 -20.5l-10 -52h263l-96 -494
h-137l74 386h-125l-104 -537h-136l103 537h-126zM386 494l9 51q1 6 3 14.5t5 16.5q-26 11 -58 11q-23 0 -38 -7t-24 -17.5t-13.5 -21.5t-5.5 -19l-5 -28h127z" />
    <glyph glyph-name="ffl" unicode="ffl" horiz-adv-x="792" 
d="M609 611q-23 0 -37.5 -7t-22.5 -17.5t-12 -22t-5 -19.5l-10 -51h83l-22 -108h-83l-103 -537h-136l103 537h-127l-103 -537h-136q25 135 50.5 268.5t51.5 268.5h-48l21 108h49l8 39q9 48 30.5 82t52 55.5t67.5 31.5t76 10q28 0 57 -5.5t56 -19.5q32 26 72 37.5t83 11.5
q10 0 29.5 -1t46 -5.5t58 -14t66.5 -25.5l-102 -521q-5 -29 3.5 -38t28.5 -9h16l-24 -124h-51q-66 0 -99 36t-17 116l91 451q-17 6 -33.5 8t-27.5 2zM344 585q-23 0 -37.5 -7t-23.5 -17t-13.5 -21t-5.5 -19l-5 -27h126l11 55q2 13 6 23q-29 13 -58 13z" />
    <glyph glyph-name="ft" unicode="ft" horiz-adv-x="557" 
d="M138 583q6 32 19 59.5t35 48t54.5 32t77.5 11.5q16 0 33.5 -1.5t34.5 -5.5l-23 -121q-11 3 -20 4t-17 1q-17 0 -27.5 -4.5t-17 -11t-10 -14.5t-4.5 -15l-14 -71h126l26 134h131l-26 -133h65l-22 -110h-63l-41 -213q-5 -25 1 -37t32 -12h21l-24 -124h-65q-32 0 -55 10
t-36 27.5t-17 41.5t1 51l50 256h-125l-104 -537h-137l104 537h-49l22 109h47z" />
    <glyph glyph-name=".notdef" horiz-adv-x="447" 
d="M0 699h447v-699h-447v699zM333 77l-109 200l-110 -200h219zM332 622h-218l110 -199zM76 161l104 189l-104 190v-379zM370 162v376l-103 -188z" />
    <glyph glyph-name=".null" horiz-adv-x="0" 
 />
    <glyph glyph-name="nonmarkingreturn" horiz-adv-x="333" 
 />
    <glyph glyph-name="space" unicode=" " horiz-adv-x="242" 
 />
    <glyph glyph-name="exclam" unicode="!" horiz-adv-x="282" 
d="M198 197h-117l86 499h138zM33 0l26 133h136l-26 -133h-136z" />
    <glyph glyph-name="quotedbl" unicode="&#x22;" horiz-adv-x="356" 
d="M251 473l43 223h107l-43 -223h-107zM98 473l43 223h107l-44 -223h-106z" />
    <glyph glyph-name="numbersign" unicode="#" horiz-adv-x="490" 
d="M31 301h84l36 99h-69l19 97h83l71 198h107l-71 -198h77q18 50 35.5 99.5t35.5 98.5h107q-18 -50 -36 -99t-35 -99h71l-18 -97h-87l-35 -99h72l-19 -96h-87q-19 -52 -37 -103t-35 -102h-108l72 205h-76l-72 -205h-108l73 205h-68zM222 301h77l36 99h-78z" />
    <glyph glyph-name="dollar" unicode="$" horiz-adv-x="490" 
d="M136 201q11 -29 28 -45t46 -21l29 151q-147 56 -147 169q0 52 15.5 96.5t45 76.5t72 51t95.5 21l13 67h45l-13 -67q60 -6 101.5 -42t58.5 -88l-119 -71q-14 29 -32 43t-36 18l-26 -134q45 -17 75 -35.5t48 -41t25.5 -51t7.5 -65.5q-2 -54 -19.5 -97t-48 -74t-74.5 -48
t-98 -18l-17 -90h-46l18 90q-63 6 -107 44t-64 96zM313 225q0 15 -8 25t-24 19l-25 -132q31 9 44 34t13 54zM245 491q0 -14 5.5 -24t20.5 -20l21 112q-22 -8 -33.5 -27.5t-13.5 -40.5z" />
    <glyph glyph-name="percent" unicode="%" horiz-adv-x="770" 
d="M196 -17h-100l511 730h100zM333 391q-11 -54 -45.5 -84t-94.5 -30q-66 0 -97.5 35.5t-20.5 89.5l37 185q11 54 46.5 84t92.5 30q27 0 50 -8.5t39.5 -24t24.5 -37.5t3 -49zM265 578q2 12 -2.5 22.5t-18.5 10.5q-13 0 -21.5 -7.5t-10.5 -19.5l-36 -187q-2 -11 3.5 -20
t18.5 -9q12 0 21 7.5t11 18.5zM698 113q-11 -54 -45.5 -84t-94.5 -30q-66 0 -97.5 35.5t-20.5 89.5l37 185q11 54 46.5 84t92.5 30q27 0 50 -8.5t39.5 -24t24.5 -37.5t3 -49zM630 300q2 12 -2.5 22.5t-18.5 10.5q-13 0 -21.5 -7.5t-10.5 -19.5l-36 -187q-2 -11 3.5 -20
t18.5 -9q12 0 21 7.5t11 18.5z" />
    <glyph glyph-name="ampersand" unicode="&#x26;" horiz-adv-x="581" 
d="M354 701q51 0 96 -20.5t73 -68.5l-96 -82q-20 26 -41.5 35.5t-39.5 9.5q-26 0 -40.5 -17.5t-14.5 -40.5q0 -18 11 -48.5t27.5 -66.5t34.5 -73.5t33 -68.5q9 16 18.5 39.5t14.5 43.5l117 -16q-14 -47 -37.5 -96t-52.5 -85l72 -146h-155l-23 46q-38 -27 -77 -39.5
t-79 -12.5t-68.5 12t-47 33t-27 50t-8.5 62q0 71 40 128t106 102q-11 31 -23 61.5t-12 72.5t14 76.5t40 59t63 37.5t82 13zM303 144l-32 66t-32 67q-28 -23 -45 -50.5t-17 -57.5q0 -23 13 -37.5t39 -14.5q19 0 38.5 7.5t35.5 19.5z" />
    <glyph glyph-name="quotesingle" unicode="'" horiz-adv-x="228" 
d="M113 473l44 223h107l-44 -223h-107z" />
    <glyph glyph-name="parenleft" unicode="(" horiz-adv-x="335" 
d="M172 -128q-46 73 -75 157t-28 177q1 77 23 150.5t58.5 141t84 127.5t98.5 111l76 -48q-45 -55 -83 -114t-65 -122t-42 -129.5t-15 -135.5t14.5 -135t42.5 -125z" />
    <glyph glyph-name="parenright" unicode=")" horiz-adv-x="335" 
d="M1 -73q43 51 80 109t64.5 120t43.5 128t16 134t-13 137.5t-44 132.5l95 48q42 -69 70 -149.5t28 -171.5q0 -80 -22 -154t-59.5 -142.5t-87 -130.5t-104.5 -116z" />
    <glyph glyph-name="asterisk" unicode="*" horiz-adv-x="429" 
d="M396 404l-92 -58l-41 104l-84 -104l-69 58l98 93l-108 29l48 92l101 -45l12 121h101l-37 -121l118 45l13 -92l-122 -29z" />
    <glyph glyph-name="plus" unicode="+" horiz-adv-x="490" 
d="M309 241l-33 -168h-116l33 168h-168l23 114h167l32 167h117l-33 -167h167l-22 -114h-167z" />
    <glyph glyph-name="comma" unicode="," horiz-adv-x="264" 
d="M-15 -152l64 150h-32l31 160h151l-30 -155l-110 -155h-74z" />
    <glyph glyph-name="hyphen" unicode="-" horiz-adv-x="407" 
d="M47 204l24 125h318l-25 -125h-317z" />
    <glyph glyph-name="period" unicode="." horiz-adv-x="260" 
d="M-5 0l30 158h151l-31 -158h-150z" />
    <glyph glyph-name="slash" unicode="/" horiz-adv-x="329" 
d="M53 -42h-109l368 767h111z" />
    <glyph glyph-name="zero" unicode="0" horiz-adv-x="490" 
d="M423 179q-8 -41 -24 -74.5t-42 -58t-62 -38t-82 -13.5q-42 0 -78 12.5t-60 38t-33.5 64t0.5 89.5l63 317q17 88 69 136.5t143 48.5q39 0 74 -13t59 -37t35 -59t2 -79zM347 511q6 29 -9 43t-37 14q-46 0 -55 -52l-62 -326q-5 -26 4 -44t42 -18q44 0 53 52z" />
    <glyph glyph-name="one" unicode="1" horiz-adv-x="490" 
d="M147 0l104 534l-110 -72l29 152l127 82h124l-135 -696h-139z" />
    <glyph glyph-name="two" unicode="2" horiz-adv-x="490" 
d="M105 510q10 48 32.5 84t52 60t64.5 35.5t72 11.5q80 0 126 -36.5t46 -110.5q0 -56 -22 -101t-57 -86l-205 -232h200l-26 -135h-378l24 122l283 318q18 20 26 42.5t8 42.5q0 17 -10 30t-31 13q-10 0 -20.5 -3.5t-20.5 -12.5t-18 -25t-14 -40z" />
    <glyph glyph-name="three" unicode="3" horiz-adv-x="490" 
d="M304 701q46 0 79 -13.5t54 -36t31 -51t10 -59.5q0 -26 -6 -53.5t-18.5 -51.5t-32 -43.5t-46.5 -30.5q0 -2 -0.5 -2.5t-0.5 -2.5q31 -14 42.5 -42.5t11.5 -57.5q0 -58 -15.5 -106t-45 -82.5t-71 -54t-93.5 -19.5q-38 0 -71 11t-57 34t-38.5 59t-14.5 86l136 18
q0 -3 -0.5 -6.5t-0.5 -6.5q0 -23 12.5 -41t39.5 -18q30 0 52 29.5t22 88.5q0 26 -16 40.5t-40 14.5h-54l22 112h54q41 0 63.5 28.5t22.5 75.5q0 17 -10.5 31.5t-36.5 14.5q-8 0 -18.5 -4t-21 -12.5t-19 -22.5t-12.5 -35l-133 20q22 96 81.5 142.5t138.5 46.5z" />
    <glyph glyph-name="four" unicode="4" horiz-adv-x="490" 
d="M391 97l-19 -97h-137l19 97h-240l21 114l282 485h147l-272 -468h87l29 155h138l-30 -155h47l-25 -131h-47z" />
    <glyph glyph-name="five" unicode="5" horiz-adv-x="490" 
d="M326 476q35 0 59.5 -9.5t40 -26t22.5 -39t7 -49.5q0 -47 -9 -92.5t-20 -87.5q-9 -35 -26 -67t-43.5 -56.5t-62 -39t-82.5 -14.5q-35 0 -65 11t-53 32t-36 52t-13 70v12.5t1 12.5l136 18q-4 -15 -4 -28q0 -25 14.5 -35t31.5 -10q22 0 37 13.5t23 36.5q10 31 17.5 67
t7.5 56q0 21 -9 34t-33 13q-14 0 -32.5 -9.5t-35.5 -37.5h-120q20 99 39 196.5t38 196.5h355l-26 -133h-223q-5 -28 -10.5 -55.5t-11.5 -56.5q1 0 3 -2q18 14 41.5 20.5t41.5 6.5z" />
    <glyph glyph-name="six" unicode="6" horiz-adv-x="490" 
d="M297 413q0 -1 1 -1.5t1 -1.5q18 5 34 5q54 0 81.5 -37.5t27.5 -100.5q0 -55 -16 -106t-47 -90t-76 -62.5t-102 -23.5q-44 0 -74 12.5t-49 34.5t-27.5 52.5t-8.5 66.5q0 48 17.5 98t47.5 97l218 340h154zM258 305q-20 0 -34 -13.5t-23 -33.5t-13 -43t-4 -41q0 -20 8.5 -33
t32.5 -13q18 0 31.5 14t22.5 34t13.5 42.5t4.5 39.5q0 20 -8 33.5t-31 13.5z" />
    <glyph glyph-name="seven" unicode="7" horiz-adv-x="490" 
d="M175 0h-144l308 563h-94l-15 -80h-134l42 213h381l-23 -120z" />
    <glyph glyph-name="eight" unicode="8" horiz-adv-x="490" 
d="M321 701q36 0 66 -9.5t52.5 -28t35 -45t12.5 -60.5q0 -28 -5.5 -57t-17.5 -55t-31.5 -47.5t-47.5 -34.5q28 -17 39.5 -44.5t11.5 -60.5q0 -56 -16 -104t-46 -83.5t-73.5 -56t-98.5 -20.5q-36 0 -66.5 9.5t-53.5 28t-36 46t-13 63.5q0 30 4.5 63.5t16.5 63.5t32.5 54.5
t52.5 37.5q-22 15 -33 40t-11 50q0 48 14 93.5t42 80t70.5 55.5t99.5 21zM307 571q-20 0 -32.5 -10t-21 -25t-12.5 -33t-7 -34q-2 -19 6.5 -32.5t28.5 -13.5q19 0 32 8t22 21.5t14 30.5t8 35q3 21 -4 37t-34 16zM252 304q-20 0 -35 -12t-25 -30t-14.5 -38.5t-4.5 -36.5
q0 -23 8 -42.5t37 -19.5q22 0 37 12.5t24.5 31.5t13.5 40t4 39q0 22 -7.5 39t-37.5 17z" />
    <glyph glyph-name="nine" unicode="9" horiz-adv-x="490" 
d="M223 283q0 1 -1 1.5t-1 1.5q-18 -5 -34 -5q-54 0 -81.5 37.5t-27.5 100.5q0 55 16 106t47 90t76 62.5t102 23.5q43 0 73.5 -12.5t49.5 -34.5t27.5 -52.5t8.5 -66.5q0 -48 -17.5 -98t-47.5 -97l-218 -340h-154zM262 391q19 0 33 13.5t23 33.5t13.5 43t4.5 41q0 20 -8.5 33
t-32.5 13q-18 0 -31.5 -14t-22.5 -34t-13.5 -42.5t-4.5 -39.5q0 -20 8 -33.5t31 -13.5z" />
    <glyph glyph-name="colon" unicode=":" horiz-adv-x="263" 
d="M17 0l30 158h150l-30 -158h-150zM68 264l30 157h150l-30 -157h-150z" />
    <glyph glyph-name="semicolon" unicode=";" horiz-adv-x="266" 
d="M70 264l30 157h150l-30 -157h-150zM-14 -152l64 150h-32l31 160h151l-30 -155l-110 -155h-74z" />
    <glyph glyph-name="less" unicode="&#x3c;" horiz-adv-x="490" 
d="M26 249l20 102l492 207l-28 -137l-325 -127l274 -126l-23 -127z" />
    <glyph glyph-name="equal" unicode="=" horiz-adv-x="490" 
d="M46 346l21 111h451l-21 -111h-451zM5 142l22 111h452l-22 -111h-452z" />
    <glyph glyph-name="greater" unicode="&#x3e;" horiz-adv-x="490" 
d="M-12 41l25 140l324 126l-276 127l27 124l410 -207l-19 -102z" />
    <glyph glyph-name="question" unicode="?" horiz-adv-x="440" 
d="M294 701q80 0 129.5 -41.5t49.5 -113.5q0 -31 -6.5 -55.5t-17 -44.5t-24 -37.5t-27.5 -33.5q-24 -29 -42.5 -49t-31.5 -36.5t-21.5 -32t-12.5 -35.5l-7 -30h-138l5 29q11 62 35.5 102.5t50.5 70.5q16 18 30.5 33t26 30t18.5 31t7 34q0 20 -13 31.5t-35 11.5
q-11 0 -22.5 -3.5t-21.5 -12.5t-17.5 -25t-11.5 -41l-135 16q17 105 77 153.5t155 48.5zM109 0q6 33 12.5 66.5t13.5 66.5h136l-26 -133h-136z" />
    <glyph glyph-name="at" unicode="@" horiz-adv-x="869" 
d="M438 539q17 0 38.5 -8t34.5 -27q1 0 1.5 0.5t1.5 0.5l6 30h112l-55 -281q-4 -20 4 -28t26 -8q29 0 52 19.5t38.5 50t23.5 67.5t8 72q0 47 -14.5 86t-43 66.5t-70 43t-95.5 15.5q-78 0 -139.5 -30.5t-104.5 -80.5t-65.5 -114t-22.5 -132q0 -121 65.5 -185.5t183.5 -64.5
q57 0 105.5 11.5t98.5 35.5l23 -84q-62 -26 -118 -39t-122 -13q-77 0 -139 22t-105.5 64t-67 104t-23.5 142q0 93 29.5 175.5t86 144t137.5 97t183 35.5q78 0 137 -22t98.5 -61.5t60 -94t20.5 -119.5q0 -63 -17.5 -119t-48.5 -97.5t-74 -65.5t-94 -24q-13 0 -29 4t-31 11.5
t-27 19t-17 27.5h-3q-14 -22 -42 -41t-63 -19q-30 0 -51.5 9t-35 25t-20 36t-5.5 43q2 45 10.5 87.5t19.5 81.5q7 25 18 49t27.5 42.5t39.5 29.5t54 11zM458 431q-13 0 -24.5 -8t-18.5 -25q-16 -50 -21.5 -83.5t-5.5 -50.5q0 -14 8 -23.5t24 -9.5q10 0 19.5 5.5t15.5 13.5
q7 10 13.5 30.5t11 43t7.5 42.5t3 28q0 15 -7.5 26t-24.5 11z" />
    <glyph glyph-name="A" unicode="A" horiz-adv-x="548" 
d="M350 0l-4 143h-164l-65 -143h-154l334 696h143l63 -696h-153zM337 370v139h-5l-54 -138l-39 -100h99z" />
    <glyph glyph-name="B" unicode="B" horiz-adv-x="536" 
d="M437 366q0 -2 -0.5 -2.5t-0.5 -2.5q37 -15 52.5 -48.5t15.5 -71.5q0 -66 -24 -112t-62.5 -74.5t-87.5 -41.5t-100 -13h-210l135 696h207q91 0 137 -40t46 -118q0 -60 -25.5 -105.5t-82.5 -66.5zM220 297l-32 -164h75q24 0 42.5 9.5t30.5 25t18 34.5t6 37q0 27 -15.5 42.5
t-45.5 15.5h-79zM273 564l-28 -141h74q19 0 35 7.5t27.5 20.5t17.5 29.5t6 33.5q0 26 -15 38t-48 12h-69z" />
    <glyph glyph-name="C" unicode="C" horiz-adv-x="514" 
d="M342 701q45 0 81.5 -13.5t63 -37t41.5 -56t18 -70.5l-138 -39q-2 15 -7.5 29t-14.5 25t-22.5 18t-30.5 7q-25 0 -41.5 -10.5t-27 -28.5t-17.5 -41t-12 -47l-45 -228q-3 -15 -2.5 -29.5t7.5 -25t20.5 -17t37.5 -6.5q34 0 58 20.5t36 57.5q35 -9 69.5 -18t69.5 -19
q-11 -36 -31 -68.5t-49.5 -57t-68.5 -38.5t-89 -14q-68 0 -110.5 20t-65 54t-26.5 79.5t6 95.5l37 189q10 52 27 100.5t46 86t72.5 60t107.5 22.5z" />
    <glyph glyph-name="D" unicode="D" horiz-adv-x="552" 
d="M402 433q6 30 7 54t-6.5 40.5t-24 25t-44.5 8.5h-60l-83 -427h61q55 0 78.5 28t33.5 77zM380 696q66 0 113.5 -26t58.5 -86q7 -35 2 -86.5t-16 -114.5q-17 -96 -30.5 -159t-36.5 -104q-20 -35 -45 -58t-54.5 -36.5t-62 -19.5t-66.5 -6h-222l135 696h224z" />
    <glyph glyph-name="E" unicode="E" horiz-adv-x="484" 
d="M20 0l135 696h401l-26 -134h-257l-29 -144h222l-26 -133h-222l-28 -151h257l-26 -134h-401z" />
    <glyph glyph-name="F" unicode="F" horiz-adv-x="475" 
d="M273 562l-29 -147h221l-26 -132h-221l-55 -283h-143l135 696h401l-26 -134h-257z" />
    <glyph glyph-name="G" unicode="G" horiz-adv-x="533" 
d="M241 -6q-65 0 -105.5 20t-62 54t-25.5 77t5 90l38 197q10 52 27 100.5t46 86t72.5 60t107.5 22.5q45 0 81.5 -13.5t63 -37t41.5 -56t18 -70.5l-138 -39q-2 15 -7.5 29t-14.5 25t-22.5 18t-30.5 7q-25 0 -41.5 -10.5t-27 -28.5t-17.5 -41t-12 -47l-45 -228
q-3 -15 -2.5 -29.5t7.5 -25t20.5 -17t37.5 -6.5q22 0 39 9.5t29.5 24.5t20.5 33.5t12 37.5l6 28h-93l24 123h237l-29 -159q-11 -52 -32 -95t-53 -74t-75.5 -48t-99.5 -17z" />
    <glyph glyph-name="H" unicode="H" horiz-adv-x="560" 
d="M318 0l56 286h-156l-55 -286h-143l135 696h143l-54 -278h156l54 278h142l-135 -696h-143z" />
    <glyph glyph-name="I" unicode="I" horiz-adv-x="265" 
d="M20 0l135 696h143l-135 -696h-143z" />
    <glyph glyph-name="J" unicode="J" horiz-adv-x="431" 
d="M372 197q-18 -95 -69 -148.5t-151 -53.5q-54 0 -101 23.5t-76 72.5l109 83q13 -20 30.5 -33t39.5 -13q35 0 53 21t24 53l96 494h143l-98 -499v0z" />
    <glyph glyph-name="K" unicode="K" horiz-adv-x="545" 
d="M251 450q3 0 5 -1q23 26 43.5 51t42.5 50q5 6 23.5 27.5t40.5 46t40.5 46t23.5 26.5h167l-248 -289l127 -407h-151q-22 71 -43.5 141.5t-42.5 141.5l-78 -84l-38 -199h-143l135 696h143l-47 -246v0z" />
    <glyph glyph-name="L" unicode="L" horiz-adv-x="476" 
d="M20 0l135 696h143l-108 -560h257l-26 -136h-401z" />
    <glyph glyph-name="M" unicode="M" horiz-adv-x="675" 
d="M439 0l64 328l-4 1l-71 -125l-54 -90h-104l-20 96l-22 120l-5 -1l-63 -329h-143l135 696h131l41 -200l36 -171h5l98 173l119 198h135l-135 -696h-143z" />
    <glyph glyph-name="N" unicode="N" horiz-adv-x="589" 
d="M367 0l-83 242l-45 149h-3l-75 -391h-142l135 696h126l69 -221q1 -8 10 -35.5t19.5 -59t19 -59.5t8.5 -37h4l76 412h141l-135 -696h-125z" />
    <glyph glyph-name="O" unicode="O" horiz-adv-x="535" 
d="M492 219q-10 -52 -28 -93.5t-46 -71t-67.5 -45t-91.5 -15.5q-68 0 -112.5 20.5t-69.5 55.5t-31.5 80.5t3.5 95.5l47 232q7 39 24 78.5t46 71.5t72 52.5t104 20.5q57 0 98.5 -20.5t66 -54.5t33 -77t-0.5 -89zM396 478q2 12 0 26t-10 27t-22.5 21.5t-36.5 8.5t-37 -7.5
t-25 -19t-15.5 -25t-7.5 -25.5l-49 -253q-9 -48 9.5 -72.5t61.5 -24.5q31 0 52 20t28 55z" />
    <glyph glyph-name="P" unicode="P" horiz-adv-x="513" 
d="M367 696q86 0 137.5 -42t51.5 -131q0 -65 -19 -115t-52.5 -84t-80.5 -52t-104 -18h-87l-50 -254h-143l135 696h212zM273 562l-34 -173h78q17 0 34.5 5.5t31.5 18t23 33t9 50.5q0 35 -19 50.5t-54 15.5h-69z" />
    <glyph glyph-name="Q" unicode="Q" horiz-adv-x="536" 
d="M492 219q-12 -61 -34 -106l63 -58l-86 -88l-58 55q-47 -28 -118 -28q-68 0 -112.5 20.5t-69.5 55.5t-31.5 80.5t3.5 95.5l47 232q7 39 24 78.5t46 71.5t72 52.5t104 20.5q57 0 98.5 -20.5t66 -54.5t33 -77t-0.5 -89zM346 220l50 258q2 12 0 26t-10 27t-22.5 21.5
t-36.5 8.5t-37 -7.5t-25 -19t-15.5 -25t-7.5 -25.5l-49 -253q-9 -48 9.5 -72.5t61.5 -24.5l-26 26l81 86z" />
    <glyph glyph-name="R" unicode="R" horiz-adv-x="543" 
d="M333 0l-56 275h-61l-53 -275h-143l135 696h217q88 0 138.5 -44.5t47.5 -138.5q-2 -85 -41 -137t-99 -75l69 -301h-154zM420 497q2 37 -18 52t-53 15h-76l-31 -157h77q19 0 37.5 4.5t32.5 15t22.5 28t8.5 42.5z" />
    <glyph glyph-name="S" unicode="S" horiz-adv-x="523" 
d="M136 202q20 -35 49.5 -52t64.5 -17q45 0 68.5 22.5t23.5 54.5q0 31 -24.5 48.5t-68.5 28.5q-73 24 -111 65t-38 104q0 54 17 99.5t48.5 77.5t76 50t100.5 18q83 0 133 -30.5t77 -82.5l-119 -89q-25 31 -50 44.5t-58 13.5q-27 0 -48.5 -19.5t-21.5 -45.5q0 -17 7.5 -28
t21.5 -20t33.5 -16t43.5 -15q78 -26 109.5 -68t31.5 -103q0 -59 -19 -105t-53 -77.5t-81.5 -48t-104.5 -16.5q-45 0 -81 9t-64 25.5t-48 39t-35 48.5z" />
    <glyph glyph-name="T" unicode="T" horiz-adv-x="453" 
d="M366 564l-110 -564h-143l110 564h-147l25 132h437l-26 -132h-146z" />
    <glyph glyph-name="U" unicode="U" horiz-adv-x="545" 
d="M494 207q-20 -101 -83 -156.5t-163 -55.5q-47 0 -87.5 15t-67.5 43.5t-38.5 69.5t-1.5 92l93 481h143l-93 -475q-8 -42 11.5 -64.5t51.5 -22.5q33 0 58.5 19t33.5 60l94 483h144l-95 -489v0z" />
    <glyph glyph-name="V" unicode="V" horiz-adv-x="521" 
d="M291 0h-143l-51 696h153l8 -248q0 -13 1 -36t1.5 -53t0.5 -64.5t-1 -70.5h5l75 189l119 283h154z" />
    <glyph glyph-name="W" unicode="W" horiz-adv-x="739" 
d="M399 366l-65 -151l-97 -215h-128q-3 174 -5.5 347.5t-4.5 348.5h156l-3 -203q-2 -43 -2.5 -90t-4.5 -92h4l78 190l82 195h112l8 -215q2 -40 2.5 -87t0.5 -93h5q17 49 33.5 98t33.5 98q4 11 14 39.5t21 60t21 60t14 39.5h156q-71 -175 -140.5 -348.5t-140.5 -347.5h-128
q-2 54 -5.5 108.5t-5.5 108.5l-6 149h-5z" />
    <glyph glyph-name="X" unicode="X" horiz-adv-x="534" 
d="M269 211l-139 -211h-168q64 91 128 179.5t129 179.5l-111 337h163l48 -186h5l122 186h170q-61 -85 -121.5 -168.5t-122.5 -168.5q31 -91 61 -179.5t60 -179.5h-164l-54 211h-6z" />
    <glyph glyph-name="Y" unicode="Y" horiz-adv-x="504" 
d="M298 415q17 34 34 70.5t34 69.5l75 141h155l-259 -417l-54 -279h-141q14 70 27.5 139.5t27.5 139.5l-97 417h151q7 -35 12 -65t11 -65q3 -17 5.5 -37t4.5 -40t4 -39.5t4 -34.5h6z" />
    <glyph glyph-name="Z" unicode="Z" horiz-adv-x="449" 
d="M-15 0l24 126l318 438h-222l25 132h390l-24 -122l-318 -439h232l-26 -135h-399z" />
    <glyph glyph-name="bracketleft" unicode="[" horiz-adv-x="284" 
d="M4 -98l155 796h203l-20 -102h-75l-115 -593h75l-19 -101h-204z" />
    <glyph glyph-name="backslash" unicode="\" horiz-adv-x="329" 
d="M92 725h111l71 -767h-110z" />
    <glyph glyph-name="bracketright" unicode="]" horiz-adv-x="284" 
d="M-37 -99l19 101h75l116 594h-75l19 102h203l-156 -797h-201z" />
    <glyph glyph-name="asciicircum" unicode="^" horiz-adv-x="490" 
d="M308 536l-80 -145l-67 -120h-136l263 424h102l98 -424h-126q-5 32 -12 62.5t-12 62.5l-25 140h-5z" />
    <glyph glyph-name="underscore" unicode="_" horiz-adv-x="500" 
d="M-71 -160l18 91h499l-18 -91h-499z" />
    <glyph glyph-name="grave" unicode="`" horiz-adv-x="451" 
d="M360 537l-152 191l111 48l109 -200z" />
    <glyph glyph-name="a" unicode="a" horiz-adv-x="462" 
d="M238 0l8 39h-4q-18 -21 -45.5 -33t-47.5 -12q-37 0 -60.5 11.5t-36.5 31t-17.5 45t-4.5 53.5q0 36 5.5 76t13.5 73q12 49 28 88.5t39 68t54.5 44t73.5 15.5q23 0 43 -9t36 -33q1 0 1.5 0.5t1.5 0.5l8 35h138l-96 -494h-138zM214 122q18 0 30.5 12.5t20.5 32.5
q6 14 11.5 36t9.5 44.5t6.5 41t2.5 25.5q0 18 -7 35t-30 17q-37 0 -54 -43q-6 -15 -11.5 -35.5t-10.5 -43.5q-4 -18 -6.5 -37t-3.5 -37q0 -20 8 -34t34 -14z" />
    <glyph glyph-name="b" unicode="b" horiz-adv-x="462" 
d="M240 -5q-22 0 -46.5 8t-38.5 33q-1 -1 -1.5 -0.5t-1.5 -0.5l-8 -35h-139l142 726h139q-14 -66 -26 -132t-26 -133h4q22 20 46.5 29t48.5 9q36 0 59 -11.5t35.5 -31.5t17.5 -46t5 -54q-2 -35 -7.5 -74.5t-16.5 -81.5q-12 -48 -27 -86t-37 -64.5t-51.5 -40.5t-70.5 -14z
M266 371q-14 0 -26.5 -9.5t-22.5 -33.5q-7 -17 -13 -37.5t-10.5 -41.5t-7.5 -40t-3 -33q0 -6 1 -14.5t4.5 -16.5t11 -13.5t20.5 -5.5q12 0 21 5.5t16 12.5q8 8 18.5 34.5t16.5 56.5q4 18 6.5 36t4.5 36q1 11 1 22.5t-3 20.5t-11.5 15t-23.5 6z" />
    <glyph glyph-name="c" unicode="c" horiz-adv-x="411" 
d="M193 -5q-46 0 -77 14t-50.5 38.5t-28 57.5t-8.5 70q0 59 13 117t41.5 104.5t74.5 75.5t112 29q62 0 104 -29.5t50 -86.5l-118 -56q-6 24 -18 34.5t-26 10.5q-20 0 -34 -9.5t-24 -26t-16 -38.5t-11 -47q-8 -39 -9 -69q0 -26 8.5 -43.5t38.5 -17.5q15 0 30 9.5t31 33.5
l103 -57q-31 -55 -77 -84.5t-109 -29.5z" />
    <glyph glyph-name="d" unicode="d" horiz-adv-x="462" 
d="M246 501q19 0 43 -9.5t37 -27.5h4l51 262h137l-139 -726h-138l7 35l-3 2q-22 -23 -45 -32.5t-49 -9.5q-40 0 -63.5 13.5t-36 35.5t-16.5 50.5t-4 58.5q0 13 1.5 29.5t4 33.5t5 33t5.5 27q9 42 23 82t36.5 72t56 51.5t83.5 19.5zM262 370q-18 0 -30.5 -11.5t-20.5 -29
t-13.5 -38t-9.5 -39.5q-11 -49 -11 -84q0 -18 8.5 -29.5t28.5 -11.5q17 0 30 10.5t21 28.5q8 16 12.5 34.5t9.5 38.5q11 50 11 82q0 18 -7 33.5t-29 15.5z" />
    <glyph glyph-name="e" unicode="e" horiz-adv-x="457" 
d="M260 375q-23 0 -39.5 -19.5t-25.5 -52.5q7 -2 14.5 -1t13.5 1q42 2 57 15t15 31q0 11 -8 18.5t-27 7.5zM196 -5q-81 0 -123.5 41.5t-42.5 125.5q0 56 11.5 116.5t38.5 110t72 81.5t113 32q44 0 76.5 -10.5t53.5 -28t31 -41.5t10 -51q0 -50 -19.5 -83.5t-52 -54t-73 -29
t-82.5 -8.5h-17t-17 1q-2 -9 -3 -19t-1 -16q1 -19 13.5 -29t28.5 -10q21 0 40.5 9.5t40.5 34.5l106 -67q-37 -56 -90.5 -80.5t-113.5 -24.5z" />
    <glyph glyph-name="f" unicode="f" horiz-adv-x="311" 
d="M106 386h-58l22 109h57l17 88q6 32 19.5 59.5t35.5 48t54 32t75 11.5q16 0 33.5 -1.5t34.5 -5.5l-24 -122q-10 2 -19 4t-17 2q-31 0 -42.5 -15.5t-14.5 -29.5l-14 -71h84l-22 -109h-83l-75 -391q-6 -32 -19.5 -59.5t-36 -48t-54.5 -32t-74 -11.5q-15 0 -32 1.5t-34 6.5
l23 122q9 -2 17.5 -3t16.5 -1q33 0 44.5 16t14.5 31z" />
    <glyph glyph-name="g" unicode="g" horiz-adv-x="462" 
d="M243 34h-4q-22 -20 -46.5 -29t-48.5 -9q-36 0 -59 11.5t-35.5 31.5t-17.5 45.5t-5 54.5q2 35 7.5 74.5t16.5 81.5q12 48 28 86t38 64.5t51.5 40.5t68.5 14q19 0 45 -8t40 -33q1 1 1.5 0.5t1.5 0.5l8 35h139l-92 -490q-9 -46 -24 -84.5t-40 -66t-62.5 -43t-89.5 -15.5
q-60 0 -103.5 26t-65.5 68l102 74q27 -39 68 -39q31 0 45 15t19 36zM211 124q14 0 26.5 9.5t22.5 33.5q7 16 13 37t10.5 42t7.5 40t3 33q0 6 -1 14.5t-4.5 16.5t-11 13.5t-20.5 5.5q-12 0 -21 -5.5t-16 -12.5q-9 -10 -16.5 -30t-13.5 -44t-10.5 -48t-5.5 -41
q-1 -11 -1 -22.5t3 -20.5t11.5 -15t23.5 -6z" />
    <glyph glyph-name="h" unicode="h" horiz-adv-x="476" 
d="M248 -1l61 314q5 26 -4.5 41t-33.5 15q-23 0 -40.5 -16.5t-23.5 -44.5l-59 -309h-138l142 728h139l-55 -273l4 -1q20 21 49 34t55 13q37 0 61.5 -11.5t37 -32t15 -48.5t-4.5 -62l-66 -347h-139z" />
    <glyph glyph-name="i" unicode="i" horiz-adv-x="245" 
d="M124 569l25 127h138l-24 -127h-139zM14 0l96 495h138l-96 -495h-138z" />
    <glyph glyph-name="j" unicode="j" horiz-adv-x="253" 
d="M149 -43q-15 -76 -63.5 -116t-120.5 -40h-11t-17.5 0.5t-18 1t-10.5 0.5l24 126h24q16 0 26.5 6t17.5 15t11 20.5t6 23.5l98 502h138zM129 569l25 127h138l-24 -127h-139z" />
    <glyph glyph-name="k" unicode="k" horiz-adv-x="478" 
d="M216 357q2 0 2.5 -0.5t1.5 -0.5q17 17 31.5 33.5t30.5 32.5l72 72h174l-204 -201l112 -293h-157q-17 46 -32.5 92t-31.5 93l-40 -36q-7 -38 -14 -75t-15 -74h-138q35 183 71 363t71 363h138l-72 -369v0z" />
    <glyph glyph-name="l" unicode="l" horiz-adv-x="257" 
d="M153 -2q-66 0 -99 36t-17 116l112 576h140l-109 -557q-5 -29 3.5 -38t28.5 -9h16l-24 -124h-51z" />
    <glyph glyph-name="m" unicode="m" horiz-adv-x="720" 
d="M585 500q43 0 67 -15.5t35 -41t10.5 -57.5t-6.5 -64l-63 -322h-138l61 314q5 26 -4 41t-34 15q-26 0 -42 -19.5t-21 -45.5l-60 -305h-139l62 314q5 24 -2.5 40t-35.5 16q-26 0 -43 -20.5t-22 -46.5l-58 -303h-138l96 495h138l-8 -41q2 0 2.5 -0.5t2.5 -0.5q20 19 49 33
t53 14q45 0 70 -17.5t36 -48.5q29 28 64 47t68 19z" />
    <glyph glyph-name="n" unicode="n" horiz-adv-x="477" 
d="M244 495l-8 -41l4 -1q20 21 49 34t55 13q37 0 61.5 -11.5t37 -32t15 -48.5t-4.5 -62l-66 -347h-139l61 314q5 26 -4.5 41t-33.5 15q-23 0 -40.5 -16.5t-23.5 -44.5l-59 -309h-138l97 496h137z" />
    <glyph glyph-name="o" unicode="o" horiz-adv-x="459" 
d="M276 501q46 0 78 -13.5t52 -36.5t29.5 -53.5t9.5 -63.5q0 -31 -4.5 -63.5t-10.5 -60.5q-11 -48 -28 -88t-44 -68.5t-65.5 -44t-92.5 -15.5q-51 0 -83.5 15t-51 40t-25 57.5t-6.5 67.5q0 22 3.5 55.5t11.5 63.5q14 57 38.5 101.5t63.5 71.5q52 35 125 35zM264 374
q-27 0 -43.5 -23.5t-30.5 -71.5q-3 -12 -6.5 -28t-5.5 -32t-3.5 -29.5t-1.5 -19.5q0 -19 8 -33t34 -14q11 0 20.5 5.5t16.5 12.5q9 9 17.5 28t15.5 43.5t11.5 51t5.5 49.5q1 22 -6 41.5t-32 19.5z" />
    <glyph glyph-name="p" unicode="p" horiz-adv-x="467" 
d="M-30 -198l133 693h138l-7 -35l3 -2q22 23 45 32.5t49 9.5q40 0 63.5 -13.5t36 -35.5t16.5 -50.5t4 -58.5q0 -13 -1.5 -29.5t-4 -33.5t-5 -33t-5.5 -27q-9 -42 -23 -82t-36.5 -72t-56.5 -51.5t-83 -19.5q-19 0 -43 9.5t-37 27.5h-4l-44 -229h-138zM220 125q18 0 30.5 11.5
t20.5 29t13.5 38t9.5 39.5q11 49 11 84q0 18 -8.5 29.5t-28.5 11.5q-17 0 -30 -10.5t-21 -28.5q-8 -16 -12.5 -34.5t-9.5 -38.5q-11 -50 -11 -82q0 -18 7 -33.5t29 -15.5z" />
    <glyph glyph-name="q" unicode="q" horiz-adv-x="462" 
d="M211 123q14 0 26.5 9.5t22.5 33.5q7 16 13 37t10.5 42t7.5 40t3 33q0 6 -1 14.5t-4.5 16.5t-11 13.5t-20.5 5.5q-12 0 -21 -5.5t-16 -12.5q-8 -8 -18 -34.5t-16 -56.5q-4 -18 -7 -36t-5 -36q-1 -11 -1 -22.5t3 -20.5t11.5 -15t23.5 -6zM197 -197l46 230h-4
q-22 -20 -46.5 -29t-48.5 -9q-36 0 -59 11.5t-35.5 31.5t-17.5 45.5t-5 54.5q2 35 7.5 74.5t16.5 81.5q12 48 27 86t37 64.5t51.5 40.5t70.5 14q22 0 46.5 -8t38.5 -33q1 1 1.5 0.5t1.5 0.5l8 35h139l-135 -691h-140z" />
    <glyph glyph-name="r" unicode="r" horiz-adv-x="359" 
d="M307 368q-39 0 -64 -23t-33 -65l-56 -281h-140l96 496h139l-11 -58h2q46 64 115 64q18 0 31.5 -3.5t27.5 -12.5l-48 -131q-16 8 -30.5 11t-28.5 3z" />
    <glyph glyph-name="s" unicode="s" horiz-adv-x="437" 
d="M113 165q17 -27 38.5 -39t51.5 -12q20 0 38.5 10.5t18.5 30.5q0 16 -16.5 25t-39.5 14q-23 6 -48.5 14t-46.5 23t-34.5 38t-13.5 58q0 42 16 74.5t42.5 54.5t60.5 33.5t70 11.5q64 0 109.5 -25.5t65.5 -71.5l-100 -67q-15 26 -36 34.5t-39 8.5q-16 0 -26 -4t-15.5 -9.5
t-7.5 -11.5t-2 -10q0 -9 9.5 -16t22 -12t25.5 -8t21 -5q21 -6 43.5 -14.5t41 -23.5t30.5 -37.5t12 -55.5q0 -40 -15 -73t-42.5 -56t-66 -36t-86.5 -13q-80 2 -124.5 31.5t-65.5 81.5z" />
    <glyph glyph-name="t" unicode="t" horiz-adv-x="303" 
d="M99 386h-49l21 109h49q7 33 13.5 66.5t12.5 66.5h135q-7 -33 -13.5 -66.5t-12.5 -66.5h64l-22 -109h-64l-41 -214q-1 -6 -1.5 -11t-0.5 -10q0 -12 7 -19.5t29 -7.5h21l-24 -124q-14 -1 -29.5 -1h-29.5q-32 0 -54.5 8t-36.5 22t-20 33t-6 40q0 15 3 32z" />
    <glyph glyph-name="u" unicode="u" horiz-adv-x="477" 
d="M244 496l-61 -314q-5 -26 5.5 -41t31.5 -15q22 0 40.5 16.5t23.5 44.5l59 309h139l-96 -496h-139l11 46h-3q-20 -23 -51 -37t-56 -14q-35 0 -59 11.5t-37.5 32t-16.5 48.5t3 62l67 347h139z" />
    <glyph glyph-name="v" unicode="v" horiz-adv-x="450" 
d="M481 495q-26 -75 -53.5 -139.5t-56.5 -124.5t-61.5 -116.5t-68.5 -114.5h-142l-57 495h148l7 -162q2 -38 1.5 -76t-2.5 -80h5q36 68 67.5 149t59.5 169h153z" />
    <glyph glyph-name="w" unicode="w" horiz-adv-x="681" 
d="M334 264q-14 -37 -27 -74t-27 -71q-28 -61 -58 -119h-140l-38 494h149q-2 -50 -1 -100.5t1 -101.5q-1 -24 -2 -50t-5 -58h5q33 72 63.5 152t53.5 158h134l1 -184q0 -26 -1.5 -51.5t-4.5 -65.5h7q29 66 58 143t53 158h156q-26 -74 -52 -137.5t-54.5 -123t-60.5 -116.5
t-69 -117h-137l-3 116q0 34 1 71t3 77h-5z" />
    <glyph glyph-name="x" unicode="x" horiz-adv-x="458" 
d="M217 146l-96 -146h-163l100 126t101 126l-99 243h159l35 -138h2q22 34 43.5 69t43.5 69h164q-49 -61 -97.5 -121.5t-98.5 -121.5l107 -252h-160q-10 35 -19 73t-19 73h-3z" />
    <glyph glyph-name="y" unicode="y" horiz-adv-x="428" 
d="M197 179q32 62 61.5 143.5t55.5 171.5h148q-65 -168 -131 -308.5t-138 -254.5q-42 -67 -105 -104t-140 -32l-1 115q51 5 87.5 30t65.5 82l-59 472h146q4 -52 6.5 -85t3.5 -54t1.5 -34t0.5 -26q0 -27 -1.5 -58t-4.5 -58h4z" />
    <glyph glyph-name="z" unicode="z" horiz-adv-x="410" 
d="M-12 0l23 120l230 253h-168l23 122h334l-22 -113l-232 -254h182l-24 -128h-346z" />
    <glyph glyph-name="braceleft" unicode="{" horiz-adv-x="284" 
d="M159 299q27 -13 38.5 -42.5t3.5 -73.5l-26 -133q-11 -50 29 -50h29l-19 -98h-67q-56 0 -85 34.5t-16 103.5l25 127q8 45 -5.5 66t-45.5 22l19 93q33 2 54 22.5t30 65.5l27 137q11 57 45.5 90t100.5 33h71l-20 -99h-30q-15 0 -28 -14t-17 -37l-25 -126q-8 -42 -32.5 -71.5
t-54.5 -44.5z" />
    <glyph glyph-name="bar" unicode="|" horiz-adv-x="259" 
d="M71 -195v925h116v-925h-116z" />
    <glyph glyph-name="braceright" unicode="}" horiz-adv-x="284" 
d="M161 301q-24 13 -36.5 42t-4.5 74l26 132q9 49 -34 49h-25l19 98h73q25 0 46 -7.5t34.5 -23.5t18 -40.5t-1.5 -58.5l-26 -134q-9 -45 4.5 -66t45.5 -23l-18 -93q-33 -1 -54 -21.5t-30 -65.5l-27 -137q-11 -57 -45.5 -90t-101.5 -33h-70l19 98h30q20 0 30.5 14t15.5 37
l25 127q8 42 31 71.5t55 43.5z" />
    <glyph glyph-name="asciitilde" unicode="~" horiz-adv-x="490" 
d="M194 371q21 0 40 -8.5t35.5 -18.5t31.5 -18t28 -8q19 0 39 12.5t45 41.5l65 -49q-37 -65 -74.5 -90.5t-75.5 -25.5q-22 0 -41.5 8t-37 18t-33.5 18t-31 8q-19 0 -39.5 -10t-51.5 -42q-16 12 -31.5 24t-31.5 23q38 63 76.5 90t86.5 27z" />
    <glyph glyph-name="exclamdown" unicode="&#xa1;" horiz-adv-x="285" 
d="M103 298h118l-87 -499h-139zM268 495l-26 -133h-137l26 133h137z" />
    <glyph glyph-name="cent" unicode="&#xa2;" horiz-adv-x="435" 
d="M142 -118l10.5 52.5t13.5 62.5q-38 4 -64 19.5t-42.5 39t-23.5 54t-7 65.5q0 58 12.5 115.5t40.5 104t72.5 75.5t109.5 31q5 29 10.5 60.5t10.5 53.5h51q-5 -23 -10.5 -56.5t-11.5 -62.5q45 -9 74 -37.5t36 -73.5l-118 -56q-6 24 -18 34.5t-26 10.5q-20 0 -34 -9.5
t-24 -26t-16 -38.5t-11 -47q-8 -39 -9 -69q0 -26 8.5 -43.5t38.5 -17.5q15 0 30 9.5t31 33.5l103 -57q-28 -50 -68 -79t-94 -34l-23 -114h-52v0z" />
    <glyph glyph-name="sterling" unicode="&#xa3;" horiz-adv-x="490" 
d="M330 701q46 0 81.5 -12.5t60.5 -35t38.5 -52.5t15.5 -64q-34 -11 -67.5 -21t-67.5 -20q-5 26 -21.5 47t-46.5 21q-34 0 -50 -22.5t-16 -49.5q0 -26 6.5 -54.5t7.5 -66.5h120l-21 -103h-118q-12 -43 -27.5 -78t-36.5 -65h241l-24 -125h-412l20 110q35 36 57 72t36 86h-65
l21 103h57q-2 29 -6.5 55.5t-4.5 53.5q0 40 13 80t40 71t69 50.5t100 19.5z" />
    <glyph glyph-name="currency" unicode="&#xa4;" horiz-adv-x="535" 
d="M100 102l-75 75q16 17 32 32.5t33 32.5q-24 43 -24 91q0 45 25 92l-65 65q19 19 38 37.5t38 38.5l65 -65q47 25 93 25q49 0 91 -23l65 65l75 -76l-65 -64q25 -47 25 -92q0 -48 -25 -94q15 -14 33 -31.5t32 -31.5l-76 -77l-64 65q-22 -12 -45.5 -19t-47.5 -7
q-25 0 -48.5 7t-45.5 19zM259 428q-41 0 -68 -26.5t-27 -67.5q0 -19 7 -36t19.5 -29.5t29.5 -20t36 -7.5q24 0 41.5 9.5t29.5 24t18 31t6 31.5q0 19 -7.5 36t-20 29t-29 19t-35.5 7z" />
    <glyph glyph-name="yen" unicode="&#xa5;" horiz-adv-x="490" 
d="M289 413l58 125q3 5 15 28.5t26.5 50.5t26.5 50.5t14 28.5h157l-207 -337h82q-3 -19 -6.5 -37.5t-7.5 -37.5h-116l-9 -41h117l-15 -75h-116l-16 -84l-16 -84h-142l16 84l16 84h-113l15 75h112l8 41h-112q4 19 7.5 37.5t6.5 37.5h78q-19 85 -37.5 168.5t-36.5 168.5h153
l24 -159l12 -124h6z" />
    <glyph glyph-name="brokenbar" unicode="&#xa6;" horiz-adv-x="259" 
d="M71 305v421h116v-421h-116zM187 225v-424h-116v424h116z" />
    <glyph glyph-name="section" unicode="&#xa7;" horiz-adv-x="467" 
d="M317 700q54 0 97 -14t83 -51l-72 -93q-31 27 -58 35.5t-53 8.5q-29 0 -46 -16t-17 -33q0 -12 10 -23t25 -20.5t32 -18.5t31 -18q16 -10 35 -21.5t35.5 -26.5t27 -35.5t10.5 -48.5q0 -45 -24 -79t-58 -51q14 -18 22 -38.5t8 -42.5q0 -45 -16.5 -80t-45.5 -59.5t-68 -37
t-84 -12.5q-26 0 -53 5.5t-52.5 16t-48 26t-38.5 34.5l84 89q26 -29 58 -43t57 -14q29 0 49.5 14.5t20.5 40.5q0 12 -10.5 22.5t-26.5 20.5t-33.5 19t-30.5 17q-47 27 -75.5 56.5t-28.5 76.5q0 20 6 40t17.5 38t28.5 32t38 21q-17 17 -25 40.5t-8 47.5q0 39 15 71.5
t41.5 55.5t62.5 35.5t78 12.5zM190 334q0 -12 10.5 -22.5t26.5 -19.5t36 -17t39 -17q10 5 18 16.5t8 25.5q0 13 -6.5 21t-20 15.5t-33 15.5t-46.5 22q-14 -6 -23 -17t-9 -23z" />
    <glyph glyph-name="dieresis" unicode="&#xa8;" horiz-adv-x="426" 
d="M313 558l25 130h133l-25 -130h-133zM119 558l25 130h132l-25 -130h-132z" />
    <glyph glyph-name="copyright" unicode="&#xa9;" horiz-adv-x="762" 
d="M378 553q57 0 94.5 -31t46.5 -79l-86 -26q-4 21 -17.5 35t-36.5 14q-17 0 -27.5 -6t-16 -16t-7.5 -22t-2 -25v-126q0 -25 10 -46.5t42 -21.5q22 0 36 13t17 37q22 -7 43.5 -13.5t43.5 -12.5q-10 -52 -46 -81.5t-94 -29.5q-42 0 -69.5 13t-43.5 34.5t-22.5 48.5t-6.5 56
v127q0 32 8.5 61t25.5 50.5t44 34t64 12.5zM378 -12q-75 0 -136 26t-104 73t-66.5 112t-23.5 142t23.5 142t66.5 112.5t104 74.5t136 27q74 0 135 -26.5t104.5 -74t67 -112.5t23.5 -143q0 -76 -23.5 -140.5t-67 -112t-104.5 -74t-135 -26.5zM378 619q-57 0 -102 -21.5
t-76.5 -59t-48.5 -88.5t-17 -109q0 -57 17.5 -107.5t49.5 -87.5t77 -58.5t100 -21.5q56 0 101.5 21.5t77 58.5t48.5 87.5t17 107.5q0 60 -17.5 110.5t-49 88t-77 58.5t-100.5 21z" />
    <glyph glyph-name="ordfeminine" unicode="&#xaa;" horiz-adv-x="319" 
d="M213 303q-12 -15 -27.5 -21.5t-29.5 -6.5q-25 0 -41.5 8t-26.5 21.5t-14.5 32t-4.5 39.5q1 19 3 40t7 44q7 33 17 61t25 47.5t36.5 30.5t51.5 11q13 0 30 -5.5t29 -19.5l5 22h104q-15 -82 -30.5 -164t-31.5 -164h-104l4 23zM198 365q14 0 22 8.5t13 24.5q3 9 6 22t5 26
t3.5 24t1.5 17q0 14 -3.5 23t-17.5 9q-16 0 -25.5 -11t-16.5 -31q-6 -18 -9.5 -40t-3.5 -36q0 -13 5 -24.5t20 -11.5z" />
    <glyph glyph-name="guillemotleft" unicode="&#xab;" horiz-adv-x="565" 
d="M358 28l-90 207l166 207h140l-174 -208l88 -206h-130zM142 28l-91 207l167 207h134l-169 -208l88 -206h-129z" />
    <glyph glyph-name="logicalnot" unicode="&#xac;" horiz-adv-x="490" 
d="M443 73h-116l33 168h-335l23 114h450z" />
    <glyph glyph-name="sfthyphen" unicode="&#xad;" horiz-adv-x="407" 
d="M47 204l24 125h318l-25 -125h-317z" />
    <glyph glyph-name="registered" unicode="&#xae;" horiz-adv-x="506" 
d="M252 449h-19v-99h-56v260h87q35 0 56.5 -20.5t21.5 -59.5q0 -21 -8 -39.5t-28 -31.5q3 -7 9.5 -22.5t13.5 -32.5t13.5 -32t9.5 -22h-62zM233 558v-58h28q28 0 28 30q0 28 -28 28h-28zM256 252q-49 0 -88.5 17t-67 47t-42.5 71.5t-15 89.5q0 49 15.5 90t43.5 71t67 47
t87 17t87 -17t66.5 -47t43 -71t15.5 -90q0 -48 -16 -89.5t-44 -71.5t-67 -47t-85 -17zM256 650q-36 0 -65 -13.5t-49 -36.5t-31 -54.5t-11 -67.5q0 -37 11 -68t31.5 -54t49.5 -36t64 -13q36 0 64 13t47.5 36.5t30 54.5t10.5 67t-10.5 67.5t-30.5 54.5t-48 36.5t-63 13.5z
" />
    <glyph glyph-name="macron" unicode="&#xaf;" horiz-adv-x="450" 
d="M161 572l22 114h292l-22 -114h-292z" />
    <glyph glyph-name="degree" unicode="&#xb0;" horiz-adv-x="393" 
d="M344 559q0 -30 -11.5 -55.5t-31.5 -45t-46.5 -30.5t-57.5 -11q-30 0 -57 11t-47 30.5t-31.5 45t-11.5 55.5q0 29 11.5 55t31.5 45.5t47 30.5t57 11q31 0 57.5 -11t46.5 -30.5t31.5 -45.5t11.5 -55zM253 559q0 23 -16 38.5t-40 15.5q-23 0 -39.5 -15.5t-16.5 -38.5
t16.5 -39t39.5 -16q24 0 40 16t16 39z" />
    <glyph glyph-name="plusminus" unicode="&#xb1;" horiz-adv-x="490" 
d="M320 298l-30 -157h-117l31 157h-168l22 112h167l32 162h117l-32 -162h167l-21 -112h-168zM-24 0l21 109h456l-21 -109h-456z" />
    <glyph glyph-name="twosuperior" unicode="&#xb2;" horiz-adv-x="312" 
d="M68 665q9 31 24.5 55t36.5 40t45 24.5t50 8.5q55 0 85 -25t30 -73q0 -29 -13.5 -54.5t-38.5 -51.5l-118 -126h122l-18 -92h-258l15 81l183 187q20 20 20 43q0 8 -5.5 14t-17.5 6t-24 -11t-20 -39z" />
    <glyph glyph-name="threesuperior" unicode="&#xb3;" horiz-adv-x="313" 
d="M225 791q60 0 88 -29.5t28 -74.5q0 -12 -3 -26.5t-9.5 -28.5t-18.5 -26.5t-30 -20.5q19 -7 25 -22t6 -35q0 -32 -9 -61.5t-28 -52t-47.5 -35.5t-68.5 -13q-23 0 -43.5 6.5t-37 19t-26 32.5t-9.5 47v13l96 12v-6q0 -19 9.5 -25t17.5 -6q13 0 21 6t12 14t5.5 17.5t1.5 16.5
q0 14 -6.5 23.5t-25.5 9.5h-31l15 78h33q25 0 34.5 16t9.5 33q0 10 -4.5 18.5t-19.5 8.5q-10 0 -21 -9.5t-19 -35.5l-93 15q7 32 22 55t34.5 37.5t43 21.5t48.5 7z" />
    <glyph glyph-name="acute" unicode="&#xb4;" horiz-adv-x="451" 
d="M227 570l130 195l111 -48l-171 -183z" />
    <glyph glyph-name="mu" unicode="&#xb5;" horiz-adv-x="477" 
d="M255 37q-1 0 -1.5 0.5t-2.5 0.5q-14 -13 -31.5 -21t-34.5 -11q-16 -4 -35 -6l-39 -200h-139l135 695h139q-16 -79 -31 -157t-30 -157q-1 -5 -1.5 -9t-0.5 -8q0 -20 11 -29.5t28 -9.5q22 0 39 14.5t23 42.5q15 79 30 156.5t31 156.5h139l-96 -495h-139l6 37v0z" />
    <glyph glyph-name="mu" unicode="&#x3bc;" horiz-adv-x="477" 
d="M255 37q-1 0 -1.5 0.5t-2.5 0.5q-14 -13 -31.5 -21t-34.5 -11q-16 -4 -35 -6l-39 -200h-139l135 695h139q-16 -79 -31 -157t-30 -157q-1 -5 -1.5 -9t-0.5 -8q0 -20 11 -29.5t28 -9.5q22 0 39 14.5t23 42.5q15 79 30 156.5t31 156.5h139l-96 -495h-139l6 37v0z" />
    <glyph glyph-name="paragraph" unicode="&#xb6;" horiz-adv-x="513" 
d="M174 309h-12q-60 5 -87.5 44t-27.5 93q0 40 14 84.5t43 82t73 62t104 24.5q69 0 134.5 0.5t137.5 0.5l-20 -98h-44l-130 -670h-100l130 670h-55l-130 -670h-103z" />
    <glyph glyph-name="periodcentered" unicode="&#xb7;" horiz-adv-x="263" 
d="M59 200l30 158h150l-30 -158h-150z" />
    <glyph glyph-name="cedilla" unicode="&#xb8;" horiz-adv-x="447" 
d="M237 42l-41 -78q43 -5 59.5 -28.5t16.5 -53.5q0 -17 -7 -34t-22.5 -31t-39 -23t-56.5 -9q-20 0 -49.5 5.5t-55.5 20.5l34 60q22 -11 38.5 -14.5t30.5 -3.5q18 0 29 8t11 24q0 9 -7.5 15t-18.5 6q-8 0 -13 -2l-34 24l59 114h66z" />
    <glyph glyph-name="onesuperior" unicode="&#xb9;" horiz-adv-x="255" 
d="M85 371l59 304l-69 -42l20 105l86 50h89l-81 -417h-104z" />
    <glyph glyph-name="ordmasculine" unicode="&#xba;" horiz-adv-x="317" 
d="M230 611q55 0 86 -25.5t37 -61.5q2 -8 2 -17v-19q-2 -38 -9 -71t-18 -59t-29 -44.5t-44.5 -28.5t-63.5 -10q-34 0 -58 9t-39 24t-21.5 34t-6.5 39q0 15 1.5 30t3.5 30q5 30 13.5 60.5t21.5 50.5q18 29 48.5 44t75.5 15zM195 365q10 0 17.5 6.5t13 16.5t8.5 22l6 24
q4 17 6.5 34t2.5 29q0 11 -7.5 18t-19.5 7q-13 0 -21.5 -9t-12.5 -20t-7.5 -24.5t-6 -27t-4 -25.5t-1.5 -19q0 -13 5.5 -22.5t20.5 -9.5z" />
    <glyph glyph-name="guillemotright" unicode="&#xbb;" horiz-adv-x="565" 
d="M9 28l174 208l-88 207h130l90 -208l-166 -207h-140zM226 28l174 208l-88 207h129l90 -208l-166 -207h-139z" />
    <glyph glyph-name="onequarter" unicode="&#xbc;" horiz-adv-x="770" 
d="M136 279l59 304l-69 -42l20 105l86 50h89l-81 -417h-104zM181 -17h-100l511 730h100zM633 57l-11 -57h-94l11 57h-164l14 74l179 286h101l-169 -273h57l18 79h90l-15 -79h30l-17 -87h-30z" />
    <glyph glyph-name="onehalf" unicode="&#xbd;" horiz-adv-x="770" 
d="M130 279l59 304l-69 -42l20 105l86 50h89l-81 -417h-104zM170 -17h-100l511 730h100zM449 294q9 31 24.5 55t36.5 40t45 24.5t50 8.5q55 0 85 -25t30 -73q0 -29 -13.5 -54.5t-38.5 -51.5l-118 -126h122l-18 -92h-258l15 81l183 187q20 20 20 43q0 8 -5.5 14t-17.5 6
t-24 -11t-20 -39z" />
    <glyph glyph-name="threequarters" unicode="&#xbe;" horiz-adv-x="770" 
d="M216 -17h-100l511 730h100zM268 701q60 0 88 -29.5t28 -74.5q0 -12 -3 -26.5t-9.5 -28.5t-18.5 -26.5t-30 -20.5q19 -7 25 -22t6 -35q0 -32 -9 -61.5t-28 -52t-47.5 -35.5t-68.5 -13q-23 0 -43.5 6.5t-37 19t-26 32.5t-9.5 47v13l96 12v-6q0 -19 9.5 -25t17.5 -6
q13 0 21 6t12 14t5.5 17.5t1.5 16.5q0 14 -6.5 23.5t-25.5 9.5h-31l15 78h33q25 0 34.5 16t9.5 33q0 10 -4.5 18.5t-19.5 8.5q-10 0 -21 -9.5t-19 -35.5l-93 15q7 32 22 55t34.5 37.5t43 21.5t48.5 7zM651 57l-11 -57h-94l11 57h-164l14 74l179 286h101l-169 -273h57l18 79
h90l-15 -79h30l-17 -87h-30z" />
    <glyph glyph-name="questiondown" unicode="&#xbf;" horiz-adv-x="445" 
d="M189 -206q-80 0 -129.5 41.5t-49.5 113.5q0 31 6.5 55.5t17 44.5t24 37.5t27.5 33.5q24 28 42.5 48t31 36.5t21 32.5t13.5 36l7 29h138l-6 -32q-8 -52 -34 -91.5t-61 -78.5q-28 -32 -50 -63t-22 -64q0 -20 12.5 -31.5t33.5 -11.5q11 0 22.5 3.5t22 12.5t18.5 24.5
t12 40.5l135 -15q-17 -105 -77 -153.5t-155 -48.5zM374 495q-6 -34 -12.5 -67t-13.5 -67h-136l26 134h136z" />
    <glyph glyph-name="Agrave" unicode="&#xc0;" horiz-adv-x="555" 
d="M371 722l-198 107l87 91l165 -136zM354 0l-9 143h-163l-65 -143h-154l334 696h143l63 -696h-149zM337 370v139h-5l-54 -138l-39 -100h99z" />
    <glyph glyph-name="Aacute" unicode="&#xc1;" horiz-adv-x="548" 
d="M350 0l-4 143h-164l-65 -143h-154l334 696h143l63 -696h-153zM337 370v139h-5l-54 -138l-39 -100h99zM315 784l194 135l78 -91l-224 -106z" />
    <glyph glyph-name="Acircumflex" unicode="&#xc2;" horiz-adv-x="548" 
d="M350 0l-4 143h-164l-65 -143h-154l334 696h143l63 -696h-153zM337 370v139h-5l-54 -138l-39 -100h99zM383 807l-153 -81l-42 52l167 132h89l114 -131l-59 -54z" />
    <glyph glyph-name="Atilde" unicode="&#xc3;" horiz-adv-x="548" 
d="M350 0l-4 143h-164l-65 -143h-154l334 696h143l63 -696h-153zM337 370v139h-5l-54 -138l-39 -100h99zM321 873q18 0 34.5 -7t32 -14.5t29 -14t24.5 -6.5q15 0 29.5 7.5t39.5 33.5l62 -37q-30 -59 -62.5 -81t-67.5 -22q-19 0 -35.5 6.5t-31.5 14t-28.5 14t-26.5 6.5
q-14 0 -30.5 -8.5t-41.5 -34.5l-60 41q34 59 66.5 80.5t66.5 21.5z" />
    <glyph glyph-name="Adieresis" unicode="&#xc4;" horiz-adv-x="548" 
d="M350 0l-4 143h-164l-65 -143h-154l334 696h143l63 -696h-153zM337 370v139h-5l-54 -138l-39 -100h99zM408 737l26 131h135l-25 -131h-136zM214 737l25 131h136l-26 -131h-135z" />
    <glyph glyph-name="Aring" unicode="&#xc5;" horiz-adv-x="548" 
d="M350 0l-4 143h-164l-65 -143h-154l334 696h70q-40 2 -68 26.5t-28 61.5q0 26 9 49.5t25.5 41.5t40.5 28.5t53 10.5q21 0 39.5 -6.5t32 -18.5t21.5 -28.5t8 -35.5q0 -26 -8.5 -48.5t-24 -40t-38.5 -28.5t-52 -12h63l63 -696h-153zM337 370v139h-5l-54 -138l-39 -100h99z
M380 770q16 0 29 11.5t13 29.5q0 11 -8.5 19t-21.5 8q-17 0 -30 -11.5t-13 -28.5q0 -12 9 -20t22 -8z" />
    <glyph glyph-name="AE" unicode="&#xc6;" horiz-adv-x="856" 
d="M877 696l-19 -134h-260l-20 -144h224l-19 -133h-224l-21 -150h261l-18 -135h-407l21 150h-179l-89 -150h-153l402 696h501zM447 559l-156 -280h122l39 279z" />
    <glyph glyph-name="Ccedilla" unicode="&#xc7;" horiz-adv-x="514" 
d="M342 701q45 0 81.5 -13.5t63 -37t41.5 -56t18 -70.5l-138 -39q-2 15 -7.5 29t-14.5 25t-22.5 18t-30.5 7q-25 0 -41.5 -10.5t-27 -28.5t-17.5 -41t-12 -47l-45 -228q-3 -15 -2.5 -29.5t7.5 -25t20.5 -17t37.5 -6.5q34 0 58 20.5t36 57.5q35 -9 69.5 -18t69.5 -19
q-11 -36 -30.5 -68t-48 -56t-66.5 -38.5t-86 -15.5l-16 -30q43 -5 59.5 -28.5t16.5 -53.5q0 -17 -7 -34t-22.5 -31t-39 -23t-56.5 -9q-20 0 -49.5 5.5t-55.5 20.5l34 60q22 -11 38.5 -14.5t30.5 -3.5q18 0 29 8t11 24q0 9 -7.5 15t-18.5 6q-8 0 -13 -2l-34 24l36 71
q-50 8 -81 30.5t-47 55t-18 73t7 85.5l37 189q10 52 27 100.5t46 86t72.5 60t107.5 22.5z" />
    <glyph glyph-name="Egrave" unicode="&#xc8;" horiz-adv-x="484" 
d="M20 0l135 696h401l-26 -134h-257l-29 -144h222l-26 -133h-222l-28 -151h257l-26 -134h-401zM388 722l-199 107l88 91l165 -136z" />
    <glyph glyph-name="Eacute" unicode="&#xc9;" horiz-adv-x="484" 
d="M20 0l135 696h401l-26 -134h-257l-29 -144h222l-26 -133h-222l-28 -151h257l-26 -134h-401zM277 784l194 135l78 -91l-224 -106z" />
    <glyph glyph-name="Ecircumflex" unicode="&#xca;" horiz-adv-x="484" 
d="M20 0l135 696h401l-26 -134h-257l-29 -144h222l-26 -133h-222l-28 -151h257l-26 -134h-401zM369 807l-153 -81l-42 52l167 132h89l114 -131l-59 -54z" />
    <glyph glyph-name="Edieresis" unicode="&#xcb;" horiz-adv-x="484" 
d="M20 0l135 696h401l-26 -134h-257l-29 -144h222l-26 -133h-222l-28 -151h257l-26 -134h-401zM391 737l26 131h135l-25 -131h-136zM197 737l25 131h136l-26 -131h-135z" />
    <glyph glyph-name="Igrave" unicode="&#xcc;" horiz-adv-x="265" 
d="M20 0l135 696h143l-135 -696h-143zM242 722l-199 107l88 91l165 -136z" />
    <glyph glyph-name="Iacute" unicode="&#xcd;" horiz-adv-x="265" 
d="M20 0l135 696h143l-135 -696h-143zM178 784l194 135l78 -91l-224 -106z" />
    <glyph glyph-name="Icircumflex" unicode="&#xce;" horiz-adv-x="265" 
d="M20 0l135 696h143l-135 -696h-143zM255 807l-153 -81l-42 52l167 132h89l114 -131l-59 -54z" />
    <glyph glyph-name="Idieresis" unicode="&#xcf;" horiz-adv-x="265" 
d="M20 0l135 696h143l-135 -696h-143zM266 737l26 131h135l-25 -131h-136zM72 737l25 131h136l-26 -131h-135z" />
    <glyph glyph-name="Eth" unicode="&#xd0;" horiz-adv-x="552" 
d="M380 696q66 0 113.5 -26t58.5 -86q7 -35 2 -86.5t-16 -114.5q-17 -96 -30.5 -159t-36.5 -104q-20 -35 -45 -58t-54.5 -36.5t-62 -19.5t-66.5 -6h-222l56 291h-57l18 97h58l60 308h224zM402 433q6 30 7 54t-6.5 40.5t-24 25t-44.5 8.5h-60l-34 -173h63q-5 -25 -9.5 -48.5
t-9.5 -48.5h-63l-30 -157h61q55 0 78.5 28t33.5 77z" />
    <glyph glyph-name="Ntilde" unicode="&#xd1;" horiz-adv-x="589" 
d="M367 0l-83 242l-45 149h-3l-75 -391h-142l135 696h126l69 -221q1 -8 10 -35.5t19.5 -59t19 -59.5t8.5 -37h4l76 412h141l-135 -696h-125zM346 873q18 0 34.5 -7t32 -14.5t29 -14t24.5 -6.5q15 0 29.5 7.5t39.5 33.5l62 -37q-30 -59 -62.5 -81t-67.5 -22q-19 0 -35.5 6.5
t-31.5 14t-28.5 14t-26.5 6.5q-14 0 -30.5 -8.5t-41.5 -34.5l-60 41q34 59 66.5 80.5t66.5 21.5z" />
    <glyph glyph-name="Ograve" unicode="&#xd2;" horiz-adv-x="535" 
d="M492 219q-10 -52 -28 -93.5t-46 -71t-67.5 -45t-91.5 -15.5q-68 0 -112.5 20.5t-69.5 55.5t-31.5 80.5t3.5 95.5l47 232q7 39 24 78.5t46 71.5t72 52.5t104 20.5q57 0 98.5 -20.5t66 -54.5t33 -77t-0.5 -89zM396 478q2 12 0 26t-10 27t-22.5 21.5t-36.5 8.5t-37 -7.5
t-25 -19t-15.5 -25t-7.5 -25.5l-49 -253q-9 -48 9.5 -72.5t61.5 -24.5q31 0 52 20t28 55zM398 722l-199 107l88 91l165 -136z" />
    <glyph glyph-name="Oacute" unicode="&#xd3;" horiz-adv-x="535" 
d="M492 219q-10 -52 -28 -93.5t-46 -71t-67.5 -45t-91.5 -15.5q-68 0 -112.5 20.5t-69.5 55.5t-31.5 80.5t3.5 95.5l47 232q7 39 24 78.5t46 71.5t72 52.5t104 20.5q57 0 98.5 -20.5t66 -54.5t33 -77t-0.5 -89zM396 478q2 12 0 26t-10 27t-22.5 21.5t-36.5 8.5t-37 -7.5
t-25 -19t-15.5 -25t-7.5 -25.5l-49 -253q-9 -48 9.5 -72.5t61.5 -24.5q31 0 52 20t28 55zM305 784l194 135l78 -91l-224 -106z" />
    <glyph glyph-name="Ocircumflex" unicode="&#xd4;" horiz-adv-x="535" 
d="M492 219q-10 -52 -28 -93.5t-46 -71t-67.5 -45t-91.5 -15.5q-68 0 -112.5 20.5t-69.5 55.5t-31.5 80.5t3.5 95.5l47 232q7 39 24 78.5t46 71.5t72 52.5t104 20.5q57 0 98.5 -20.5t66 -54.5t33 -77t-0.5 -89zM396 478q2 12 0 26t-10 27t-22.5 21.5t-36.5 8.5t-37 -7.5
t-25 -19t-15.5 -25t-7.5 -25.5l-49 -253q-9 -48 9.5 -72.5t61.5 -24.5q31 0 52 20t28 55zM384 807l-153 -81l-42 52l167 132h89l114 -131l-59 -54z" />
    <glyph glyph-name="Otilde" unicode="&#xd5;" horiz-adv-x="535" 
d="M492 219q-10 -52 -28 -93.5t-46 -71t-67.5 -45t-91.5 -15.5q-68 0 -112.5 20.5t-69.5 55.5t-31.5 80.5t3.5 95.5l47 232q7 39 24 78.5t46 71.5t72 52.5t104 20.5q57 0 98.5 -20.5t66 -54.5t33 -77t-0.5 -89zM396 478q2 12 0 26t-10 27t-22.5 21.5t-36.5 8.5t-37 -7.5
t-25 -19t-15.5 -25t-7.5 -25.5l-49 -253q-9 -48 9.5 -72.5t61.5 -24.5q31 0 52 20t28 55zM317 873q18 0 34.5 -7t32 -14.5t29 -14t24.5 -6.5q15 0 29.5 7.5t39.5 33.5l62 -37q-30 -59 -62.5 -81t-67.5 -22q-19 0 -35.5 6.5t-31.5 14t-28.5 14t-26.5 6.5q-14 0 -30.5 -8.5
t-41.5 -34.5l-60 41q34 59 66.5 80.5t66.5 21.5z" />
    <glyph glyph-name="Odieresis" unicode="&#xd6;" horiz-adv-x="535" 
d="M492 219q-10 -52 -28 -93.5t-46 -71t-67.5 -45t-91.5 -15.5q-68 0 -112.5 20.5t-69.5 55.5t-31.5 80.5t3.5 95.5l47 232q7 39 24 78.5t46 71.5t72 52.5t104 20.5q57 0 98.5 -20.5t66 -54.5t33 -77t-0.5 -89zM396 478q2 12 0 26t-10 27t-22.5 21.5t-36.5 8.5t-37 -7.5
t-25 -19t-15.5 -25t-7.5 -25.5l-49 -253q-9 -48 9.5 -72.5t61.5 -24.5q31 0 52 20t28 55zM399 737l26 131h135l-25 -131h-136zM205 737l25 131h136l-26 -131h-135z" />
    <glyph glyph-name="multiply" unicode="&#xd7;" horiz-adv-x="490" 
d="M253 214l-170 -140l-67 85l171 141l-116 147l93 77l116 -147l168 140l68 -87l-168 -138l115 -148l-93 -77z" />
    <glyph glyph-name="Oslash" unicode="&#xd8;" horiz-adv-x="535" 
d="M61 -4q-16 12 -32 26l42 56q-22 35 -26.5 77.5t4.5 90.5l47 232q7 39 24 78.5t46 71.5t72 52.5t104 20.5q49 0 85.5 -15t62.5 -41l43 58q9 -8 18 -14.5t17 -14.5l-50 -66q37 -66 21 -148l-47 -241q-10 -52 -28 -93.5t-46 -71t-67.5 -45t-91.5 -15.5q-55 0 -95 14t-66 38z
M196 248l197 266q-5 18 -21 32.5t-45 14.5q-22 0 -37 -7.5t-25 -19t-15.5 -25t-7.5 -25.5zM387 432l-193 -258q15 -40 70 -40q31 0 52 20t28 55z" />
    <glyph glyph-name="Ugrave" unicode="&#xd9;" horiz-adv-x="545" 
d="M494 207q-20 -101 -83 -156.5t-163 -55.5q-47 0 -87.5 15t-67.5 43.5t-38.5 69.5t-1.5 92l93 481h143l-93 -475q-8 -42 11.5 -64.5t51.5 -22.5q33 0 58.5 19t33.5 60l94 483h144zM401 722l-199 107l88 91l165 -136z" />
    <glyph glyph-name="Uacute" unicode="&#xda;" horiz-adv-x="545" 
d="M494 207q-20 -101 -83 -156.5t-163 -55.5q-47 0 -87.5 15t-67.5 43.5t-38.5 69.5t-1.5 92l93 481h143l-93 -475q-8 -42 11.5 -64.5t51.5 -22.5q33 0 58.5 19t33.5 60l94 483h144zM315 784l194 135l78 -91l-224 -106z" />
    <glyph glyph-name="Ucircumflex" unicode="&#xdb;" horiz-adv-x="545" 
d="M494 207q-20 -101 -83 -156.5t-163 -55.5q-47 0 -87.5 15t-67.5 43.5t-38.5 69.5t-1.5 92l93 481h143l-93 -475q-8 -42 11.5 -64.5t51.5 -22.5q33 0 58.5 19t33.5 60l94 483h144zM396 807l-153 -81l-42 52l167 132h89l114 -131l-59 -54z" />
    <glyph glyph-name="Udieresis" unicode="&#xdc;" horiz-adv-x="545" 
d="M494 207q-20 -101 -83 -156.5t-163 -55.5q-47 0 -87.5 15t-67.5 43.5t-38.5 69.5t-1.5 92l93 481h143l-93 -475q-8 -42 11.5 -64.5t51.5 -22.5q33 0 58.5 19t33.5 60l94 483h144zM409 737l26 131h135l-25 -131h-136zM215 737l25 131h136l-26 -131h-135z" />
    <glyph glyph-name="Yacute" unicode="&#xdd;" horiz-adv-x="504" 
d="M298 415q17 34 34 70.5t34 69.5l75 141h155l-259 -417l-54 -279h-141q14 70 27.5 139.5t27.5 139.5l-97 417h151q7 -35 12 -65t11 -65q3 -17 5.5 -37t4.5 -40t4 -39.5t4 -34.5h6zM290 784l194 135l78 -91l-224 -106z" />
    <glyph glyph-name="Thorn" unicode="&#xde;" horiz-adv-x="519" 
d="M350 574q86 0 138 -40t52 -121q0 -59 -19.5 -110t-54 -89t-83.5 -60t-107 -22h-85l-26 -132h-145l135 696h145l-24 -122h74zM250 440l-33 -173h65q21 0 41.5 7.5t36.5 22t25.5 36t9.5 48.5q0 31 -18 45t-50 14h-77z" />
    <glyph glyph-name="germandbls" unicode="&#xdf;" horiz-adv-x="492" 
d="M414 420q32 -14 43 -45t11 -65q0 -57 -11 -113.5t-38.5 -101t-74.5 -72.5t-120 -28h-12t-12 1l23 118q24 0 43.5 14t32.5 39t20 60.5t7 78.5q0 23 -8.5 39t-35.5 17l20 105q27 0 42.5 23t15.5 58q0 19 -9 35.5t-36 16.5q-17 0 -27.5 -7t-17 -18.5t-10.5 -26t-7 -30.5
l-100 -518h-141l100 516q9 49 25 87.5t41.5 65.5t61.5 41.5t87 14.5q45 0 77.5 -11.5t54 -31.5t31.5 -46.5t10 -57.5q0 -26 -6.5 -50t-18 -44.5t-27 -35.5t-33.5 -24z" />
    <glyph glyph-name="agrave" unicode="&#xe0;" horiz-adv-x="462" 
d="M238 0l8 39h-4q-18 -21 -45.5 -33t-47.5 -12q-37 0 -60.5 11.5t-36.5 31t-17.5 45t-4.5 53.5q0 36 5.5 76t13.5 73q12 49 28 88.5t39 68t54.5 44t73.5 15.5q23 0 43 -9t36 -33q1 0 1.5 0.5t1.5 0.5l8 35h138l-96 -494h-138zM295 537l-152 191l111 48l109 -200zM214 122
q18 0 30.5 12.5t20.5 32.5q6 14 11.5 36t9.5 44.5t6.5 41t2.5 25.5q0 18 -7 35t-30 17q-37 0 -54 -43q-6 -15 -11.5 -35.5t-10.5 -43.5q-4 -18 -6.5 -37t-3.5 -37q0 -20 8 -34t34 -14z" />
    <glyph glyph-name="aacute" unicode="&#xe1;" horiz-adv-x="462" 
d="M238 0l8 39h-4q-18 -21 -45.5 -33t-47.5 -12q-37 0 -60.5 11.5t-36.5 31t-17.5 45t-4.5 53.5q0 36 5.5 76t13.5 73q12 49 28 88.5t39 68t54.5 44t73.5 15.5q23 0 43 -9t36 -33q1 0 1.5 0.5t1.5 0.5l8 35h138l-96 -494h-138zM268 570l130 195l111 -48l-171 -183zM214 122
q18 0 30.5 12.5t20.5 32.5q6 14 11.5 36t9.5 44.5t6.5 41t2.5 25.5q0 18 -7 35t-30 17q-37 0 -54 -43q-6 -15 -11.5 -35.5t-10.5 -43.5q-4 -18 -6.5 -37t-3.5 -37q0 -20 8 -34t34 -14z" />
    <glyph glyph-name="acircumflex" unicode="&#xe2;" horiz-adv-x="462" 
d="M238 0l8 39h-4q-18 -21 -45.5 -33t-47.5 -12q-37 0 -60.5 11.5t-36.5 31t-17.5 45t-4.5 53.5q0 36 5.5 76t13.5 73q12 49 28 88.5t39 68t54.5 44t73.5 15.5q23 0 43 -9t36 -33q1 0 1.5 0.5t1.5 0.5l8 35h138l-96 -494h-138zM317 625l-155 -104l-44 47l171 157h91
l110 -162l-61 -41zM214 122q18 0 30.5 12.5t20.5 32.5q6 14 11.5 36t9.5 44.5t6.5 41t2.5 25.5q0 18 -7 35t-30 17q-37 0 -54 -43q-6 -15 -11.5 -35.5t-10.5 -43.5q-4 -18 -6.5 -37t-3.5 -37q0 -20 8 -34t34 -14z" />
    <glyph glyph-name="atilde" unicode="&#xe3;" horiz-adv-x="462" 
d="M238 0l8 39h-4q-18 -21 -45.5 -33t-47.5 -12q-37 0 -60.5 11.5t-36.5 31t-17.5 45t-4.5 53.5q0 36 5.5 76t13.5 73q12 49 28 88.5t39 68t54.5 44t73.5 15.5q23 0 43 -9t36 -33q1 0 1.5 0.5t1.5 0.5l8 35h138l-96 -494h-138zM260 698q18 0 34.5 -7t32 -14.5t29 -14
t24.5 -6.5q15 0 29.5 7.5t39.5 33.5l62 -37q-30 -59 -62.5 -81t-67.5 -22q-19 0 -35.5 6.5t-31.5 14t-28.5 14t-26.5 6.5q-14 0 -30.5 -8.5t-41.5 -34.5l-60 41q34 59 66.5 80.5t66.5 21.5zM214 122q18 0 30.5 12.5t20.5 32.5q6 14 11.5 36t9.5 44.5t6.5 41t2.5 25.5
q0 18 -7 35t-30 17q-37 0 -54 -43q-6 -15 -11.5 -35.5t-10.5 -43.5q-4 -18 -6.5 -37t-3.5 -37q0 -20 8 -34t34 -14z" />
    <glyph glyph-name="adieresis" unicode="&#xe4;" horiz-adv-x="462" 
d="M238 0l8 39h-4q-18 -21 -45.5 -33t-47.5 -12q-37 0 -60.5 11.5t-36.5 31t-17.5 45t-4.5 53.5q0 36 5.5 76t13.5 73q12 49 28 88.5t39 68t54.5 44t73.5 15.5q23 0 43 -9t36 -33q1 0 1.5 0.5t1.5 0.5l8 35h138l-96 -494h-138zM214 122q18 0 30.5 12.5t20.5 32.5
q6 14 11.5 36t9.5 44.5t6.5 41t2.5 25.5q0 18 -7 35t-30 17q-37 0 -54 -43q-6 -15 -11.5 -35.5t-10.5 -43.5q-4 -18 -6.5 -37t-3.5 -37q0 -20 8 -34t34 -14zM335 558l25 130h133l-25 -130h-133zM141 558l25 130h132l-25 -130h-132z" />
    <glyph glyph-name="aring" unicode="&#xe5;" horiz-adv-x="462" 
d="M238 0l8 39h-4q-18 -21 -45.5 -33t-47.5 -12q-37 0 -60.5 11.5t-36.5 31t-17.5 45t-4.5 53.5q0 36 5.5 76t13.5 73q12 49 28 88.5t39 68t54.5 44t73.5 15.5q23 0 43 -9t36 -33q1 0 1.5 0.5t1.5 0.5l8 35h138l-96 -494h-138zM293 523q-42 0 -71 25t-29 63q0 26 9 49.5
t25.5 41.5t40.5 28.5t53 10.5q21 0 39.5 -6.5t32 -18.5t21.5 -28.5t8 -35.5q0 -26 -9 -49.5t-25.5 -41t-40.5 -28t-54 -10.5zM214 122q18 0 30.5 12.5t20.5 32.5q6 14 11.5 36t9.5 44.5t6.5 41t2.5 25.5q0 18 -7 35t-30 17q-37 0 -54 -43q-6 -15 -11.5 -35.5t-10.5 -43.5
q-4 -18 -6.5 -37t-3.5 -37q0 -20 8 -34t34 -14zM302 597q16 0 29 11.5t13 29.5q0 11 -8.5 19t-21.5 8q-17 0 -30 -11.5t-13 -28.5q0 -12 9 -20t22 -8z" />
    <glyph glyph-name="ae" unicode="&#xe6;" horiz-adv-x="720" 
d="M467 -5q-108 0 -147 74q-38 -38 -87.5 -56t-91.5 -18q-58 0 -91.5 26.5t-33.5 85.5q0 33 10 68.5t35.5 64t70 47t113.5 18.5l51 -3q5 23 5.5 29.5t0.5 9.5q0 15 -10 26t-39 11q-17 0 -36.5 -7.5t-39.5 -33.5l-97 62q37 59 91.5 80t114.5 21q35 0 70.5 -8.5t57.5 -28.5
q24 18 54 28.5t68 10.5q44 0 76.5 -10.5t53.5 -28t31 -41.5t10 -51q0 -50 -19.5 -83.5t-52 -54t-73 -29t-82.5 -8.5h-17t-17 1q-2 -9 -3 -19t-1 -16q1 -19 13.5 -29t28.5 -10q21 0 40.5 9.5t40.5 34.5l106 -67q-37 -56 -90.5 -80.5t-113.5 -24.5zM201 117q12 0 24 3.5
t22.5 13t18.5 26.5t11 44q-8 1 -15.5 1.5t-14.5 0.5q-48 0 -69 -14t-21 -42q0 -14 10.5 -23.5t33.5 -9.5zM531 375q-23 0 -39.5 -19.5t-25.5 -52.5q7 -2 14.5 -1t13.5 1q42 2 57 15t15 31q0 11 -8 18.5t-27 7.5z" />
    <glyph glyph-name="ccedilla" unicode="&#xe7;" horiz-adv-x="411" 
d="M379 109q-27 -48 -66 -76.5t-90 -35.5q-4 -8 -8 -16.5t-9 -16.5q43 -5 59.5 -28.5t16.5 -53.5q0 -17 -7 -34t-22.5 -31t-39 -23t-56.5 -9q-20 0 -49.5 5.5t-55.5 20.5l34 60q22 -11 38.5 -14.5t30.5 -3.5q18 0 29 8t11 24q0 9 -7.5 15t-18.5 6q-8 0 -13 -2l-34 24l36 70
q-36 5 -60.5 21t-39.5 39.5t-22 53.5t-7 63q0 59 13 117t41.5 104.5t74.5 75.5t112 29q62 0 104 -29.5t50 -86.5l-118 -56q-6 24 -18 34.5t-26 10.5q-20 0 -34 -9.5t-24 -26t-16 -38.5t-11 -47q-8 -39 -9 -69q0 -26 8.5 -43.5t38.5 -17.5q15 0 30 9.5t31 33.5l103 -57v0z
" />
    <glyph glyph-name="egrave" unicode="&#xe8;" horiz-adv-x="457" 
d="M260 375q-23 0 -39.5 -19.5t-25.5 -52.5q7 -2 14.5 -1t13.5 1q42 2 57 15t15 31q0 11 -8 18.5t-27 7.5zM196 -5q-81 0 -123.5 41.5t-42.5 125.5q0 56 11.5 116.5t38.5 110t72 81.5t113 32q44 0 76.5 -10.5t53.5 -28t31 -41.5t10 -51q0 -50 -19.5 -83.5t-52 -54t-73 -29
t-82.5 -8.5h-17t-17 1q-2 -9 -3 -19t-1 -16q1 -19 13.5 -29t28.5 -10q21 0 40.5 9.5t40.5 34.5l106 -67q-37 -56 -90.5 -80.5t-113.5 -24.5zM297 537l-152 191l111 48l109 -200z" />
    <glyph glyph-name="eacute" unicode="&#xe9;" horiz-adv-x="457" 
d="M260 375q-23 0 -39.5 -19.5t-25.5 -52.5q7 -2 14.5 -1t13.5 1q42 2 57 15t15 31q0 11 -8 18.5t-27 7.5zM196 -5q-81 0 -123.5 41.5t-42.5 125.5q0 56 11.5 116.5t38.5 110t72 81.5t113 32q44 0 76.5 -10.5t53.5 -28t31 -41.5t10 -51q0 -50 -19.5 -83.5t-52 -54t-73 -29
t-82.5 -8.5h-17t-17 1q-2 -9 -3 -19t-1 -16q1 -19 13.5 -29t28.5 -10q21 0 40.5 9.5t40.5 34.5l106 -67q-37 -56 -90.5 -80.5t-113.5 -24.5zM228 570l130 195l111 -48l-171 -183z" />
    <glyph glyph-name="ecircumflex" unicode="&#xea;" horiz-adv-x="457" 
d="M260 375q-23 0 -39.5 -19.5t-25.5 -52.5q7 -2 14.5 -1t13.5 1q42 2 57 15t15 31q0 11 -8 18.5t-27 7.5zM196 -5q-81 0 -123.5 41.5t-42.5 125.5q0 56 11.5 116.5t38.5 110t72 81.5t113 32q44 0 76.5 -10.5t53.5 -28t31 -41.5t10 -51q0 -50 -19.5 -83.5t-52 -54t-73 -29
t-82.5 -8.5h-17t-17 1q-2 -9 -3 -19t-1 -16q1 -19 13.5 -29t28.5 -10q21 0 40.5 9.5t40.5 34.5l106 -67q-37 -56 -90.5 -80.5t-113.5 -24.5zM303 625l-155 -104l-44 47l171 157h91l110 -162l-61 -41z" />
    <glyph glyph-name="edieresis" unicode="&#xeb;" horiz-adv-x="457" 
d="M260 375q-23 0 -39.5 -19.5t-25.5 -52.5q7 -2 14.5 -1t13.5 1q42 2 57 15t15 31q0 11 -8 18.5t-27 7.5zM196 -5q-81 0 -123.5 41.5t-42.5 125.5q0 56 11.5 116.5t38.5 110t72 81.5t113 32q44 0 76.5 -10.5t53.5 -28t31 -41.5t10 -51q0 -50 -19.5 -83.5t-52 -54t-73 -29
t-82.5 -8.5h-17t-17 1q-2 -9 -3 -19t-1 -16q1 -19 13.5 -29t28.5 -10q21 0 40.5 9.5t40.5 34.5l106 -67q-37 -56 -90.5 -80.5t-113.5 -24.5zM325 558l25 130h133l-25 -130h-133zM131 558l25 130h132l-25 -130h-132z" />
    <glyph glyph-name="igrave" unicode="&#xec;" horiz-adv-x="297" 
d="M66 0l96 495h138l-96 -495h-138zM222 537l-152 191l111 48l109 -200z" />
    <glyph glyph-name="iacute" unicode="&#xed;" horiz-adv-x="245" 
d="M4 0l96 495h138l-96 -495h-138zM137 570l130 195l111 -48l-171 -183z" />
    <glyph glyph-name="icircumflex" unicode="&#xee;" horiz-adv-x="320" 
d="M48 0l96 495h138l-96 -495h-138zM246 625l-155 -104l-44 47l171 157h91l110 -162l-61 -41z" />
    <glyph glyph-name="idieresis" unicode="&#xef;" horiz-adv-x="316" 
d="M49 0l96 495h138l-96 -495h-138zM261 558l25 130h133l-25 -130h-133zM67 558l25 130h132l-25 -130h-132z" />
    <glyph glyph-name="eth" unicode="&#xf0;" horiz-adv-x="469" 
d="M317 592q-19 19 -44 30.5t-57 13.5l26 98q58 -6 98 -26.5t66 -50.5l70 50l33 -46l-71 -52q16 -33 23.5 -71t9 -77t-2 -77.5t-8.5 -72.5q-9 -55 -24 -111.5t-43 -102t-72.5 -74.5t-112.5 -29q-56 0 -92 18t-56 49.5t-25 75.5t2 95q5 34 17 74t29 69q28 47 69 73t101 26
q11 0 26.5 -2.5t31 -8.5t29.5 -15.5t23 -22.5h2q1 0 1 1q8 65 -17 119l-61 -44l-30 49zM250 346q-24 0 -42 -25t-31 -93q-4 -22 -5.5 -41t2.5 -33.5t13.5 -22.5t27.5 -8q29 0 43.5 26t27.5 90q10 51 3 79t-39 28z" />
    <glyph glyph-name="ntilde" unicode="&#xf1;" horiz-adv-x="477" 
d="M244 495l-8 -41l4 -1q20 21 49 34t55 13q37 0 61.5 -11.5t37 -32t15 -48.5t-4.5 -62l-66 -347h-139l61 314q5 26 -4.5 41t-33.5 15q-23 0 -40.5 -16.5t-23.5 -44.5l-59 -309h-138l97 496h137zM248 698q18 0 34.5 -7t32 -14.5t29 -14t24.5 -6.5q15 0 29.5 7.5t39.5 33.5
l62 -37q-30 -59 -62.5 -81t-67.5 -22q-19 0 -35.5 6.5t-31.5 14t-28.5 14t-26.5 6.5q-14 0 -30.5 -8.5t-41.5 -34.5l-60 41q34 59 66.5 80.5t66.5 21.5z" />
    <glyph glyph-name="ograve" unicode="&#xf2;" horiz-adv-x="459" 
d="M276 501q46 0 78 -13.5t52 -36.5t29.5 -53.5t9.5 -63.5q0 -31 -4.5 -63.5t-10.5 -60.5q-11 -48 -28 -88t-44 -68.5t-65.5 -44t-92.5 -15.5q-51 0 -83.5 15t-51 40t-25 57.5t-6.5 67.5q0 22 3.5 55.5t11.5 63.5q14 57 38.5 101.5t63.5 71.5q52 35 125 35zM264 374
q-27 0 -43.5 -23.5t-30.5 -71.5q-3 -12 -6.5 -28t-5.5 -32t-3.5 -29.5t-1.5 -19.5q0 -19 8 -33t34 -14q11 0 20.5 5.5t16.5 12.5q9 9 17.5 28t15.5 43.5t11.5 51t5.5 49.5q1 22 -6 41.5t-32 19.5zM289 537l-152 191l111 48l109 -200z" />
    <glyph glyph-name="oacute" unicode="&#xf3;" horiz-adv-x="459" 
d="M276 501q46 0 78 -13.5t52 -36.5t29.5 -53.5t9.5 -63.5q0 -31 -4.5 -63.5t-10.5 -60.5q-11 -48 -28 -88t-44 -68.5t-65.5 -44t-92.5 -15.5q-51 0 -83.5 15t-51 40t-25 57.5t-6.5 67.5q0 22 3.5 55.5t11.5 63.5q14 57 38.5 101.5t63.5 71.5q52 35 125 35zM264 374
q-27 0 -43.5 -23.5t-30.5 -71.5q-3 -12 -6.5 -28t-5.5 -32t-3.5 -29.5t-1.5 -19.5q0 -19 8 -33t34 -14q11 0 20.5 5.5t16.5 12.5q9 9 17.5 28t15.5 43.5t11.5 51t5.5 49.5q1 22 -6 41.5t-32 19.5zM236 570l130 195l111 -48l-171 -183z" />
    <glyph glyph-name="ocircumflex" unicode="&#xf4;" horiz-adv-x="459" 
d="M276 501q46 0 78 -13.5t52 -36.5t29.5 -53.5t9.5 -63.5q0 -31 -4.5 -63.5t-10.5 -60.5q-11 -48 -28 -88t-44 -68.5t-65.5 -44t-92.5 -15.5q-51 0 -83.5 15t-51 40t-25 57.5t-6.5 67.5q0 22 3.5 55.5t11.5 63.5q14 57 38.5 101.5t63.5 71.5q52 35 125 35zM264 374
q-27 0 -43.5 -23.5t-30.5 -71.5q-3 -12 -6.5 -28t-5.5 -32t-3.5 -29.5t-1.5 -19.5q0 -19 8 -33t34 -14q11 0 20.5 5.5t16.5 12.5q9 9 17.5 28t15.5 43.5t11.5 51t5.5 49.5q1 22 -6 41.5t-32 19.5zM306 625l-155 -104l-44 47l171 157h91l110 -162l-61 -41z" />
    <glyph glyph-name="otilde" unicode="&#xf5;" horiz-adv-x="459" 
d="M276 501q46 0 78 -13.5t52 -36.5t29.5 -53.5t9.5 -63.5q0 -31 -4.5 -63.5t-10.5 -60.5q-11 -48 -28 -88t-44 -68.5t-65.5 -44t-92.5 -15.5q-51 0 -83.5 15t-51 40t-25 57.5t-6.5 67.5q0 22 3.5 55.5t11.5 63.5q14 57 38.5 101.5t63.5 71.5q52 35 125 35zM264 374
q-27 0 -43.5 -23.5t-30.5 -71.5q-3 -12 -6.5 -28t-5.5 -32t-3.5 -29.5t-1.5 -19.5q0 -19 8 -33t34 -14q11 0 20.5 5.5t16.5 12.5q9 9 17.5 28t15.5 43.5t11.5 51t5.5 49.5q1 22 -6 41.5t-32 19.5zM248 700q18 0 34.5 -7t32 -14.5t29 -14t24.5 -6.5q15 0 29.5 7.5t39.5 33.5
l62 -37q-30 -59 -62.5 -81t-67.5 -22q-19 0 -35.5 6.5t-31.5 14t-28.5 14t-26.5 6.5q-14 0 -30.5 -8.5t-41.5 -34.5l-60 41q34 59 66.5 80.5t66.5 21.5z" />
    <glyph glyph-name="odieresis" unicode="&#xf6;" horiz-adv-x="459" 
d="M276 501q46 0 78 -13.5t52 -36.5t29.5 -53.5t9.5 -63.5q0 -31 -4.5 -63.5t-10.5 -60.5q-11 -48 -28 -88t-44 -68.5t-65.5 -44t-92.5 -15.5q-51 0 -83.5 15t-51 40t-25 57.5t-6.5 67.5q0 22 3.5 55.5t11.5 63.5q14 57 38.5 101.5t63.5 71.5q52 35 125 35zM264 374
q-27 0 -43.5 -23.5t-30.5 -71.5q-3 -12 -6.5 -28t-5.5 -32t-3.5 -29.5t-1.5 -19.5q0 -19 8 -33t34 -14q11 0 20.5 5.5t16.5 12.5q9 9 17.5 28t15.5 43.5t11.5 51t5.5 49.5q1 22 -6 41.5t-32 19.5zM320 559l25 130h133l-25 -130h-133zM126 559l25 130h132l-25 -130h-132z" />
    <glyph glyph-name="divide" unicode="&#xf7;" horiz-adv-x="490" 
d="M284 406q-29 0 -48 18.5t-19 45.5q0 19 8.5 36t22 30t31.5 20.5t36 7.5q30 0 49 -18t19 -47q0 -18 -8.5 -35t-22.5 -29.5t-31.5 -20.5t-36.5 -8zM24 239l22 111h452l-22 -111h-452zM209 21q-29 0 -48 18.5t-19 46.5q0 18 8.5 35t22 30t31 21t36.5 8q30 0 49 -18.5
t19 -46.5q0 -19 -8.5 -36t-22.5 -30t-31.5 -20.5t-36.5 -7.5z" />
    <glyph glyph-name="oslash" unicode="&#xf8;" horiz-adv-x="459" 
d="M276 501q35 0 62.5 -8.5t47.5 -23.5q10 14 20 26.5t21 26.5l26 -21l-43 -55q18 -23 26.5 -51.5t8.5 -60.5q0 -31 -4.5 -63.5t-10.5 -60.5q-11 -48 -28 -88t-44 -68.5t-65.5 -44t-92.5 -15.5q-39 0 -66.5 8.5t-46.5 23.5l-33 -44l-27 21l18 24t19 24q-17 25 -23.5 56.5
t-6.5 66.5q0 22 3.5 55.5t11.5 63.5q14 57 38.5 101.5t63.5 71.5q52 35 125 35zM252 141q8 8 16 26t15 41t11.5 48t6.5 48l-124 -161q5 -9 13.5 -14.5t24.5 -5.5q11 0 20.5 5.5t16.5 12.5zM264 374q-27 0 -43.5 -23.5t-30.5 -71.5q-5 -17 -9 -40.5t-6 -43.5l121 158
q-4 9 -11.5 15t-20.5 6z" />
    <glyph glyph-name="ugrave" unicode="&#xf9;" horiz-adv-x="477" 
d="M244 496l-61 -314q-5 -26 5.5 -41t31.5 -15q22 0 40.5 16.5t23.5 44.5l59 309h139l-96 -496h-139l11 46h-3q-20 -23 -51 -37t-56 -14q-35 0 -59 11.5t-37.5 32t-16.5 48.5t3 62l67 347h139zM288 537l-152 191l111 48l109 -200z" />
    <glyph glyph-name="uacute" unicode="&#xfa;" horiz-adv-x="477" 
d="M244 496l-61 -314q-5 -26 5.5 -41t31.5 -15q22 0 40.5 16.5t23.5 44.5l59 309h139l-96 -496h-139l11 46h-3q-20 -23 -51 -37t-56 -14q-35 0 -59 11.5t-37.5 32t-16.5 48.5t3 62l67 347h139zM244 570l130 195l111 -48l-171 -183z" />
    <glyph glyph-name="ucircumflex" unicode="&#xfb;" horiz-adv-x="477" 
d="M244 496l-61 -314q-5 -26 5.5 -41t31.5 -15q22 0 40.5 16.5t23.5 44.5l59 309h139l-96 -496h-139l11 46h-3q-20 -23 -51 -37t-56 -14q-35 0 -59 11.5t-37.5 32t-16.5 48.5t3 62l67 347h139zM314 625l-155 -104l-44 47l171 157h91l110 -162l-61 -41z" />
    <glyph glyph-name="udieresis" unicode="&#xfc;" horiz-adv-x="477" 
d="M244 496l-61 -314q-5 -26 5.5 -41t31.5 -15q22 0 40.5 16.5t23.5 44.5l59 309h139l-96 -496h-139l11 46h-3q-20 -23 -51 -37t-56 -14q-35 0 -59 11.5t-37.5 32t-16.5 48.5t3 62l67 347h139zM330 558l25 130h133l-25 -130h-133zM136 558l25 130h132l-25 -130h-132z" />
    <glyph glyph-name="yacute" unicode="&#xfd;" horiz-adv-x="428" 
d="M197 179q32 62 61.5 143.5t55.5 171.5h148q-65 -168 -131 -308.5t-138 -254.5q-42 -67 -105 -104t-140 -32l-1 115q51 5 87.5 30t65.5 82l-59 472h146q4 -52 6.5 -85t3.5 -54t1.5 -34t0.5 -26q0 -27 -1.5 -58t-4.5 -58h4zM209 570l130 195l111 -48l-171 -183z" />
    <glyph glyph-name="thorn" unicode="&#xfe;" horiz-adv-x="467" 
d="M-30 -198q11 58 25.5 130.5t30 152.5t32.5 164t32.5 164t30 152.5t25.5 130.5h138l-50 -236l3 -2q22 23 45 32.5t49 9.5q40 0 63.5 -13.5t36 -35.5t16.5 -50.5t4 -58.5q0 -13 -1.5 -29.5t-4 -33.5t-5 -33t-5.5 -27q-9 -42 -23 -82t-36.5 -72t-56.5 -51.5t-83 -19.5
q-19 0 -43 9.5t-37 27.5h-4l-44 -229h-138zM220 125q18 0 30.5 11.5t20.5 29t13.5 38t9.5 39.5q11 49 11 84q0 18 -8.5 29.5t-28.5 11.5q-17 0 -30 -10.5t-21 -28.5q-8 -16 -12.5 -34.5t-9.5 -38.5q-11 -50 -11 -82q0 -18 7 -33.5t29 -15.5z" />
    <glyph glyph-name="ydieresis" unicode="&#xff;" horiz-adv-x="428" 
d="M197 179q32 62 61.5 143.5t55.5 171.5h148q-65 -168 -131 -308.5t-138 -254.5q-42 -67 -105 -104t-140 -32l-1 115q51 5 87.5 30t65.5 82l-59 472h146q4 -52 6.5 -85t3.5 -54t1.5 -34t0.5 -26q0 -27 -1.5 -58t-4.5 -58h4zM291 558l25 130h133l-25 -130h-133zM97 558
l25 130h132l-25 -130h-132z" />
    <glyph glyph-name="Amacron" unicode="&#x100;" horiz-adv-x="548" 
d="M350 0l-4 143h-164l-65 -143h-154l334 696h143l63 -696h-153zM337 370v139h-5l-54 -138l-39 -100h99zM231 752l23 114h292l-22 -114h-293z" />
    <glyph glyph-name="amacron" unicode="&#x101;" horiz-adv-x="462" 
d="M238 0l8 39h-4q-18 -21 -45.5 -33t-47.5 -12q-37 0 -60.5 11.5t-36.5 31t-17.5 45t-4.5 53.5q0 36 5.5 76t13.5 73q12 49 28 88.5t39 68t54.5 44t73.5 15.5q23 0 43 -9t36 -33q1 0 1.5 0.5t1.5 0.5l8 35h138l-96 -494h-138zM161 572l22 114h292l-22 -114h-292zM214 122
q18 0 30.5 12.5t20.5 32.5q6 14 11.5 36t9.5 44.5t6.5 41t2.5 25.5q0 18 -7 35t-30 17q-37 0 -54 -43q-6 -15 -11.5 -35.5t-10.5 -43.5q-4 -18 -6.5 -37t-3.5 -37q0 -20 8 -34t34 -14z" />
    <glyph glyph-name="Abreve" unicode="&#x102;" horiz-adv-x="548" 
d="M350 0l-4 143h-164l-65 -143h-154l334 696h143l63 -696h-153zM337 370v139h-5l-54 -138l-39 -100h99zM372 728q-44 0 -71.5 17t-42.5 42.5t-19 55t0 54.5h102q-2 -11 -0.5 -23.5t7 -23.5t15 -18.5t23.5 -7.5q15 0 27.5 7.5t22 18.5t15.5 23.5t9 23.5h103
q-7 -29 -21 -58.5t-36.5 -54.5t-55.5 -40.5t-78 -15.5z" />
    <glyph glyph-name="abreve" unicode="&#x103;" horiz-adv-x="462" 
d="M238 0l8 39h-4q-18 -21 -45.5 -33t-47.5 -12q-37 0 -60.5 11.5t-36.5 31t-17.5 45t-4.5 53.5q0 36 5.5 76t13.5 73q12 49 28 88.5t39 68t54.5 44t73.5 15.5q23 0 43 -9t36 -33q1 0 1.5 0.5t1.5 0.5l8 35h138l-96 -494h-138zM308 542q-44 0 -71.5 17t-42.5 42.5t-19 55
t0 54.5h103q-2 -11 -0.5 -23.5t7 -23.5t15 -18t23.5 -7q15 0 27 7t21.5 18t16 23.5t8.5 23.5h104q-6 -28 -20 -58t-37 -54.5t-56.5 -40.5t-78.5 -16zM214 122q18 0 30.5 12.5t20.5 32.5q6 14 11.5 36t9.5 44.5t6.5 41t2.5 25.5q0 18 -7 35t-30 17q-37 0 -54 -43
q-6 -15 -11.5 -35.5t-10.5 -43.5q-4 -18 -6.5 -37t-3.5 -37q0 -20 8 -34t34 -14z" />
    <glyph glyph-name="Aogonek" unicode="&#x104;" horiz-adv-x="548" 
d="M290 -120q2 23 16.5 52.5t46.5 67.5h-3l-4 143h-164l-65 -143h-154l334 696h143l63 -696h-67q-35 -40 -45 -66t-12 -34q-2 -15 7 -22.5t25 -7.5q9 0 24 3t36 13l14 -66q-28 -16 -56 -22t-53 -6q-43 0 -67 24.5t-19 63.5zM337 370v139h-5l-54 -138l-39 -100h99z" />
    <glyph glyph-name="aogonek" unicode="&#x105;" horiz-adv-x="462" 
d="M172 -120q2 23 17 54t49 69l8 36h-4q-18 -21 -45.5 -33t-47.5 -12q-37 0 -60.5 11.5t-36.5 31t-17.5 45t-4.5 53.5q0 36 5.5 76t13.5 73q12 49 28 88.5t39 68t54.5 44t73.5 15.5q23 0 43 -9t36 -33q1 0 1.5 0.5t1.5 0.5l8 35h138l-96 -494h-58q-35 -40 -45 -66t-12 -34
q-2 -15 7 -22.5t25 -7.5q9 0 24 3t36 13l14 -66q-28 -16 -56 -22t-53 -6q-43 0 -67 24.5t-19 63.5zM214 122q18 0 30.5 12.5t20.5 32.5q6 14 11.5 36t9.5 44.5t6.5 41t2.5 25.5q0 18 -7 35t-30 17q-37 0 -54 -43q-6 -15 -11.5 -35.5t-10.5 -43.5q-4 -18 -6.5 -37t-3.5 -37
q0 -20 8 -34t34 -14z" />
    <glyph glyph-name="Cacute" unicode="&#x106;" horiz-adv-x="514" 
d="M342 701q45 0 81.5 -13.5t63 -37t41.5 -56t18 -70.5l-138 -39q-2 15 -7.5 29t-14.5 25t-22.5 18t-30.5 7q-25 0 -41.5 -10.5t-27 -28.5t-17.5 -41t-12 -47l-45 -228q-3 -15 -2.5 -29.5t7.5 -25t20.5 -17t37.5 -6.5q34 0 58 20.5t36 57.5q35 -9 69.5 -18t69.5 -19
q-11 -36 -31 -68.5t-49.5 -57t-68.5 -38.5t-89 -14q-68 0 -110.5 20t-65 54t-26.5 79.5t6 95.5l37 189q10 52 27 100.5t46 86t72.5 60t107.5 22.5zM296 784l194 135l78 -91l-224 -106z" />
    <glyph glyph-name="cacute" unicode="&#x107;" horiz-adv-x="411" 
d="M193 -5q-46 0 -77 14t-50.5 38.5t-28 57.5t-8.5 70q0 59 13 117t41.5 104.5t74.5 75.5t112 29q62 0 104 -29.5t50 -86.5l-118 -56q-6 24 -18 34.5t-26 10.5q-20 0 -34 -9.5t-24 -26t-16 -38.5t-11 -47q-8 -39 -9 -69q0 -26 8.5 -43.5t38.5 -17.5q15 0 30 9.5t31 33.5
l103 -57q-31 -55 -77 -84.5t-109 -29.5zM227 570l130 195l111 -48l-171 -183z" />
    <glyph glyph-name="Ccircumflex" unicode="&#x108;" horiz-adv-x="514" 
d="M342 701q45 0 81.5 -13.5t63 -37t41.5 -56t18 -70.5l-138 -39q-2 15 -7.5 29t-14.5 25t-22.5 18t-30.5 7q-25 0 -41.5 -10.5t-27 -28.5t-17.5 -41t-12 -47l-45 -228q-3 -15 -2.5 -29.5t7.5 -25t20.5 -17t37.5 -6.5q34 0 58 20.5t36 57.5q35 -9 69.5 -18t69.5 -19
q-11 -36 -31 -68.5t-49.5 -57t-68.5 -38.5t-89 -14q-68 0 -110.5 20t-65 54t-26.5 79.5t6 95.5l37 189q10 52 27 100.5t46 86t72.5 60t107.5 22.5zM383 807l-153 -81l-42 52l167 132h89l114 -131l-59 -54z" />
    <glyph glyph-name="ccircumflex" unicode="&#x109;" horiz-adv-x="411" 
d="M193 -5q-46 0 -77 14t-50.5 38.5t-28 57.5t-8.5 70q0 59 13 117t41.5 104.5t74.5 75.5t112 29q62 0 104 -29.5t50 -86.5l-118 -56q-6 24 -18 34.5t-26 10.5q-20 0 -34 -9.5t-24 -26t-16 -38.5t-11 -47q-8 -39 -9 -69q0 -26 8.5 -43.5t38.5 -17.5q15 0 30 9.5t31 33.5
l103 -57q-31 -55 -77 -84.5t-109 -29.5zM303 625l-155 -104l-44 47l171 157h91l110 -162l-61 -41z" />
    <glyph glyph-name="Cdotaccent" unicode="&#x10a;" horiz-adv-x="514" 
d="M342 701q45 0 81.5 -13.5t63 -37t41.5 -56t18 -70.5l-138 -39q-2 15 -7.5 29t-14.5 25t-22.5 18t-30.5 7q-25 0 -41.5 -10.5t-27 -28.5t-17.5 -41t-12 -47l-45 -228q-3 -15 -2.5 -29.5t7.5 -25t20.5 -17t37.5 -6.5q34 0 58 20.5t36 57.5q35 -9 69.5 -18t69.5 -19
q-11 -36 -31 -68.5t-49.5 -57t-68.5 -38.5t-89 -14q-68 0 -110.5 20t-65 54t-26.5 79.5t6 95.5l37 189q10 52 27 100.5t46 86t72.5 60t107.5 22.5zM296 742l25 130h133l-25 -130h-133z" />
    <glyph glyph-name="cdotaccent" unicode="&#x10b;" horiz-adv-x="411" 
d="M193 -5q-46 0 -77 14t-50.5 38.5t-28 57.5t-8.5 70q0 59 13 117t41.5 104.5t74.5 75.5t112 29q62 0 104 -29.5t50 -86.5l-118 -56q-6 24 -18 34.5t-26 10.5q-20 0 -34 -9.5t-24 -26t-16 -38.5t-11 -47q-8 -39 -9 -69q0 -26 8.5 -43.5t38.5 -17.5q15 0 30 9.5t31 33.5
l103 -57q-31 -55 -77 -84.5t-109 -29.5zM212 557l25 130h133l-25 -130h-133z" />
    <glyph glyph-name="Ccaron" unicode="&#x10c;" horiz-adv-x="514" 
d="M342 701q45 0 81.5 -13.5t63 -37t41.5 -56t18 -70.5l-138 -39q-2 15 -7.5 29t-14.5 25t-22.5 18t-30.5 7q-25 0 -41.5 -10.5t-27 -28.5t-17.5 -41t-12 -47l-45 -228q-3 -15 -2.5 -29.5t7.5 -25t20.5 -17t37.5 -6.5q34 0 58 20.5t36 57.5q35 -9 69.5 -18t69.5 -19
q-11 -36 -31 -68.5t-49.5 -57t-68.5 -38.5t-89 -14q-68 0 -110.5 20t-65 54t-26.5 79.5t6 95.5l37 189q10 52 27 100.5t46 86t72.5 60t107.5 22.5zM533 912l43 -53l-168 -132h-89l-113 131l58 53l117 -82z" />
    <glyph glyph-name="ccaron" unicode="&#x10d;" horiz-adv-x="411" 
d="M193 -5q-46 0 -77 14t-50.5 38.5t-28 57.5t-8.5 70q0 59 13 117t41.5 104.5t74.5 75.5t112 29q62 0 104 -29.5t50 -86.5l-118 -56q-6 24 -18 34.5t-26 10.5q-20 0 -34 -9.5t-24 -26t-16 -38.5t-11 -47q-8 -39 -9 -69q0 -26 8.5 -43.5t38.5 -17.5q15 0 30 9.5t31 33.5
l103 -57q-31 -55 -77 -84.5t-109 -29.5zM450 732l45 -48l-169 -157h-91l-110 157l62 48q8 -6 23.5 -20t32 -29.5t31.5 -29.5t23 -20z" />
    <glyph glyph-name="Dcaron" unicode="&#x10e;" horiz-adv-x="552" 
d="M402 433q6 30 7 54t-6.5 40.5t-24 25t-44.5 8.5h-60l-83 -427h61q55 0 78.5 28t33.5 77zM380 696q66 0 113.5 -26t58.5 -86q7 -35 2 -86.5t-16 -114.5q-17 -96 -30.5 -159t-36.5 -104q-20 -35 -45 -58t-54.5 -36.5t-62 -19.5t-66.5 -6h-222l135 696h224zM510 912l43 -53
l-168 -132h-89l-113 131l58 53l117 -82z" />
    <glyph glyph-name="dcaron" unicode="&#x10f;" horiz-adv-x="586" 
d="M246 501q19 0 43 -9.5t37 -27.5h4l51 262h137l-139 -726h-138l7 35l-3 2q-22 -23 -45 -32.5t-49 -9.5q-40 0 -63.5 13.5t-36 35.5t-16.5 50.5t-4 58.5q0 13 1.5 29.5t4 33.5t5 33t5.5 27q9 42 23 82t36.5 72t56 51.5t83.5 19.5zM523 488l53 108h-29l25 131h136l-25 -126
l-93 -113h-67zM262 370q-18 0 -30.5 -11.5t-20.5 -29t-13.5 -38t-9.5 -39.5q-11 -49 -11 -84q0 -18 8.5 -29.5t28.5 -11.5q17 0 30 10.5t21 28.5q8 16 12.5 34.5t9.5 38.5q11 50 11 82q0 18 -7 33.5t-29 15.5z" />
    <glyph glyph-name="Dcroat" unicode="&#x110;" horiz-adv-x="552" 
d="M380 696q66 0 113.5 -26t58.5 -86q7 -35 2 -86.5t-16 -114.5q-17 -96 -30.5 -159t-36.5 -104q-20 -35 -45 -58t-54.5 -36.5t-62 -19.5t-66.5 -6h-222l56 292h-57l18 96h58l60 308h224zM402 433q6 30 7 54t-6.5 40.5t-24 25t-44.5 8.5h-60l-34 -173h63l-19 -96h-63
l-30 -158h61q55 0 78.5 28t33.5 77z" />
    <glyph glyph-name="dcroat" unicode="&#x111;" horiz-adv-x="462" 
d="M246 501q19 0 43 -9.5t37 -27.5h4q4 22 8.5 43.5t8.5 44.5h-121l17 87h121q4 22 8 43.5t9 43.5h137l-17 -87h51l-17 -87h-50q-27 -139 -53.5 -276t-52.5 -276h-138l7 35l-3 2q-22 -23 -45 -32.5t-49 -9.5q-40 0 -63.5 13.5t-36 35.5t-16.5 50.5t-4 58.5q0 13 1.5 29.5
t4 33.5t5 33t5.5 27q9 42 23 82t36.5 72t56 51.5t83.5 19.5zM262 370q-18 0 -30.5 -11.5t-20.5 -29t-13.5 -38t-9.5 -39.5q-11 -49 -11 -84q0 -18 8.5 -29.5t28.5 -11.5q17 0 30 10.5t21 28.5q8 16 12.5 34.5t9.5 38.5q11 50 11 82q0 18 -7 33.5t-29 15.5z" />
    <glyph glyph-name="Emacron" unicode="&#x112;" horiz-adv-x="484" 
d="M20 0l135 696h401l-26 -134h-257l-29 -144h222l-26 -133h-222l-28 -151h257l-26 -134h-401zM211 752l23 114h292l-22 -114h-293z" />
    <glyph glyph-name="emacron" unicode="&#x113;" horiz-adv-x="457" 
d="M260 375q-23 0 -39.5 -19.5t-25.5 -52.5q7 -2 14.5 -1t13.5 1q42 2 57 15t15 31q0 11 -8 18.5t-27 7.5zM196 -5q-81 0 -123.5 41.5t-42.5 125.5q0 56 11.5 116.5t38.5 110t72 81.5t113 32q44 0 76.5 -10.5t53.5 -28t31 -41.5t10 -51q0 -50 -19.5 -83.5t-52 -54t-73 -29
t-82.5 -8.5h-17t-17 1q-2 -9 -3 -19t-1 -16q1 -19 13.5 -29t28.5 -10q21 0 40.5 9.5t40.5 34.5l106 -67q-37 -56 -90.5 -80.5t-113.5 -24.5zM157 572l22 114h292l-22 -114h-292z" />
    <glyph glyph-name="Ebreve" unicode="&#x114;" horiz-adv-x="484" 
d="M20 0l135 696h401l-26 -134h-257l-29 -144h222l-26 -133h-222l-28 -151h257l-26 -134h-401zM355 726q-44 0 -71.5 17t-42.5 42.5t-19 55t0 54.5h102q-2 -11 -0.5 -23.5t7 -23.5t15 -18.5t23.5 -7.5q15 0 27.5 7.5t22 18.5t15.5 23.5t9 23.5h103q-7 -29 -21 -58.5
t-36.5 -54.5t-55.5 -40.5t-78 -15.5z" />
    <glyph glyph-name="ebreve" unicode="&#x115;" horiz-adv-x="457" 
d="M260 375q-23 0 -39.5 -19.5t-25.5 -52.5q7 -2 14.5 -1t13.5 1q42 2 57 15t15 31q0 11 -8 18.5t-27 7.5zM196 -5q-81 0 -123.5 41.5t-42.5 125.5q0 56 11.5 116.5t38.5 110t72 81.5t113 32q44 0 76.5 -10.5t53.5 -28t31 -41.5t10 -51q0 -50 -19.5 -83.5t-52 -54t-73 -29
t-82.5 -8.5h-17t-17 1q-2 -9 -3 -19t-1 -16q1 -19 13.5 -29t28.5 -10q21 0 40.5 9.5t40.5 34.5l106 -67q-37 -56 -90.5 -80.5t-113.5 -24.5zM285 542q-44 0 -71.5 17t-42.5 42.5t-19 55t0 54.5h103q-2 -11 -0.5 -23.5t7 -23.5t15 -18t23.5 -7q15 0 27 7t21.5 18t16 23.5
t8.5 23.5h104q-6 -28 -20 -58t-37 -54.5t-56.5 -40.5t-78.5 -16z" />
    <glyph glyph-name="Edotaccent" unicode="&#x116;" horiz-adv-x="484" 
d="M20 0l135 696h401l-26 -134h-257l-29 -144h222l-26 -133h-222l-28 -151h257l-26 -134h-401zM293 737l25 130h133l-25 -130h-133z" />
    <glyph glyph-name="edotaccent" unicode="&#x117;" horiz-adv-x="457" 
d="M260 375q-23 0 -39.5 -19.5t-25.5 -52.5q7 -2 14.5 -1t13.5 1q42 2 57 15t15 31q0 11 -8 18.5t-27 7.5zM196 -5q-81 0 -123.5 41.5t-42.5 125.5q0 56 11.5 116.5t38.5 110t72 81.5t113 32q44 0 76.5 -10.5t53.5 -28t31 -41.5t10 -51q0 -50 -19.5 -83.5t-52 -54t-73 -29
t-82.5 -8.5h-17t-17 1q-2 -9 -3 -19t-1 -16q1 -19 13.5 -29t28.5 -10q21 0 40.5 9.5t40.5 34.5l106 -67q-37 -56 -90.5 -80.5t-113.5 -24.5zM221 559l25 130h133l-25 -130h-133z" />
    <glyph glyph-name="Eogonek" unicode="&#x118;" horiz-adv-x="484" 
d="M273 -120q2 23 16.5 52.5t46.5 67.5h-316l135 696h401l-26 -134h-257l-29 -144h222l-26 -133h-222l-28 -151h257l-26 -134h-2q-35 -40 -45 -66t-12 -34q-2 -15 7 -22.5t25 -7.5q9 0 24 3t36 13l14 -66q-28 -16 -56 -22t-53 -6q-43 0 -67 24.5t-19 63.5z" />
    <glyph glyph-name="eogonek" unicode="&#x119;" horiz-adv-x="457" 
d="M189 -85q2 35 33 81q-6 -1 -12.5 -1h-13.5q-81 0 -123.5 41.5t-42.5 125.5q0 56 11.5 116.5t38.5 110t72 81.5t113 32q44 0 76.5 -10.5t53.5 -28t31 -41.5t10 -51q0 -50 -19.5 -83.5t-52 -54t-73 -29t-82.5 -8.5h-17t-17 1q-2 -9 -3 -19t-1 -16q1 -19 13.5 -29t28.5 -10
q21 0 40.5 9.5t40.5 34.5l106 -67q-28 -41 -66 -67q-34 -38 -44 -64t-12 -34q-2 -15 7 -22.5t25 -7.5q9 0 24 3t36 13l14 -66q-28 -16 -56 -22t-53 -6q-43 0 -67 24.5t-19 63.5zM260 375q-23 0 -39.5 -19.5t-25.5 -52.5q7 -2 14.5 -1t13.5 1q42 2 57 15t15 31q0 11 -8 18.5
t-27 7.5z" />
    <glyph glyph-name="Ecaron" unicode="&#x11a;" horiz-adv-x="484" 
d="M20 0l135 696h401l-26 -134h-257l-29 -144h222l-26 -133h-222l-28 -151h257l-26 -134h-401zM519 912l43 -53l-168 -132h-89l-113 131l58 53l117 -82z" />
    <glyph glyph-name="ecaron" unicode="&#x11b;" horiz-adv-x="457" 
d="M260 375q-23 0 -39.5 -19.5t-25.5 -52.5q7 -2 14.5 -1t13.5 1q42 2 57 15t15 31q0 11 -8 18.5t-27 7.5zM196 -5q-81 0 -123.5 41.5t-42.5 125.5q0 56 11.5 116.5t38.5 110t72 81.5t113 32q44 0 76.5 -10.5t53.5 -28t31 -41.5t10 -51q0 -50 -19.5 -83.5t-52 -54t-73 -29
t-82.5 -8.5h-17t-17 1q-2 -9 -3 -19t-1 -16q1 -19 13.5 -29t28.5 -10q21 0 40.5 9.5t40.5 34.5l106 -67q-37 -56 -90.5 -80.5t-113.5 -24.5zM455 732l45 -48l-169 -157h-91l-110 157l62 48q8 -6 23.5 -20t32 -29.5t31.5 -29.5t23 -20z" />
    <glyph glyph-name="Gcircumflex" unicode="&#x11c;" horiz-adv-x="533" 
d="M241 -6q-65 0 -105.5 20t-62 54t-25.5 77t5 90l38 197q10 52 27 100.5t46 86t72.5 60t107.5 22.5q45 0 81.5 -13.5t63 -37t41.5 -56t18 -70.5l-138 -39q-2 15 -7.5 29t-14.5 25t-22.5 18t-30.5 7q-25 0 -41.5 -10.5t-27 -28.5t-17.5 -41t-12 -47l-45 -228
q-3 -15 -2.5 -29.5t7.5 -25t20.5 -17t37.5 -6.5q22 0 39 9.5t29.5 24.5t20.5 33.5t12 37.5l6 28h-93l24 123h237l-29 -159q-11 -52 -32 -95t-53 -74t-75.5 -48t-99.5 -17zM379 807l-153 -81l-42 52l167 132h89l114 -131l-59 -54z" />
    <glyph glyph-name="gcircumflex" unicode="&#x11d;" horiz-adv-x="462" 
d="M243 34h-4q-22 -20 -46.5 -29t-48.5 -9q-36 0 -59 11.5t-35.5 31.5t-17.5 45.5t-5 54.5q2 35 7.5 74.5t16.5 81.5q12 48 28 86t38 64.5t51.5 40.5t68.5 14q19 0 45 -8t40 -33q1 1 1.5 0.5t1.5 0.5l8 35h139l-92 -490q-9 -46 -24 -84.5t-40 -66t-62.5 -43t-89.5 -15.5
q-60 0 -103.5 26t-65.5 68l102 74q27 -39 68 -39q31 0 45 15t19 36zM211 124q14 0 26.5 9.5t22.5 33.5q7 16 13 37t10.5 42t7.5 40t3 33q0 6 -1 14.5t-4.5 16.5t-11 13.5t-20.5 5.5q-12 0 -21 -5.5t-16 -12.5q-9 -10 -16.5 -30t-13.5 -44t-10.5 -48t-5.5 -41
q-1 -11 -1 -22.5t3 -20.5t11.5 -15t23.5 -6zM317 625l-155 -104l-44 47l171 157h91l110 -162l-61 -41z" />
    <glyph glyph-name="Gbreve" unicode="&#x11e;" horiz-adv-x="533" 
d="M241 -6q-65 0 -105.5 20t-62 54t-25.5 77t5 90l38 197q10 52 27 100.5t46 86t72.5 60t107.5 22.5q45 0 81.5 -13.5t63 -37t41.5 -56t18 -70.5l-138 -39q-2 15 -7.5 29t-14.5 25t-22.5 18t-30.5 7q-25 0 -41.5 -10.5t-27 -28.5t-17.5 -41t-12 -47l-45 -228
q-3 -15 -2.5 -29.5t7.5 -25t20.5 -17t37.5 -6.5q22 0 39 9.5t29.5 24.5t20.5 33.5t12 37.5l6 28h-93l24 123h237l-29 -159q-11 -52 -32 -95t-53 -74t-75.5 -48t-99.5 -17zM369 728q-44 0 -71.5 17t-42.5 42.5t-19 55t0 54.5h102q-2 -11 -0.5 -23.5t7 -23.5t15 -18.5
t23.5 -7.5q15 0 27.5 7.5t22 18.5t15.5 23.5t9 23.5h103q-7 -29 -21 -58.5t-36.5 -54.5t-55.5 -40.5t-78 -15.5z" />
    <glyph glyph-name="gbreve" unicode="&#x11f;" horiz-adv-x="462" 
d="M243 34h-4q-22 -20 -46.5 -29t-48.5 -9q-36 0 -59 11.5t-35.5 31.5t-17.5 45.5t-5 54.5q2 35 7.5 74.5t16.5 81.5q12 48 28 86t38 64.5t51.5 40.5t68.5 14q19 0 45 -8t40 -33q1 1 1.5 0.5t1.5 0.5l8 35h139l-92 -490q-9 -46 -24 -84.5t-40 -66t-62.5 -43t-89.5 -15.5
q-60 0 -103.5 26t-65.5 68l102 74q27 -39 68 -39q31 0 45 15t19 36zM211 124q14 0 26.5 9.5t22.5 33.5q7 16 13 37t10.5 42t7.5 40t3 33q0 6 -1 14.5t-4.5 16.5t-11 13.5t-20.5 5.5q-12 0 -21 -5.5t-16 -12.5q-9 -10 -16.5 -30t-13.5 -44t-10.5 -48t-5.5 -41
q-1 -11 -1 -22.5t3 -20.5t11.5 -15t23.5 -6zM295 542q-44 0 -71.5 17t-42.5 42.5t-19 55t0 54.5h103q-2 -11 -0.5 -23.5t7 -23.5t15 -18t23.5 -7q15 0 27 7t21.5 18t16 23.5t8.5 23.5h104q-6 -28 -20 -58t-37 -54.5t-56.5 -40.5t-78.5 -16z" />
    <glyph glyph-name="Gdotaccent" unicode="&#x120;" horiz-adv-x="533" 
d="M241 -6q-65 0 -105.5 20t-62 54t-25.5 77t5 90l38 197q10 52 27 100.5t46 86t72.5 60t107.5 22.5q45 0 81.5 -13.5t63 -37t41.5 -56t18 -70.5l-138 -39q-2 15 -7.5 29t-14.5 25t-22.5 18t-30.5 7q-25 0 -41.5 -10.5t-27 -28.5t-17.5 -41t-12 -47l-45 -228
q-3 -15 -2.5 -29.5t7.5 -25t20.5 -17t37.5 -6.5q22 0 39 9.5t29.5 24.5t20.5 33.5t12 37.5l6 28h-93l24 123h237l-29 -159q-11 -52 -32 -95t-53 -74t-75.5 -48t-99.5 -17zM298 737l25 130h133l-25 -130h-133z" />
    <glyph glyph-name="gdotaccent" unicode="&#x121;" horiz-adv-x="462" 
d="M243 34h-4q-22 -20 -46.5 -29t-48.5 -9q-36 0 -59 11.5t-35.5 31.5t-17.5 45.5t-5 54.5q2 35 7.5 74.5t16.5 81.5q12 48 28 86t38 64.5t51.5 40.5t68.5 14q19 0 45 -8t40 -33q1 1 1.5 0.5t1.5 0.5l8 35h139l-92 -490q-9 -46 -24 -84.5t-40 -66t-62.5 -43t-89.5 -15.5
q-60 0 -103.5 26t-65.5 68l102 74q27 -39 68 -39q31 0 45 15t19 36zM211 124q14 0 26.5 9.5t22.5 33.5q7 16 13 37t10.5 42t7.5 40t3 33q0 6 -1 14.5t-4.5 16.5t-11 13.5t-20.5 5.5q-12 0 -21 -5.5t-16 -12.5q-9 -10 -16.5 -30t-13.5 -44t-10.5 -48t-5.5 -41
q-1 -11 -1 -22.5t3 -20.5t11.5 -15t23.5 -6zM238 557l25 130h133l-25 -130h-133z" />
    <glyph glyph-name="Gcommaaccent" unicode="&#x122;" horiz-adv-x="533" 
d="M241 -6q-65 0 -105.5 20t-62 54t-25.5 77t5 90l38 197q10 52 27 100.5t46 86t72.5 60t107.5 22.5q45 0 81.5 -13.5t63 -37t41.5 -56t18 -70.5l-138 -39q-2 15 -7.5 29t-14.5 25t-22.5 18t-30.5 7q-25 0 -41.5 -10.5t-27 -28.5t-17.5 -41t-12 -47l-45 -228
q-3 -15 -2.5 -29.5t7.5 -25t20.5 -17t37.5 -6.5q22 0 39 9.5t29.5 24.5t20.5 33.5t12 37.5l6 28h-93l24 123h237l-29 -159q-11 -52 -32 -95t-53 -74t-75.5 -48t-99.5 -17zM109 -295l53 108h-29l25 131h136l-25 -126l-93 -113h-67z" />
    <glyph glyph-name="gcommaaccent" unicode="&#x123;" horiz-adv-x="462" 
d="M243 34h-4q-22 -20 -46.5 -29t-48.5 -9q-36 0 -59 11.5t-35.5 31.5t-17.5 45.5t-5 54.5q2 35 7.5 74.5t16.5 81.5q12 48 28 86t38 64.5t51.5 40.5t68.5 14q19 0 45 -8t40 -33q1 1 1.5 0.5t1.5 0.5l8 35h139l-92 -490q-9 -46 -24 -84.5t-40 -66t-62.5 -43t-89.5 -15.5
q-60 0 -103.5 26t-65.5 68l102 74q27 -39 68 -39q31 0 45 15t19 36zM347 812h66l-52 -107h28q-6 -33 -12.5 -66t-13.5 -65h-135l25 126zM211 124q14 0 26.5 9.5t22.5 33.5q7 16 13 37t10.5 42t7.5 40t3 33q0 6 -1 14.5t-4.5 16.5t-11 13.5t-20.5 5.5q-12 0 -21 -5.5
t-16 -12.5q-9 -10 -16.5 -30t-13.5 -44t-10.5 -48t-5.5 -41q-1 -11 -1 -22.5t3 -20.5t11.5 -15t23.5 -6z" />
    <glyph glyph-name="Hcircumflex" unicode="&#x124;" horiz-adv-x="560" 
d="M318 0l56 286h-156l-55 -286h-143l135 696h143l-54 -278h156l54 278h142l-135 -696h-143zM406 807l-153 -81l-42 52l167 132h89l114 -131l-59 -54z" />
    <glyph glyph-name="hcircumflex" unicode="&#x125;" horiz-adv-x="476" 
d="M248 -1l61 314q5 26 -4.5 41t-33.5 15q-23 0 -40.5 -16.5t-23.5 -44.5l-59 -309h-138l142 728h139l-55 -273l4 -1q20 21 49 34t55 13q37 0 61.5 -11.5t37 -32t15 -48.5t-4.5 -62l-66 -347h-139zM243 807l-153 -81l-42 52l167 132h89l114 -131l-59 -54z" />
    <glyph glyph-name="Hbar" unicode="&#x126;" horiz-adv-x="560" 
d="M318 0l56 286h-156l-55 -286h-143l98 508h-50l17 87h50l20 101h143l-20 -101h156l20 101h142l-20 -101h44l-16 -87h-45l-98 -508h-143zM400 418l17 90h-156l-17 -90h156z" />
    <glyph glyph-name="hbar" unicode="&#x127;" horiz-adv-x="477" 
d="M248 -1l61 314q5 26 -4.5 41t-33.5 15q-23 0 -40.5 -16.5t-23.5 -44.5l-59 -309h-138l109 559h-55l16 85h55l17 84h139l-17 -84h137l-16 -85h-138l-21 -104l4 -1q20 21 49 34t55 13q37 0 61.5 -11.5t37 -32t15 -48.5t-4.5 -62l-66 -347h-139z" />
    <glyph glyph-name="Itilde" unicode="&#x128;" horiz-adv-x="265" 
d="M20 0l135 696h143l-135 -696h-143zM185 873q18 0 34.5 -7t32 -14.5t29 -14t24.5 -6.5q15 0 29.5 7.5t39.5 33.5l62 -37q-30 -59 -62.5 -81t-67.5 -22q-19 0 -35.5 6.5t-31.5 14t-28.5 14t-26.5 6.5q-14 0 -30.5 -8.5t-41.5 -34.5l-60 41q34 59 66.5 80.5t66.5 21.5z" />
    <glyph glyph-name="itilde" unicode="&#x129;" horiz-adv-x="304" 
d="M182 698q18 0 34.5 -7t32 -14.5t29 -14t24.5 -6.5q15 0 29.5 7.5t39.5 33.5l62 -37q-30 -59 -62.5 -81t-67.5 -22q-19 0 -35.5 6.5t-31.5 14t-28.5 14t-26.5 6.5q-14 0 -30.5 -8.5t-41.5 -34.5l-60 41q34 59 66.5 80.5t66.5 21.5zM54 0l96 495h138l-96 -495h-138z" />
    <glyph glyph-name="Imacron" unicode="&#x12a;" horiz-adv-x="265" 
d="M20 0l135 696h143l-135 -696h-143zM90 752l23 114h292l-22 -114h-293z" />
    <glyph glyph-name="imacron" unicode="&#x12b;" horiz-adv-x="288" 
d="M73 572l22 114h292l-22 -114h-292zM43 0l96 495h138l-96 -495h-138z" />
    <glyph glyph-name="Ibreve" unicode="&#x12c;" horiz-adv-x="265" 
d="M20 0l135 696h143l-135 -696h-143zM233 728q-44 0 -71.5 17t-42.5 42.5t-19 55t0 54.5h102q-2 -11 -0.5 -23.5t7 -23.5t15 -18.5t23.5 -7.5q15 0 27.5 7.5t22 18.5t15.5 23.5t9 23.5h103q-7 -29 -21 -58.5t-36.5 -54.5t-55.5 -40.5t-78 -15.5z" />
    <glyph glyph-name="ibreve" unicode="&#x12d;" horiz-adv-x="280" 
d="M214 548q-44 0 -71.5 17t-42.5 42.5t-19 55t0 54.5h103q-2 -11 -0.5 -23.5t7 -23.5t15 -18t23.5 -7q15 0 27 7t21.5 18t16 23.5t8.5 23.5h104q-6 -28 -20 -58t-37 -54.5t-56.5 -40.5t-78.5 -16zM34 0l96 495h138l-96 -495h-138z" />
    <glyph glyph-name="Iogonek" unicode="&#x12e;" horiz-adv-x="265" 
d="M-11 -119q2 23 16.5 52t46.5 67h-32l135 696h143l-135 -696h-29q-34 -39 -44 -65t-12 -34q-2 -15 7 -22.5t25 -7.5q9 0 24 3t36 13l14 -66q-28 -16 -56 -22t-53 -6q-43 0 -67 24.5t-19 63.5z" />
    <glyph glyph-name="iogonek" unicode="&#x12f;" horiz-adv-x="245" 
d="M-20 -119q2 23 16.5 52t46.5 67h-29l96 495h138l-96 -495h-27q-34 -39 -44 -65t-12 -34q-2 -15 7 -22.5t25 -7.5q9 0 24 3t36 13l14 -66q-28 -16 -56 -22t-53 -6q-43 0 -67 24.5t-19 63.5zM124 569l25 127h138l-24 -127h-139z" />
    <glyph glyph-name="Idotaccent" unicode="&#x130;" horiz-adv-x="265" 
d="M20 0l135 696h143l-135 -696h-143zM166 737l25 130h133l-25 -130h-133z" />
    <glyph glyph-name="dotlessi" unicode="&#x131;" horiz-adv-x="245" 
d="M14 0l96 495h138l-96 -495h-138z" />
    <glyph glyph-name="IJ" unicode="&#x132;" horiz-adv-x="719" 
d="M20 0l135 696h143l-135 -696h-143zM660 197q-18 -95 -69 -148.5t-151 -53.5q-54 0 -101 23.5t-76 72.5l109 83q13 -20 30.5 -33t39.5 -13q35 0 53 21t24 53l96 494h143z" />
    <glyph glyph-name="ij" unicode="&#x133;" horiz-adv-x="512" 
d="M408 -43q-15 -76 -63.5 -116t-120.5 -40h-11t-17.5 0.5t-18 1t-10.5 0.5l24 126h24q16 0 26.5 6t17.5 15t11 20.5t6 23.5l98 502h138zM14 0l96 495h138l-96 -495h-138zM388 569l25 127h138l-24 -127h-139zM124 569l25 127h138l-24 -127h-139z" />
    <glyph glyph-name="Jcircumflex" unicode="&#x134;" horiz-adv-x="431" 
d="M372 198q-18 -95 -69 -148.5t-151 -53.5q-54 0 -101 23.5t-76 72.5l109 83q13 -20 30.5 -33t39.5 -13q35 0 53 21t24 53l96 494h143zM418 809l-153 -81l-42 52l167 132h89l114 -131l-59 -54z" />
    <glyph glyph-name="jcircumflex" unicode="&#x135;" horiz-adv-x="328" 
d="M191 -44q-15 -76 -63.5 -116t-120.5 -40h-11t-17.5 0.5t-18 1t-10.5 0.5l24 126h24q16 0 26.5 6t17.5 15t11 20.5t6 23.5l98 503h138zM252 625l-155 -104l-44 47l171 157h91l110 -162l-61 -41z" />
    <glyph glyph-name="Kcommaaccent" unicode="&#x136;" horiz-adv-x="545" 
d="M251 450q3 0 5 -1q23 26 43.5 51t42.5 50q5 6 23.5 27.5t40.5 46t40.5 46t23.5 26.5h167l-248 -289l127 -407h-151q-22 71 -43.5 141.5t-42.5 141.5l-78 -84l-38 -199h-143l135 696h143zM144 -275l53 108h-29l25 131h136l-25 -126l-93 -113h-67z" />
    <glyph glyph-name="kcommaaccent" unicode="&#x137;" horiz-adv-x="478" 
d="M216 357q2 0 2.5 -0.5t1.5 -0.5q17 17 31.5 33.5t30.5 32.5l72 72h174l-204 -201l112 -293h-157q-17 46 -32.5 92t-31.5 93l-40 -36q-7 -38 -14 -75t-15 -74h-138q35 183 71 363t71 363h138zM91 -295l53 108h-29l25 131h136l-25 -126l-93 -113h-67z" />
    <glyph glyph-name="kgreenlandic" unicode="&#x138;" horiz-adv-x="478" 
d="M219 357q2 0 2.5 -0.5t1.5 -0.5l62 66l73 72h175q-52 -50 -103 -99.5t-102 -99.5l111 -295h-157q-17 46 -32.5 92t-31.5 93l-40 -36q-7 -38 -14 -75t-15 -74h-138l96 494h138l-26 -137v0z" />
    <glyph glyph-name="Lacute" unicode="&#x139;" horiz-adv-x="476" 
d="M20 0l135 696h143l-108 -560h257l-26 -136h-401zM188 784l194 135l78 -91l-224 -106z" />
    <glyph glyph-name="lacute" unicode="&#x13a;" horiz-adv-x="257" 
d="M153 -2q-66 0 -99 36t-17 116l112 576h140l-109 -557q-5 -29 3.5 -38t28.5 -9h16l-24 -124h-51zM175 804l194 135l78 -91l-224 -106z" />
    <glyph glyph-name="Lcommaaccent" unicode="&#x13b;" horiz-adv-x="476" 
d="M20 0l135 696h143l-108 -560h257l-26 -136h-401zM103 -295l53 108h-29l25 131h136l-25 -126l-93 -113h-67z" />
    <glyph glyph-name="lcommaaccent" unicode="&#x13c;" horiz-adv-x="257" 
d="M153 -2q-66 0 -99 36t-17 116l112 576h140l-109 -557q-5 -29 3.5 -38t28.5 -9h16l-24 -124h-51zM-18 -293l53 108h-29l25 131h136l-25 -126l-93 -113h-67z" />
    <glyph glyph-name="Lcaron" unicode="&#x13d;" horiz-adv-x="476" 
d="M20 0l135 696h143l-108 -560h257l-26 -136h-401zM324 457l53 108h-29l25 131h136l-25 -126l-93 -113h-67z" />
    <glyph glyph-name="lcaron" unicode="&#x13e;" horiz-adv-x="356" 
d="M289 487l53 108h-29l25 131h136l-25 -126l-93 -113h-67zM153 -2q-66 0 -99 36t-17 116l112 576h140l-109 -557q-5 -29 3.5 -38t28.5 -9h16l-24 -124h-51z" />
    <glyph glyph-name="Ldot" unicode="&#x13f;" horiz-adv-x="476" 
d="M20 0l135 696h143l-108 -560h257l-26 -136h-401zM322 301l25 130h133l-25 -130h-133z" />
    <glyph glyph-name="ldot" unicode="&#x140;" horiz-adv-x="359" 
d="M254 319l25 130h133l-25 -130h-133zM153 -2q-66 0 -99 36t-17 116l112 576h140l-109 -557q-5 -29 3.5 -38t28.5 -9h16l-24 -124h-51z" />
    <glyph glyph-name="Lslash" unicode="&#x141;" horiz-adv-x="476" 
d="M20 0l45 235l-54 -31l-31 73l105 60l70 359h143l-52 -267l82 47l32 -73l-133 -76l-37 -191h257l-26 -136h-401z" />
    <glyph glyph-name="lslash" unicode="&#x142;" horiz-adv-x="305" 
d="M172 -2q-66 0 -99 36t-17 116l23 117l-45 -25l-30 73l94 54l70 357h140l-53 -267l62 35l32 -73l-114 -65l-36 -187q-5 -29 3.5 -38t28.5 -9h16l-24 -124h-51z" />
    <glyph glyph-name="Nacute" unicode="&#x143;" horiz-adv-x="589" 
d="M367 0l-83 242l-45 149h-3l-75 -391h-142l135 696h126l69 -221q1 -8 10 -35.5t19.5 -59t19 -59.5t8.5 -37h4l76 412h141l-135 -696h-125zM331 784l194 135l78 -91l-224 -106z" />
    <glyph glyph-name="nacute" unicode="&#x144;" horiz-adv-x="477" 
d="M244 495l-8 -41l4 -1q20 21 49 34t55 13q37 0 61.5 -11.5t37 -32t15 -48.5t-4.5 -62l-66 -347h-139l61 314q5 26 -4.5 41t-33.5 15q-23 0 -40.5 -16.5t-23.5 -44.5l-59 -309h-138l97 496h137zM222 570l130 195l111 -48l-171 -183z" />
    <glyph glyph-name="Ncommaaccent" unicode="&#x145;" horiz-adv-x="589" 
d="M367 0l-83 242l-45 149h-3l-75 -391h-142l135 696h126l69 -221q1 -8 10 -35.5t19.5 -59t19 -59.5t8.5 -37h4l76 412h141l-135 -696h-125zM151 -275l53 108h-29l25 131h136l-25 -126l-93 -113h-67z" />
    <glyph glyph-name="ncommaaccent" unicode="&#x146;" horiz-adv-x="477" 
d="M244 495l-8 -41l4 -1q20 21 49 34t55 13q37 0 61.5 -11.5t37 -32t15 -48.5t-4.5 -62l-66 -347h-139l61 314q5 26 -4.5 41t-33.5 15q-23 0 -40.5 -16.5t-23.5 -44.5l-59 -309h-138l97 496h137zM76 -295l53 108h-29l25 131h136l-25 -126l-93 -113h-67z" />
    <glyph glyph-name="Ncaron" unicode="&#x147;" horiz-adv-x="589" 
d="M367 0l-83 242l-45 149h-3l-75 -391h-142l135 696h126l69 -221q1 -8 10 -35.5t19.5 -59t19 -59.5t8.5 -37h4l76 412h141l-135 -696h-125zM560 912l43 -53l-168 -132h-89l-113 131l58 53l117 -82z" />
    <glyph glyph-name="ncaron" unicode="&#x148;" horiz-adv-x="477" 
d="M244 495l-8 -41l4 -1q20 21 49 34t55 13q37 0 61.5 -11.5t37 -32t15 -48.5t-4.5 -62l-66 -347h-139l61 314q5 26 -4.5 41t-33.5 15q-23 0 -40.5 -16.5t-23.5 -44.5l-59 -309h-138l97 496h137zM454 732l45 -48l-169 -157h-91l-110 157l62 48q8 -6 23.5 -20t32 -29.5
t31.5 -29.5t23 -20z" />
    <glyph glyph-name="napostrophe" unicode="&#x149;" horiz-adv-x="575" 
d="M342 495l-8 -41l4 -1q20 21 49 34t55 13q37 0 61.5 -11.5t37 -32t15 -48.5t-4.5 -62l-66 -347h-139l61 314q5 26 -4.5 41t-33.5 15q-23 0 -40.5 -16.5t-23.5 -44.5l-59 -309h-138l97 496h137zM33 432l53 108h-29l25 131h136l-25 -126l-93 -113h-67z" />
    <glyph glyph-name="Eng" unicode="&#x14a;" horiz-adv-x="589" 
d="M409 284q20 104 38.5 206t37.5 206h142l-149 -765q-11 -60 -50 -86t-93 -26q-23 0 -47 5t-44 13l30 96q16 -3 28 -3q21 0 31.5 9.5t13.5 26.5l12 66l-81 246q-9 29 -19.5 56.5t-19.5 56.5q-2 0 -2 -0.5t-2 -0.5q-18 -98 -37 -195t-37 -195h-143l135 696h127q5 -15 15 -47
t22.5 -73.5t26.5 -87t26 -86t22 -72.5t14 -46h3z" />
    <glyph glyph-name="eng" unicode="&#x14b;" horiz-adv-x="477" 
d="M235 451q2 0 2 -0.5t2 -0.5q21 23 51 36.5t56 13.5q40 0 64 -13t35.5 -34.5t12.5 -49t-5 -57.5l-80 -415q-12 -59 -49.5 -86.5t-91.5 -27.5q-23 0 -48 5.5t-45 14.5l29 96q16 -3 29 -3q21 0 30.5 9t13.5 27l68 347q5 24 -5 40t-33 16t-41 -16.5t-23 -44.5
q-2 -10 -6.5 -34t-10.5 -54.5t-12.5 -65.5t-12.5 -65.5t-10.5 -54.5t-6.5 -34h-138l96 495h139q-3 -11 -5 -22t-5 -22z" />
    <glyph glyph-name="Omacron" unicode="&#x14c;" horiz-adv-x="535" 
d="M492 219q-10 -52 -28 -93.5t-46 -71t-67.5 -45t-91.5 -15.5q-68 0 -112.5 20.5t-69.5 55.5t-31.5 80.5t3.5 95.5l47 232q7 39 24 78.5t46 71.5t72 52.5t104 20.5q57 0 98.5 -20.5t66 -54.5t33 -77t-0.5 -89zM396 478q2 12 0 26t-10 27t-22.5 21.5t-36.5 8.5t-37 -7.5
t-25 -19t-15.5 -25t-7.5 -25.5l-49 -253q-9 -48 9.5 -72.5t61.5 -24.5q31 0 52 20t28 55zM221 752l23 114h292l-22 -114h-293z" />
    <glyph glyph-name="omacron" unicode="&#x14d;" horiz-adv-x="459" 
d="M276 501q46 0 78 -13.5t52 -36.5t29.5 -53.5t9.5 -63.5q0 -31 -4.5 -63.5t-10.5 -60.5q-11 -48 -28 -88t-44 -68.5t-65.5 -44t-92.5 -15.5q-51 0 -83.5 15t-51 40t-25 57.5t-6.5 67.5q0 22 3.5 55.5t11.5 63.5q14 57 38.5 101.5t63.5 71.5q52 35 125 35zM264 374
q-27 0 -43.5 -23.5t-30.5 -71.5q-3 -12 -6.5 -28t-5.5 -32t-3.5 -29.5t-1.5 -19.5q0 -19 8 -33t34 -14q11 0 20.5 5.5t16.5 12.5q9 9 17.5 28t15.5 43.5t11.5 51t5.5 49.5q1 22 -6 41.5t-32 19.5zM156 572l22 114h292l-22 -114h-292z" />
    <glyph glyph-name="Obreve" unicode="&#x14e;" horiz-adv-x="535" 
d="M492 219q-10 -52 -28 -93.5t-46 -71t-67.5 -45t-91.5 -15.5q-68 0 -112.5 20.5t-69.5 55.5t-31.5 80.5t3.5 95.5l47 232q7 39 24 78.5t46 71.5t72 52.5t104 20.5q57 0 98.5 -20.5t66 -54.5t33 -77t-0.5 -89zM396 478q2 12 0 26t-10 27t-22.5 21.5t-36.5 8.5t-37 -7.5
t-25 -19t-15.5 -25t-7.5 -25.5l-49 -253q-9 -48 9.5 -72.5t61.5 -24.5q31 0 52 20t28 55zM368 728q-44 0 -71.5 17t-42.5 42.5t-19 55t0 54.5h102q-2 -11 -0.5 -23.5t7 -23.5t15 -18.5t23.5 -7.5q15 0 27.5 7.5t22 18.5t15.5 23.5t9 23.5h103q-7 -29 -21 -58.5t-36.5 -54.5
t-55.5 -40.5t-78 -15.5z" />
    <glyph glyph-name="obreve" unicode="&#x14f;" horiz-adv-x="459" 
d="M276 501q46 0 78 -13.5t52 -36.5t29.5 -53.5t9.5 -63.5q0 -31 -4.5 -63.5t-10.5 -60.5q-11 -48 -28 -88t-44 -68.5t-65.5 -44t-92.5 -15.5q-51 0 -83.5 15t-51 40t-25 57.5t-6.5 67.5q0 22 3.5 55.5t11.5 63.5q14 57 38.5 101.5t63.5 71.5q52 35 125 35zM264 374
q-27 0 -43.5 -23.5t-30.5 -71.5q-3 -12 -6.5 -28t-5.5 -32t-3.5 -29.5t-1.5 -19.5q0 -19 8 -33t34 -14q11 0 20.5 5.5t16.5 12.5q9 9 17.5 28t15.5 43.5t11.5 51t5.5 49.5q1 22 -6 41.5t-32 19.5zM294 542q-44 0 -71.5 17t-42.5 42.5t-19 55t0 54.5h103q-2 -11 -0.5 -23.5
t7 -23.5t15 -18t23.5 -7q15 0 27 7t21.5 18t16 23.5t8.5 23.5h104q-6 -28 -20 -58t-37 -54.5t-56.5 -40.5t-78.5 -16z" />
    <glyph glyph-name="Ohungarumlaut" unicode="&#x150;" horiz-adv-x="535" 
d="M492 219q-10 -52 -28 -93.5t-46 -71t-67.5 -45t-91.5 -15.5q-68 0 -112.5 20.5t-69.5 55.5t-31.5 80.5t3.5 95.5l47 232q7 39 24 78.5t46 71.5t72 52.5t104 20.5q57 0 98.5 -20.5t66 -54.5t33 -77t-0.5 -89zM396 478q2 12 0 26t-10 27t-22.5 21.5t-36.5 8.5t-37 -7.5
t-25 -19t-15.5 -25t-7.5 -25.5l-49 -253q-9 -48 9.5 -72.5t61.5 -24.5q31 0 52 20t28 55zM186 785l192 141l72 -94l-219 -111zM398 785l191 141l72 -94l-219 -111z" />
    <glyph glyph-name="ohungarumlaut" unicode="&#x151;" horiz-adv-x="459" 
d="M276 501q46 0 78 -13.5t52 -36.5t29.5 -53.5t9.5 -63.5q0 -31 -4.5 -63.5t-10.5 -60.5q-11 -48 -28 -88t-44 -68.5t-65.5 -44t-92.5 -15.5q-51 0 -83.5 15t-51 40t-25 57.5t-6.5 67.5q0 22 3.5 55.5t11.5 63.5q14 57 38.5 101.5t63.5 71.5q52 35 125 35zM264 374
q-27 0 -43.5 -23.5t-30.5 -71.5q-3 -12 -6.5 -28t-5.5 -32t-3.5 -29.5t-1.5 -19.5q0 -19 8 -33t34 -14q11 0 20.5 5.5t16.5 12.5q9 9 17.5 28t15.5 43.5t11.5 51t5.5 49.5q1 22 -6 41.5t-32 19.5zM315 570l130 195l112 -48l-171 -183zM135 570l130 195l112 -48l-171 -183z
" />
    <glyph glyph-name="OE" unicode="&#x152;" horiz-adv-x="737" 
d="M336 0q-29 -6 -60 -6q-68 0 -112.5 20.5t-69.5 55.5t-31.5 80.5t3.5 95.5l45 232q7 39 24 78.5t46.5 71.5t73 52.5t104.5 20.5q14 0 27 -1.5t25 -3.5h399l-26 -134h-257l-29 -144h222l-26 -133h-222l-28 -151h257l-26 -134h-339zM281 134h9.5t9.5 2l81 416q-8 4 -17 6.5
t-20 2.5q-22 0 -37 -7.5t-25 -19t-15.5 -25t-7.5 -25.5l-49 -253q-9 -48 7 -72.5t64 -24.5z" />
    <glyph glyph-name="oe" unicode="&#x153;" horiz-adv-x="716" 
d="M455 -5q-77 0 -120 38q-25 -19 -58 -29t-77 -10q-51 0 -83.5 15t-51 40t-25 57.5t-6.5 67.5q0 22 3.5 55.5t11.5 63.5q14 57 38.5 101.5t63.5 71.5q52 35 125 35q42 0 71.5 -11t49.5 -30q25 20 56.5 31t70.5 11q44 0 76.5 -10.5t53.5 -28t31 -41.5t10 -51
q0 -50 -19.5 -83.5t-52 -54t-73 -29t-82.5 -8.5h-17t-17 1q-2 -9 -3 -19t-1 -16q1 -19 13.5 -29t28.5 -10q21 0 40.5 9.5t40.5 34.5l106 -67q-37 -56 -90.5 -80.5t-113.5 -24.5zM264 374q-27 0 -43.5 -23.5t-30.5 -71.5q-3 -12 -6.5 -28t-5.5 -32t-3.5 -29.5t-1.5 -19.5
q0 -19 8 -33t34 -14q11 0 20.5 5.5t16.5 12.5q9 9 17.5 28t15.5 43.5t11.5 51t5.5 49.5q1 22 -6 41.5t-32 19.5zM519 375q-23 0 -39.5 -19.5t-25.5 -52.5q7 -2 14.5 -1t13.5 1q42 2 57 15t15 31q0 11 -8 18.5t-27 7.5z" />
    <glyph glyph-name="Racute" unicode="&#x154;" horiz-adv-x="543" 
d="M333 0l-56 275h-61l-53 -275h-143l135 696h217q88 0 138.5 -44.5t47.5 -138.5q-2 -85 -41 -137t-99 -75l69 -301h-154zM420 497q2 37 -18 52t-53 15h-76l-31 -157h77q19 0 37.5 4.5t32.5 15t22.5 28t8.5 42.5zM273 784l194 135l78 -91l-224 -106z" />
    <glyph glyph-name="racute" unicode="&#x155;" horiz-adv-x="359" 
d="M307 368q-39 0 -64 -23t-33 -65l-56 -281h-140l96 496h139l-11 -58h2q46 64 115 64q18 0 31.5 -3.5t27.5 -12.5l-48 -131q-16 8 -30.5 11t-28.5 3zM185 570l130 195l111 -48l-171 -183z" />
    <glyph glyph-name="Rcommaaccent" unicode="&#x156;" horiz-adv-x="543" 
d="M333 0l-56 275h-61l-53 -275h-143l135 696h217q88 0 138.5 -44.5t47.5 -138.5q-2 -85 -41 -137t-99 -75l69 -301h-154zM420 497q2 37 -18 52t-53 15h-76l-31 -157h77q19 0 37.5 4.5t32.5 15t22.5 28t8.5 42.5zM130 -275l53 108h-29l25 131h136l-25 -126l-93 -113h-67z
" />
    <glyph glyph-name="rcommaaccent" unicode="&#x157;" horiz-adv-x="359" 
d="M307 368q-39 0 -64 -23t-33 -65l-56 -281h-140l96 496h139l-11 -58h2q46 64 115 64q18 0 31.5 -3.5t27.5 -12.5l-48 -131q-16 8 -30.5 11t-28.5 3zM-36 -294l53 108h-29l25 131h136l-25 -126l-93 -113h-67z" />
    <glyph glyph-name="Rcaron" unicode="&#x158;" horiz-adv-x="543" 
d="M333 0l-56 275h-61l-53 -275h-143l135 696h217q88 0 138.5 -44.5t47.5 -138.5q-2 -85 -41 -137t-99 -75l69 -301h-154zM420 497q2 37 -18 52t-53 15h-76l-31 -157h77q19 0 37.5 4.5t32.5 15t22.5 28t8.5 42.5zM503 912l43 -53l-168 -132h-89l-113 131l58 53l117 -82z" />
    <glyph glyph-name="rcaron" unicode="&#x159;" horiz-adv-x="359" 
d="M307 368q-39 0 -64 -23t-33 -65l-56 -281h-140l96 496h139l-11 -58h2q46 64 115 64q18 0 31.5 -3.5t27.5 -12.5l-48 -131q-16 8 -30.5 11t-28.5 3zM420 732l45 -48l-169 -157h-91l-110 157l62 48q8 -6 23.5 -20t32 -29.5t31.5 -29.5t23 -20z" />
    <glyph glyph-name="Sacute" unicode="&#x15a;" horiz-adv-x="523" 
d="M136 202q20 -35 49.5 -52t64.5 -17q45 0 68.5 22.5t23.5 54.5q0 31 -24.5 48.5t-68.5 28.5q-73 24 -111 65t-38 104q0 54 17 99.5t48.5 77.5t76 50t100.5 18q83 0 133 -30.5t77 -82.5l-119 -89q-25 31 -50 44.5t-58 13.5q-27 0 -48.5 -19.5t-21.5 -45.5q0 -17 7.5 -28
t21.5 -20t33.5 -16t43.5 -15q78 -26 109.5 -68t31.5 -103q0 -59 -19 -105t-53 -77.5t-81.5 -48t-104.5 -16.5q-45 0 -81 9t-64 25.5t-48 39t-35 48.5zM288 784l194 135l78 -91l-224 -106z" />
    <glyph glyph-name="sacute" unicode="&#x15b;" horiz-adv-x="437" 
d="M113 165q17 -27 38.5 -39t51.5 -12q20 0 38.5 10.5t18.5 30.5q0 16 -16.5 25t-39.5 14q-23 6 -48.5 14t-46.5 23t-34.5 38t-13.5 58q0 42 16 74.5t42.5 54.5t60.5 33.5t70 11.5q64 0 109.5 -25.5t65.5 -71.5l-100 -67q-15 26 -36 34.5t-39 8.5q-16 0 -26 -4t-15.5 -9.5
t-7.5 -11.5t-2 -10q0 -9 9.5 -16t22 -12t25.5 -8t21 -5q21 -6 43.5 -14.5t41 -23.5t30.5 -37.5t12 -55.5q0 -40 -15 -73t-42.5 -56t-66 -36t-86.5 -13q-80 2 -124.5 31.5t-65.5 81.5zM200 570l130 195l111 -48l-171 -183z" />
    <glyph glyph-name="Scircumflex" unicode="&#x15c;" horiz-adv-x="523" 
d="M136 202q20 -35 49.5 -52t64.5 -17q45 0 68.5 22.5t23.5 54.5q0 31 -24.5 48.5t-68.5 28.5q-73 24 -111 65t-38 104q0 54 17 99.5t48.5 77.5t76 50t100.5 18q83 0 133 -30.5t77 -82.5l-119 -89q-25 31 -50 44.5t-58 13.5q-27 0 -48.5 -19.5t-21.5 -45.5q0 -17 7.5 -28
t21.5 -20t33.5 -16t43.5 -15q78 -26 109.5 -68t31.5 -103q0 -59 -19 -105t-53 -77.5t-81.5 -48t-104.5 -16.5q-45 0 -81 9t-64 25.5t-48 39t-35 48.5zM371 807l-153 -81l-42 52l167 132h89l114 -131l-59 -54z" />
    <glyph glyph-name="scircumflex" unicode="&#x15d;" horiz-adv-x="437" 
d="M113 165q17 -27 38.5 -39t51.5 -12q20 0 38.5 10.5t18.5 30.5q0 16 -16.5 25t-39.5 14q-23 6 -48.5 14t-46.5 23t-34.5 38t-13.5 58q0 42 16 74.5t42.5 54.5t60.5 33.5t70 11.5q64 0 109.5 -25.5t65.5 -71.5l-100 -67q-15 26 -36 34.5t-39 8.5q-16 0 -26 -4t-15.5 -9.5
t-7.5 -11.5t-2 -10q0 -9 9.5 -16t22 -12t25.5 -8t21 -5q21 -6 43.5 -14.5t41 -23.5t30.5 -37.5t12 -55.5q0 -40 -15 -73t-42.5 -56t-66 -36t-86.5 -13q-80 2 -124.5 31.5t-65.5 81.5zM298 625l-155 -104l-44 47l171 157h91l110 -162l-61 -41z" />
    <glyph glyph-name="Scedilla" unicode="&#x15e;" horiz-adv-x="523" 
d="M136 202q20 -35 49.5 -52t64.5 -17q45 0 68.5 22.5t23.5 54.5q0 31 -24.5 48.5t-68.5 28.5q-73 24 -111 65t-38 104q0 54 17 99.5t48.5 77.5t76 50t100.5 18q83 0 133 -30.5t77 -82.5l-119 -89q-25 31 -50 44.5t-58 13.5q-27 0 -48.5 -19.5t-21.5 -45.5q0 -17 7.5 -28
t21.5 -20t33.5 -16t43.5 -15q78 -26 109.5 -68t31.5 -103q0 -56 -17 -99.5t-47.5 -75t-73 -49.5t-94.5 -22q-5 -8 -8.5 -16t-8.5 -16q43 -5 59.5 -28.5t16.5 -53.5q0 -17 -7 -34t-22.5 -31t-39 -23t-56.5 -9q-20 0 -49.5 5.5t-55.5 20.5l34 60q22 -11 38.5 -14.5t30.5 -3.5
q18 0 29 8t11 24q0 9 -7.5 15t-18.5 6q-8 0 -13 -2l-34 24l35 69q-72 8 -117 40.5t-71 79.5z" />
    <glyph glyph-name="scedilla" unicode="&#x15f;" horiz-adv-x="437" 
d="M113 165q17 -27 38.5 -39t51.5 -12q20 0 38.5 10.5t18.5 30.5q0 16 -16.5 25t-39.5 14q-23 6 -48.5 14t-46.5 23t-34.5 38t-13.5 58q0 42 16 74.5t42.5 54.5t60.5 33.5t70 11.5q64 0 109.5 -25.5t65.5 -71.5l-100 -67q-15 26 -36 34.5t-39 8.5q-16 0 -26 -4t-15.5 -9.5
t-7.5 -11.5t-2 -10q0 -9 9.5 -16t22 -12t25.5 -8t21 -5q21 -6 43.5 -14.5t41 -23.5t30.5 -37.5t12 -55.5q0 -77 -52 -124.5t-140 -52.5l-16 -32q43 -5 59.5 -28.5t16.5 -53.5q0 -17 -7 -34t-22.5 -31t-39 -23t-56.5 -9q-20 0 -49.5 5.5t-55.5 20.5l34 60q22 -11 38.5 -14.5
t30.5 -3.5q18 0 29 8t11 24q0 9 -7.5 15t-18.5 6q-8 0 -13 -2l-34 24l36 71q-58 8 -92.5 36t-51.5 73z" />
    <glyph glyph-name="Scaron" unicode="&#x160;" horiz-adv-x="523" 
d="M136 202q20 -35 49.5 -52t64.5 -17q45 0 68.5 22.5t23.5 54.5q0 31 -24.5 48.5t-68.5 28.5q-73 24 -111 65t-38 104q0 54 17 99.5t48.5 77.5t76 50t100.5 18q83 0 133 -30.5t77 -82.5l-119 -89q-25 31 -50 44.5t-58 13.5q-27 0 -48.5 -19.5t-21.5 -45.5q0 -17 7.5 -28
t21.5 -20t33.5 -16t43.5 -15q78 -26 109.5 -68t31.5 -103q0 -59 -19 -105t-53 -77.5t-81.5 -48t-104.5 -16.5q-45 0 -81 9t-64 25.5t-48 39t-35 48.5zM539 912l43 -53l-168 -132h-89l-113 131l58 53l117 -82z" />
    <glyph glyph-name="scaron" unicode="&#x161;" horiz-adv-x="437" 
d="M113 165q17 -27 38.5 -39t51.5 -12q20 0 38.5 10.5t18.5 30.5q0 16 -16.5 25t-39.5 14q-23 6 -48.5 14t-46.5 23t-34.5 38t-13.5 58q0 42 16 74.5t42.5 54.5t60.5 33.5t70 11.5q64 0 109.5 -25.5t65.5 -71.5l-100 -67q-15 26 -36 34.5t-39 8.5q-16 0 -26 -4t-15.5 -9.5
t-7.5 -11.5t-2 -10q0 -9 9.5 -16t22 -12t25.5 -8t21 -5q21 -6 43.5 -14.5t41 -23.5t30.5 -37.5t12 -55.5q0 -40 -15 -73t-42.5 -56t-66 -36t-86.5 -13q-80 2 -124.5 31.5t-65.5 81.5zM460 732l45 -48l-169 -157h-91l-110 157l62 48q8 -6 23.5 -20t32 -29.5t31.5 -29.5
t23 -20z" />
    <glyph glyph-name="Tcommaaccent" unicode="&#x162;" horiz-adv-x="453" 
d="M366 564l-110 -564h-143l110 564h-147l25 132h437l-26 -132h-146zM61 -295l53 108h-29l25 131h136l-25 -126l-93 -113h-67z" />
    <glyph glyph-name="tcommaaccent" unicode="&#x163;" horiz-adv-x="303" 
d="M99 386h-49l21 109h49q7 33 13.5 66.5t12.5 66.5h135q-7 -33 -13.5 -66.5t-12.5 -66.5h64l-22 -109h-64l-41 -214q-1 -6 -1.5 -11t-0.5 -10q0 -12 7 -19.5t29 -7.5h21l-24 -124q-14 -1 -29.5 -1h-29.5q-32 0 -54.5 8t-36.5 22t-20 33t-6 40q0 15 3 32zM-13 -295l53 108
h-29l25 131h136l-25 -126l-93 -113h-67z" />
    <glyph glyph-name="Tcaron" unicode="&#x164;" horiz-adv-x="453" 
d="M366 564l-110 -564h-143l110 564h-147l25 132h437l-26 -132h-146zM501 912l43 -53l-168 -132h-89l-113 131l58 53l117 -82z" />
    <glyph glyph-name="tcaron" unicode="&#x165;" horiz-adv-x="362" 
d="M99 386h-49l21 109h49q7 33 13.5 66.5t12.5 66.5h135q-7 -33 -13.5 -66.5t-12.5 -66.5h64l-22 -109h-64l-41 -214q-1 -6 -1.5 -11t-0.5 -10q0 -12 7 -19.5t29 -7.5h21l-24 -124q-14 -1 -29.5 -1h-29.5q-32 0 -54.5 8t-36.5 22t-20 33t-6 40q0 15 3 32zM310 550l53 108
h-29l25 131h136l-25 -126l-93 -113h-67z" />
    <glyph glyph-name="Tbar" unicode="&#x166;" horiz-adv-x="453" 
d="M366 564l-31 -156h126l-20 -96h-124l-61 -312h-143l61 312h-122l19 96h121l31 156h-147l25 132h437l-26 -132h-146z" />
    <glyph glyph-name="tbar" unicode="&#x167;" horiz-adv-x="303" 
d="M68 227h-50l17 90h51q3 17 6 34.5t7 34.5h-49l21 109h49q7 33 13.5 66.5t12.5 66.5h135q-7 -33 -13.5 -66.5t-12.5 -66.5h64l-22 -109h-64l-13 -69h65l-18 -90h-65l-10 -55q-1 -6 -1.5 -11t-0.5 -10q0 -12 7 -19.5t29 -7.5h21l-24 -124q-14 -1 -29.5 -1h-29.5
q-32 0 -54.5 8t-36.5 22t-20 33t-6 40q0 15 3 32z" />
    <glyph glyph-name="Utilde" unicode="&#x168;" horiz-adv-x="545" 
d="M494 207q-20 -101 -83 -156.5t-163 -55.5q-47 0 -87.5 15t-67.5 43.5t-38.5 69.5t-1.5 92l93 481h143l-93 -475q-8 -42 11.5 -64.5t51.5 -22.5q33 0 58.5 19t33.5 60l94 483h144zM321 873q18 0 34.5 -7t32 -14.5t29 -14t24.5 -6.5q15 0 29.5 7.5t39.5 33.5l62 -37
q-30 -59 -62.5 -81t-67.5 -22q-19 0 -35.5 6.5t-31.5 14t-28.5 14t-26.5 6.5q-14 0 -30.5 -8.5t-41.5 -34.5l-60 41q34 59 66.5 80.5t66.5 21.5z" />
    <glyph glyph-name="utilde" unicode="&#x169;" horiz-adv-x="477" 
d="M244 496l-61 -314q-5 -26 5.5 -41t31.5 -15q22 0 40.5 16.5t23.5 44.5l59 309h139l-96 -496h-139l11 46h-3q-20 -23 -51 -37t-56 -14q-35 0 -59 11.5t-37.5 32t-16.5 48.5t3 62l67 347h139zM247 698q18 0 34.5 -7t32 -14.5t29 -14t24.5 -6.5q15 0 29.5 7.5t39.5 33.5
l62 -37q-30 -59 -62.5 -81t-67.5 -22q-19 0 -35.5 6.5t-31.5 14t-28.5 14t-26.5 6.5q-14 0 -30.5 -8.5t-41.5 -34.5l-60 41q34 59 66.5 80.5t66.5 21.5z" />
    <glyph glyph-name="Umacron" unicode="&#x16a;" horiz-adv-x="545" 
d="M494 207q-20 -101 -83 -156.5t-163 -55.5q-47 0 -87.5 15t-67.5 43.5t-38.5 69.5t-1.5 92l93 481h143l-93 -475q-8 -42 11.5 -64.5t51.5 -22.5q33 0 58.5 19t33.5 60l94 483h144zM227 752l23 114h292l-22 -114h-293z" />
    <glyph glyph-name="umacron" unicode="&#x16b;" horiz-adv-x="477" 
d="M244 496l-61 -314q-5 -26 5.5 -41t31.5 -15q22 0 40.5 16.5t23.5 44.5l59 309h139l-96 -496h-139l11 46h-3q-20 -23 -51 -37t-56 -14q-35 0 -59 11.5t-37.5 32t-16.5 48.5t3 62l67 347h139zM161 572l22 114h292l-22 -114h-292z" />
    <glyph glyph-name="Ubreve" unicode="&#x16c;" horiz-adv-x="545" 
d="M494 207q-20 -101 -83 -156.5t-163 -55.5q-47 0 -87.5 15t-67.5 43.5t-38.5 69.5t-1.5 92l93 481h143l-93 -475q-8 -42 11.5 -64.5t51.5 -22.5q33 0 58.5 19t33.5 60l94 483h144zM371 728q-44 0 -71.5 17t-42.5 42.5t-19 55t0 54.5h102q-2 -11 -0.5 -23.5t7 -23.5
t15 -18.5t23.5 -7.5q15 0 27.5 7.5t22 18.5t15.5 23.5t9 23.5h103q-7 -29 -21 -58.5t-36.5 -54.5t-55.5 -40.5t-78 -15.5z" />
    <glyph glyph-name="ubreve" unicode="&#x16d;" horiz-adv-x="477" 
d="M244 496l-61 -314q-5 -26 5.5 -41t31.5 -15q22 0 40.5 16.5t23.5 44.5l59 309h139l-96 -496h-139l11 46h-3q-20 -23 -51 -37t-56 -14q-35 0 -59 11.5t-37.5 32t-16.5 48.5t3 62l67 347h139zM298 542q-44 0 -71.5 17t-42.5 42.5t-19 55t0 54.5h103q-2 -11 -0.5 -23.5
t7 -23.5t15 -18t23.5 -7q15 0 27 7t21.5 18t16 23.5t8.5 23.5h104q-6 -28 -20 -58t-37 -54.5t-56.5 -40.5t-78.5 -16z" />
    <glyph glyph-name="Uring" unicode="&#x16e;" horiz-adv-x="545" 
d="M494 207q-20 -101 -83 -156.5t-163 -55.5q-47 0 -87.5 15t-67.5 43.5t-38.5 69.5t-1.5 92l93 481h143l-93 -475q-8 -42 11.5 -64.5t51.5 -22.5q33 0 58.5 19t33.5 60l94 483h144zM386 784q16 0 29 11.5t13 29.5q0 11 -8.5 19t-21.5 8q-17 0 -30 -11.5t-13 -28.5
q0 -12 9 -20t22 -8zM377 710q-42 0 -71 25t-29 63q0 26 9 49.5t25.5 41.5t40.5 28.5t53 10.5q21 0 39.5 -6.5t32 -18.5t21.5 -28.5t8 -35.5q0 -26 -9 -49.5t-25.5 -41t-40.5 -28t-54 -10.5z" />
    <glyph glyph-name="uring" unicode="&#x16f;" horiz-adv-x="477" 
d="M244 496l-61 -314q-5 -26 5.5 -41t31.5 -15q22 0 40.5 16.5t23.5 44.5l59 309h139l-96 -496h-139l11 46h-3q-20 -23 -51 -37t-56 -14q-35 0 -59 11.5t-37.5 32t-16.5 48.5t3 62l67 347h139zM310 597q16 0 29 11.5t13 29.5q0 11 -8.5 19t-21.5 8q-17 0 -30 -11.5
t-13 -28.5q0 -12 9 -20t22 -8zM301 523q-42 0 -71 25t-29 63q0 26 9 49.5t25.5 41.5t40.5 28.5t53 10.5q21 0 39.5 -6.5t32 -18.5t21.5 -28.5t8 -35.5q0 -26 -9 -49.5t-25.5 -41t-40.5 -28t-54 -10.5z" />
    <glyph glyph-name="Uhungarumlaut" unicode="&#x170;" horiz-adv-x="545" 
d="M494 207q-20 -101 -83 -156.5t-163 -55.5q-47 0 -87.5 15t-67.5 43.5t-38.5 69.5t-1.5 92l93 481h143l-93 -475q-8 -42 11.5 -64.5t51.5 -22.5q33 0 58.5 19t33.5 60l94 483h144zM195 785l192 141l72 -94l-219 -111zM407 785l191 141l72 -94l-219 -111z" />
    <glyph glyph-name="uhungarumlaut" unicode="&#x171;" horiz-adv-x="477" 
d="M244 496l-61 -314q-5 -26 5.5 -41t31.5 -15q22 0 40.5 16.5t23.5 44.5l59 309h139l-96 -496h-139l11 46h-3q-20 -23 -51 -37t-56 -14q-35 0 -59 11.5t-37.5 32t-16.5 48.5t3 62l67 347h139zM329 570l130 195l112 -48l-171 -183zM149 570l130 195l112 -48l-171 -183z" />
    <glyph glyph-name="Uogonek" unicode="&#x172;" horiz-adv-x="545" 
d="M139 -120q2 23 16.5 52t46.5 67q-39 7 -70.5 24.5t-52 45t-28 64.5t1.5 82l93 481h143l-93 -475q-8 -42 11.5 -64.5t51.5 -22.5q33 0 58.5 19t33.5 60l94 483h144l-95 -489q-18 -92 -72 -146.5t-140 -63.5q-32 -38 -42 -63.5t-12 -33.5q-2 -15 7 -22.5t25 -7.5q9 0 24 3
t36 13l14 -66q-28 -16 -56 -22t-53 -6q-43 0 -67 24.5t-19 63.5z" />
    <glyph glyph-name="uogonek" unicode="&#x173;" horiz-adv-x="477" 
d="M186 -118q2 23 16 52t46 66h-1l11 46h-3q-20 -23 -51 -37t-56 -14q-35 0 -59 11.5t-37.5 32t-16.5 48.5t3 62l67 347h139l-61 -314q-5 -26 5.5 -41t31.5 -15q22 0 40.5 16.5t23.5 44.5l59 309h139l-96 -496h-56q-33 -39 -43 -64.5t-12 -33.5q-2 -15 7 -22.5t25 -7.5
q9 0 24 3t36 13l14 -66q-28 -16 -56 -22t-53 -6q-43 0 -67 24.5t-19 63.5z" />
    <glyph glyph-name="Wcircumflex" unicode="&#x174;" horiz-adv-x="739" 
d="M399 366l-65 -151l-97 -215h-128q-3 174 -5.5 347.5t-4.5 348.5h156l-3 -203q-2 -43 -2.5 -90t-4.5 -92h4l78 190l82 195h112l8 -215q2 -40 2.5 -87t0.5 -93h5q17 49 33.5 98t33.5 98q4 11 14 39.5t21 60t21 60t14 39.5h156q-71 -175 -140.5 -348.5t-140.5 -347.5h-128
q-2 54 -5.5 108.5t-5.5 108.5l-6 149h-5zM485 807l-153 -81l-42 52l167 132h89l114 -131l-59 -54z" />
    <glyph glyph-name="wcircumflex" unicode="&#x175;" horiz-adv-x="681" 
d="M334 264q-14 -37 -27 -74t-27 -71q-28 -61 -58 -119h-140l-38 494h149q-2 -50 -1 -100.5t1 -101.5q-1 -24 -2 -50t-5 -58h5q33 72 63.5 152t53.5 158h134l1 -184q0 -26 -1.5 -51.5t-4.5 -65.5h7q29 66 58 143t53 158h156q-26 -74 -52 -137.5t-54.5 -123t-60.5 -116.5
t-69 -117h-137l-3 116q0 34 1 71t3 77h-5zM405 625l-155 -104l-44 47l171 157h91l110 -162l-61 -41z" />
    <glyph glyph-name="Ycircumflex" unicode="&#x176;" horiz-adv-x="504" 
d="M298 415q17 34 34 70.5t34 69.5l75 141h155l-259 -417l-54 -279h-141q14 70 27.5 139.5t27.5 139.5l-97 417h151q7 -35 12 -65t11 -65q3 -17 5.5 -37t4.5 -40t4 -39.5t4 -34.5h6zM369 807l-153 -81l-42 52l167 132h89l114 -131l-59 -54z" />
    <glyph glyph-name="ycircumflex" unicode="&#x177;" horiz-adv-x="428" 
d="M197 179q32 62 61.5 143.5t55.5 171.5h148q-65 -168 -131 -308.5t-138 -254.5q-42 -67 -105 -104t-140 -32l-1 115q51 5 87.5 30t65.5 82l-59 472h146q4 -52 6.5 -85t3.5 -54t1.5 -34t0.5 -26q0 -27 -1.5 -58t-4.5 -58h4zM286 625l-155 -104l-44 47l171 157h91l110 -162
l-61 -41z" />
    <glyph glyph-name="Ydieresis" unicode="&#x178;" horiz-adv-x="504" 
d="M298 415q17 34 34 70.5t34 69.5l75 141h155l-259 -417l-54 -279h-141q14 70 27.5 139.5t27.5 139.5l-97 417h151q7 -35 12 -65t11 -65q3 -17 5.5 -37t4.5 -40t4 -39.5t4 -34.5h6zM192 737l25 131h136l-26 -131h-135zM386 737l26 131h135l-25 -131h-136z" />
    <glyph glyph-name="Zacute" unicode="&#x179;" horiz-adv-x="449" 
d="M-15 0l24 126l318 438h-222l25 132h390l-24 -122l-318 -439h232l-26 -135h-399zM262 784l194 135l78 -91l-224 -106z" />
    <glyph glyph-name="zacute" unicode="&#x17a;" horiz-adv-x="410" 
d="M-12 0l23 120l230 253h-168l23 122h334l-22 -113l-232 -254h182l-24 -128h-346zM213 570l130 195l111 -48l-171 -183z" />
    <glyph glyph-name="Zdotaccent" unicode="&#x17b;" horiz-adv-x="449" 
d="M-15 0l24 126l318 438h-222l25 132h390l-24 -122l-318 -439h232l-26 -135h-399zM263 737l25 130h133l-25 -130h-133z" />
    <glyph glyph-name="zdotaccent" unicode="&#x17c;" horiz-adv-x="410" 
d="M-12 0l23 120l230 253h-168l23 122h334l-22 -113l-232 -254h182l-24 -128h-346zM205 557l25 130h133l-25 -130h-133z" />
    <glyph glyph-name="Zcaron" unicode="&#x17d;" horiz-adv-x="449" 
d="M-15 0l24 126l318 438h-222l25 132h390l-24 -122l-318 -439h232l-26 -135h-399zM509 912l43 -53l-168 -132h-89l-113 131l58 53l117 -82z" />
    <glyph glyph-name="zcaron" unicode="&#x17e;" horiz-adv-x="410" 
d="M-12 0l23 120l230 253h-168l23 122h334l-22 -113l-232 -254h182l-24 -128h-346zM429 732l45 -48l-169 -157h-91l-110 157l62 48q8 -6 23.5 -20t32 -29.5t31.5 -29.5t23 -20z" />
    <glyph glyph-name="florin" unicode="&#x192;" horiz-adv-x="490" 
d="M137 434h85l13 61q7 36 21 73t37.5 66t58 47.5t82.5 18.5q24 0 50.5 -4t47.5 -14l-37 -113q-24 10 -37 11.5t-27 1.5q-26 0 -40 -24.5t-22 -59.5l-14 -64h83l-9 -116h-97l-41 -198q-10 -47 -24.5 -86.5t-36.5 -67.5t-52.5 -43.5t-72.5 -15.5q-21 0 -51.5 6.5t-56.5 18.5
l43 109q20 -10 32 -12t21 -2q23 0 37 21.5t25 71.5l41 198h-68z" />
    <glyph glyph-name="Ohorn" unicode="&#x1a0;" horiz-adv-x="574" 
d="M492 219q-10 -52 -28 -93.5t-46 -71t-67.5 -45t-91.5 -15.5q-68 0 -112.5 20.5t-69.5 55.5t-31.5 80.5t3.5 95.5l47 232q7 39 24 78.5t46 71.5t72 52.5t104 20.5q51 0 88 -16t63 -43q34 1 51 22.5t28 76.5l12 62h102l-16 -85q-13 -67 -45 -109.5t-86 -56.5q9 -44 0 -92z
M396 478q2 12 0 26t-10 27t-22.5 21.5t-36.5 8.5t-37 -7.5t-25 -19t-15.5 -25t-7.5 -25.5l-49 -253q-9 -48 9.5 -72.5t61.5 -24.5q31 0 52 20t28 55z" />
    <glyph glyph-name="ohorn" unicode="&#x1a1;" horiz-adv-x="509" 
d="M276 501q47 0 79.5 -14.5t52.5 -37.5q23 6 36 27.5t22 67.5q3 15 6 29.5t5 28.5h102l-15 -80q-12 -63 -41 -105.5t-80 -58.5q1 -6 1.5 -12t0.5 -12q0 -31 -4.5 -63.5t-10.5 -60.5q-11 -48 -28 -88t-44 -68.5t-65.5 -44t-92.5 -15.5q-51 0 -83.5 15t-51 40t-25 57.5
t-6.5 67.5q0 22 3.5 55.5t11.5 63.5q14 57 38.5 101.5t63.5 71.5q52 35 125 35zM264 374q-27 0 -43.5 -23.5t-30.5 -71.5q-3 -12 -6.5 -28t-5.5 -32t-3.5 -29.5t-1.5 -19.5q0 -19 8 -33t34 -14q11 0 20.5 5.5t16.5 12.5q9 9 17.5 28t15.5 43.5t11.5 51t5.5 49.5
q1 22 -6 41.5t-32 19.5z" />
    <glyph glyph-name="Uhorn" unicode="&#x1af;" horiz-adv-x="630" 
d="M494 207q-20 -101 -83 -156.5t-163 -55.5q-47 0 -87.5 15t-67.5 43.5t-38.5 69.5t-1.5 92l93 481h143l-93 -475q-8 -42 11.5 -64.5t51.5 -22.5q33 0 58.5 19t33.5 60l94 483h144l-11 -53q35 2 52.5 22t28.5 76l12 63h102l-16 -85q-16 -80 -58.5 -126t-118.5 -46h-20
l-66 -340v0z" />
    <glyph glyph-name="uhorn" unicode="&#x1b0;" horiz-adv-x="573" 
d="M244 496l-61 -314q-5 -26 5.5 -41t31.5 -15q22 0 40.5 16.5t23.5 44.5l59 309h139l-10 -49q16 1 27.5 6.5t20 17t15 29.5t11.5 44q3 15 6 29.5t5 28.5h102l-15 -80q-14 -75 -53 -120.5t-110 -50.5q-7 0 -13.5 -0.5t-14.5 -0.5l-67 -350h-139l11 46h-3q-20 -23 -51 -37
t-56 -14q-35 0 -59 11.5t-37.5 32t-16.5 48.5t3 62l67 347h139z" />
    <glyph glyph-name="AEacute" unicode="&#x1fc;" horiz-adv-x="856" 
d="M877 696l-19 -134h-260l-20 -144h224l-19 -133h-224l-21 -150h261l-18 -135h-407l21 150h-179l-89 -150h-153l402 696h501zM447 559l-156 -280h122l39 279zM505 784l194 135l78 -91l-224 -106z" />
    <glyph glyph-name="aeacute" unicode="&#x1fd;" horiz-adv-x="720" 
d="M467 -5q-108 0 -147 74q-38 -38 -87.5 -56t-91.5 -18q-58 0 -91.5 26.5t-33.5 85.5q0 33 10 68.5t35.5 64t70 47t113.5 18.5l51 -3q5 23 5.5 29.5t0.5 9.5q0 15 -10 26t-39 11q-17 0 -36.5 -7.5t-39.5 -33.5l-97 62q37 59 91.5 80t114.5 21q35 0 70.5 -8.5t57.5 -28.5
q24 18 54 28.5t68 10.5q44 0 76.5 -10.5t53.5 -28t31 -41.5t10 -51q0 -50 -19.5 -83.5t-52 -54t-73 -29t-82.5 -8.5h-17t-17 1q-2 -9 -3 -19t-1 -16q1 -19 13.5 -29t28.5 -10q21 0 40.5 9.5t40.5 34.5l106 -67q-37 -56 -90.5 -80.5t-113.5 -24.5zM201 117q12 0 24 3.5
t22.5 13t18.5 26.5t11 44q-8 1 -15.5 1.5t-14.5 0.5q-48 0 -69 -14t-21 -42q0 -14 10.5 -23.5t33.5 -9.5zM531 375q-23 0 -39.5 -19.5t-25.5 -52.5q7 -2 14.5 -1t13.5 1q42 2 57 15t15 31q0 11 -8 18.5t-27 7.5zM359 570l130 195l111 -48l-171 -183z" />
    <glyph glyph-name="Oslashacute" unicode="&#x1fe;" horiz-adv-x="535" 
d="M29 22l42 56q-22 35 -26.5 77.5t4.5 90.5l47 232q7 39 24 78.5t46 71.5t72 52.5t104 20.5q49 0 85.5 -15t62.5 -41l43 58l35 -29l-50 -66q37 -66 21 -148l-47 -241q-10 -52 -28 -93.5t-46 -71t-67.5 -45t-91.5 -15.5q-55 0 -95 14t-66 38l-37 -50zM196 248l197 266
q-5 18 -21 32.5t-45 14.5q-22 0 -37 -7.5t-25 -19t-15.5 -25t-7.5 -25.5zM298 784l194 135l78 -91l-224 -106zM387 432l-193 -258q14 -40 70 -40q31 0 52 20t28 55z" />
    <glyph glyph-name="oslashacute" unicode="&#x1ff;" horiz-adv-x="459" 
d="M276 501q35 0 62.5 -8.5t47.5 -23.5q10 14 20 26.5t21 26.5l26 -21l-43 -55q18 -23 26.5 -51.5t8.5 -60.5q0 -31 -4.5 -63.5t-10.5 -60.5q-11 -48 -28 -88t-44 -68.5t-65.5 -44t-92.5 -15.5q-39 0 -66.5 8.5t-46.5 23.5l-33 -44l-27 21l18 24t19 24q-17 25 -23.5 56.5
t-6.5 66.5q0 22 3.5 55.5t11.5 63.5q14 57 38.5 101.5t63.5 71.5q52 35 125 35zM227 570l130 195l111 -48l-171 -183zM252 141q8 8 16 26t15 41t11.5 48t6.5 48l-124 -161q5 -9 13.5 -14.5t24.5 -5.5q11 0 20.5 5.5t16.5 12.5zM264 374q-27 0 -43.5 -23.5t-30.5 -71.5
q-5 -17 -9 -40.5t-6 -43.5l121 158q-4 9 -11.5 15t-20.5 6z" />
    <glyph glyph-name="Scommaaccent" unicode="&#x218;" horiz-adv-x="523" 
d="M136 202q20 -35 49.5 -52t64.5 -17q45 0 68.5 22.5t23.5 54.5q0 31 -24.5 48.5t-68.5 28.5q-73 24 -111 65t-38 104q0 54 17 99.5t48.5 77.5t76 50t100.5 18q83 0 133 -30.5t77 -82.5l-119 -89q-25 31 -50 44.5t-58 13.5q-27 0 -48.5 -19.5t-21.5 -45.5q0 -17 7.5 -28
t21.5 -20t33.5 -16t43.5 -15q78 -26 109.5 -68t31.5 -103q0 -59 -19 -105t-53 -77.5t-81.5 -48t-104.5 -16.5q-45 0 -81 9t-64 25.5t-48 39t-35 48.5zM107 -295l53 108h-29l25 131h136l-25 -126l-93 -113h-67z" />
    <glyph glyph-name="scommaaccent" unicode="&#x219;" horiz-adv-x="437" 
d="M113 165q17 -27 38.5 -39t51.5 -12q20 0 38.5 10.5t18.5 30.5q0 16 -16.5 25t-39.5 14q-23 6 -48.5 14t-46.5 23t-34.5 38t-13.5 58q0 42 16 74.5t42.5 54.5t60.5 33.5t70 11.5q64 0 109.5 -25.5t65.5 -71.5l-100 -67q-15 26 -36 34.5t-39 8.5q-16 0 -26 -4t-15.5 -9.5
t-7.5 -11.5t-2 -10q0 -9 9.5 -16t22 -12t25.5 -8t21 -5q21 -6 43.5 -14.5t41 -23.5t30.5 -37.5t12 -55.5q0 -40 -15 -73t-42.5 -56t-66 -36t-86.5 -13q-80 2 -124.5 31.5t-65.5 81.5zM59 -295l53 108h-29l25 131h136l-25 -126l-93 -113h-67z" />
    <glyph glyph-name="schwa" unicode="&#x259;" horiz-adv-x="457" 
d="M206 123q23 0 39.5 19.5t25.5 52.5q-7 2 -14.5 1t-13.5 -1q-42 -2 -57 -15t-15 -31q0 -11 8 -18.5t27 -7.5zM270 503q81 0 123.5 -41.5t42.5 -125.5q0 -56 -11.5 -116.5t-38.5 -110t-72 -81.5t-113 -32q-44 0 -76.5 10.5t-53.5 28t-31 41.5t-10 51q0 50 19.5 83.5t52 54
t73 29t82.5 8.5h17t17 -1q2 9 3 19t1 16q-1 19 -13.5 29t-28.5 10q-21 0 -40.5 -9.5t-40.5 -34.5l-106 67q37 56 90.5 80.5t113.5 24.5z" />
    <glyph glyph-name="primemod" unicode="&#x2b9;" horiz-adv-x="265" 
d="M381 702l-205 -308l-97 32l168 326z" />
    <glyph glyph-name="circumflex" unicode="&#x2c6;" horiz-adv-x="451" 
d="M318 625l-155 -104l-44 47l171 157h91l110 -162l-61 -41z" />
    <glyph glyph-name="caron" unicode="&#x2c7;" horiz-adv-x="451" 
d="M475 732l45 -48l-169 -157h-91l-110 157l62 48q8 -6 23.5 -20t32 -29.5t31.5 -29.5t23 -20z" />
    <glyph glyph-name="breve" unicode="&#x2d8;" horiz-adv-x="509" 
d="M308 542q-44 0 -71.5 17t-42.5 42.5t-19 55t0 54.5h103q-2 -11 -0.5 -23.5t7 -23.5t15 -18t23.5 -7q15 0 27 7t21.5 18t16 23.5t8.5 23.5h104q-6 -28 -20 -58t-37 -54.5t-56.5 -40.5t-78.5 -16z" />
    <glyph glyph-name="dotaccent" unicode="&#x2d9;" horiz-adv-x="466" 
d="M238 557l25 130h133l-25 -130h-133z" />
    <glyph glyph-name="ring" unicode="&#x2da;" horiz-adv-x="466" 
d="M303 597q16 0 29 11.5t13 29.5q0 11 -8.5 19t-21.5 8q-17 0 -30 -11.5t-13 -28.5q0 -12 9 -20t22 -8zM294 523q-42 0 -71 25t-29 63q0 26 9 49.5t25.5 41.5t40.5 28.5t53 10.5q21 0 39.5 -6.5t32 -18.5t21.5 -28.5t8 -35.5q0 -26 -9 -49.5t-25.5 -41t-40.5 -28t-54 -10.5
z" />
    <glyph glyph-name="ogonek" unicode="&#x2db;" horiz-adv-x="459" 
d="M203 -120q2 23 18 54.5t51 71.5h77l2 -4q-35 -41 -46 -67.5t-13 -34.5q-2 -15 7 -22.5t25 -7.5q9 0 24 3t36 13l14 -66q-28 -16 -56 -22t-53 -6q-43 0 -67 24.5t-19 63.5z" />
    <glyph glyph-name="tilde" unicode="&#x2dc;" horiz-adv-x="439" 
d="M247 698q18 0 34.5 -7t32 -14.5t29 -14t24.5 -6.5q15 0 29.5 7.5t39.5 33.5l62 -37q-30 -59 -62.5 -81t-67.5 -22q-19 0 -35.5 6.5t-31.5 14t-28.5 14t-26.5 6.5q-14 0 -30.5 -8.5t-41.5 -34.5l-60 41q34 59 66.5 80.5t66.5 21.5z" />
    <glyph glyph-name="hungarumlaut" unicode="&#x2dd;" horiz-adv-x="489" 
d="M314 570l130 195l112 -48l-171 -183zM134 570l130 195l112 -48l-171 -183z" />
    <glyph glyph-name="tonos" unicode="&#x384;" horiz-adv-x="459" 
d="M232 570l130 195l112 -48l-171 -183z" />
    <glyph glyph-name="dieresistonos" unicode="&#x385;" horiz-adv-x="543" 
d="M421 562l25 126h129l-24 -126h-130zM79 562l25 126h128l-24 -126h-129zM222 563l119 201l116 -41l-161 -190z" />
    <glyph glyph-name="Alphatonos" unicode="&#x386;" horiz-adv-x="548" 
d="M350 0l-4 143h-164l-65 -143h-154l334 696h143l63 -696h-153zM337 370v139h-5l-54 -138l-39 -100h99zM-28 545l130 195l112 -48l-171 -183z" />
    <glyph glyph-name="anoteleia" unicode="&#x387;" horiz-adv-x="263" 
d="M68 264l30 157h150l-30 -157h-150z" />
    <glyph glyph-name="Epsilontonos" unicode="&#x388;" horiz-adv-x="484" 
d="M20 0l135 696h401l-26 -134h-257l-29 -144h222l-26 -133h-222l-28 -151h257l-26 -134h-401zM-108 555l130 195l112 -48l-171 -183z" />
    <glyph glyph-name="Etatonos" unicode="&#x389;" horiz-adv-x="560" 
d="M318 0l56 286h-156l-55 -286h-143l135 696h143l-54 -278h156l54 278h142l-135 -696h-143zM-118 545l130 195l112 -48l-171 -183z" />
    <glyph glyph-name="Iotatonos" unicode="&#x38a;" horiz-adv-x="265" 
d="M20 0l135 696h143l-135 -696h-143zM-111 545l130 195l112 -48l-171 -183z" />
    <glyph glyph-name="Omicrontonos" unicode="&#x38c;" horiz-adv-x="535" 
d="M492 219q-10 -52 -28 -93.5t-46 -71t-67.5 -45t-91.5 -15.5q-68 0 -112.5 20.5t-69.5 55.5t-31.5 80.5t3.5 95.5l47 232q7 39 24 78.5t46 71.5t72 52.5t104 20.5q57 0 98.5 -20.5t66 -54.5t33 -77t-0.5 -89zM396 478q2 12 0 26t-10 27t-22.5 21.5t-36.5 8.5t-37 -7.5
t-25 -19t-15.5 -25t-7.5 -25.5l-49 -253q-9 -48 9.5 -72.5t61.5 -24.5q31 0 52 20t28 55zM-96 545l130 195l112 -48l-171 -183z" />
    <glyph glyph-name="Upsilontonos" unicode="&#x38e;" horiz-adv-x="504" 
d="M298 415q17 34 34 70.5t34 69.5l75 141h155l-259 -417l-54 -279h-141q14 70 27.5 139.5t27.5 139.5l-97 417h151q7 -35 12 -65t11 -65q3 -17 5.5 -37t4.5 -40t4 -39.5t4 -34.5h6zM-156 545l130 195l112 -48l-171 -183z" />
    <glyph glyph-name="Omegatonos" unicode="&#x38f;" horiz-adv-x="537" 
d="M347 702q57 0 97 -20.5t63.5 -54.5t31 -78.5t-1.5 -92.5l-28 -154q-4 -22 -9 -42t-12 -41q-16 -55 -51 -84v-2h52l-25 -133h-212l26 134q20 4 32.5 16t21 28.5t13 35t8.5 36.5l43 227q3 16 0.5 31.5t-10.5 27.5t-22.5 19t-35.5 7q-40 0 -61 -25t-29 -66l-44 -232
q-3 -14 -3.5 -29t3 -29t11.5 -25t23 -16l-27 -140h-210q7 33 13 66t12 67h50q1 1 1 0.5t1 1.5q-12 14 -16.5 32t-4.5 37.5t3.5 39.5t6.5 38l35 174q10 52 27.5 97t46.5 78t73 52t108 19zM-96 545l130 195l112 -48l-171 -183z" />
    <glyph glyph-name="iotadieresistonos" unicode="&#x390;" horiz-adv-x="256" 
d="M215 106q-6 -29 -11 -56t-11 -55q-8 -1 -24 -1h-23q-32 0 -53 6.5t-34 19t-18 30t-5 39.5q0 17 2.5 34t6.5 31l66 340h133q-17 -86 -33.5 -171t-33.5 -171q-2 -5 -2 -9v-9q0 -13 7.5 -19.5t32.5 -8.5zM95 563l119 201l116 -41l-161 -190zM294 562l25 126h129l-24 -126
h-130zM-48 562l25 126h128l-24 -126h-129z" />
    <glyph glyph-name="Alpha" unicode="&#x391;" horiz-adv-x="548" 
d="M350 0l-4 143h-164l-65 -143h-154l334 696h143l63 -696h-153zM337 370v139h-5l-54 -138l-39 -100h99z" />
    <glyph glyph-name="Beta" unicode="&#x392;" horiz-adv-x="536" 
d="M437 366q0 -2 -0.5 -2.5t-0.5 -2.5q37 -15 52.5 -48.5t15.5 -71.5q0 -66 -24 -112t-62.5 -74.5t-87.5 -41.5t-100 -13h-210l135 696h207q91 0 137 -40t46 -118q0 -60 -25.5 -105.5t-82.5 -66.5zM220 297l-32 -164h75q24 0 42.5 9.5t30.5 25t18 34.5t6 37q0 27 -15.5 42.5
t-45.5 15.5h-79zM273 564l-28 -141h74q19 0 35 7.5t27.5 20.5t17.5 29.5t6 33.5q0 26 -15 38t-48 12h-69z" />
    <glyph glyph-name="Gamma" unicode="&#x393;" horiz-adv-x="475" 
d="M273 562l-110 -562h-143l135 696h401l-26 -134h-257z" />
    <glyph glyph-name="Delta" unicode="&#x394;" horiz-adv-x="549" 
d="M-37 0l334 696h143l63 -696h-540zM341 348l-3 163h-6l-66 -163l-89 -217h168z" />
    <glyph glyph-name="Delta" unicode="&#x2206;" horiz-adv-x="549" 
d="M-37 0l334 696h143l63 -696h-540zM341 348l-3 163h-6l-66 -163l-89 -217h168z" />
    <glyph glyph-name="Epsilon" unicode="&#x395;" horiz-adv-x="484" 
d="M20 0l135 696h401l-26 -134h-257l-29 -144h222l-26 -133h-222l-28 -151h257l-26 -134h-401z" />
    <glyph glyph-name="Zeta" unicode="&#x396;" horiz-adv-x="449" 
d="M-15 0l24 126l318 438h-222l25 132h390l-24 -122l-318 -439h232l-26 -135h-399z" />
    <glyph glyph-name="Eta" unicode="&#x397;" horiz-adv-x="560" 
d="M318 0l56 286h-156l-55 -286h-143l135 696h143l-54 -278h156l54 278h142l-135 -696h-143z" />
    <glyph glyph-name="Theta" unicode="&#x398;" horiz-adv-x="535" 
d="M492 219q-10 -52 -28 -93.5t-46 -71t-67.5 -45t-91.5 -15.5q-68 0 -112.5 20.5t-69.5 55.5t-31.5 80.5t3.5 95.5l47 232q7 39 24 78.5t46 71.5t72 52.5t104 20.5q57 0 98.5 -20.5t66 -54.5t33 -77t-0.5 -89zM396 478q2 12 0 26t-10 27t-22.5 21.5t-36.5 8.5t-37 -7.5
t-25 -19t-15.5 -25t-7.5 -25.5l-49 -253q-9 -48 9.5 -72.5t61.5 -24.5q31 0 52 20t28 55zM246 413h118l-26 -128h-117z" />
    <glyph glyph-name="Iota" unicode="&#x399;" horiz-adv-x="265" 
d="M20 0l135 696h143l-135 -696h-143z" />
    <glyph glyph-name="Kappa" unicode="&#x39a;" horiz-adv-x="545" 
d="M251 450q3 0 5 -1q23 26 43.5 51t42.5 50q5 6 23.5 27.5t40.5 46t40.5 46t23.5 26.5h167l-248 -289l127 -407h-151q-22 71 -43.5 141.5t-42.5 141.5l-78 -84l-38 -199h-143l135 696h143l-47 -246v0z" />
    <glyph glyph-name="Lambda" unicode="&#x39b;" horiz-adv-x="537" 
d="M348 0q-6 97 -9.5 193.5t-6.5 193.5q0 29 -1 58.5t-1 58.5h-6q-14 -34 -27.5 -69t-27.5 -69q-38 -94 -75.5 -182.5t-82.5 -183.5h-152l333 696h142l64 -696h-150v0z" />
    <glyph glyph-name="Mu" unicode="&#x39c;" horiz-adv-x="675" 
d="M439 0l64 328l-4 1l-71 -125l-54 -90h-104l-20 96l-22 120l-5 -1l-63 -329h-143l135 696h131l41 -200l36 -171h5l98 173l119 198h135l-135 -696h-143z" />
    <glyph glyph-name="Nu" unicode="&#x39d;" horiz-adv-x="589" 
d="M367 0l-83 242l-45 149h-3l-75 -391h-142l135 696h126l69 -221q1 -8 10 -35.5t19.5 -59t19 -59.5t8.5 -37h4l76 412h141l-135 -696h-125z" />
    <glyph glyph-name="Xi" unicode="&#x39e;" horiz-adv-x="496" 
d="M111 562l26 134h414l-26 -134h-414zM97 286l25 131h334l-25 -131h-334zM0 0l25 134h418l-25 -134h-418z" />
    <glyph glyph-name="Omicron" unicode="&#x39f;" horiz-adv-x="535" 
d="M492 219q-10 -52 -28 -93.5t-46 -71t-67.5 -45t-91.5 -15.5q-68 0 -112.5 20.5t-69.5 55.5t-31.5 80.5t3.5 95.5l47 232q7 39 24 78.5t46 71.5t72 52.5t104 20.5q57 0 98.5 -20.5t66 -54.5t33 -77t-0.5 -89zM396 478q2 12 0 26t-10 27t-22.5 21.5t-36.5 8.5t-37 -7.5
t-25 -19t-15.5 -25t-7.5 -25.5l-49 -253q-9 -48 9.5 -72.5t61.5 -24.5q31 0 52 20t28 55z" />
    <glyph glyph-name="Pi" unicode="&#x3a0;" horiz-adv-x="554" 
d="M311 0l109 560h-148l-109 -560h-143l135 696h433l-135 -696h-142z" />
    <glyph glyph-name="Rho" unicode="&#x3a1;" horiz-adv-x="513" 
d="M367 696q86 0 137.5 -42t51.5 -131q0 -65 -19 -115t-52.5 -84t-80.5 -52t-104 -18h-87l-50 -254h-143l135 696h212zM273 562l-34 -173h78q17 0 34.5 5.5t31.5 18t23 33t9 50.5q0 35 -19 50.5t-54 15.5h-69z" />
    <glyph glyph-name="Sigma" unicode="&#x3a3;" horiz-adv-x="444" 
d="M-15 0l25 133l158 225l-75 209l25 129h389l-26 -134h-222l74 -204l-155 -223h232l-26 -135h-399z" />
    <glyph glyph-name="Tau" unicode="&#x3a4;" horiz-adv-x="453" 
d="M366 564l-110 -564h-143l110 564h-147l25 132h437l-26 -132h-146z" />
    <glyph glyph-name="Upsilon" unicode="&#x3a5;" horiz-adv-x="504" 
d="M298 415q17 34 34 70.5t34 69.5l75 141h155l-259 -417l-54 -279h-141q14 70 27.5 139.5t27.5 139.5l-97 417h151q7 -35 12 -65t11 -65q3 -17 5.5 -37t4.5 -40t4 -39.5t4 -34.5h6z" />
    <glyph glyph-name="Phi" unicode="&#x3a6;" horiz-adv-x="690" 
d="M338 533q-32 -1 -54 -17t-36 -39t-21.5 -52.5t-14.5 -62.5q-3 -16 -5.5 -30t-4.5 -32q-2 -19 -0.5 -38.5t9.5 -35t22.5 -26.5t38.5 -13zM375 0h-139l11 61q-67 8 -106.5 35t-58 66.5t-19.5 89t9 101.5q2 12 5.5 28t7.5 32.5t8 31.5t8 27q26 81 91 131t171 54l9 39h137
l-7 -39q85 -8 131.5 -52t51.5 -111q1 -26 -0.5 -57t-6 -64t-12 -66t-17.5 -61q-14 -37 -35.5 -70t-53 -58t-74.5 -40t-100 -17zM411 187q47 4 70.5 29.5t37.5 63.5q4 13 8.5 30.5t8.5 36.5t7 37.5t5 33.5q7 49 -9.5 79.5t-61.5 35.5z" />
    <glyph glyph-name="Chi" unicode="&#x3a7;" horiz-adv-x="534" 
d="M269 211l-139 -211h-168q64 91 128 179.5t129 179.5l-111 337h163l48 -186h5l122 186h170q-61 -85 -121.5 -168.5t-122.5 -168.5q31 -91 61 -179.5t60 -179.5h-164l-54 211h-6z" />
    <glyph glyph-name="Psi" unicode="&#x3a8;" horiz-adv-x="686" 
d="M664 362q-9 -49 -29 -88.5t-52.5 -68t-77.5 -45t-104 -19.5l-27 -141h-143l27 141q-45 5 -81.5 24.5t-60.5 50.5t-33 73t1 92l62 315h138l-64 -329q-4 -21 0 -37t13 -27.5t22.5 -18.5t28.5 -9l82 421h143l-82 -421q32 4 61 25.5t37 61.5l66 334h138l-65 -334v0z" />
    <glyph glyph-name="Omega" unicode="&#x3a9;" horiz-adv-x="537" 
d="M347 702q57 0 97 -20.5t63.5 -54.5t31 -78.5t-1.5 -92.5l-28 -154q-4 -22 -9 -42t-12 -41q-16 -55 -51 -84v-2h52l-25 -133h-212l26 134q20 4 32.5 16t21 28.5t13 35t8.5 36.5l43 227q3 16 0.5 31.5t-10.5 27.5t-22.5 19t-35.5 7q-40 0 -61 -25t-29 -66l-44 -232
q-3 -14 -3.5 -29t3 -29t11.5 -25t23 -16l-27 -140h-210q7 33 13 66t12 67h50q1 1 1 0.5t1 1.5q-12 14 -16.5 32t-4.5 37.5t3.5 39.5t6.5 38l35 174q10 52 27.5 97t46.5 78t73 52t108 19z" />
    <glyph glyph-name="Iotadieresis" unicode="&#x3aa;" horiz-adv-x="265" 
d="M20 0l135 696h143l-135 -696h-143zM260 737l26 131h135l-25 -131h-136zM66 737l25 131h136l-26 -131h-135z" />
    <glyph glyph-name="Upsilondieresis" unicode="&#x3ab;" horiz-adv-x="504" 
d="M298 415q17 34 34 70.5t34 69.5l75 141h155l-259 -417l-54 -279h-141q14 70 27.5 139.5t27.5 139.5l-97 417h151q7 -35 12 -65t11 -65q3 -17 5.5 -37t4.5 -40t4 -39.5t4 -34.5h6zM191 737l25 131h136l-26 -131h-135zM385 737l26 131h135l-25 -131h-136z" />
    <glyph glyph-name="alphatonos" unicode="&#x3ac;" horiz-adv-x="462" 
d="M238 0l8 39h-4q-18 -21 -45.5 -33t-47.5 -12q-37 0 -60.5 11.5t-36.5 31t-17.5 45t-4.5 53.5q0 36 5.5 76t13.5 73q12 49 28 88.5t39 68t54.5 44t73.5 15.5q23 0 43 -9t36 -33q1 0 1.5 0.5t1.5 0.5l8 35h138l-96 -494h-138zM224 570l130 195l112 -48l-171 -183zM214 122
q18 0 30.5 12.5t20.5 32.5q6 14 11.5 36t9.5 44.5t6.5 41t2.5 25.5q0 18 -7 35t-30 17q-37 0 -54 -43q-6 -15 -11.5 -35.5t-10.5 -43.5q-4 -18 -6.5 -37t-3.5 -37q0 -20 8 -34t34 -14z" />
    <glyph glyph-name="epsilontonos" unicode="&#x3ad;" horiz-adv-x="429" 
d="M171 153q0 -14 13.5 -24t33.5 -10t45 12t41 36l98 -84q-16 -17 -34 -32.5t-42 -28.5t-55.5 -20.5t-73.5 -7.5q-36 0 -67.5 8.5t-54.5 25t-36 41.5t-13 59q0 44 22.5 77.5t65.5 50.5v2q-23 11 -33.5 30.5t-10.5 40.5q0 39 15.5 71t42.5 54.5t63 34.5t77 12
q67 0 112.5 -31.5t59.5 -84.5l-117 -53q-7 23 -23 32.5t-33 9.5q-23 0 -41.5 -13.5t-18.5 -35.5q0 -13 7 -21t33 -8h54l-19 -100h-56q-24 0 -39.5 -11.5t-15.5 -31.5zM222 570l130 195l112 -48l-171 -183z" />
    <glyph glyph-name="etatonos" unicode="&#x3ae;" horiz-adv-x="477" 
d="M244 495l-8 -41l4 -1q20 21 49 34t55 13q37 0 61.5 -11.5t37 -32t15 -48.5t-4.5 -62l-91 -476h-139l86 443q5 26 -4.5 41t-33.5 15q-23 0 -40.5 -16.5t-23.5 -44.5l-59 -309h-138l97 496h137zM224 570l130 195l112 -48l-171 -183z" />
    <glyph glyph-name="iotatonos" unicode="&#x3af;" horiz-adv-x="256" 
d="M215 106q-6 -29 -11 -56t-11 -55q-8 -1 -24 -1h-23q-32 0 -53 6.5t-34 19t-18 30t-5 39.5q0 17 2.5 34t6.5 31l66 340h133q-17 -86 -33.5 -171t-33.5 -171q-2 -5 -2 -9v-9q0 -13 7.5 -19.5t32.5 -8.5zM135 570l130 195l112 -48l-171 -183z" />
    <glyph glyph-name="upsilondieresistonos" unicode="&#x3b0;" horiz-adv-x="471" 
d="M423 202q-21 -104 -71 -156t-145 -52q-59 0 -94 18.5t-52.5 49t-19.5 69t6 78.5l55 285h140l-59 -289q-3 -14 -3.5 -28t3 -25.5t12 -19t25.5 -7.5q29 0 42.5 19.5t19.5 48.5l59 301h139zM205 563l119 201l116 -41l-161 -190zM404 562l25 126h129l-24 -126h-130zM62 562
l25 126h128l-24 -126h-129z" />
    <glyph glyph-name="alpha" unicode="&#x3b1;" horiz-adv-x="462" 
d="M238 0l8 39h-4q-18 -21 -45.5 -33t-47.5 -12q-37 0 -60.5 11.5t-36.5 31t-17.5 45t-4.5 53.5q0 36 5.5 76t13.5 73q12 49 28 88.5t39 68t54.5 44t73.5 15.5q23 0 43 -9t36 -33q1 0 1.5 0.5t1.5 0.5l8 35h138l-96 -494h-138zM214 122q18 0 30.5 12.5t20.5 32.5
q6 14 11.5 36t9.5 44.5t6.5 41t2.5 25.5q0 18 -7 35t-30 17q-37 0 -54 -43q-6 -15 -11.5 -35.5t-10.5 -43.5q-4 -18 -6.5 -37t-3.5 -37q0 -20 8 -34t34 -14z" />
    <glyph glyph-name="beta" unicode="&#x3b2;" horiz-adv-x="481" 
d="M400 420q0 -1 -0.5 -1.5t-0.5 -1.5q35 -12 47.5 -41t12.5 -61q0 -54 -12.5 -111t-39.5 -104t-69 -77t-101 -30q-23 0 -44.5 8.5t-36.5 30.5h-5q-8 -42 -18 -86.5t-18 -86.5h-137l132 682q17 89 71 136.5t143 47.5q42 0 73.5 -12t52 -32t30.5 -48t10 -59q0 -56 -24 -96.5
t-66 -57.5zM269 460h16q31 0 49 28.5t18 67.5q0 19 -10.5 32t-31.5 13q-20 0 -31.5 -9.5t-18 -23.5t-10 -30.5t-7.5 -31.5l-63 -321q-2 -10 -2 -20.5t3.5 -19.5t11 -14.5t20.5 -5.5q27 0 47 18.5t33 45.5t19 57.5t6 54.5q0 26 -13.5 43.5t-41.5 17.5h-12z" />
    <glyph glyph-name="gamma" unicode="&#x3b3;" horiz-adv-x="446" 
d="M230 203q39 78 68 149l58 142h149q-29 -68 -56 -126.5t-56 -116t-62.5 -117t-75.5 -129.5l-41 -206h-134l36 180q-5 86 -13 176.5t-20 177.5q-3 25 -9.5 35.5t-30.5 11.5l-6 107q32 11 49.5 13.5t25.5 2.5q53 0 76 -29t30 -89q5 -38 6.5 -86.5t1.5 -95.5h4z" />
    <glyph glyph-name="delta" unicode="&#x3b4;" horiz-adv-x="463" 
d="M184 460q-42 43 -42 97q0 42 15.5 73.5t43 52.5t64.5 31.5t79 10.5q26 0 62.5 -3.5t78.5 -17.5l-38 -117q-27 11 -48.5 14.5t-37.5 3.5q-14 0 -28 -3t-25.5 -9t-19 -15.5t-7.5 -22.5q0 -19 20.5 -34.5t45.5 -32.5q21 -14 39.5 -29t32 -35t21.5 -46t8 -62q0 -22 -3 -51
t-9 -53q-26 -112 -81 -165t-146 -53q-50 0 -84.5 13.5t-56 37t-31 55.5t-9.5 69q0 11 3 34.5t7 43.5q7 35 17.5 68t28 61t42 50t58.5 34zM268 374q-37 -13 -54.5 -40t-29.5 -80q-5 -23 -8 -39.5t-3 -33.5q0 -21 9.5 -40t37.5 -19q32 0 51 35t29 89q4 19 5 30.5t2 20.5
q0 26 -8 45.5t-31 31.5z" />
    <glyph glyph-name="epsilon" unicode="&#x3b5;" horiz-adv-x="429" 
d="M171 153q0 -14 13.5 -24t33.5 -10t45 12t41 36l98 -84q-16 -17 -34 -32.5t-42 -28.5t-55.5 -20.5t-73.5 -7.5q-36 0 -67.5 8.5t-54.5 25t-36 41.5t-13 59q0 44 22.5 77.5t65.5 50.5v2q-23 11 -33.5 30.5t-10.5 40.5q0 39 15.5 71t42.5 54.5t63 34.5t77 12
q67 0 112.5 -31.5t59.5 -84.5l-117 -53q-7 23 -23 32.5t-33 9.5q-23 0 -41.5 -13.5t-18.5 -35.5q0 -13 7 -21t33 -8h54l-19 -100h-56q-24 0 -39.5 -11.5t-15.5 -31.5z" />
    <glyph glyph-name="zeta" unicode="&#x3b6;" horiz-adv-x="410" 
d="M328 580h-167l24 124h375l-20 -104q-89 -60 -153 -117.5t-105.5 -108.5t-61.5 -93t-20 -69q0 -24 10 -41t26 -29t36 -21.5t39 -19.5q38 -19 54 -41.5t16 -49.5q0 -21 -9.5 -47t-26.5 -53.5t-40 -56t-49 -55.5l-92 57q19 23 32 39t21 27t11 18.5t3 14.5q0 19 -41 35
q-28 10 -54 24.5t-46.5 35t-32.5 49t-12 68.5q0 38 16.5 87.5t51.5 104t88 111t127 109.5v2z" />
    <glyph glyph-name="eta" unicode="&#x3b7;" horiz-adv-x="477" 
d="M244 495l-8 -41l4 -1q20 21 49 34t55 13q37 0 61.5 -11.5t37 -32t15 -48.5t-4.5 -62l-91 -476h-139l86 443q5 26 -4.5 41t-33.5 15q-23 0 -40.5 -16.5t-23.5 -44.5l-59 -309h-138l97 496h137z" />
    <glyph glyph-name="theta" unicode="&#x3b8;" horiz-adv-x="459" 
d="M321 722q45 0 76.5 -12.5t51.5 -33.5t29 -50t9 -62q-1 -29 -6.5 -58.5t-10.5 -58.5l-40 -210q-6 -30 -14 -60t-19 -54q-30 -72 -82.5 -100.5t-116.5 -28.5q-62 0 -102.5 27.5t-55.5 70.5q-12 32 -8.5 73.5t14.5 95.5l42 211q4 21 9.5 43.5t12 44.5t14 41.5t16.5 33.5
q26 41 68.5 64t112.5 23zM289 231q4 21 7.5 41.5t8.5 41.5h-109l-17 -89l-4 -26t-2 -24q0 -20 9 -36t33 -16q19 0 31 9t20.5 24t13.5 34.5t9 40.5zM216 419h109l13 69q3 18 5 36.5t-0.5 33.5t-11 24.5t-26.5 9.5q-32 0 -49.5 -30t-28.5 -85z" />
    <glyph glyph-name="iota" unicode="&#x3b9;" horiz-adv-x="256" 
d="M215 106q-6 -29 -11 -56t-11 -55q-8 -1 -24 -1h-23q-32 0 -53 6.5t-34 19t-18 30t-5 39.5q0 17 2.5 34t6.5 31l66 340h133q-17 -86 -33.5 -171t-33.5 -171q-2 -5 -2 -9v-9q0 -13 7.5 -19.5t32.5 -8.5z" />
    <glyph glyph-name="kappa" unicode="&#x3ba;" horiz-adv-x="478" 
d="M219 357q2 0 2.5 -0.5t1.5 -0.5l62 66l73 72h175q-52 -50 -103 -99.5t-102 -99.5l111 -295h-157q-17 46 -32.5 92t-31.5 93l-40 -36q-7 -38 -14 -75t-15 -74h-138l96 494h138l-26 -137v0z" />
    <glyph glyph-name="lambda" unicode="&#x3bb;" horiz-adv-x="426" 
d="M223 276q-31 -69 -61 -138t-61 -138h-142l246 479l-3 76q-1 12 -3 22t-8 16.5t-17.5 10t-29.5 3.5h-11l14 114q20 5 41 7t36 2q30 0 50.5 -8.5t33.5 -24t19 -37.5t8 -50l37 -480q2 -18 9.5 -23t27.5 -7l-13 -101q-15 -2 -27.5 -3t-23.5 -1q-53 0 -78 22t-28 73
q0 8 -1.5 35t-3.5 58t-3.5 58t-2.5 35h-5z" />
    <glyph glyph-name="nu" unicode="&#x3bd;" horiz-adv-x="450" 
d="M481 495q-26 -75 -53.5 -139.5t-56.5 -124.5t-61.5 -116.5t-68.5 -114.5h-142l-57 495h148l7 -162q2 -38 1.5 -76t-2.5 -80h5q36 68 67.5 149t59.5 169h153z" />
    <glyph glyph-name="xi" unicode="&#x3be;" horiz-adv-x="399" 
d="M381 547q-22 44 -71 44q-18 0 -31.5 -9t-22.5 -23t-13 -30.5t-4 -31.5q0 -26 13.5 -43t49.5 -17h91l-23 -117h-85q-33 0 -54.5 -14t-33.5 -34.5t-17 -43.5t-5 -40q0 -15 4.5 -25.5t10.5 -17.5t13 -11t13 -7q37 -19 64.5 -33t45.5 -27t27 -28t9 -35q0 -23 -9 -46.5
t-24 -47.5t-34.5 -49t-39.5 -50l-102 56q7 9 14.5 20.5t14.5 23t11.5 22t4.5 19.5q0 19 -14.5 26.5t-43.5 18.5q-59 22 -86 61.5t-27 111.5q0 75 30.5 129.5t90.5 77.5q1 0 1 2q-32 15 -43 44t-11 58q0 54 15.5 98.5t44 76t70 49t92.5 17.5q63 0 108.5 -29t68.5 -83z" />
    <glyph glyph-name="omicron" unicode="&#x3bf;" horiz-adv-x="459" 
d="M276 501q46 0 78 -13.5t52 -36.5t29.5 -53.5t9.5 -63.5q0 -31 -4.5 -63.5t-10.5 -60.5q-11 -48 -28 -88t-44 -68.5t-65.5 -44t-92.5 -15.5q-51 0 -83.5 15t-51 40t-25 57.5t-6.5 67.5q0 22 3.5 55.5t11.5 63.5q14 57 38.5 101.5t63.5 71.5q52 35 125 35zM264 374
q-27 0 -43.5 -23.5t-30.5 -71.5q-3 -12 -6.5 -28t-5.5 -32t-3.5 -29.5t-1.5 -19.5q0 -19 8 -33t34 -14q11 0 20.5 5.5t16.5 12.5q9 9 17.5 28t15.5 43.5t11.5 51t5.5 49.5q1 22 -6 41.5t-32 19.5z" />
    <glyph glyph-name="pi" unicode="&#x3c0;" horiz-adv-x="477" 
d="M247 0l75 391h-99l-76 -391h-138l97 496h376l-96 -496h-139z" />
    <glyph glyph-name="rho" unicode="&#x3c1;" horiz-adv-x="465" 
d="M233 -5q-21 0 -44.5 7t-37.5 25h-4l-44 -227h-139l87 454q4 22 10.5 46.5t14.5 47.5t18 43t22 35q28 36 69.5 55.5t97.5 19.5q45 0 77.5 -13.5t53 -37t30 -54t9.5 -63.5q0 -32 -5 -66t-12 -62q-11 -50 -27 -88t-39.5 -65t-57 -41.5t-79.5 -15.5zM269 374
q-27 0 -43.5 -23.5t-30.5 -71.5q-3 -12 -6.5 -28t-5.5 -32t-3.5 -29.5t-1.5 -19.5q0 -19 8 -33t34 -14q11 0 20.5 5.5t16.5 12.5q9 9 17.5 28t15.5 43.5t11.5 51t5.5 49.5q1 22 -6 41.5t-32 19.5z" />
    <glyph glyph-name="sigma1" unicode="&#x3c2;" horiz-adv-x="428" 
d="M280 502q63 0 105 -30.5t50 -87.5q-29 -15 -60 -28.5t-60 -28.5q-8 29 -22.5 37.5t-25.5 8.5q-31 0 -47.5 -24t-26.5 -62q-5 -20 -9.5 -44.5t-4.5 -41.5q0 -23 10 -38.5t26.5 -27t36.5 -21t40 -21.5q55 -32 55 -78q0 -22 -13.5 -51.5t-33.5 -58.5l-60 -84
q-23 13 -52.5 30t-53.5 30l39 62q27 39 -9 53q-70 26 -100 62t-30 92q0 61 11 123.5t39 113.5t75.5 83t120.5 32z" />
    <glyph glyph-name="sigma" unicode="&#x3c3;" horiz-adv-x="472" 
d="M421 386q-1 -2 -1 -5q13 -11 18 -30t5 -39q0 -25 -3.5 -51t-8.5 -50q-11 -51 -29 -91.5t-45.5 -68t-66.5 -42.5t-93 -15q-46 0 -77.5 14t-50.5 37.5t-27.5 54t-8.5 62.5q0 34 5 71t14.5 72t24 66t32.5 53q28 34 68.5 52.5t93.5 18.5h243l-21 -109h-72zM263 368
q-27 0 -43.5 -21.5t-30.5 -72.5q-3 -12 -5.5 -26.5l-5 -29t-3.5 -27.5t-1 -21q0 -19 8 -33t34 -14q21 0 37.5 21t27.5 51.5t16.5 65t5.5 62.5q0 21 -10 33t-30 12z" />
    <glyph glyph-name="tau" unicode="&#x3c4;" horiz-adv-x="324" 
d="M123 386h-80l22 109h301l-21 -109h-87l-42 -214q-2 -10 -2.5 -18.5t2.5 -15t11 -10t23 -3.5h19l-24 -125q-13 -1 -28 -1h-29q-36 0 -60 11t-38 29.5t-17.5 43t1.5 51.5z" />
    <glyph glyph-name="upsilon" unicode="&#x3c5;" horiz-adv-x="471" 
d="M423 202q-21 -104 -71 -156t-145 -52q-59 0 -94 18.5t-52.5 49t-19.5 69t6 78.5l55 285h140l-59 -289q-3 -14 -3.5 -28t3 -25.5t12 -19t25.5 -7.5q29 0 42.5 19.5t19.5 48.5l59 301h139z" />
    <glyph glyph-name="phi" unicode="&#x3c6;" horiz-adv-x="620" 
d="M336 -5q-10 -48 -19 -95t-18 -95h-135l36 189q-42 3 -73 17t-51.5 35.5t-31 49.5t-10.5 58q0 23 2 43.5t5 43.5q6 47 17.5 87.5t31.5 73t50.5 56t75.5 35.5l30 -120q-40 -12 -60 -106q-2 -13 -5.5 -36t-4.5 -39q0 -24 7.5 -43t41.5 -26l74 376h129q47 0 79.5 -12
t52.5 -33t29 -50.5t9 -63.5q0 -26 -3.5 -55.5t-7.5 -54.5q-18 -115 -77.5 -173.5t-173.5 -61.5zM359 122q22 1 41.5 13t28.5 34q7 16 13 36t10 41t6 41t2 36q0 21 -13 33.5t-39 14.5z" />
    <glyph glyph-name="chi" unicode="&#x3c7;" horiz-adv-x="458" 
d="M217 146l-96 -146h-163l100 126t101 126l-99 243h159l35 -138h2q22 34 43.5 69t43.5 69h164q-49 -61 -97.5 -121.5t-98.5 -121.5l107 -252h-160q-10 35 -19 73t-19 73h-3z" />
    <glyph glyph-name="psi" unicode="&#x3c8;" horiz-adv-x="633" 
d="M583 188q-11 -53 -33 -89t-53.5 -58.5t-70.5 -33t-83 -12.5l-38 -197h-136l38 198q-40 2 -74 16t-56.5 39t-31 61.5t0.5 83.5l58 299h138l-58 -297q-8 -38 8 -55t40 -20l74 382h135l-74 -382q10 1 22.5 5t24 13t21 22.5t13.5 34.5l57 297h138l-60 -307v0z" />
    <glyph glyph-name="omega" unicode="&#x3c9;" horiz-adv-x="665" 
d="M419 -5q-35 0 -67.5 16.5t-43.5 50.5h-4q-28 -35 -60.5 -51t-66.5 -16q-41 0 -69.5 11.5t-46 31.5t-25 47.5t-7.5 60.5t4.5 72t13.5 78t23 74t34 59q26 34 62.5 52t98.5 20l-10 -131q-20 -5 -33.5 -17t-22 -29.5t-14 -40t-10.5 -49.5q-3 -17 -4.5 -32t-2.5 -26
q0 -20 5.5 -36t28.5 -16q33 0 44 20.5t17 49.5q6 35 12.5 68.5t13.5 68.5h134l-27 -137q-2 -12 -3 -24t1.5 -22t10 -16t22.5 -6q18 0 30.5 11t21.5 29t14.5 40t8.5 44q4 21 6 39t4 27q0 10 -1 19.5t-4.5 17t-11.5 12.5t-22 5l30 131q42 -3 70 -15t45 -32t24.5 -47t7.5 -59
q0 -28 -3 -56.5t-8 -57.5q-9 -50 -25 -93.5t-42.5 -75.5t-64 -51t-88.5 -19z" />
    <glyph glyph-name="iotadieresis" unicode="&#x3ca;" horiz-adv-x="256" 
d="M215 106q-6 -29 -11 -56t-11 -55q-8 -1 -24 -1h-23q-32 0 -53 6.5t-34 19t-18 30t-5 39.5q0 17 2.5 34t6.5 31l66 340h133q-17 -86 -33.5 -171t-33.5 -171q-2 -5 -2 -9v-9q0 -13 7.5 -19.5t32.5 -8.5zM223 558l25 130h133l-25 -130h-133zM29 558l25 130h132l-25 -130
h-132z" />
    <glyph glyph-name="upsilondieresis" unicode="&#x3cb;" horiz-adv-x="471" 
d="M423 202q-21 -104 -71 -156t-145 -52q-59 0 -94 18.5t-52.5 49t-19.5 69t6 78.5l55 285h140l-59 -289q-3 -14 -3.5 -28t3 -25.5t12 -19t25.5 -7.5q29 0 42.5 19.5t19.5 48.5l59 301h139zM325 558l25 130h133l-25 -130h-133zM131 558l25 130h132l-25 -130h-132z" />
    <glyph glyph-name="omicrontonos" unicode="&#x3cc;" horiz-adv-x="459" 
d="M276 501q46 0 78 -13.5t52 -36.5t29.5 -53.5t9.5 -63.5q0 -31 -4.5 -63.5t-10.5 -60.5q-11 -48 -28 -88t-44 -68.5t-65.5 -44t-92.5 -15.5q-51 0 -83.5 15t-51 40t-25 57.5t-6.5 67.5q0 22 3.5 55.5t11.5 63.5q14 57 38.5 101.5t63.5 71.5q52 35 125 35zM264 374
q-27 0 -43.5 -23.5t-30.5 -71.5q-3 -12 -6.5 -28t-5.5 -32t-3.5 -29.5t-1.5 -19.5q0 -19 8 -33t34 -14q11 0 20.5 5.5t16.5 12.5q9 9 17.5 28t15.5 43.5t11.5 51t5.5 49.5q1 22 -6 41.5t-32 19.5zM239 570l130 195l112 -48l-171 -183z" />
    <glyph glyph-name="upsilontonos" unicode="&#x3cd;" horiz-adv-x="471" 
d="M423 202q-21 -104 -71 -156t-145 -52q-59 0 -94 18.5t-52.5 49t-19.5 69t6 78.5l55 285h140l-59 -289q-3 -14 -3.5 -28t3 -25.5t12 -19t25.5 -7.5q29 0 42.5 19.5t19.5 48.5l59 301h139zM232 570l130 195l112 -48l-171 -183z" />
    <glyph glyph-name="omegatonos" unicode="&#x3ce;" horiz-adv-x="665" 
d="M419 -5q-35 0 -67.5 16.5t-43.5 50.5h-4q-28 -35 -60.5 -51t-66.5 -16q-41 0 -69.5 11.5t-46 31.5t-25 47.5t-7.5 60.5t4.5 72t13.5 78t23 74t34 59q26 34 62.5 52t98.5 20l-10 -131q-20 -5 -33.5 -17t-22 -29.5t-14 -40t-10.5 -49.5q-3 -17 -4.5 -32t-2.5 -26
q0 -20 5.5 -36t28.5 -16q33 0 44 20.5t17 49.5q6 35 12.5 68.5t13.5 68.5h134l-27 -137q-2 -12 -3 -24t1.5 -22t10 -16t22.5 -6q18 0 30.5 11t21.5 29t14.5 40t8.5 44q4 21 6 39t4 27q0 10 -1 19.5t-4.5 17t-11.5 12.5t-22 5l30 131q42 -3 70 -15t45 -32t24.5 -47t7.5 -59
q0 -28 -3 -56.5t-8 -57.5q-9 -50 -25 -93.5t-42.5 -75.5t-64 -51t-88.5 -19zM328 570l130 195l112 -48l-171 -183z" />
    <glyph glyph-name="afii10023" unicode="&#x401;" horiz-adv-x="484" 
d="M20 0l135 696h401l-26 -134h-257l-29 -144h222l-26 -133h-222l-28 -151h257l-26 -134h-401zM393 737l26 131h135l-25 -131h-136zM199 737l25 131h136l-26 -131h-135z" />
    <glyph glyph-name="afii10051" unicode="&#x402;" horiz-adv-x="638" 
d="M395 344q-23 0 -49 -16t-46 -55q-11 -56 -19 -97t-14 -72.5t-11 -56t-9 -47.5h-142l109 565h-137l25 130h461l-26 -130h-180l-29 -146h2q27 25 64.5 37.5t70.5 12.5q62 0 97.5 -35t35.5 -116q0 -27 -3 -62t-9.5 -71.5t-17.5 -70t-27 -57.5q-25 -38 -72 -61t-120 -23
h-17.5t-18.5 1l22 116q37 0 57 10t31 33q7 16 12.5 36.5t9 41t5 38.5t1.5 30q0 27 -11.5 46t-44.5 19z" />
    <glyph glyph-name="afii10052" unicode="&#x403;" horiz-adv-x="475" 
d="M273 562l-110 -562h-143l135 696h401l-26 -134h-257zM307 784l194 135l78 -91l-224 -106z" />
    <glyph glyph-name="afii10053" unicode="&#x404;" horiz-adv-x="508" 
d="M484 172q-25 -81 -85 -129.5t-159 -48.5q-57 0 -98 17t-65 47.5t-31 72.5t2 91l49 252q9 48 28 89t49.5 72t74 48.5t100.5 17.5q48 0 84 -13t60 -36t37 -55.5t15 -71.5l-138 -40q-1 31 -18.5 55t-52.5 24q-21 0 -37 -7.5t-27.5 -19.5t-18 -26.5t-9.5 -29.5l-13 -64h169
l-25 -131h-170l-14 -76q-6 -30 7.5 -54.5t55.5 -24.5q33 0 57 21t36 58z" />
    <glyph glyph-name="afii10054" unicode="&#x405;" horiz-adv-x="523" 
d="M136 202q20 -35 49.5 -52t64.5 -17q45 0 68.5 22.5t23.5 54.5q0 31 -24.5 48.5t-68.5 28.5q-73 24 -111 65t-38 104q0 54 17 99.5t48.5 77.5t76 50t100.5 18q83 0 133 -30.5t77 -82.5l-119 -89q-25 31 -50 44.5t-58 13.5q-27 0 -48.5 -19.5t-21.5 -45.5q0 -17 7.5 -28
t21.5 -20t33.5 -16t43.5 -15q78 -26 109.5 -68t31.5 -103q0 -59 -19 -105t-53 -77.5t-81.5 -48t-104.5 -16.5q-45 0 -81 9t-64 25.5t-48 39t-35 48.5z" />
    <glyph glyph-name="afii10055" unicode="&#x406;" horiz-adv-x="265" 
d="M20 0l135 696h143l-135 -696h-143z" />
    <glyph glyph-name="afii10056" unicode="&#x407;" horiz-adv-x="265" 
d="M20 0l135 696h143l-135 -696h-143zM267 737l25 130h133l-25 -130h-133zM73 737l25 130h132l-25 -130h-132z" />
    <glyph glyph-name="afii10057" unicode="&#x408;" horiz-adv-x="431" 
d="M372 197q-18 -95 -69 -148.5t-151 -53.5q-54 0 -101 23.5t-76 72.5l109 83q13 -20 30.5 -33t39.5 -13q35 0 53 21t24 53l96 494h143l-98 -499v0z" />
    <glyph glyph-name="afii10058" unicode="&#x409;" horiz-adv-x="806" 
d="M312 562l-42 -215q-14 -71 -32.5 -134t-48.5 -111.5t-76 -79.5t-114 -38l-19 113q43 12 70.5 36.5t44.5 57.5t27.5 72t18.5 80l68 353h373l-51 -261h74q88 0 138 -47t50 -125q0 -63 -19.5 -112t-53 -82.5t-80 -51t-100.5 -17.5h-237l109 562h-100zM649 239
q0 37 -21.5 49.5t-48.5 12.5h-75l-32 -167h80q18 0 35.5 6.5t31 19.5t22 32.5t8.5 46.5z" />
    <glyph glyph-name="afii10059" unicode="&#x40a;" horiz-adv-x="787" 
d="M217 297l-57 -297h-144l135 696h144l-52 -264h127l52 264h143l-51 -265h80q88 0 135 -47t47 -125q0 -63 -19 -111.5t-53 -81.5t-80 -49.5t-100 -16.5h-237l56 297h-126zM632 235q0 37 -21.5 49.5t-48.5 12.5h-75l-31 -163h80q18 0 35.5 6t31 18t21.5 31t8 46z" />
    <glyph glyph-name="afii10060" unicode="&#x40b;" horiz-adv-x="639" 
d="M481 471q40 0 68 -12.5t43.5 -34t19.5 -51.5t-3 -64l-59 -309h-145l53 271q2 12 1.5 25t-6.5 23.5t-18 17.5t-32 7q-23 0 -48 -16t-45 -55l-55 -273h-142l109 565h-137l25 130h467l-26 -130h-186l-29 -146h2q13 12 31 22t37.5 16.5t38.5 10t36 3.5z" />
    <glyph glyph-name="afii10061" unicode="&#x40c;" horiz-adv-x="537" 
d="M20 0l135 697h141l-53 -275h25q16 0 31.5 4.5t30.5 17.5t30.5 36.5t32.5 61.5l68 152h147l-90 -200q-11 -20 -21 -39t-23 -35t-29.5 -29.5t-40.5 -23.5q37 -14 53.5 -45.5t18.5 -82.5l9 -239h-138l-6 196q-2 55 -22.5 77.5t-57.5 22.5h-42q-15 -75 -29 -148.5t-29 -147.5
h-141zM314 784l194 135l78 -91l-224 -106z" />
    <glyph glyph-name="afii10062" unicode="&#x40e;" horiz-adv-x="505" 
d="M285 352q18 38 35.5 75.5t34.5 75.5q22 49 43.5 96.5t44.5 96.5h147q-62 -123 -122 -244t-122 -243q-10 -20 -19.5 -38t-19.5 -35q-24 -45 -48 -72.5t-48.5 -43t-51 -21t-56.5 -6.5h-56l22 117h35q21 0 35.5 9t32.5 34l15 22q-22 131 -43 260t-42 260h143l19 -193
l16 -150h5zM350 708q-44 0 -71.5 17t-42.5 42.5t-19 55t0 54.5h103q-2 -11 -0.5 -23.5t7 -23.5t15 -18t23.5 -7q15 0 27 7t21.5 18t16 23.5t8.5 23.5h104q-6 -28 -20 -58t-37 -54.5t-56.5 -40.5t-78.5 -16z" />
    <glyph glyph-name="afii10145" unicode="&#x40f;" horiz-adv-x="563" 
d="M587 696l-134 -696h-156l-33 -165h-120l32 165h-156l134 696h143l-107 -559h147l108 559h142z" />
    <glyph glyph-name="afii10017" unicode="&#x410;" horiz-adv-x="548" 
d="M350 0l-4 143h-164l-65 -143h-154l334 696h143l63 -696h-153zM337 370v139h-5l-54 -138l-39 -100h99z" />
    <glyph glyph-name="afii10018" unicode="&#x411;" horiz-adv-x="513" 
d="M481 562h-216l-25 -127h83q87 0 133 -43t46 -125q0 -61 -19 -110t-52.5 -84t-80 -54t-100.5 -19h-238l135 696h360zM355 240q0 37 -21 49t-49 12h-71l-33 -167h79q18 0 35.5 6t30.5 19t21 33t8 48z" />
    <glyph glyph-name="afii10019" unicode="&#x412;" horiz-adv-x="536" 
d="M437 366q0 -2 -0.5 -2.5t-0.5 -2.5q37 -15 52.5 -48.5t15.5 -71.5q0 -66 -24 -112t-62.5 -74.5t-87.5 -41.5t-100 -13h-210l135 696h207q91 0 137 -40t46 -118q0 -60 -25.5 -105.5t-82.5 -66.5zM220 297l-32 -164h75q24 0 42.5 9.5t30.5 25t18 34.5t6 37q0 27 -15.5 42.5
t-45.5 15.5h-79zM273 564l-28 -141h74q19 0 35 7.5t27.5 20.5t17.5 29.5t6 33.5q0 26 -15 38t-48 12h-69z" />
    <glyph glyph-name="afii10020" unicode="&#x413;" horiz-adv-x="475" 
d="M273 562l-110 -562h-143l135 696h401l-26 -134h-257z" />
    <glyph glyph-name="afii10021" unicode="&#x414;" horiz-adv-x="633" 
d="M93 0l-29 -146h-117l51 268l60 14q24 16 39.5 40t28 57t23.5 76t25 99l68 288h396q-27 -142 -54.5 -281.5t-55.5 -281.5h61l-54 -279h-118l29 146h-353zM295 384q-8 -32 -16.5 -68t-19 -69.5t-23 -63.5t-28.5 -50h181l84 428h-136z" />
    <glyph glyph-name="afii10022" unicode="&#x415;" horiz-adv-x="484" 
d="M20 0l135 696h401l-26 -134h-257l-29 -144h222l-26 -133h-222l-28 -151h257l-26 -134h-401z" />
    <glyph glyph-name="afii10024" unicode="&#x416;" horiz-adv-x="817" 
d="M298 0l56 288h-40q-36 0 -63.5 -22.5t-52.5 -77.5q-21 -48 -40.5 -94.5t-39.5 -93.5h-143q25 58 49.5 115.5t50.5 115.5q22 51 50 82.5t70 45.5q-35 17 -47.5 51.5t-16.5 75.5l-11 208h136l10 -184q1 -29 8 -47.5t17.5 -29.5t24.5 -15t30 -4h32q14 71 27.5 141.5
t27.5 141.5h142q-14 -71 -27.5 -141.5t-27.5 -141.5h28q13 0 28 4.5t29.5 15.5t28.5 29.5t26 46.5l80 184h143q-23 -53 -45.5 -104t-45.5 -104q-22 -51 -52 -82t-62 -45q37 -14 53.5 -45.5t18.5 -82.5l11 -231h-141l-7 188q-2 55 -20.5 77.5t-55.5 22.5h-41l-56 -288h-142z
" />
    <glyph glyph-name="afii10025" unicode="&#x417;" horiz-adv-x="481" 
d="M313 701q98 0 142.5 -48t44.5 -128q-1 -23 -6.5 -46t-18.5 -45t-33.5 -40.5t-51.5 -31.5q35 -15 50 -46.5t15 -65.5q0 -60 -19 -107.5t-52 -80.5t-76.5 -50t-91.5 -17q-100 0 -151.5 43.5t-56.5 123.5q34 10 67.5 20t67.5 21q8 -30 29 -51t50 -21q40 0 62 33t22 79
q0 31 -19.5 43.5t-43.5 12.5h-47q5 29 11 59t12 59h46q43 0 65.5 27t22.5 67q0 24 -17.5 38t-41.5 14q-29 0 -53 -18t-41 -49l-117 57q38 75 96.5 111.5t133.5 36.5z" />
    <glyph glyph-name="afii10026" unicode="&#x418;" horiz-adv-x="589" 
d="M488 0h-143l77 390h-2q-32 -49 -69.5 -103t-74 -106.5t-69 -99.5t-55.5 -81h-134l135 696h142l-78 -401h2q23 36 58 89.5t73 110.5t74.5 111t63.5 90h133z" />
    <glyph glyph-name="afii10027" unicode="&#x419;" horiz-adv-x="589" 
d="M399 719q-44 0 -71.5 17t-42.5 42.5t-19 55t0 54.5h103q-2 -11 -0.5 -23.5t7 -23.5t15 -18t23.5 -7q15 0 27 7t21.5 18t16 23.5t8.5 23.5h104q-6 -28 -20 -58t-37 -54.5t-56.5 -40.5t-78.5 -16zM488 0h-143l77 390h-2q-32 -49 -69.5 -103t-74 -106.5t-69 -99.5t-55.5 -81
h-134l135 696h142l-78 -401h2q23 36 58 89.5t73 110.5t74.5 111t63.5 90h133z" />
    <glyph glyph-name="afii10028" unicode="&#x41a;" horiz-adv-x="537" 
d="M20 0l135 697h141l-53 -275h25q16 0 31.5 4.5t30.5 17.5t30.5 36.5t32.5 61.5l68 152h147l-90 -200q-11 -20 -21 -39t-23 -35t-29.5 -29.5t-40.5 -23.5q37 -14 53.5 -45.5t18.5 -82.5l9 -239h-138l-6 196q-2 55 -22.5 77.5t-57.5 22.5h-42q-15 -75 -29 -148.5t-29 -147.5
h-141z" />
    <glyph glyph-name="afii10029" unicode="&#x41b;" horiz-adv-x="566" 
d="M597 696l-135 -696h-140l109 561h-116l-42 -214q-15 -77 -33 -139t-46.5 -108t-71 -75.5t-106.5 -40.5l-33 111q42 15 68.5 37t44 52t28 69.5t20.5 89.5l69 353h384z" />
    <glyph glyph-name="afii10030" unicode="&#x41c;" horiz-adv-x="675" 
d="M439 0l64 328l-4 1l-71 -125l-54 -90h-104l-20 96l-22 120l-5 -1l-63 -329h-143l135 696h131l41 -200l36 -171h5l98 173l119 198h135l-135 -696h-143z" />
    <glyph glyph-name="afii10031" unicode="&#x41d;" horiz-adv-x="560" 
d="M318 0l56 286h-156l-55 -286h-143l135 696h143l-54 -278h156l54 278h142l-135 -696h-143z" />
    <glyph glyph-name="afii10032" unicode="&#x41e;" horiz-adv-x="535" 
d="M492 219q-10 -52 -28 -93.5t-46 -71t-67.5 -45t-91.5 -15.5q-68 0 -112.5 20.5t-69.5 55.5t-31.5 80.5t3.5 95.5l47 232q7 39 24 78.5t46 71.5t72 52.5t104 20.5q57 0 98.5 -20.5t66 -54.5t33 -77t-0.5 -89zM396 478q2 12 0 26t-10 27t-22.5 21.5t-36.5 8.5t-37 -7.5
t-25 -19t-15.5 -25t-7.5 -25.5l-49 -253q-9 -48 9.5 -72.5t61.5 -24.5q31 0 52 20t28 55z" />
    <glyph glyph-name="afii10033" unicode="&#x41f;" horiz-adv-x="554" 
d="M311 0l109 560h-148l-109 -560h-143l135 696h433l-135 -696h-142z" />
    <glyph glyph-name="afii10034" unicode="&#x420;" horiz-adv-x="513" 
d="M367 696q86 0 137.5 -42t51.5 -131q0 -65 -19 -115t-52.5 -84t-80.5 -52t-104 -18h-87l-50 -254h-143l135 696h212zM273 562l-34 -173h78q17 0 34.5 5.5t31.5 18t23 33t9 50.5q0 35 -19 50.5t-54 15.5h-69z" />
    <glyph glyph-name="afii10035" unicode="&#x421;" horiz-adv-x="514" 
d="M342 701q45 0 81.5 -13.5t63 -37t41.5 -56t18 -70.5l-138 -39q-2 15 -7.5 29t-14.5 25t-22.5 18t-30.5 7q-25 0 -41.5 -10.5t-27 -28.5t-17.5 -41t-12 -47l-45 -228q-3 -15 -2.5 -29.5t7.5 -25t20.5 -17t37.5 -6.5q34 0 58 20.5t36 57.5q35 -9 69.5 -18t69.5 -19
q-11 -36 -31 -68.5t-49.5 -57t-68.5 -38.5t-89 -14q-68 0 -110.5 20t-65 54t-26.5 79.5t6 95.5l37 189q10 52 27 100.5t46 86t72.5 60t107.5 22.5z" />
    <glyph glyph-name="afii10036" unicode="&#x422;" horiz-adv-x="453" 
d="M366 564l-110 -564h-143l110 564h-147l25 132h437l-26 -132h-146z" />
    <glyph glyph-name="afii10037" unicode="&#x423;" horiz-adv-x="505" 
d="M285 352q18 38 35.5 75.5t34.5 75.5q22 49 43.5 96.5t44.5 96.5h147q-62 -123 -122 -244t-122 -243q-10 -20 -19.5 -38t-19.5 -35q-24 -45 -48 -72.5t-48.5 -43t-51 -21t-56.5 -6.5h-56l22 117h35q21 0 35.5 9t32.5 34l15 22q-22 131 -43 260t-42 260h143l19 -193
l16 -150h5z" />
    <glyph glyph-name="afii10038" unicode="&#x424;" horiz-adv-x="690" 
d="M338 533q-32 -1 -54 -17t-36 -39t-21.5 -52.5t-14.5 -62.5q-3 -16 -5.5 -30t-4.5 -32q-2 -19 -0.5 -38.5t9.5 -35t22.5 -26.5t38.5 -13zM375 0h-139l11 61q-67 8 -106.5 35t-58 66.5t-19.5 89t9 101.5q2 12 5.5 28t7.5 32.5t8 31.5t8 27q26 81 91 131t171 54l9 39h137
l-7 -39q85 -8 131.5 -52t51.5 -111q1 -26 -0.5 -57t-6 -64t-12 -66t-17.5 -61q-14 -37 -35.5 -70t-53 -58t-74.5 -40t-100 -17zM411 187q47 4 70.5 29.5t37.5 63.5q4 13 8.5 30.5t8.5 36.5t7 37.5t5 33.5q7 49 -9.5 79.5t-61.5 35.5z" />
    <glyph glyph-name="afii10039" unicode="&#x425;" horiz-adv-x="534" 
d="M269 211l-139 -211h-168q64 91 128 179.5t129 179.5l-111 337h163l48 -186h5l122 186h170q-61 -85 -121.5 -168.5t-122.5 -168.5q31 -91 61 -179.5t60 -179.5h-164l-54 211h-6z" />
    <glyph glyph-name="afii10040" unicode="&#x426;" horiz-adv-x="583" 
d="M586 696l-108 -563h76l-53 -279h-118l29 146h-392l133 696h144l-108 -562h147l108 562h142z" />
    <glyph glyph-name="afii10041" unicode="&#x427;" horiz-adv-x="535" 
d="M282 697l-45 -233q-8 -45 8 -63.5t54 -18.5q17 0 35.5 5t35.5 13l58 297h141l-135 -696h-142l53 275q-50 -20 -106 -20q-40 0 -71.5 10t-52 32t-27 57.5t3.5 86.5l49 255h141z" />
    <glyph glyph-name="afii10042" unicode="&#x428;" horiz-adv-x="791" 
d="M685 0h-661l134 696h141l-108 -562h120l108 562h140l-108 -562h121l109 562h139z" />
    <glyph glyph-name="afii10043" unicode="&#x429;" horiz-adv-x="815" 
d="M824 696q-28 -142 -55 -281.5t-54 -281.5h71l-53 -279h-117l28 146h-624l134 696h142l-109 -562h122l109 562h142l-109 -562h123l109 562h141v0z" />
    <glyph glyph-name="afii10044" unicode="&#x42a;" horiz-adv-x="642" 
d="M630 263q0 -63 -19.5 -112t-53 -82.5t-80 -51t-100.5 -17.5h-237l109 562h-168l26 134h312l-51 -261h75q88 0 137.5 -47t49.5 -125zM486 239q0 37 -21 49.5t-49 12.5h-74l-33 -167h80q19 0 36.5 6.5t31 19.5t21.5 32.5t8 46.5z" />
    <glyph glyph-name="afii10045" unicode="&#x42b;" horiz-adv-x="756" 
d="M657 0h-144l135 696h144zM510 263q0 -63 -19.5 -112t-53 -82.5t-80 -51t-100.5 -17.5h-237l135 696h144l-51 -261h75q88 0 137.5 -47t49.5 -125zM365 239q0 37 -21 49.5t-49 12.5h-73l-33 -167h79q19 0 36.5 6.5t31 19.5t21.5 32.5t8 46.5z" />
    <glyph glyph-name="afii10046" unicode="&#x42c;" horiz-adv-x="518" 
d="M510 263q0 -63 -19.5 -112t-53 -82.5t-80 -51t-100.5 -17.5h-237l135 696h144l-51 -261h75q88 0 137.5 -47t49.5 -125zM366 239q0 37 -21 49.5t-49 12.5h-74l-33 -167h80q18 0 35.5 6.5t31 19.5t22 32.5t8.5 46.5z" />
    <glyph glyph-name="afii10047" unicode="&#x42d;" horiz-adv-x="500" 
d="M95 538q26 75 83.5 119.5t149.5 44.5q58 0 98.5 -18t64 -49.5t30.5 -73.5t-2 -90l-46 -246q-10 -49 -28 -91t-47.5 -73t-72 -48.5t-102.5 -17.5q-92 0 -143.5 48t-55.5 131l139 37q0 -33 17.5 -56t51.5 -23q43 0 64 23.5t28 57.5l14 72h-172l26 131h172l12 64q3 15 2 30
t-8 27.5t-21 20t-36 7.5q-30 0 -54 -19t-35 -53z" />
    <glyph glyph-name="afii10048" unicode="&#x42e;" horiz-adv-x="748" 
d="M558 701q110 0 160 -60t30 -164l-50 -259q-21 -107 -76.5 -165.5t-158.5 -58.5q-55 0 -95 16.5t-64.5 46t-32.5 70.5t2 91l12 68h-70l-55 -286h-145l135 696h145l-56 -278h70l12 57q10 49 28 90.5t47 71.5t69 47t93 17zM545 563q-37 0 -55.5 -22.5t-24.5 -55.5l-53 -274
q-7 -35 8 -57.5t52 -22.5q36 0 55.5 21.5t27.5 58.5l53 274q7 35 -10 56.5t-53 21.5z" />
    <glyph glyph-name="afii10049" unicode="&#x42f;" horiz-adv-x="544" 
d="M580 696l-133 -696h-142l56 285h-43q-32 0 -58.5 -23t-47.5 -80l-65 -182h-149l72 212q6 17 14.5 34.5t20.5 32.5t27.5 26.5t36.5 16.5q-29 16 -50.5 49.5t-20.5 84.5q1 67 23 112.5t57 74t78 41t86 12.5h238zM241 472q0 -35 22 -47t55 -12h67l29 150h-77
q-41 0 -68.5 -23t-27.5 -68z" />
    <glyph glyph-name="afii10065" unicode="&#x430;" horiz-adv-x="462" 
d="M238 0l8 39h-4q-18 -21 -45.5 -33t-47.5 -12q-37 0 -60.5 11.5t-36.5 31t-17.5 45t-4.5 53.5q0 36 5.5 76t13.5 73q12 49 28 88.5t39 68t54.5 44t73.5 15.5q23 0 43 -9t36 -33q1 0 1.5 0.5t1.5 0.5l8 35h138l-96 -494h-138zM214 122q18 0 30.5 12.5t20.5 32.5
q6 14 11.5 36t9.5 44.5t6.5 41t2.5 25.5q0 18 -7 35t-30 17q-37 0 -54 -43q-6 -15 -11.5 -35.5t-10.5 -43.5q-4 -18 -6.5 -37t-3.5 -37q0 -20 8 -34t34 -14z" />
    <glyph glyph-name="afii10066" unicode="&#x431;" horiz-adv-x="457" 
d="M212 443q24 16 52.5 21t45.5 5q32 0 56 -11t39.5 -30t23.5 -44t8 -53q0 -27 -4 -63t-13 -69q-14 -50 -32.5 -88.5t-45.5 -64.5t-63.5 -39.5t-85.5 -13.5t-81 14t-51 37.5t-26.5 54t-7.5 63.5q2 35 7.5 78t14.5 88q10 51 21.5 99.5t25.5 94.5q19 63 45 100.5t66.5 58.5
t97.5 30t137 15l9 -118q-49 -6 -86 -10t-64.5 -13.5t-46 -28.5t-30.5 -55q-6 -19 -9 -30.5t-5 -22.5zM255 345q-24 0 -42 -21q-17 -20 -29 -58q-6 -20 -10.5 -43t-4.5 -46q0 -20 7.5 -37t33.5 -17q11 0 20.5 5.5t16.5 12.5q9 9 18 29t17 46q8 30 11 62q2 26 -5 46.5
t-33 20.5z" />
    <glyph glyph-name="afii10067" unicode="&#x432;" horiz-adv-x="461" 
d="M265 502q53 0 87 -11t54 -29t28 -39.5t8 -42.5q0 -13 -3 -28.5t-11 -30t-21 -26.5t-34 -19q33 -12 47.5 -40.5t14.5 -54.5q0 -34 -14 -67.5t-43 -60t-73.5 -43t-105.5 -16.5q-45 0 -77.5 12t-53.5 33t-30.5 49t-9.5 60q0 14 2 28.5t5 29.5l24 108q8 36 23 69.5t40 60
t60 42.5t83 16zM261 383q-31 0 -47 -21.5t-22 -49.5l-24 -108q-3 -14 -3 -27q0 -22 11.5 -38.5t41.5 -16.5q24 0 38 7t22 17t10.5 19.5t2.5 14.5q0 16 -11 26t-43 10h-19q5 21 10 46t10 46h22q27 0 40.5 11t13.5 26q0 14 -12 26t-41 12z" />
    <glyph glyph-name="afii10068" unicode="&#x433;" horiz-adv-x="427" 
d="M262 502q71 0 115.5 -33t45.5 -98q0 -41 -15 -69.5t-39.5 -49t-57 -34.5t-66.5 -25q-15 -5 -30 -9t-26.5 -9t-18.5 -12.5t-7 -18.5q0 -16 13 -21.5t29 -5.5q26 0 55.5 13t46.5 35l90 -65q-37 -51 -91 -78.5t-125 -28.5q-73 0 -117 33.5t-44 96.5q0 46 15.5 77t41.5 52
t59.5 33.5t69.5 23.5q34 10 55 19.5t21 26.5q0 12 -10.5 17.5t-24.5 5.5q-27 0 -52 -13.5t-43 -30.5l-85 63q32 47 80.5 76t114.5 29z" />
    <glyph glyph-name="afii10069" unicode="&#x434;" horiz-adv-x="470" 
d="M251 350q-26 0 -45 -31q-8 -15 -14.5 -33.5t-10.5 -38t-6 -37.5t-2 -31q0 -10 1.5 -20t5.5 -18.5t11.5 -13.5t20.5 -5q15 0 27 9.5t21 26.5q8 15 14.5 35.5t11 41.5t6.5 39.5t2 29.5q0 19 -10 32.5t-33 13.5zM212 -7q-41 0 -75 11t-58 33t-36.5 56t-10.5 82q2 47 12 95
q7 32 17 61.5t22 52.5q24 44 60 68.5t90 24.5q25 0 51 -9t46 -30h4q2 18 4 35t2 28q0 48 -22.5 69t-72.5 21q-14 0 -29 -2t-32 -5l-13 114q63 15 111 15q54 0 90.5 -15.5t58.5 -42.5t31.5 -64t9.5 -79q0 -51 -7.5 -121.5t-27.5 -155.5q-13 -54 -32 -98.5t-46 -76.5
t-63 -49.5t-84 -17.5z" />
    <glyph glyph-name="afii10070" unicode="&#x435;" horiz-adv-x="457" 
d="M260 375q-23 0 -39.5 -19.5t-25.5 -52.5q7 -2 14.5 -1t13.5 1q42 2 57 15t15 31q0 11 -8 18.5t-27 7.5zM196 -5q-81 0 -123.5 41.5t-42.5 125.5q0 56 11.5 116.5t38.5 110t72 81.5t113 32q44 0 76.5 -10.5t53.5 -28t31 -41.5t10 -51q0 -50 -19.5 -83.5t-52 -54t-73 -29
t-82.5 -8.5h-17t-17 1q-2 -9 -3 -19t-1 -16q1 -19 13.5 -29t28.5 -10q21 0 40.5 9.5t40.5 34.5l106 -67q-37 -56 -90.5 -80.5t-113.5 -24.5z" />
    <glyph glyph-name="afii10072" unicode="&#x436;" horiz-adv-x="921" 
d="M364 322q2 0 4 -2q14 22 26.5 42.5t24.5 41.5t23.5 43t24.5 46h110l-55 -283q1 0 2 -0.5t2 -0.5l28 56t23 44.5t22 40.5t25 44q30 54 71.5 80.5t100.5 26.5q57 0 93.5 -27.5t44.5 -78.5l-102 -56q-6 20 -19.5 29t-26.5 9q-15 0 -29.5 -13.5t-26.5 -38.5t-20 -61.5
t-10 -82.5q0 -28 8 -44t31 -16q14 0 30 9t29 29q25 -14 48.5 -28t47.5 -29q-27 -51 -69 -79t-103 -28q-39 0 -67 11.5t-45.5 31.5t-25.5 47t-8 59v10.5t1 9.5q-2 0 -2.5 0.5t-1.5 0.5q-13 -22 -24 -41.5t-21.5 -39t-21 -40t-23.5 -44.5h-118l56 276h-3q-16 -32 -29.5 -57.5
t-26 -47t-25 -41.5t-26.5 -40q-31 -46 -69 -70t-96 -24t-95 26t-48 74q26 14 51 29.5t51 29.5q5 -20 19 -28t27 -8q15 0 30.5 14t28 40t20.5 64.5t8 88.5q0 21 -9.5 34t-26.5 13q-14 0 -30.5 -7.5t-29.5 -28.5q-22 16 -44 31l-44 30q27 52 69.5 78t92.5 26q39 0 67.5 -11.5
t46.5 -32t26.5 -49t8.5 -61.5v-12.5t-1 -13.5z" />
    <glyph glyph-name="afii10073" unicode="&#x437;" horiz-adv-x="410" 
d="M317 255q29 -11 41 -34t12 -47q0 -47 -17.5 -81t-46.5 -56t-67 -32t-78 -10q-37 0 -65 8t-48 22.5t-34 33.5t-23 41l110 55q11 -16 24 -28.5t36 -12.5q22 0 41 13t19 41q0 15 -13 26t-34 11h-38q5 25 9.5 49.5t9.5 50.5h47q18 0 34 11.5t16 35.5q0 16 -10.5 24.5
t-27.5 8.5t-33.5 -10.5t-28.5 -28.5l-96 57q31 46 75 73t115 27q69 0 112.5 -31.5t43.5 -90.5q0 -12 -3 -29.5t-12.5 -35t-26 -33.5t-43.5 -26v-2z" />
    <glyph glyph-name="afii10074" unicode="&#x438;" horiz-adv-x="477" 
d="M244 496l-61 -314q-5 -26 5.5 -41t31.5 -15q22 0 40.5 16.5t23.5 44.5l59 309h139l-96 -496h-139l11 46h-3q-20 -23 -51 -37t-56 -14q-35 0 -59 11.5t-37.5 32t-16.5 48.5t3 62l67 347h139z" />
    <glyph glyph-name="afii10075" unicode="&#x439;" horiz-adv-x="477" 
d="M297 542q-44 0 -71.5 17t-42.5 42.5t-19 55t0 54.5h103q-2 -11 -0.5 -23.5t7 -23.5t15 -18t23.5 -7q15 0 27 7t21.5 18t16 23.5t8.5 23.5h104q-6 -28 -20 -58t-37 -54.5t-56.5 -40.5t-78.5 -16zM244 496l-61 -314q-5 -26 5.5 -41t31.5 -15q22 0 40.5 16.5t23.5 44.5
l59 309h139l-96 -496h-139l11 46h-3q-20 -23 -51 -37t-56 -14q-35 0 -59 11.5t-37.5 32t-16.5 48.5t3 62l67 347h139z" />
    <glyph glyph-name="afii10076" unicode="&#x43a;" horiz-adv-x="464" 
d="M9 0l95 493h137l-37 -188h22q10 0 19.5 2t19 9.5t19 22t20.5 38.5l52 117h138l-64 -144q-17 -36 -40.5 -60.5t-52.5 -32.5q32 -8 44.5 -34.5t14.5 -63.5l11 -159h-131l-5 117q-1 24 -5.5 39t-12 23.5t-18 11t-23.5 2.5h-30l-37 -193h-136z" />
    <glyph glyph-name="afii10077" unicode="&#x43b;" horiz-adv-x="479" 
d="M253 372q-17 -95 -34 -165t-43 -116.5t-66 -71t-102 -29.5q-6 26 -11 51.5t-11 51.5q29 9 49.5 22t34.5 31t23 43t15 58l47 248h333l-96 -495h-135l72 372h-76z" />
    <glyph glyph-name="afii10078" unicode="&#x43c;" horiz-adv-x="570" 
d="M391 212l-35 -58l-47 -75h-93l-25 99l-8 39h-1q-11 -54 -21.5 -108.5t-21.5 -108.5h-134l96 495h122q12 -43 23.5 -86t22.5 -87l21 -77h2q14 22 28 43.5t28 42.5l112 164h125l-97 -495h-135l41 212h-3z" />
    <glyph glyph-name="afii10079" unicode="&#x43d;" horiz-adv-x="472" 
d="M386 0h-134l38 197h-110l-38 -197h-135l96 495h135l-37 -192h110l37 192h134z" />
    <glyph glyph-name="afii10080" unicode="&#x43e;" horiz-adv-x="459" 
d="M276 501q46 0 78 -13.5t52 -36.5t29.5 -53.5t9.5 -63.5q0 -31 -4.5 -63.5t-10.5 -60.5q-11 -48 -28 -88t-44 -68.5t-65.5 -44t-92.5 -15.5q-51 0 -83.5 15t-51 40t-25 57.5t-6.5 67.5q0 22 3.5 55.5t11.5 63.5q14 57 38.5 101.5t63.5 71.5q52 35 125 35zM264 374
q-27 0 -43.5 -23.5t-30.5 -71.5q-3 -12 -6.5 -28t-5.5 -32t-3.5 -29.5t-1.5 -19.5q0 -19 8 -33t34 -14q11 0 20.5 5.5t16.5 12.5q9 9 17.5 28t15.5 43.5t11.5 51t5.5 49.5q1 22 -6 41.5t-32 19.5z" />
    <glyph glyph-name="afii10081" unicode="&#x43f;" horiz-adv-x="477" 
d="M244 495l-8 -41l4 -1q20 21 49 34t55 13q37 0 61.5 -11.5t37 -32t15 -48.5t-4.5 -62l-66 -347h-139l61 314q5 26 -4.5 41t-33.5 15q-23 0 -40.5 -16.5t-23.5 -44.5l-59 -309h-138l97 496h137z" />
    <glyph glyph-name="afii10082" unicode="&#x440;" horiz-adv-x="467" 
d="M-30 -198l133 693h138l-7 -35l3 -2q22 23 45 32.5t49 9.5q40 0 63.5 -13.5t36 -35.5t16.5 -50.5t4 -58.5q0 -13 -1.5 -29.5t-4 -33.5t-5 -33t-5.5 -27q-9 -42 -23 -82t-36.5 -72t-56.5 -51.5t-83 -19.5q-19 0 -43 9.5t-37 27.5h-4l-44 -229h-138zM220 125q18 0 30.5 11.5
t20.5 29t13.5 38t9.5 39.5q11 49 11 84q0 18 -8.5 29.5t-28.5 11.5q-17 0 -30 -10.5t-21 -28.5q-8 -16 -12.5 -34.5t-9.5 -38.5q-11 -50 -11 -82q0 -18 7 -33.5t29 -15.5z" />
    <glyph glyph-name="afii10083" unicode="&#x441;" horiz-adv-x="411" 
d="M193 -5q-46 0 -77 14t-50.5 38.5t-28 57.5t-8.5 70q0 59 13 117t41.5 104.5t74.5 75.5t112 29q62 0 104 -29.5t50 -86.5l-118 -56q-6 24 -18 34.5t-26 10.5q-20 0 -34 -9.5t-24 -26t-16 -38.5t-11 -47q-8 -39 -9 -69q0 -26 8.5 -43.5t38.5 -17.5q15 0 30 9.5t31 33.5
l103 -57q-31 -55 -77 -84.5t-109 -29.5z" />
    <glyph glyph-name="afii10084" unicode="&#x442;" horiz-adv-x="720" 
d="M585 500q43 0 67 -15.5t35 -41t10.5 -57.5t-6.5 -64l-63 -322h-138l61 314q5 26 -4 41t-34 15q-26 0 -42 -19.5t-21 -45.5l-60 -305h-139l62 314q5 24 -2.5 40t-35.5 16q-26 0 -43 -20.5t-22 -46.5l-58 -303h-138l96 495h138l-8 -41q2 0 2.5 -0.5t2.5 -0.5q20 19 49 33
t53 14q45 0 70 -17.5t36 -48.5q29 28 64 47t68 19z" />
    <glyph glyph-name="afii10085" unicode="&#x443;" horiz-adv-x="428" 
d="M197 179q32 62 61.5 143.5t55.5 171.5h148q-65 -168 -131 -308.5t-138 -254.5q-42 -67 -105 -104t-140 -32l-1 115q51 5 87.5 30t65.5 82l-59 472h146q4 -52 6.5 -85t3.5 -54t1.5 -34t0.5 -26q0 -27 -1.5 -58t-4.5 -58h4z" />
    <glyph glyph-name="afii10086" unicode="&#x444;" horiz-adv-x="624" 
d="M167 -192l36 186q-68 5 -109 39t-53 82q-7 29 -7 65q2 59 18.5 118t43.5 99q29 42 80 70.5t124 31.5l40 199h132l-39 -199q37 -3 65 -13.5t47.5 -26.5t31.5 -35.5t18 -41.5q3 -11 5 -24.5t2 -27.5q0 -23 -2.5 -47.5t-7 -49t-11 -47.5t-13.5 -41q-27 -70 -88 -109
t-143 -41l-36 -187h-134zM360 120q22 2 38 12t27 25q12 18 20 38.5t13 52.5q4 16 5 30t1 29q0 22 -6 36q-5 11 -16 19t-33 9zM276 371q-27 -2 -51 -21t-39 -67q-6 -15 -10 -41t-5 -45q0 -26 12 -48.5t44 -28.5z" />
    <glyph glyph-name="afii10087" unicode="&#x445;" horiz-adv-x="458" 
d="M217 146l-96 -146h-163l100 126t101 126l-99 243h159l35 -138h2q22 34 43.5 69t43.5 69h164q-49 -61 -97.5 -121.5t-98.5 -121.5l107 -252h-160q-10 35 -19 73t-19 73h-3z" />
    <glyph glyph-name="afii10088" unicode="&#x446;" horiz-adv-x="499" 
d="M283 53q-16 -18 -34 -29t-35.5 -17.5t-33 -9t-27.5 -2.5q-42 0 -67 16t-36 41.5t-11 57.5t6 65l62 320h139l-57 -290q-2 -12 -3.5 -26t1 -26t10.5 -20t25 -8t29 8.5t20 21.5t13 28.5t8 29.5l54 282h138l-58 -297q-3 -17 -5.5 -37t0.5 -38.5t13.5 -33.5t31.5 -21l-44 -200
h-107l24 130q-26 5 -38.5 21t-17.5 34z" />
    <glyph glyph-name="afii10089" unicode="&#x447;" horiz-adv-x="450" 
d="M221 495l-27 -138q-7 -36 7.5 -50.5t43.5 -14.5q8 0 21 3t22 6l38 194h131l-94 -495h-133l36 185q-12 -5 -31 -7.5t-33 -2.5q-81 0 -120.5 38.5t-24.5 119.5l32 162h132z" />
    <glyph glyph-name="afii10090" unicode="&#x448;" horiz-adv-x="720" 
d="M145 -5q-43 0 -67 15.5t-35 41t-10.5 57.5t6.5 64l63 322h138l-61 -314q-5 -26 4 -41t34 -15q26 0 42 19.5t21 45.5l60 305h139l-62 -314q-5 -24 2.5 -40t35.5 -16q26 0 43 20.5t22 46.5l58 303h138l-96 -495h-138l8 41q-2 0 -2.5 0.5t-2.5 0.5q-20 -19 -49 -33t-53 -14
q-45 0 -70 17.5t-36 48.5q-29 -28 -64 -47t-68 -19z" />
    <glyph glyph-name="afii10091" unicode="&#x449;" horiz-adv-x="736" 
d="M664 202q-3 -17 -7 -37.5t-2.5 -39t10.5 -33.5t31 -21l-45 -203h-107l24 130q-18 7 -31.5 22.5t-15.5 32.5q-11 -14 -28 -25t-36 -18.5t-37 -11t-30 -3.5q-45 0 -71 17.5t-37 48.5q-29 -28 -64 -47t-68 -19q-43 0 -67 15.5t-35 41t-10.5 57.5t6.5 64l63 322h138l-61 -314
q-5 -26 4 -41t34 -15q26 0 42 19.5t21 45.5l60 305h139l-62 -314q-5 -24 2.5 -40t35.5 -16q26 0 43 20.5t22 46.5l58 303h138z" />
    <glyph glyph-name="afii10092" unicode="&#x44a;" horiz-adv-x="535" 
d="M151 377h-126q6 29 11.5 58.5t10.5 59.5h264q-8 -41 -16 -81.5t-16 -81.5h71q47 0 78 -13.5t49.5 -35t26 -47.5t7.5 -50q0 -32 -12.5 -66t-39.5 -62t-71 -46t-107 -18q-85 2 -126.5 42t-42.5 106q0 29 6 62zM248 173q-4 -23 9 -37t42 -14q19 0 32 5.5t20.5 14t11 18
t3.5 18.5q0 17 -11 29t-39 12h-61z" />
    <glyph glyph-name="afii10093" unicode="&#x44b;" horiz-adv-x="677" 
d="M98 495h137q-8 -41 -16 -81.5t-16 -81.5h71q47 0 78 -13.5t49.5 -35t26 -47.5t7.5 -50q0 -32 -12.5 -66t-39.5 -62t-71 -46t-107 -18q-85 2 -126.5 42t-42.5 106q0 29 6 62zM447 0l49.5 247.5t48.5 247.5h133l-96 -495h-135zM172 173q-4 -23 9 -37t42 -14q19 0 32 5.5
t20.5 14t11 18t3.5 18.5q0 17 -11 29t-39 12h-61z" />
    <glyph glyph-name="afii10094" unicode="&#x44c;" horiz-adv-x="460" 
d="M98 495h137q-8 -41 -16 -81.5t-16 -81.5h71q47 0 78 -13.5t49.5 -35t26 -47.5t7.5 -50q0 -32 -12.5 -66t-39.5 -62t-71 -46t-107 -18q-85 2 -126.5 42t-42.5 106q0 29 6 62zM172 173q-4 -23 9 -37t42 -14q19 0 32 5.5t20.5 14t11 18t3.5 18.5q0 17 -11 29t-39 12h-61z
" />
    <glyph glyph-name="afii10095" unicode="&#x44d;" horiz-adv-x="424" 
d="M244 501q46 0 77 -14t50.5 -38.5t28 -57.5t8.5 -70q0 -59 -13 -117t-41.5 -104.5t-74.5 -75.5t-112 -29q-62 0 -104 29.5t-50 86.5l118 56q6 -24 18 -34.5t26 -10.5q31 0 48 21.5t27 55.5h-115l20 101h113q1 4 1 12q0 26 -10.5 43.5t-40.5 17.5q-15 0 -34.5 -11.5
t-33.5 -33.5l-92 66q31 55 77 81t109 26z" />
    <glyph glyph-name="afii10096" unicode="&#x44e;" horiz-adv-x="639" 
d="M466 500q49 0 80 -15.5t49 -41t25 -58t7 -67.5q0 -19 -4.5 -51t-9.5 -57q-11 -49 -27.5 -89t-43 -68t-64 -43.5t-89.5 -15.5q-44 0 -74.5 14.5t-49.5 38.5t-26.5 54t-6.5 62q1 8 1 16.5t2 17.5h-58l-38 -197h-134l96 495h134l-37 -192h55q8 31 18 59t24 49q28 42 71 65.5
t100 23.5zM454 373q-28 0 -43 -21.5t-28 -72.5q-3 -11 -5.5 -26.5t-5 -30.5t-3.5 -28.5t-1 -19.5q0 -19 6.5 -35.5t32.5 -16.5q11 0 22 5t16 13q9 9 17.5 31t15 50t10.5 57t4 53q0 17 -9 29.5t-29 12.5z" />
    <glyph glyph-name="afii10097" unicode="&#x44f;" horiz-adv-x="458" 
d="M245 192q-22 0 -38.5 -14t-33.5 -57l-44 -121h-137l52 141q11 26 26.5 48t45.5 32q-30 15 -43.5 40.5t-13.5 58.5q0 46 15.5 79t41.5 54.5t61.5 31.5t74.5 10h214l-92 -495h-138l35 192h-26zM192 331q0 -32 49 -32h51l17 80h-61q-20 0 -38 -10.5t-18 -37.5z" />
    <glyph glyph-name="afii10071" unicode="&#x451;" horiz-adv-x="457" 
d="M260 375q-23 0 -39.5 -19.5t-25.5 -52.5q7 -2 14.5 -1t13.5 1q42 2 57 15t15 31q0 11 -8 18.5t-27 7.5zM196 -5q-81 0 -123.5 41.5t-42.5 125.5q0 56 11.5 116.5t38.5 110t72 81.5t113 32q44 0 76.5 -10.5t53.5 -28t31 -41.5t10 -51q0 -50 -19.5 -83.5t-52 -54t-73 -29
t-82.5 -8.5h-17t-17 1q-2 -9 -3 -19t-1 -16q1 -19 13.5 -29t28.5 -10q21 0 40.5 9.5t40.5 34.5l106 -67q-37 -56 -90.5 -80.5t-113.5 -24.5zM325 565l25 130h133l-25 -130h-133zM131 565l25 130h132l-25 -130h-132z" />
    <glyph glyph-name="afii10099" unicode="&#x452;" horiz-adv-x="513" 
d="M368 494q43 0 69 -16t38 -47.5t12.5 -78.5t-7.5 -108q-10 -76 -29.5 -125t-48.5 -78t-68 -41t-87 -13h-38l22 119q26 1 44 9.5t31 25.5t20.5 44.5t12.5 67.5q3 24 3.5 44.5t-3.5 35.5t-14.5 24t-28.5 9q-35 0 -54.5 -30.5t-30.5 -83.5l-49 -252h-140l109 562h-61l15 81
h61l17 83h140l-17 -83h155l-15 -81h-154l-23 -116h2q24 23 57.5 35.5t59.5 12.5z" />
    <glyph glyph-name="afii10100" unicode="&#x453;" horiz-adv-x="434" 
d="M219 571l130 195l111 -48l-171 -183zM262 502q71 0 115.5 -33t45.5 -98q0 -41 -15 -69.5t-39.5 -49t-57 -34.5t-66.5 -25q-15 -5 -30 -9t-26.5 -9t-18.5 -12.5t-7 -18.5q0 -16 13 -21.5t29 -5.5q26 0 55.5 13t46.5 35l90 -65q-37 -51 -91 -78.5t-125 -28.5
q-73 0 -117 33.5t-44 96.5q0 46 15.5 77t41.5 52t59.5 33.5t69.5 23.5q34 10 55 19.5t21 26.5q0 12 -10.5 17.5t-24.5 5.5q-27 0 -52 -13.5t-43 -30.5l-85 63q32 47 80.5 76t114.5 29z" />
    <glyph glyph-name="afii10101" unicode="&#x454;" horiz-adv-x="424" 
d="M193 -5q-46 0 -77 14t-50.5 38.5t-28 57.5t-8.5 70q0 59 13 117t41.5 104.5t74.5 75.5t112 29q62 0 104 -29.5t50 -86.5l-118 -56q-6 24 -18 34.5t-26 10.5q-31 0 -48 -21t-27 -54h116l-19 -100h-115q-1 -5 -1 -15q0 -26 8.5 -43.5t38.5 -17.5q15 0 30 9.5t31 33.5
l103 -57q-31 -55 -77 -84.5t-109 -29.5z" />
    <glyph glyph-name="afii10102" unicode="&#x455;" horiz-adv-x="437" 
d="M113 165q17 -27 38.5 -39t51.5 -12q20 0 38.5 10.5t18.5 30.5q0 16 -16.5 25t-39.5 14q-23 6 -48.5 14t-46.5 23t-34.5 38t-13.5 58q0 42 16 74.5t42.5 54.5t60.5 33.5t70 11.5q64 0 109.5 -25.5t65.5 -71.5l-100 -67q-15 26 -36 34.5t-39 8.5q-16 0 -26 -4t-15.5 -9.5
t-7.5 -11.5t-2 -10q0 -9 9.5 -16t22 -12t25.5 -8t21 -5q21 -6 43.5 -14.5t41 -23.5t30.5 -37.5t12 -55.5q0 -40 -15 -73t-42.5 -56t-66 -36t-86.5 -13q-80 2 -124.5 31.5t-65.5 81.5z" />
    <glyph glyph-name="afii10103" unicode="&#x456;" horiz-adv-x="245" 
d="M124 569l25 127h138l-24 -127h-139zM14 0l96 495h138l-96 -495h-138z" />
    <glyph glyph-name="afii10104" unicode="&#x457;" horiz-adv-x="245" 
d="M229 558l25 130h133l-25 -130h-133zM35 558l25 130h132l-25 -130h-132zM14 0l96 495h138l-96 -495h-138z" />
    <glyph glyph-name="afii10105" unicode="&#x458;" horiz-adv-x="253" 
d="M149 -43q-15 -76 -63.5 -116t-120.5 -40h-11t-17.5 0.5t-18 1t-10.5 0.5l24 126h24q16 0 26.5 6t17.5 15t11 20.5t6 23.5l98 502h138zM129 569l25 127h138l-24 -127h-139z" />
    <glyph glyph-name="afii10106" unicode="&#x459;" horiz-adv-x="706" 
d="M320 379h-68q-8 -47 -17.5 -94t-20.5 -92q-23 -97 -75 -148t-141 -57l-14 103q32 7 53.5 22.5t35 37.5t21.5 48.5t13 55.5l45 240h328q-8 -41 -16 -81.5t-16 -81.5h71q47 0 78 -13.5t49.5 -35t26 -47.5t7.5 -50q0 -32 -12.5 -66t-39.5 -62t-71 -46t-107 -18
q-85 2 -126.5 42t-42.5 106q0 29 6 62zM417 173q-4 -23 9 -37t42 -14q19 0 32 5.5t20.5 14t11 18t3.5 18.5q0 17 -11 29t-39 12h-61z" />
    <glyph glyph-name="afii10107" unicode="&#x45a;" horiz-adv-x="688" 
d="M272 219h-88l-42 -219h-135l96 495h135q-8 -41 -15.5 -81.5t-15.5 -81.5h87q8 41 15.5 81t15.5 82h137q-8 -41 -16 -81.5t-16 -81.5h71q47 0 78 -13.5t49.5 -35t26 -47.5t7.5 -50q0 -32 -12.5 -66t-39.5 -62t-71 -46t-107 -18q-85 2 -126.5 42t-42.5 106q0 29 6 62z
M399 173q-4 -23 9 -37t42 -14q19 0 32 5.5t20.5 14t11 18t3.5 18.5q0 17 -11 29t-39 12h-61z" />
    <glyph glyph-name="afii10108" unicode="&#x45b;" horiz-adv-x="476" 
d="M248 -1l61 314q5 26 -4.5 41t-33.5 15q-23 0 -40.5 -16.5t-23.5 -44.5l-59 -309h-138l110 563h-61l15 81h61l17 84h139l-17 -84h147l-15 -81h-148l-22 -108l4 -1q20 21 49 34t55 13q37 0 61.5 -11.5t37 -32t15 -48.5t-4.5 -62l-66 -347h-139z" />
    <glyph glyph-name="afii10109" unicode="&#x45c;" horiz-adv-x="464" 
d="M207 570l130 195l111 -48l-171 -183zM9 0l95 493h137l-37 -188h22q10 0 19.5 2t19 9.5t19 22t20.5 38.5l52 117h138l-64 -144q-17 -36 -40.5 -60.5t-52.5 -32.5q32 -8 44.5 -34.5t14.5 -63.5l11 -159h-131l-5 117q-1 24 -5.5 39t-12 23.5t-18 11t-23.5 2.5h-30l-37 -193
h-136z" />
    <glyph glyph-name="afii10110" unicode="&#x45e;" horiz-adv-x="428" 
d="M197 179q32 62 61.5 143.5t55.5 171.5h148q-65 -168 -131 -308.5t-138 -254.5q-42 -67 -105 -104t-140 -32l-1 115q51 5 87.5 30t65.5 82l-59 472h146q4 -52 6.5 -85t3.5 -54t1.5 -34t0.5 -26q0 -27 -1.5 -58t-4.5 -58h4zM261 542q-44 0 -71.5 17t-42.5 42.5t-19 55
t0 54.5h103q-2 -11 -0.5 -23.5t7 -23.5t15 -18t23.5 -7q15 0 27 7t21.5 18t16 23.5t8.5 23.5h104q-6 -28 -20 -58t-37 -54.5t-56.5 -40.5t-78.5 -16z" />
    <glyph glyph-name="afii10193" unicode="&#x45f;" horiz-adv-x="477" 
d="M101 -202l38 160l117 13l-48 -173h-107zM244 496l-61 -314q-5 -26 5.5 -41t31.5 -15q22 0 40.5 16.5t23.5 44.5l59 309h139l-96 -496h-139l11 46h-3q-20 -23 -51 -37t-56 -14q-35 0 -59 11.5t-37.5 32t-16.5 48.5t3 62l67 347h139z" />
    <glyph glyph-name="afii10050" unicode="&#x490;" horiz-adv-x="475" 
d="M523 562h-251l-109 -562h-142l135 696h278l24 119h113z" />
    <glyph glyph-name="afii10098" unicode="&#x491;" horiz-adv-x="401" 
d="M139 0h-132l96 495h232l22 110h106l-45 -232h-206z" />
    <glyph glyph-name="schwacyrillic" unicode="&#x4d9;" horiz-adv-x="457" 
d="M206 123q23 0 39.5 19.5t25.5 52.5q-7 2 -14.5 1t-13.5 -1q-42 -2 -57 -15t-15 -31q0 -11 8 -18.5t27 -7.5zM270 503q81 0 123.5 -41.5t42.5 -125.5q0 -56 -11.5 -116.5t-38.5 -110t-72 -81.5t-113 -32q-44 0 -76.5 10.5t-53.5 28t-31 41.5t-10 51q0 50 19.5 83.5t52 54
t73 29t82.5 8.5h17t17 -1q2 9 3 19t1 16q-1 19 -13.5 29t-28.5 10q-21 0 -40.5 -9.5t-40.5 -34.5l-106 67q37 56 90.5 80.5t113.5 24.5z" />
    <glyph glyph-name="Wgrave" unicode="&#x1e80;" horiz-adv-x="739" 
d="M399 366l-65 -151l-97 -215h-128q-3 174 -5.5 347.5t-4.5 348.5h156l-3 -203q-2 -43 -2.5 -90t-4.5 -92h4l78 190l82 195h112l8 -215q2 -40 2.5 -87t0.5 -93h5q17 49 33.5 98t33.5 98q4 11 14 39.5t21 60t21 60t14 39.5h156q-71 -175 -140.5 -348.5t-140.5 -347.5h-128
q-2 54 -5.5 108.5t-5.5 108.5l-6 149h-5zM493 737l-199 107l88 91l165 -136z" />
    <glyph glyph-name="wgrave" unicode="&#x1e81;" horiz-adv-x="681" 
d="M334 264q-14 -37 -27 -74t-27 -71q-28 -61 -58 -119h-140l-38 494h149q-2 -50 -1 -100.5t1 -101.5q-1 -24 -2 -50t-5 -58h5q33 72 63.5 152t53.5 158h134l1 -184q0 -26 -1.5 -51.5t-4.5 -65.5h7q29 66 58 143t53 158h156q-26 -74 -52 -137.5t-54.5 -123t-60.5 -116.5
t-69 -117h-137l-3 116q0 34 1 71t3 77h-5zM378 537l-152 191l111 48l109 -200z" />
    <glyph glyph-name="Wacute" unicode="&#x1e82;" horiz-adv-x="739" 
d="M399 366l-65 -151l-97 -215h-128q-3 174 -5.5 347.5t-4.5 348.5h156l-3 -203q-2 -43 -2.5 -90t-4.5 -92h4l78 190l82 195h112l8 -215q2 -40 2.5 -87t0.5 -93h5q17 49 33.5 98t33.5 98q4 11 14 39.5t21 60t21 60t14 39.5h156q-71 -175 -140.5 -348.5t-140.5 -347.5h-128
q-2 54 -5.5 108.5t-5.5 108.5l-6 149h-5zM422 784l194 135l78 -91l-224 -106z" />
    <glyph glyph-name="wacute" unicode="&#x1e83;" horiz-adv-x="681" 
d="M334 264q-14 -37 -27 -74t-27 -71q-28 -61 -58 -119h-140l-38 494h149q-2 -50 -1 -100.5t1 -101.5q-1 -24 -2 -50t-5 -58h5q33 72 63.5 152t53.5 158h134l1 -184q0 -26 -1.5 -51.5t-4.5 -65.5h7q29 66 58 143t53 158h156q-26 -74 -52 -137.5t-54.5 -123t-60.5 -116.5
t-69 -117h-137l-3 116q0 34 1 71t3 77h-5zM366 570l130 195l111 -48l-171 -183z" />
    <glyph glyph-name="Wdieresis" unicode="&#x1e84;" horiz-adv-x="739" 
d="M399 366l-65 -151l-97 -215h-128q-3 174 -5.5 347.5t-4.5 348.5h156l-3 -203q-2 -43 -2.5 -90t-4.5 -92h4l78 190l82 195h112l8 -215q2 -40 2.5 -87t0.5 -93h5q17 49 33.5 98t33.5 98q4 11 14 39.5t21 60t21 60t14 39.5h156q-71 -175 -140.5 -348.5t-140.5 -347.5h-128
q-2 54 -5.5 108.5t-5.5 108.5l-6 149h-5zM313 737l25 131h136l-26 -131h-135zM507 737l26 131h135l-25 -131h-136z" />
    <glyph glyph-name="wdieresis" unicode="&#x1e85;" horiz-adv-x="681" 
d="M334 264q-14 -37 -27 -74t-27 -71q-28 -61 -58 -119h-140l-38 494h149q-2 -50 -1 -100.5t1 -101.5q-1 -24 -2 -50t-5 -58h5q33 72 63.5 152t53.5 158h134l1 -184q0 -26 -1.5 -51.5t-4.5 -65.5h7q29 66 58 143t53 158h156q-26 -74 -52 -137.5t-54.5 -123t-60.5 -116.5
t-69 -117h-137l-3 116q0 34 1 71t3 77h-5zM422 558l25 130h133l-25 -130h-133zM228 558l25 130h132l-25 -130h-132z" />
    <glyph glyph-name="Ygrave" unicode="&#x1ef2;" horiz-adv-x="504" 
d="M298 415q17 34 34 70.5t34 69.5l75 141h155l-259 -417l-54 -279h-141q14 70 27.5 139.5t27.5 139.5l-97 417h151q7 -35 12 -65t11 -65q3 -17 5.5 -37t4.5 -40t4 -39.5t4 -34.5h6zM369 722l-199 107l88 91l165 -136z" />
    <glyph glyph-name="ygrave" unicode="&#x1ef3;" horiz-adv-x="428" 
d="M197 179q32 62 61.5 143.5t55.5 171.5h148q-65 -168 -131 -308.5t-138 -254.5q-42 -67 -105 -104t-140 -32l-1 115q51 5 87.5 30t65.5 82l-59 472h146q4 -52 6.5 -85t3.5 -54t1.5 -34t0.5 -26q0 -27 -1.5 -58t-4.5 -58h4zM231 537l-152 191l111 48l109 -200z" />
    <glyph glyph-name="endash" unicode="&#x2013;" horiz-adv-x="507" 
d="M22 220l23 116h468l-23 -116h-468z" />
    <glyph glyph-name="emdash" unicode="&#x2014;" horiz-adv-x="1025" 
d="M22 220l23 116h985l-23 -116h-985z" />
    <glyph glyph-name="afii00208" unicode="&#x2015;" horiz-adv-x="1015" 
d="M22 220l23 116h975l-23 -116h-975z" />
    <glyph glyph-name="quoteleft" unicode="&#x2018;" horiz-adv-x="288" 
d="M316 719l-64 -149h32l-31 -161h-152l31 155l110 155h74z" />
    <glyph glyph-name="quoteright" unicode="&#x2019;" horiz-adv-x="288" 
d="M101 410l64 149h-32l31 161h152l-30 -155l-111 -155h-74z" />
    <glyph glyph-name="quotesinglbase" unicode="&#x201a;" horiz-adv-x="267" 
d="M-2 -151l64 149h-32l31 160h153l-31 -154l-111 -155h-74z" />
    <glyph glyph-name="quotedblleft" unicode="&#x201c;" horiz-adv-x="415" 
d="M291 719l-64 -149h32l-31 -161h-152l31 155l110 155h74zM477 719l-64 -149h32l-31 -161h-151l31 155l109 155h74z" />
    <glyph glyph-name="quotedblright" unicode="&#x201d;" horiz-adv-x="415" 
d="M263 410l64 149h-32l31 161h151l-30 -155l-110 -155h-74zM76 410l65 149h-33l32 161h151l-30 -155l-111 -155h-74z" />
    <glyph glyph-name="quotedblbase" unicode="&#x201e;" horiz-adv-x="451" 
d="M184 -151l64 149h-32l31 160h151l-30 -154l-110 -155h-74zM-2 -151l64 149h-32l31 160h151l-30 -154l-110 -155h-74z" />
    <glyph glyph-name="dagger" unicode="&#x2020;" horiz-adv-x="447" 
d="M318 361l-101 -521h-129l101 521h-143l23 119h143l40 206h130l-40 -206h142l-23 -119h-143z" />
    <glyph glyph-name="daggerdbl" unicode="&#x2021;" horiz-adv-x="452" 
d="M191 361h-145l23 119h145l40 206h131l-40 -206h143l-23 -119h-143l-27 -138h144l-24 -119h-143l-51 -264h-131l51 264h-144l23 119h144z" />
    <glyph glyph-name="bullet" unicode="&#x2022;" horiz-adv-x="477" 
d="M94 279q0 33 12.5 61.5t34 50t50 34t61.5 12.5t61.5 -12.5t50 -34t34 -50t12.5 -61.5t-12.5 -61.5t-34 -50t-50 -34t-61.5 -12.5t-61.5 12.5t-50 34t-34 50t-12.5 61.5z" />
    <glyph glyph-name="trianglebullet" unicode="&#x2023;" horiz-adv-x="584" 
d="M544 287l-463 -281v551z" />
    <glyph glyph-name="ellipsis" unicode="&#x2026;" horiz-adv-x="934" 
d="M26 0l31 158h152l-31 -158h-152zM355 0l31 158h152l-31 -158h-152zM674 0l31 158h152l-31 -158h-152z" />
    <glyph glyph-name="perthousand" unicode="&#x2030;" horiz-adv-x="1059" 
d="M196 -17h-100l511 730h100zM333 391q-11 -54 -45.5 -84t-94.5 -30q-66 0 -97.5 35.5t-20.5 89.5l37 185q11 54 46.5 84t92.5 30q27 0 50 -8.5t39.5 -24t24.5 -37.5t3 -49zM265 578q2 12 -2.5 22.5t-18.5 10.5q-13 0 -21.5 -7.5t-10.5 -19.5l-36 -187q-2 -11 3.5 -20
t18.5 -9q12 0 21 7.5t11 18.5zM699 113q-11 -54 -45.5 -84t-94.5 -30q-66 0 -97.5 35.5t-20.5 89.5l37 185q11 54 46.5 84t92.5 30q27 0 50 -8.5t39.5 -24t24.5 -37.5t3 -49zM631 300q2 12 -2.5 22.5t-18.5 10.5q-13 0 -21.5 -7.5t-10.5 -19.5l-36 -187q-2 -11 3.5 -20
t18.5 -9q12 0 21 7.5t11 18.5zM987 113q-11 -54 -45.5 -84t-94.5 -30q-66 0 -97.5 35.5t-20.5 89.5l37 185q11 54 46.5 84t92.5 30q27 0 50 -8.5t39.5 -24t24.5 -37.5t3 -49zM919 300q2 12 -2.5 22.5t-18.5 10.5q-13 0 -21.5 -7.5t-10.5 -19.5l-36 -187q-2 -11 3.5 -20
t18.5 -9q12 0 21 7.5t11 18.5z" />
    <glyph glyph-name="guilsinglleft" unicode="&#x2039;" horiz-adv-x="392" 
d="M142 28l-91 207l172 207h134l-174 -208l88 -206h-129z" />
    <glyph glyph-name="guilsinglright" unicode="&#x203a;" horiz-adv-x="375" 
d="M9 28l175 208l-89 207h130l90 -208l-171 -207h-135z" />
    <glyph glyph-name="fraction" unicode="&#x2044;" horiz-adv-x="186" 
d="M-76 -17h-100l511 730h100z" />
    <glyph glyph-name="fraction" unicode="&#x2215;" horiz-adv-x="186" 
d="M-76 -17h-100l511 730h100z" />
    <glyph glyph-name="zerosuperior" unicode="&#x2070;" horiz-adv-x="313" 
d="M300 481q-11 -54 -45.5 -84t-94.5 -30q-66 0 -97.5 35.5t-20.5 89.5l37 185q11 54 46.5 84t92.5 30q27 0 50 -8.5t39.5 -24t24.5 -37.5t3 -49zM232 668q2 12 -2.5 22.5t-18.5 10.5q-13 0 -21.5 -7.5t-10.5 -19.5l-36 -187q-2 -11 3.5 -20t18.5 -9q12 0 21 7.5t11 18.5z
" />
    <glyph glyph-name="foursuperior" unicode="&#x2074;" horiz-adv-x="317" 
d="M273 426l-11 -57h-94l11 57h-164l14 74l179 286h101l-169 -273h57l18 79h90l-15 -79h30l-17 -87h-30z" />
    <glyph glyph-name="fivesuperior" unicode="&#x2075;" horiz-adv-x="315" 
d="M236 658q27 0 44 -9.5t25.5 -27t9.5 -42t-3 -55.5q-11 -80 -46.5 -119.5t-107.5 -39.5q-26 0 -48 6.5t-38 21t-25 36.5t-8 53l102 14q-2 -25 6 -32t19 -7q22 0 30.5 21t12.5 46q1 7 1.5 15.5t-1.5 16t-7 12t-15 4.5q-6 0 -16 -5t-19 -22h-89l47 241h243l-18 -89h-145
l-12 -55q13 8 30 12t28 4z" />
    <glyph glyph-name="sixsuperior" unicode="&#x2076;" horiz-adv-x="312" 
d="M218 618q9 3 19 3q30 0 50 -19t20 -64q0 -28 -8 -58.5t-25.5 -55.5t-45.5 -41t-68 -16q-57 0 -88 28.5t-30 76.5q0 27 12.5 58.5t28.5 54.5l137 200h111zM185 546q-14 0 -24 -10.5t-15 -35.5t-0.5 -35.5t18.5 -10.5q32 0 40 53q3 21 -1.5 30t-17.5 9z" />
    <glyph glyph-name="sevensuperior" unicode="&#x2077;" horiz-adv-x="298" 
d="M140 369h-107l196 327h-52l-9 -46h-99l27 136h265l-15 -78z" />
    <glyph glyph-name="eightsuperior" unicode="&#x2078;" horiz-adv-x="317" 
d="M223 791q28 0 50.5 -7.5t37.5 -22.5t22 -38t3 -54q-3 -23 -16 -45.5t-39 -35.5q23 -14 26 -41t-1 -52q-10 -66 -51.5 -97.5t-95.5 -31.5q-27 0 -51 7t-41 23t-24.5 40t-1.5 59q5 31 20.5 55t41.5 38q-19 14 -23 36t-1 45q8 53 45 87.5t99 34.5zM182 545q-31 0 -39 -43
q-5 -26 1.5 -37t22.5 -11q18 0 28 14.5t13 34.5q6 42 -26 42zM214 703q-14 0 -22.5 -10t-12.5 -27q-6 -41 21 -41q30 0 36 43q2 16 -2.5 25.5t-19.5 9.5z" />
    <glyph glyph-name="ninesuperior" unicode="&#x2079;" horiz-adv-x="314" 
d="M159 539q-9 -3 -19 -3q-30 0 -50 19t-20 64q0 28 8 58.5t25.5 55.5t45.5 41t68 16q57 0 88 -28.5t30 -76.5q0 -27 -12.5 -58.5t-28.5 -54.5l-137 -200h-111zM192 611q14 0 24 10.5t15 35.5t0 35.5t-19 10.5q-31 0 -39 -53q-3 -21 1.5 -30t17.5 -9z" />
    <glyph glyph-name="plussuperior" unicode="&#x207a;" horiz-adv-x="319" 
d="M221 508l-19 -99h-88l19 99h-107l16 79h107l18 97h88l-18 -97h106l-16 -79h-106z" />
    <glyph glyph-name="hyphensuperior" unicode="&#x207b;" horiz-adv-x="268" 
d="M30 485l16 86h219l-16 -86h-219z" />
    <glyph glyph-name="equalsuperior" unicode="&#x207c;" horiz-adv-x="319" 
d="M38 568l15 77h302l-15 -77h-302zM15 450l15 77h302l-15 -77h-302z" />
    <glyph glyph-name="parenleftsuperior" unicode="&#x207d;" horiz-adv-x="218" 
d="M129 292q-32 47 -52.5 98.5t-20.5 108.5q0 45 13.5 88t37 82t54 74.5t64.5 67.5l59 -32q-67 -74 -97.5 -146.5t-30.5 -133.5q0 -43 10.5 -86t30.5 -81z" />
    <glyph glyph-name="parenrightsuperior" unicode="&#x207e;" horiz-adv-x="218" 
d="M150 811q30 -43 50 -93.5t20 -108.5q0 -45 -13.5 -87.5t-37.5 -82.5t-56 -76.5t-68 -70.5l-54 40q62 66 95 140.5t33 140.5q0 40 -10 82.5t-32 83.5l73 32v0z" />
    <glyph glyph-name="nsuperior" unicode="&#x207f;" horiz-adv-x="329" 
d="M215 279l38 207q2 14 -3.5 22t-16.5 8q-32 0 -38 -35l-37 -202h-106l62 328h105l-4 -22q17 14 37 19.5t34 5.5q27 0 43.5 -9.5t25 -24.5t9.5 -33.5t-2 -36.5l-41 -227h-106z" />
    <glyph glyph-name="zeroinferior" unicode="&#x2080;" horiz-adv-x="313" 
d="M216 23q-11 -54 -45.5 -84t-94.5 -30q-66 0 -97.5 35.5t-20.5 89.5l37 185q11 54 46.5 84t92.5 30q27 0 50 -8.5t39.5 -24t24.5 -37.5t3 -49zM148 210q2 12 -2.5 22.5t-18.5 10.5q-13 0 -21.5 -7.5t-10.5 -19.5l-36 -187q-2 -11 3.5 -20t18.5 -9q12 0 21 7.5t11 18.5z
" />
    <glyph glyph-name="oneinferior" unicode="&#x2081;" horiz-adv-x="255" 
d="M1 -90l59 304l-69 -42l20 105l86 50h89l-81 -417h-104z" />
    <glyph glyph-name="twoinferior" unicode="&#x2082;" horiz-adv-x="312" 
d="M-16 204q9 31 24.5 55t36.5 40t45 24.5t50 8.5q55 0 85 -25t30 -73q0 -29 -13.5 -54.5t-38.5 -51.5l-118 -126h122l-18 -92h-258l15 81l183 187q20 20 20 43q0 8 -5.5 14t-17.5 6t-24 -11t-20 -39z" />
    <glyph glyph-name="threeinferior" unicode="&#x2083;" horiz-adv-x="313" 
d="M141 332q60 0 88 -29.5t28 -74.5q0 -12 -3 -26.5t-9.5 -28.5t-18.5 -26.5t-30 -20.5q19 -7 25 -22t6 -35q0 -32 -9 -61.5t-28 -52t-47.5 -35.5t-68.5 -13q-23 0 -43.5 6.5t-37 19t-26 32.5t-9.5 47v13l96 12v-6q0 -19 9.5 -25t17.5 -6q13 0 21 6t12 14t5.5 17.5t1.5 16.5
q0 14 -6.5 23.5t-25.5 9.5h-31l15 78h33q25 0 34.5 16t9.5 33q0 10 -4.5 18.5t-19.5 8.5q-10 0 -21 -9.5t-19 -35.5l-93 15q7 32 22 55t34.5 37.5t43 21.5t48.5 7z" />
    <glyph glyph-name="fourinferior" unicode="&#x2084;" horiz-adv-x="317" 
d="M189 -33l-11 -57h-94l11 57h-164l14 74l179 286h101l-169 -273h57l18 79h90l-15 -79h30l-17 -87h-30z" />
    <glyph glyph-name="fiveinferior" unicode="&#x2085;" horiz-adv-x="315" 
d="M152 199q27 0 44 -9.5t25.5 -27t9.5 -42t-3 -55.5q-11 -80 -46.5 -119.5t-107.5 -39.5q-26 0 -48 6.5t-38 21t-25 36.5t-8 53l102 14q-2 -25 6 -32t19 -7q22 0 30.5 21t12.5 46q1 7 1.5 15.5t-1.5 16t-7 12t-15 4.5q-6 0 -16 -5t-19 -22h-89l47 241h243l-18 -89h-145
l-12 -55q13 8 30 12t28 4z" />
    <glyph glyph-name="sixinferior" unicode="&#x2086;" horiz-adv-x="312" 
d="M134 159q9 3 19 3q30 0 50 -19t20 -64q0 -28 -8 -58.5t-25.5 -55.5t-45.5 -41t-68 -16q-57 0 -88 28.5t-30 76.5q0 27 12.5 58.5t28.5 54.5l137 200h111zM101 87q-14 0 -24 -10.5t-15 -35.5t-0.5 -35.5t18.5 -10.5q32 0 40 53q3 21 -1.5 30t-17.5 9z" />
    <glyph glyph-name="seveninferior" unicode="&#x2087;" horiz-adv-x="298" 
d="M56 -90h-107l196 327h-52l-9 -46h-99l27 136h265l-15 -78z" />
    <glyph glyph-name="eightinferior" unicode="&#x2088;" horiz-adv-x="317" 
d="M139 332q28 0 50.5 -7.5t37.5 -22.5t22 -38t3 -54q-3 -23 -16 -45.5t-39 -35.5q23 -14 26 -41t-1 -52q-10 -66 -51.5 -97.5t-95.5 -31.5q-27 0 -51 7t-41 23t-24.5 40t-1.5 59q5 31 20.5 55t41.5 38q-19 14 -23 36t-1 45q8 53 45 87.5t99 34.5zM98 86q-31 0 -39 -43
q-5 -26 1.5 -37t22.5 -11q18 0 28 14.5t13 34.5q6 42 -26 42zM130 244q-14 0 -22.5 -10t-12.5 -27q-6 -41 21 -41q30 0 36 43q2 16 -2.5 25.5t-19.5 9.5z" />
    <glyph glyph-name="nineinferior" unicode="&#x2089;" horiz-adv-x="314" 
d="M75 80q-9 -3 -19 -3q-30 0 -50 19t-20 64q0 28 8 58.5t25.5 55.5t45.5 41t68 16q57 0 88 -28.5t30 -76.5q0 -27 -12.5 -58.5t-28.5 -54.5l-137 -200h-111zM108 152q14 0 24 10.5t15 35.5t0 35.5t-19 10.5q-31 0 -39 -53q-3 -21 1.5 -30t17.5 -9z" />
    <glyph glyph-name="plusinferior" unicode="&#x208a;" horiz-adv-x="319" 
d="M135 47l-19 -98h-88l19 98h-107l15 79h107l19 97h88l-19 -97h106l-15 -79h-106z" />
    <glyph glyph-name="hypheninferior" unicode="&#x208b;" horiz-adv-x="268" 
d="M-49 24l17 87h219l-17 -87h-219z" />
    <glyph glyph-name="equalinferior" unicode="&#x208c;" horiz-adv-x="319" 
d="M-52 107l15 77h302l-15 -77h-302zM-75 -11l15 77h302l-15 -77h-302z" />
    <glyph glyph-name="parenleftinferior" unicode="&#x208d;" horiz-adv-x="218" 
d="M45 -167q-32 47 -52.5 98.5t-20.5 108.5q0 45 13.5 88t37 82t54 74.5t64.5 67.5l59 -32q-67 -74 -97.5 -146.5t-30.5 -133.5q0 -43 10.5 -86t30.5 -81z" />
    <glyph glyph-name="parenrightinferior" unicode="&#x208e;" horiz-adv-x="218" 
d="M56 352q30 -43 50 -93.5t20 -108.5q0 -45 -13.5 -87.5t-37.5 -82.5t-56 -76.5t-68 -70.5l-54 40q62 66 95 140.5t33 140.5q0 40 -10 82.5t-32 83.5l73 32v0z" />
    <glyph glyph-name="dong" unicode="&#x20ab;" horiz-adv-x="490" 
d="M247 628h83l12 60h122l-12 -60h41l-15 -77h-41l-81 -421h-120l4 25q-16 -14 -38 -21.5t-37 -7.5q-23 0 -41.5 5.5t-31 17.5t-19.5 31t-6 47q1 35 4.5 57.5t7.5 42.5q3 15 7.5 34t10.5 37t11.5 32.5t9.5 21.5q7 12 16 24.5t22.5 22.5t32.5 16t46 6q15 0 36 -5.5t33 -19.5
l11 55h-83zM23 -8q5 24 9.5 48.5t9.5 48.5h309q-5 -24 -9.5 -48.5t-9.5 -48.5h-309zM255 408q-17 0 -27.5 -14t-17 -34.5t-10 -44.5t-5.5 -44q-2 -13 5 -23t22 -10t26 16.5t18 39t10 46.5t3 39q0 17 -6.5 23t-17.5 6z" />
    <glyph glyph-name="Euro" unicode="&#x20ac;" horiz-adv-x="490" 
d="M339 701q45 0 82 -13.5t64 -37t42.5 -56t18.5 -70.5l-138 -39q-2 15 -7.5 29t-14.5 25t-22.5 18t-30.5 7q-23 0 -37 -10.5t-23 -28t-15 -40t-11 -46.5h146l-13 -76h-148l-6 -33h147l-15 -75h-147l-9 -46q-3 -14 -3.5 -28t4.5 -25t17 -18t36 -7q27 0 51.5 20.5t36.5 57.5
q35 -9 69.5 -18t69.5 -19q-11 -36 -30.5 -68.5t-48 -57t-66 -38.5t-84.5 -14q-68 0 -110 20t-63 54t-24 79.5t7 95.5l2 12h-37l15 75h37l6 33h-36l14 76h37q10 51 24 98t39.5 83.5t66.5 58.5t107 22z" />
    <glyph glyph-name="centigrade" unicode="&#x2103;" horiz-adv-x="819" 
d="M647 701q45 0 81.5 -13.5t63 -37t41.5 -56t18 -70.5l-138 -39q-2 15 -7.5 29t-14.5 25t-22.5 18t-30.5 7q-25 0 -41.5 -10.5t-27 -28.5t-17.5 -41t-12 -47l-45 -228q-3 -15 -2.5 -29.5t7.5 -25t20.5 -17t37.5 -6.5q34 0 58 20.5t36 57.5q35 -9 69.5 -18t69.5 -19
q-11 -36 -31 -68.5t-49.5 -57t-68.5 -38.5t-89 -14q-68 0 -110.5 20t-65 54t-26.5 79.5t6 95.5l37 189q10 52 27 100.5t46 86t72.5 60t107.5 22.5zM354 559q0 -30 -11.5 -55.5t-31.5 -45t-46.5 -30.5t-57.5 -11q-30 0 -57 11t-47 30.5t-31.5 45t-11.5 55.5q0 29 11.5 55
t31.5 45.5t47 30.5t57 11q31 0 57.5 -11t46.5 -30.5t31.5 -45.5t11.5 -55zM263 559q0 23 -16 38.5t-40 15.5q-23 0 -39.5 -15.5t-16.5 -38.5t16.5 -39t39.5 -16q24 0 40 16t16 39z" />
    <glyph glyph-name="afii61248" unicode="&#x2105;" horiz-adv-x="751" 
d="M586 357q57 0 89 -27.5t38 -65.5q2 -9 2 -18.5v-20.5q-2 -41 -9 -77q-8 -35 -19 -63t-29.5 -48t-45.5 -31t-65 -11q-35 0 -59.5 10t-40 26t-22.5 36.5t-7 41.5q0 17 1.5 32.5t3.5 32.5q5 32 14 65t22 54q19 31 50 47.5t77 16.5zM201 -17h-99l504 730h99zM216 340
q-62 0 -90 34.5t-28 85.5q0 22 2.5 48.5t8.5 52t16 49.5t24 42q41 50 116 50q45 0 79.5 -23t42.5 -66l-91 -44q-5 17 -14.5 24.5t-19.5 7.5q-11 0 -19 -6.5t-13.5 -17t-9 -23t-6.5 -25.5t-4.5 -28t-1.5 -26q0 -13 4.5 -23t19.5 -10q9 0 20.5 7.5t24.5 24.5l40 -22t41 -22
q-25 -46 -61 -68t-81 -22zM553 98q10 0 17.5 6.5t12.5 16.5t8.5 22t5.5 24q4 18 6.5 35t2.5 29t-7.5 19t-19.5 7t-20.5 -9.5t-12.5 -20.5t-7 -24.5t-5.5 -27t-4 -26t-1.5 -19.5q0 -13 5.5 -22.5t19.5 -9.5z" />
    <glyph glyph-name="fahrenheit" unicode="&#x2109;" horiz-adv-x="780" 
d="M578 558l-29 -147h221l-26 -132h-221l-55 -283h-143l135 696h401l-26 -134h-257zM354 559q0 -30 -11.5 -55.5t-31.5 -45t-46.5 -30.5t-57.5 -11q-30 0 -57 11t-47 30.5t-31.5 45t-11.5 55.5q0 29 11.5 55t31.5 45.5t47 30.5t57 11q31 0 57.5 -11t46.5 -30.5t31.5 -45.5
t11.5 -55zM263 559q0 23 -16 38.5t-40 15.5q-23 0 -39.5 -15.5t-16.5 -38.5t16.5 -39t39.5 -16q24 0 40 16t16 39z" />
    <glyph glyph-name="afii61289" unicode="&#x2113;" horiz-adv-x="470" 
d="M434 158q-41 -85 -95.5 -126.5t-120.5 -41.5q-62 0 -97.5 35.5t-35.5 94.5q0 10 1.5 23.5t6.5 39.5q-2 -1 -8.5 -5.5t-14 -9t-14.5 -9t-10 -5.5l-25 67q5 3 18.5 11.5t28 18t27.5 18t17 12.5l38 200q12 60 32.5 102t46.5 69t56.5 39t63.5 12q19 0 37 -6t32.5 -18.5
t23 -32t8.5 -46.5q0 -46 -17 -89t-48.5 -86t-76 -87t-100.5 -92q-5 -26 -9 -51t-4 -34q0 -38 16 -55.5t36 -17.5q26 0 56.5 27t53.5 79zM231 370q24 26 46.5 51.5t40 51.5t28.5 52.5t11 55.5q0 14 -7 24t-23 10q-18 0 -38 -27.5t-33 -90.5z" />
    <glyph glyph-name="afii61352" unicode="&#x2116;" horiz-adv-x="879" 
d="M394 324q2 0 2.5 0.5t1.5 0.5l72 371h144l-135 -696h-127l-57 198q-13 44 -25.5 87.5t-24.5 88.5q-2 0 -2 -0.5t-2 -0.5l-72 -373h-145l135 696h128q14 -48 28.5 -94.5t27.5 -94.5zM785 702q55 0 86 -25.5t37 -61.5q2 -8 2 -17v-19q-2 -38 -9 -71t-18 -59t-29 -44.5
t-44.5 -28.5t-63.5 -10q-34 0 -58 9t-39 24t-21.5 34t-6.5 39q0 15 1.5 30t3.5 30q5 30 13.5 60.5t21.5 50.5q18 29 48.5 44t75.5 15zM612 328h244l-16 -84h-244zM750 456q10 0 17.5 6.5t13 16.5t8.5 22l6 24q4 17 6.5 34t2.5 29q0 11 -7.5 18t-19.5 7q-13 0 -21.5 -9
t-12.5 -20t-7.5 -24.5t-6 -27t-4 -25.5t-1.5 -19q0 -13 5.5 -22.5t20.5 -9.5z" />
    <glyph glyph-name="published" unicode="&#x2117;" horiz-adv-x="762" 
d="M378 -12q-75 0 -136 26t-104 73t-66.5 112t-23.5 142t23.5 142t66.5 112.5t104 74.5t136 27q74 0 135 -26.5t104.5 -74t67 -112.5t23.5 -143q0 -76 -23.5 -140.5t-67 -112t-104.5 -74t-135 -26.5zM378 619q-57 0 -102 -21.5t-76.5 -59t-48.5 -88.5t-17 -109
q0 -57 17.5 -107.5t49.5 -87.5t77 -58.5t100 -21.5q56 0 101.5 21.5t77 58.5t48.5 87.5t17 107.5q0 60 -17.5 110.5t-49 88t-77 58.5t-100.5 21zM406 549q63 0 101 -33.5t38 -107.5q0 -64 -36.5 -103t-101.5 -39h-49v-149h-97v432h145zM358 460v-104h42q21 0 36.5 12
t15.5 42q0 26 -13.5 38t-36.5 12h-44z" />
    <glyph glyph-name="trademark" unicode="&#x2122;" horiz-adv-x="869" 
d="M704 527l-24 -67q-14 -35 -29 -69.5t-29 -69.5h-57q-5 13 -11 26t-12.5 29t-15 36.5t-19.5 47.5q-6 17 -12 33.5t-13 33.5h-3v-241h-92v409h111l51 -117q12 -27 22.5 -54t21.5 -53h2l43 106l52 118h111v-409h-94v241h-3zM241 607v-321h-96v321h-104v89h304v-89h-104z" />
    <glyph glyph-name="Ohm" unicode="&#x2126;" horiz-adv-x="537" 
d="M347 702q57 0 97 -20.5t63.5 -54.5t31 -78.5t-1.5 -92.5l-28 -154q-4 -22 -9 -42t-12 -41q-16 -55 -51 -84v-2h52l-25 -133h-212l26 134q20 4 32.5 16t21 28.5t13 35t8.5 36.5l43 227q3 16 0.5 31.5t-10.5 27.5t-22.5 19t-35.5 7q-40 0 -61 -25t-29 -66l-44 -232
q-3 -14 -3.5 -29t3 -29t11.5 -25t23 -16l-27 -140h-210q7 33 13 66t12 67h50q1 1 1 0.5t1 1.5q-12 14 -16.5 32t-4.5 37.5t3.5 39.5t6.5 38l35 174q10 52 27.5 97t46.5 78t73 52t108 19z" />
    <glyph glyph-name="angstrom" unicode="&#x212b;" horiz-adv-x="548" 
d="M350 0l-4 143h-164l-65 -143h-154l334 696h15q-20 11 -32.5 30.5t-12.5 43.5q0 26 9 49.5t25.5 41.5t40.5 28.5t53 10.5q21 0 39.5 -6.5t32 -18.5t21.5 -28.5t8 -35.5q0 -37 -18 -68t-50 -47h12l63 -696h-153zM337 370v139h-5l-54 -138l-39 -100h99zM376 756
q16 0 29 11.5t13 29.5q0 11 -8.5 19t-21.5 8q-17 0 -30 -11.5t-13 -28.5q0 -12 9 -20t22 -8z" />
    <glyph glyph-name="estimated" unicode="&#x212e;" horiz-adv-x="817" 
d="M209 291v-150q15 -22 36 -40t46 -30.5t52.5 -19.5t55.5 -7q60 0 112 27.5t89 74.5h96q-59 -72 -136.5 -114.5t-161.5 -42.5q-71 0 -133.5 25.5t-109 69.5t-73.5 103.5t-27 127.5q0 69 27 128.5t73.5 104t109 70t133.5 25.5q73 0 134.5 -26.5t107.5 -73t72.5 -111.5
t29.5 -141h-533zM586 493q-13 22 -33.5 39t-45.5 29t-53 18.5t-55 6.5q-48 0 -99 -26t-91 -71v-147h377v151z" />
    <glyph glyph-name="onethird" unicode="&#x2153;" horiz-adv-x="770" 
d="M168 -17h-100l511 730h100zM597 422q60 0 88 -29.5t28 -74.5q0 -12 -3 -26.5t-9.5 -28.5t-18.5 -26.5t-30 -20.5q19 -7 25 -22t6 -35q0 -32 -9 -61.5t-28 -52t-47.5 -35.5t-68.5 -13q-23 0 -43.5 6.5t-37 19t-26 32.5t-9.5 47v13l96 12v-6q0 -19 9.5 -25t17.5 -6
q13 0 21 6t12 14t5.5 17.5t1.5 16.5q0 14 -6.5 23.5t-25.5 9.5h-31l15 78h33q25 0 34.5 16t9.5 33q0 10 -4.5 18.5t-19.5 8.5q-10 0 -21 -9.5t-19 -35.5l-93 15q7 32 22 55t34.5 37.5t43 21.5t48.5 7zM132 279l59 304l-69 -42l20 105l86 50h89l-81 -417h-104z" />
    <glyph glyph-name="twothirds" unicode="&#x2154;" horiz-adv-x="770" 
d="M91 573q9 31 24.5 55t36.5 40t45 24.5t50 8.5q55 0 85 -25t30 -73q0 -29 -13.5 -54.5t-38.5 -51.5l-118 -126h122l-18 -92h-258l15 81l183 187q20 20 20 43q0 8 -5.5 14t-17.5 6t-24 -11t-20 -39zM217 -17h-100l511 730h100zM634 422q60 0 88 -29.5t28 -74.5
q0 -12 -3 -26.5t-9.5 -28.5t-18.5 -26.5t-30 -20.5q19 -7 25 -22t6 -35q0 -32 -9 -61.5t-28 -52t-47.5 -35.5t-68.5 -13q-23 0 -43.5 6.5t-37 19t-26 32.5t-9.5 47v13l96 12v-6q0 -19 9.5 -25t17.5 -6q13 0 21 6t12 14t5.5 17.5t1.5 16.5q0 14 -6.5 23.5t-25.5 9.5h-31
l15 78h33q25 0 34.5 16t9.5 33q0 10 -4.5 18.5t-19.5 8.5q-10 0 -21 -9.5t-19 -35.5l-93 15q7 32 22 55t34.5 37.5t43 21.5t48.5 7z" />
    <glyph glyph-name="onefifth" unicode="&#x2155;" horiz-adv-x="770" 
d="M159 -17h-100l511 730h100zM125 279l59 304l-69 -42l20 105l86 50h89l-81 -417h-104zM617 289q27 0 44 -9.5t25.5 -27t9.5 -42t-3 -55.5q-11 -80 -46.5 -119.5t-107.5 -39.5q-26 0 -48 6.5t-38 21t-25 36.5t-8 53l102 14q-2 -25 6 -32t19 -7q22 0 30.5 21t12.5 46
q1 7 1.5 15.5t-1.5 16t-7 12t-15 4.5q-6 0 -16 -5t-19 -22h-89l47 241h243l-18 -89h-145l-12 -55q13 8 30 12t28 4z" />
    <glyph glyph-name="twofifths" unicode="&#x2156;" horiz-adv-x="770" 
d="M203 -17h-100l511 730h100zM84 573q9 31 24.5 55t36.5 40t45 24.5t50 8.5q55 0 85 -25t30 -73q0 -29 -13.5 -54.5t-38.5 -51.5l-118 -126h122l-18 -92h-258l15 81l183 187q20 20 20 43q0 8 -5.5 14t-17.5 6t-24 -11t-20 -39zM654 289q27 0 44 -9.5t25.5 -27t9.5 -42
t-3 -55.5q-11 -80 -46.5 -119.5t-107.5 -39.5q-26 0 -48 6.5t-38 21t-25 36.5t-8 53l102 14q-2 -25 6 -32t19 -7q22 0 30.5 21t12.5 46q1 7 1.5 15.5t-1.5 16t-7 12t-15 4.5q-6 0 -16 -5t-19 -22h-89l47 241h243l-18 -89h-145l-12 -55q13 8 30 12t28 4z" />
    <glyph glyph-name="threefifths" unicode="&#x2157;" horiz-adv-x="770" 
d="M651 289q27 0 44 -9.5t25.5 -27t9.5 -42t-3 -55.5q-11 -80 -46.5 -119.5t-107.5 -39.5q-26 0 -48 6.5t-38 21t-25 36.5t-8 53l102 14q-2 -25 6 -32t19 -7q22 0 30.5 21t12.5 46q1 7 1.5 15.5t-1.5 16t-7 12t-15 4.5q-6 0 -16 -5t-19 -22h-89l47 241h243l-18 -89h-145
l-12 -55q13 8 30 12t28 4zM196 -17h-100l511 730h100zM240 701q60 0 88 -29.5t28 -74.5q0 -12 -3 -26.5t-9.5 -28.5t-18.5 -26.5t-30 -20.5q19 -7 25 -22t6 -35q0 -32 -9 -61.5t-28 -52t-47.5 -35.5t-68.5 -13q-23 0 -43.5 6.5t-37 19t-26 32.5t-9.5 47v13l96 12v-6
q0 -19 9.5 -25t17.5 -6q13 0 21 6t12 14t5.5 17.5t1.5 16.5q0 14 -6.5 23.5t-25.5 9.5h-31l15 78h33q25 0 34.5 16t9.5 33q0 10 -4.5 18.5t-19.5 8.5q-10 0 -21 -9.5t-19 -35.5l-93 15q7 32 22 55t34.5 37.5t43 21.5t48.5 7z" />
    <glyph glyph-name="fourfifths" unicode="&#x2158;" horiz-adv-x="770" 
d="M210 -17h-100l511 730h100zM291 336l-11 -57h-94l11 57h-164l14 74l179 286h101l-169 -273h57l18 79h90l-15 -79h30l-17 -87h-30zM659 289q27 0 44 -9.5t25.5 -27t9.5 -42t-3 -55.5q-11 -80 -46.5 -119.5t-107.5 -39.5q-26 0 -48 6.5t-38 21t-25 36.5t-8 53l102 14
q-2 -25 6 -32t19 -7q22 0 30.5 21t12.5 46q1 7 1.5 15.5t-1.5 16t-7 12t-15 4.5q-6 0 -16 -5t-19 -22h-89l47 241h243l-18 -89h-145l-12 -55q13 8 30 12t28 4z" />
    </font>
</defs>
</svg>
